<svg width="25" height="35" viewBox="0 0 25 35" fill="none" xmlns="http://www.w3.org/2000/svg">
<circle cx="12" cy="12" r="10" fill="white"/>
<path fill-rule="evenodd" clip-rule="evenodd" d="M3.18413 3.91306C5.08635 1.86862 6.8819 0.837509 9.60191 0.197509C11.113 -0.158047 14.0463 -0.0158261 15.6463 0.481952C17.6552 1.10417 19.0419 1.97528 20.713 3.66417C23.1308 6.09973 24.1441 8.55306 24.1619 12.0375C24.1797 14.3308 23.9308 15.3797 22.8819 17.5308C22.1175 19.1131 21.8864 19.3975 19.3797 21.8864C15.0597 26.1886 12.9263 29.8864 12.3041 34.1353C12.2697 34.3793 11.918 34.3783 11.8775 34.1353C11.1308 29.6553 9.1219 26.1886 4.81968 21.9042C1.88635 18.9886 1.22857 18.0108 0.428571 15.4153C-0.104762 13.7086 -0.140317 10.7575 0.321905 9.01529C0.83746 7.09529 1.79746 5.38862 3.18413 3.91306ZM17.965 11.999H18.498C18.6306 11.999 18.7578 12.0527 18.8516 12.1464C18.9453 12.2402 18.998 12.3674 18.998 12.5C18.998 12.6326 18.9453 12.7598 18.8516 12.8535C18.7578 12.9473 18.6306 13 18.498 13H17.965C17.8645 14.107 17.4288 15.1571 16.716 16.01L17.094 16.388L17.106 16.4C17.1976 16.4954 17.2476 16.6233 17.2451 16.7556C17.2426 16.8878 17.1878 17.0137 17.0927 17.1056C16.9976 17.1976 16.8699 17.2481 16.7376 17.2461C16.6054 17.2441 16.4793 17.1898 16.387 17.095L16.008 16.717C15.1551 17.4299 14.105 17.8656 12.998 17.966V18.499C12.998 18.6316 12.9453 18.7588 12.8516 18.8525C12.7578 18.9463 12.6306 18.999 12.498 18.999C12.3654 18.999 12.2382 18.9463 12.1444 18.8525C12.0507 18.7588 11.998 18.6316 11.998 18.499V17.966C10.8906 17.8658 9.84014 17.4301 8.987 16.717L8.609 17.095L8.597 17.108C8.50152 17.2001 8.37334 17.2506 8.24066 17.2483C8.10798 17.2459 7.98166 17.191 7.8895 17.0955C7.79734 17 7.74688 16.8718 7.74922 16.7391C7.75157 16.6065 7.80652 16.4801 7.902 16.388L8.28 16.01C7.56786 15.1568 7.13284 14.1068 7.033 13H6.5C6.36739 13 6.24021 12.9473 6.14645 12.8535C6.05268 12.7598 6 12.6326 6 12.5C6 12.3674 6.05268 12.2402 6.14645 12.1464C6.24021 12.0527 6.36739 12 6.5 12H7.034C7.13265 10.8911 7.56773 9.83877 8.281 8.98398L7.903 8.60698C7.81192 8.51268 7.76152 8.38638 7.76266 8.25528C7.7638 8.12419 7.81639 7.99878 7.90909 7.90608C8.00179 7.81337 8.1272 7.76079 8.2583 7.75965C8.3894 7.75851 8.5157 7.80891 8.61 7.89998L8.989 8.28198C9.84193 7.56917 10.892 7.13346 11.999 7.03298V6.49998C11.999 6.36738 12.0517 6.2402 12.1454 6.14643C12.2392 6.05266 12.3664 5.99998 12.499 5.99998C12.6316 5.99998 12.7588 6.05266 12.8526 6.14643C12.9463 6.2402 12.999 6.36738 12.999 6.49998V7.03298C14.1063 7.13297 15.1567 7.56835 16.01 8.28098L16.388 7.90298L16.4 7.89098C16.4955 7.7994 16.6233 7.74938 16.7556 7.75187C16.8878 7.75437 17.0137 7.80917 17.1057 7.90428C17.1976 7.99939 17.2481 8.12707 17.2461 8.25933C17.2441 8.3916 17.1898 8.51769 17.095 8.60998L16.717 8.98898C17.4295 9.842 17.8649 10.8921 17.965 11.999ZM15.291 8.99998C14.632 8.47298 13.8368 8.14419 12.998 8.05198V11.092C13.0466 11.1088 13.0944 11.1282 13.141 11.15L15.291 8.99998ZM11.998 11.092V8.05198C11.1592 8.14419 10.365 8.47298 9.706 8.99998L11.856 11.15C11.9023 11.1282 11.9497 11.1089 11.998 11.092ZM11.148 11.857L8.998 9.70698C8.47099 10.366 8.14221 11.1612 8.05 12H11.092C11.1082 11.9514 11.1269 11.9037 11.148 11.857ZM11.091 13H8.05C8.14239 13.8389 8.47154 14.6342 8.999 15.293L11.149 13.143C11.127 13.096 11.108 13.048 11.091 13ZM9.707 15.998C10.3659 16.5254 11.1611 16.8545 12 16.947V13.906C11.952 13.889 11.904 13.87 11.857 13.848L9.707 15.998ZM13 13.907V16.947C13.8388 16.8549 14.6341 16.5261 15.293 15.999L13.143 13.849C13.096 13.87 13.049 13.89 13 13.907ZM15.9994 15.2904L13.85 13.141C13.872 13.095 13.891 13.047 13.908 12.998H16.949C16.8563 13.8367 16.527 14.6318 15.9994 15.2904ZM13.849 11.857C13.8708 11.9036 13.8902 11.9513 13.907 12L16.947 11.999C16.8546 11.1606 16.5258 10.3657 15.999 9.70698L13.849 11.857Z" fill="#9D9EBF"/>
</svg>
