<svg width="25" height="35" viewBox="0 0 25 35" fill="none" xmlns="http://www.w3.org/2000/svg">
<circle cx="12" cy="12" r="10" fill="white"/>
<path d="M3.18413 3.91306C5.08635 1.86862 6.88191 0.837509 9.60189 0.197509C11.113 -0.158047 14.0464 -0.0158259 15.6464 0.481952C17.6552 1.10417 19.0419 1.97528 20.713 3.66417C23.1308 6.09973 24.1441 8.55306 24.1619 12.0375C24.1797 14.3308 23.9308 15.3797 22.8819 17.5308C22.1175 19.1131 21.8864 19.3975 19.3797 21.8864C15.0597 26.1886 12.9264 29.8864 12.3041 34.1353C12.2697 34.3793 11.918 34.3783 11.8775 34.1353C11.1308 29.6553 9.12191 26.1886 4.81968 21.9042C1.88635 18.9886 1.22857 18.0108 0.428571 15.4153C-0.104762 13.7086 -0.140317 10.7575 0.321905 9.01528C0.837458 7.09528 1.79746 5.38862 3.18413 3.91306ZM7.50075 16.082C7.61275 16.194 7.75139 16.25 7.91667 16.25H16.0833C16.2486 16.25 16.3871 16.194 16.4987 16.082C16.6107 15.9704 16.6667 15.8319 16.6667 15.6666C16.6667 15.5014 16.6107 15.3629 16.4987 15.2513C16.3871 15.1393 16.2486 15.0833 16.0833 15.0833H7.91667C7.75139 15.0833 7.61275 15.1393 7.50075 15.2513C7.38914 15.3629 7.33333 15.5014 7.33333 15.6666C7.33333 15.8319 7.38914 15.9704 7.50075 16.082ZM8.01875 13.2312C8.4757 13.6882 9.025 13.9166 9.66669 13.9166H13.1667C13.8083 13.9166 14.3577 13.6882 14.8146 13.2312C15.2715 12.7743 15.5 12.225 15.5 11.5833V9.83332H16.6667C16.9875 9.83332 17.2623 9.71898 17.4909 9.49032C17.7192 9.26204 17.8333 8.98748 17.8333 8.66665V6.91665C17.8333 6.59582 17.7192 6.32107 17.4909 6.0924C17.2623 5.86412 16.9875 5.74998 16.6667 5.74998H8.5C8.17917 5.74998 7.90461 5.86412 7.67633 6.0924C7.44767 6.32107 7.33333 6.59582 7.33333 6.91665V11.5833C7.33333 12.225 7.56181 12.7743 8.01875 13.2312ZM16.6667 8.66665H15.5V6.91665H16.6667V8.66665Z" fill="#FAA264"/>
</svg>
