<svg width="25" height="35" viewBox="0 0 25 35" fill="none" xmlns="http://www.w3.org/2000/svg">
<circle cx="12" cy="12" r="10" fill="white"/>
<path d="M3.18413 3.91306C5.08635 1.86862 6.88191 0.837509 9.6019 0.197509C11.113 -0.158047 14.0463 -0.0158259 15.6463 0.481952C17.6552 1.10417 19.0419 1.97528 20.713 3.66417C23.1308 6.09973 24.1441 8.55306 24.1619 12.0375C24.1797 14.3308 23.9308 15.3797 22.8819 17.5308C22.1175 19.1131 21.8864 19.3975 19.3797 21.8864C15.0597 26.1886 12.9263 29.8864 12.3041 34.1353C12.2697 34.3793 11.918 34.3783 11.8775 34.1353C11.1308 29.6553 9.12191 26.1886 4.81968 21.9042C1.88635 18.9886 1.22857 18.0108 0.428572 15.4153C-0.104762 13.7086 -0.140317 10.7575 0.321905 9.01528C0.837461 7.09528 1.79746 5.38862 3.18413 3.91306ZM8.5 15.3896V15.0833H15.5V15.375C15.5 15.618 15.5852 15.8245 15.7555 15.9945C15.9254 16.1648 16.1319 16.25 16.375 16.25C16.6278 16.25 16.8368 16.1673 17.0021 16.0021C17.1674 15.8368 17.25 15.6326 17.25 15.3896V11L16.025 7.49998C15.9667 7.32498 15.8623 7.18401 15.7118 7.07707C15.5609 6.97012 15.3931 6.91665 15.2083 6.91665H8.79167C8.60694 6.91665 8.43933 6.97012 8.28883 7.07707C8.13794 7.18401 8.03333 7.32498 7.975 7.49998L6.75 11V15.375C6.75 15.618 6.83517 15.8245 7.0055 15.9945C7.17544 16.1648 7.38194 16.25 7.625 16.25C7.87778 16.25 8.08681 16.1673 8.25208 16.0021C8.41736 15.8368 8.5 15.6326 8.5 15.3896ZM15.6167 9.83332H8.38333L8.99583 8.08332H15.0042L15.6167 9.83332ZM9.9945 13.0778C9.82456 13.2481 9.61806 13.3333 9.375 13.3333C9.13194 13.3333 8.92544 13.2481 8.7555 13.0778C8.58517 12.9079 8.5 12.7014 8.5 12.4583C8.5 12.2153 8.58517 12.0088 8.7555 11.8388C8.92544 11.6685 9.13194 11.5833 9.375 11.5833C9.61806 11.5833 9.82456 11.6685 9.9945 11.8388C10.1648 12.0088 10.25 12.2153 10.25 12.4583C10.25 12.7014 10.1648 12.9079 9.9945 13.0778ZM15.2445 13.0778C15.0746 13.2481 14.8681 13.3333 14.625 13.3333C14.3819 13.3333 14.1754 13.2481 14.0055 13.0778C13.8352 12.9079 13.75 12.7014 13.75 12.4583C13.75 12.2153 13.8352 12.0088 14.0055 11.8388C14.1754 11.6685 14.3819 11.5833 14.625 11.5833C14.8681 11.5833 15.0746 11.6685 15.2445 11.8388C15.4148 12.0088 15.5 12.2153 15.5 12.4583C15.5 12.7014 15.4148 12.9079 15.2445 13.0778Z" fill="#7FA8D4"/>
</svg>
