<svg width="25" height="35" viewBox="0 0 25 35" fill="none" xmlns="http://www.w3.org/2000/svg">
<circle cx="12" cy="12" r="10" fill="white"/>
<path fill-rule="evenodd" clip-rule="evenodd" d="M3.18413 3.91306C5.08635 1.86862 6.8819 0.837509 9.60191 0.197509C11.113 -0.158047 14.0463 -0.0158261 15.6463 0.481952C17.6552 1.10417 19.0419 1.97528 20.713 3.66417C23.1308 6.09973 24.1441 8.55306 24.1619 12.0375C24.1797 14.3308 23.9308 15.3797 22.8819 17.5308C22.1175 19.1131 21.8864 19.3975 19.3797 21.8864C15.0597 26.1886 12.9263 29.8864 12.3041 34.1353C12.2697 34.3793 11.918 34.3783 11.8775 34.1353C11.1308 29.6553 9.1219 26.1886 4.81968 21.9042C1.88635 18.9886 1.22857 18.0108 0.428571 15.4153C-0.104762 13.7086 -0.140317 10.7575 0.321905 9.01529C0.83746 7.09529 1.79746 5.38862 3.18413 3.91306ZM8.86933 18H14.5707C14.7597 18 14.941 17.9239 15.0746 17.7885C15.2083 17.653 15.2834 17.4693 15.2834 17.2778V11.5867L16.2098 12.3089C16.4878 12.5833 16.9368 12.5833 17.2147 12.3089L19.2316 10.265C19.5095 9.98332 19.5095 9.52832 19.2316 9.24665L15.0411 4.99999H13.858C13.858 5.79443 12.903 6.44443 11.72 6.44443C10.537 6.44443 9.582 5.79443 9.582 4.99999H8.39897L4.20847 9.24665C3.93053 9.52832 3.93053 9.98332 4.20847 10.265L6.22533 12.2728C6.50327 12.5544 6.95225 12.5544 7.23019 12.2728L8.15666 11.5505V17.2778C8.15666 17.4693 8.23175 17.653 8.3654 17.7885C8.49905 17.9239 8.68032 18 8.86933 18Z" fill="#6AA7F7"/>
</svg>
