<svg width="25" height="35" viewBox="0 0 25 35" fill="none" xmlns="http://www.w3.org/2000/svg">
<circle cx="12" cy="11.6589" r="10" fill="white"/>
<path d="M3.18413 3.91306C5.08635 1.86862 6.8819 0.837509 9.6019 0.197509C11.113 -0.158047 14.0463 -0.0158261 15.6463 0.481952C17.6552 1.10417 19.0419 1.97529 20.713 3.66418C23.1308 6.09973 24.1441 8.55307 24.1619 12.0375C24.1797 14.3308 23.9308 15.3797 22.8819 17.5308C22.1175 19.1131 21.8864 19.3975 19.3797 21.8864C15.0597 26.1886 12.9263 29.8864 12.3041 34.1353C12.2697 34.3793 11.918 34.3783 11.8775 34.1353C11.1308 29.6553 9.1219 26.1886 4.81968 21.9042C1.88635 18.9886 1.22857 18.0108 0.428571 15.4153C-0.104762 13.7086 -0.140318 10.7575 0.321904 9.01529C0.83746 7.09529 1.79746 5.38862 3.18413 3.91306ZM18.192 14.1413C18.3196 14.2693 18.4778 14.3333 18.6667 14.3333C18.8556 14.3333 19.0138 14.2693 19.1413 14.1413C19.2693 14.0138 19.3333 13.8555 19.3333 13.6666V9.39998C19.3333 9.27776 19.3029 9.16376 19.242 9.05798C19.1807 8.95265 19.0944 8.87221 18.9833 8.81665L12.6333 5.34998C12.5333 5.29443 12.4307 5.25265 12.3253 5.22465C12.2196 5.19709 12.1111 5.18332 12 5.18332C11.8889 5.18332 11.7804 5.19709 11.6747 5.22465C11.5693 5.25265 11.4667 5.29443 11.3667 5.34998L5.73333 8.41665C5.62222 8.47221 5.53622 8.55287 5.47533 8.65865C5.414 8.76398 5.38333 8.87776 5.38333 8.99998C5.38333 9.12221 5.414 9.23598 5.47533 9.34132C5.53622 9.44709 5.62222 9.52776 5.73333 9.58332L11.35 12.65C11.45 12.7055 11.5529 12.7471 11.6587 12.7746C11.764 12.8026 11.8778 12.8167 12 12.8167C12.1222 12.8167 12.236 12.8026 12.3413 12.7746C12.4471 12.7471 12.55 12.7055 12.65 12.65L18 9.73332V13.6666C18 13.8555 18.064 14.0138 18.192 14.1413ZM11.6747 16.7753C11.7804 16.8029 11.8889 16.8167 12 16.8167C12.1111 16.8167 12.2196 16.8029 12.3253 16.7753C12.4307 16.7473 12.5333 16.7055 12.6333 16.65L15.9667 14.85C16.1889 14.7278 16.3611 14.564 16.4833 14.3587C16.6056 14.1529 16.6667 13.9222 16.6667 13.6666V11.1333L12.9 13.1667C12.7556 13.2444 12.6084 13.3166 12.4587 13.3833C12.3084 13.45 12.1556 13.4833 12 13.4833C11.8444 13.4833 11.6944 13.4527 11.55 13.3913C11.4056 13.3304 11.2611 13.2611 11.1167 13.1833L7.33333 11.1333V13.6666C7.33333 13.9222 7.39444 14.1529 7.51667 14.3587C7.63889 14.564 7.81111 14.7278 8.03333 14.85L11.3667 16.65C11.4667 16.7055 11.5693 16.7473 11.6747 16.7753Z" fill="#B7B6BA"/>
</svg>
