<svg width="25" height="35" viewBox="0 0 25 35" fill="none" xmlns="http://www.w3.org/2000/svg">
<circle cx="12" cy="11.6589" r="10" fill="white"/>
<path d="M3.18413 3.91306C5.08635 1.86862 6.88191 0.837509 9.6019 0.197509C11.113 -0.158047 14.0463 -0.0158259 15.6463 0.481952C17.6552 1.10417 19.0419 1.97528 20.713 3.66417C23.1308 6.09973 24.1441 8.55306 24.1619 12.0375C24.1797 14.3308 23.9308 15.3797 22.8819 17.5308C22.1175 19.1131 21.8864 19.3975 19.3797 21.8864C15.0597 26.1886 12.9263 29.8864 12.3041 34.1353C12.2697 34.3793 11.918 34.3783 11.8775 34.1353C11.1308 29.6553 9.12191 26.1886 4.81968 21.9042C1.88635 18.9886 1.22857 18.0108 0.428572 15.4153C-0.104762 13.7086 -0.140317 10.7575 0.321905 9.01528C0.83746 7.09528 1.79746 5.38862 3.18413 3.91306ZM7.67633 16.4909C7.90461 16.7192 8.17917 16.8333 8.5 16.8333H15.5C15.8208 16.8333 16.0956 16.7192 16.3242 16.4909C16.5525 16.2622 16.6667 15.9875 16.6667 15.6666V6.33332C16.6667 6.01248 16.5525 5.73773 16.3242 5.50907C16.0956 5.28079 15.8208 5.16665 15.5 5.16665H8.5C8.17917 5.16665 7.90461 5.28079 7.67633 5.50907C7.44767 5.73773 7.33333 6.01248 7.33333 6.33332V15.6666C7.33333 15.9875 7.44767 16.2622 7.67633 16.4909ZM14.0638 14.2305C13.4949 14.799 12.8069 15.0833 12 15.0833C11.1931 15.0833 10.5053 14.799 9.93675 14.2305C9.36781 13.6615 9.08333 12.9736 9.08333 12.1666C9.08333 11.3597 9.36781 10.6718 9.93675 10.1028C10.5053 9.53426 11.1931 9.24998 12 9.24998C12.8069 9.24998 13.4949 9.53426 14.0638 10.1028C14.6324 10.6718 14.9167 11.3597 14.9167 12.1666C14.9167 12.9736 14.6324 13.6615 14.0638 14.2305ZM11.2493 13.9458C11.4873 14.043 11.7375 14.0916 12 14.0916C12.525 14.0916 12.9771 13.9021 13.3562 13.5229C13.7354 13.1437 13.925 12.6916 13.925 12.1666C13.925 11.9042 13.8764 11.6537 13.7792 11.4153C13.6819 11.1773 13.5458 10.9708 13.3708 10.7958L10.6292 13.5375C10.8042 13.7125 11.0109 13.8486 11.2493 13.9458ZM10.0826 7.9159C9.97058 8.02751 9.83194 8.08332 9.66667 8.08332C9.50139 8.08332 9.36275 8.02751 9.25075 7.9159C9.13914 7.8039 9.08333 7.66526 9.08333 7.49998C9.08333 7.3347 9.13914 7.19607 9.25075 7.08407C9.36275 6.97246 9.50139 6.91665 9.66667 6.91665C9.83194 6.91665 9.97058 6.97246 10.0826 7.08407C10.1942 7.19607 10.25 7.3347 10.25 7.49998C10.25 7.66526 10.1942 7.8039 10.0826 7.9159ZM11.8326 7.9159C11.7206 8.02751 11.5819 8.08332 11.4167 8.08332C11.2514 8.08332 11.1129 8.02751 11.0013 7.9159C10.8893 7.8039 10.8333 7.66526 10.8333 7.49998C10.8333 7.3347 10.8893 7.19607 11.0013 7.08407C11.1129 6.97246 11.2514 6.91665 11.4167 6.91665C11.5819 6.91665 11.7206 6.97246 11.8326 7.08407C11.9442 7.19607 12 7.3347 12 7.49998C12 7.66526 11.9442 7.8039 11.8326 7.9159Z" fill="#98A5B3"/>
</svg>
