<svg width="25" height="35" viewBox="0 0 25 35" fill="none" xmlns="http://www.w3.org/2000/svg">
<circle cx="12" cy="12" r="10" fill="white"/>
<path d="M3.18413 3.91306C5.08635 1.86862 6.88191 0.837508 9.60191 0.197509C11.113 -0.158048 14.0464 -0.0158242 15.6464 0.481952C17.6552 1.10417 19.0419 1.97528 20.713 3.66417C23.1308 6.09973 24.1441 8.55306 24.1619 12.0375C24.1797 14.3308 23.9308 15.3797 22.8819 17.5308C22.1175 19.1131 21.8864 19.3975 19.3797 21.8864C15.0597 26.1886 12.9264 29.8864 12.3041 34.1353C12.2697 34.3793 11.918 34.3783 11.8775 34.1353C11.1308 29.6553 9.12191 26.1886 4.81968 21.9042C1.88635 18.9886 1.22857 18.0108 0.428572 15.4153C-0.104762 13.7086 -0.140317 10.7575 0.321905 9.01528C0.83746 7.09528 1.79746 5.38862 3.18413 3.91306ZM11.0159 6.57081L12.521 4.82276L14.0249 6.57081L14.8904 15.5601H10.1504L11.0159 6.57081ZM12.2905 6.90431C12.2294 6.96543 12.1951 7.04833 12.1951 7.13477V8.71436C12.1951 8.8008 12.2294 8.88371 12.2905 8.94483C12.3517 9.00595 12.4346 9.04029 12.521 9.04029C12.6074 9.04029 12.6903 9.00595 12.7515 8.94483C12.8126 8.88371 12.8469 8.8008 12.8469 8.71436V7.13477C12.8469 7.04833 12.8126 6.96543 12.7515 6.90431C12.6903 6.84318 12.6074 6.80885 12.521 6.80885C12.4346 6.80885 12.3517 6.84318 12.2905 6.90431ZM12.2905 9.36158C12.2294 9.42271 12.1951 9.50561 12.1951 9.59205V15.012C12.1951 15.0984 12.2294 15.1813 12.2905 15.2424C12.3517 15.3036 12.4346 15.3379 12.521 15.3379C12.6074 15.3379 12.6903 15.3036 12.7515 15.2424C12.8126 15.1813 12.8469 15.0984 12.8469 15.012V9.59205C12.8469 9.50561 12.8126 9.42271 12.7515 9.36158C12.6903 9.30046 12.6074 9.26612 12.521 9.26612C12.4346 9.26612 12.3517 9.30046 12.2905 9.36158ZM9.47534 15.8079H8.46582L8.46094 15.803C8.38625 15.8033 8.31471 15.8331 8.2619 15.8859C8.20909 15.9387 8.17928 16.0103 8.17896 16.085V17.2422H7.38184C7.30673 17.2422 7.23469 17.272 7.18158 17.3251C7.12847 17.3783 7.09863 17.4503 7.09863 17.5254V18.6106H6V18.9951H18.9578V18.6106H17.908V17.5254C17.9076 17.4506 17.8779 17.3789 17.8251 17.3259C17.7723 17.2729 17.7008 17.2428 17.626 17.2422H16.8765V16.085C16.8755 16.0107 16.8454 15.9398 16.7927 15.8875C16.7399 15.8352 16.6688 15.8057 16.5945 15.8054H15.5667L14.6621 6.40601C14.656 6.33828 14.6286 6.27421 14.584 6.22291L12.7664 4.11842C12.71 4.05338 12.6301 4.01338 12.5443 4.00721C12.4585 4.00103 12.3737 4.02917 12.3086 4.08546L12.272 4.12208L10.4568 6.22291C10.41 6.27669 10.3825 6.34458 10.3787 6.41578L9.47534 15.8079Z" fill="#5CBDC4"/>
</svg>
