<svg width="25" height="35" viewBox="0 0 25 35" fill="none" xmlns="http://www.w3.org/2000/svg">
<circle cx="12" cy="11" r="10" fill="white"/>
<path fill-rule="evenodd" clip-rule="evenodd" d="M3.18413 3.91306C5.08635 1.86862 6.8819 0.837509 9.60191 0.197509C11.113 -0.158047 14.0463 -0.0158261 15.6463 0.481952C17.6552 1.10417 19.0419 1.97528 20.713 3.66417C23.1308 6.09973 24.1441 8.55306 24.1619 12.0375C24.1797 14.3308 23.9308 15.3797 22.8819 17.5308C22.1175 19.1131 21.8864 19.3975 19.3797 21.8864C15.0597 26.1886 12.9263 29.8864 12.3041 34.1353C12.2697 34.3793 11.918 34.3783 11.8775 34.1353C11.1308 29.6553 9.1219 26.1886 4.81968 21.9042C1.88635 18.9886 1.22857 18.0108 0.428571 15.4153C-0.104762 13.7086 -0.140317 10.7575 0.321905 9.01529C0.83746 7.09529 1.79746 5.38862 3.18413 3.91306ZM14.6224 16.4355C14.7947 16.3555 15.1551 16.1397 15.7016 15.7881C15.6664 15.7951 15.6314 15.8021 15.5966 15.809C13.3436 16.2579 11.8242 16.5607 9.94092 14.6738C8.91974 13.6523 8.40965 12.4277 8.40965 11C8.40965 9.56153 8.9227 8.33399 9.94682 7.31836C11.853 5.43292 13.4028 5.74307 15.7005 6.20291L15.7016 6.20313C14.5465 5.40137 13.3442 5 12.0975 5C10.4018 5 8.96209 5.58399 7.77647 6.74805C6.59183 7.91309 6 9.3291 6 11C6 12.6602 6.58887 14.0732 7.76859 15.2432C8.9483 16.4131 10.3732 17 12.0473 17C12.9513 17 13.8109 16.8115 14.6224 16.4355ZM15.1521 10.3115H13.3944L14.8173 11.332L14.2757 12.9971L15.7016 11.9736L17.1157 12.9971L16.5771 11.332L18 10.3115H16.2403L15.7016 8.6543L15.1521 10.3115Z" fill="#9D9EBF"/>
</svg>
