<svg width="25" height="35" viewBox="0 0 25 35" fill="none" xmlns="http://www.w3.org/2000/svg">
<circle cx="12" cy="11.6589" r="10" fill="white"/>
<path d="M3.18413 3.91306C5.08635 1.86862 6.8819 0.837509 9.60193 0.197509C11.113 -0.158047 14.0463 -0.0158261 15.6463 0.481952C17.6552 1.10417 19.0419 1.97529 20.713 3.66418C23.1308 6.09973 24.1441 8.55307 24.1619 12.0375C24.1797 14.3308 23.9308 15.3797 22.8819 17.5308C22.1174 19.1131 21.8863 19.3975 19.3797 21.8864C15.0597 26.1886 12.9263 29.8864 12.3041 34.1353C12.2697 34.3793 11.9179 34.3783 11.8774 34.1353C11.1308 29.6553 9.1219 26.1886 4.81968 21.9042C1.88635 18.9886 1.22857 18.0108 0.428572 15.4153C-0.104761 13.7086 -0.140317 10.7575 0.321902 9.01529C0.837462 7.09529 1.79746 5.38862 3.18413 3.91306ZM12 5.16667C8.77825 5.16667 6.16667 7.77825 6.16667 11C6.16667 14.2217 8.77825 16.8333 12 16.8333C15.2217 16.8333 17.8333 14.2217 17.8333 11C17.8333 7.77825 15.2217 5.16667 12 5.16667ZM11.3812 7.75628C11.2172 7.92037 11.125 8.14293 11.125 8.375V8.38083C11.125 8.6129 11.2172 8.83546 11.3812 8.99955C11.5453 9.16365 11.7679 9.25583 12 9.25583H12.0058C12.2379 9.25583 12.4604 9.16365 12.6245 8.99955C12.7886 8.83546 12.8808 8.6129 12.8808 8.38083V8.375C12.8808 8.14293 12.7886 7.92037 12.6245 7.75628C12.4604 7.59219 12.2379 7.5 12.0058 7.5H12C11.7679 7.5 11.5453 7.59219 11.3812 7.75628ZM11.3812 10.3813C11.5453 10.2172 11.7679 10.125 12 10.125H12.0058C12.2379 10.125 12.4604 10.2172 12.6245 10.3813C12.7886 10.5454 12.8808 10.7679 12.8808 11V11.0058C12.8808 11.2379 12.7886 11.4605 12.6245 11.6246C12.4604 11.7886 12.2379 11.8808 12.0058 11.8808H12C11.7679 11.8808 11.5453 11.7886 11.3812 11.6246C11.2172 11.4605 11.125 11.2379 11.125 11.0058V11C11.125 10.7679 11.2172 10.5454 11.3812 10.3813ZM11.3812 13.0063C11.5453 12.8422 11.7679 12.75 12 12.75H12.0058C12.2379 12.75 12.4604 12.8422 12.6245 13.0063C12.7886 13.1704 12.8808 13.3929 12.8808 13.625V13.6308C12.8808 13.8629 12.7886 14.0855 12.6245 14.2496C12.4604 14.4136 12.2379 14.5058 12.0058 14.5058H12C11.7679 14.5058 11.5453 14.4136 11.3812 14.2496C11.2172 14.0855 11.125 13.8629 11.125 13.6308V13.625C11.125 13.3929 11.2172 13.1704 11.3812 13.0063Z" fill="#98A5B3"/>
</svg>
