<svg width="25" height="35" viewBox="0 0 25 35" fill="none" xmlns="http://www.w3.org/2000/svg">
<circle cx="12" cy="12" r="10" fill="white"/>
<path d="M3.18413 4.25413C5.08635 2.20969 6.88191 1.17857 9.6019 0.538574C11.113 0.183017 14.0463 0.325239 15.6463 0.823017C17.6552 1.44524 19.0419 2.31635 20.713 4.00524C23.1308 6.4408 24.1441 8.89413 24.1619 12.3786C24.1797 14.6719 23.9308 15.7208 22.8819 17.8719C22.1175 19.4542 21.8864 19.7386 19.3797 22.2275C15.0597 26.5297 12.9263 30.2275 12.3041 34.4764C12.2697 34.7204 11.918 34.7194 11.8775 34.4764C11.1308 29.9964 9.12191 26.5297 4.81968 22.2453C1.88635 19.3297 1.22857 18.3519 0.428572 15.7564C-0.104762 14.0497 -0.140317 11.0986 0.321905 9.35635C0.837461 7.43635 1.79746 5.72969 3.18413 4.25413ZM8.843 16.2487C9.07128 16.4769 9.34583 16.5911 9.66667 16.5911C9.9875 16.5911 10.2622 16.4769 10.4909 16.2487C10.7192 16.02 10.8333 15.7452 10.8333 15.4244V13.0911H12.5833C13.5556 13.0911 14.3819 12.7508 15.0625 12.0702C15.7431 11.3897 16.0833 10.5633 16.0833 9.59105C16.0833 8.61883 15.7431 7.79244 15.0625 7.11189C14.3819 6.43133 13.5556 6.09105 12.5833 6.09105H9.66667C9.34583 6.09105 9.07128 6.20519 8.843 6.43347C8.61433 6.66214 8.5 6.93689 8.5 7.25772V15.4244C8.5 15.7452 8.61433 16.02 8.843 16.2487ZM12.7 10.7577H10.8333V8.42439H12.7C13.0208 8.42439 13.2956 8.53852 13.5243 8.7668C13.7525 8.99547 13.8667 9.27022 13.8667 9.59105C13.8667 9.91189 13.7525 10.1864 13.5243 10.4147C13.2956 10.6434 13.0208 10.7577 12.7 10.7577Z" fill="#7FA8D4"/>
</svg>
