<svg width="25" height="35" viewBox="0 0 25 35" fill="none" xmlns="http://www.w3.org/2000/svg">
<circle cx="12" cy="13" r="10" fill="white"/>
<path d="M3.18413 4.25412C5.08635 2.20968 6.8819 1.17857 9.6019 0.538574C11.113 0.183018 14.0463 0.325238 15.6463 0.823017C17.6552 1.44523 19.0419 2.31634 20.713 4.00523C23.1308 6.44079 24.1441 8.89412 24.1619 12.3786C24.1797 14.6719 23.9308 15.7208 22.8819 17.8719C22.1175 19.4542 21.8864 19.7386 19.3797 22.2275C15.0597 26.5297 12.9263 30.2275 12.3041 34.4764C12.2697 34.7204 11.918 34.7194 11.8775 34.4764C11.1308 29.9964 9.12191 26.5297 4.81968 22.2453C1.88635 19.3297 1.22857 18.3519 0.428571 15.7564C-0.104762 14.0497 -0.140317 11.0986 0.321905 9.35635C0.83746 7.43635 1.79746 5.72968 3.18413 4.25412ZM10.5055 18.9398C11.0935 19.2073 11.7424 19.3411 12.4521 19.3411C13.1618 19.3411 13.8109 19.2073 14.3992 18.9398C14.9872 18.6726 15.4926 18.3154 15.9153 17.8682C16.3384 17.421 16.6667 16.908 16.9 16.3293C17.1333 15.7511 17.25 15.1508 17.25 14.5286V10.7369C17.25 10.5328 17.1796 10.3603 17.0388 10.2195C16.8977 10.0783 16.725 10.0077 16.5208 10.0077C16.3167 10.0077 16.1442 10.0783 16.0034 10.2195C15.8622 10.3603 15.7917 10.5328 15.7917 10.7369V13.7994C15.7917 13.8772 15.7625 13.9453 15.7042 14.0036C15.6458 14.0619 15.5778 14.0911 15.5 14.0911C15.0625 14.0911 14.6785 14.2346 14.3479 14.5216C14.0174 14.8082 13.8229 15.1654 13.7646 15.5932C13.7549 15.671 13.7257 15.7316 13.6771 15.7752C13.6285 15.8191 13.5701 15.8411 13.5021 15.8411C13.4049 15.8411 13.3247 15.8071 13.2617 15.739C13.1984 15.671 13.1764 15.5932 13.1958 15.5057C13.2736 14.9904 13.4924 14.5506 13.8521 14.1862C14.2118 13.8214 14.6639 13.6001 15.2083 13.5223V7.23689C15.2083 7.03273 15.1379 6.86006 14.9972 6.71889C14.856 6.57811 14.6833 6.50773 14.4792 6.50773C14.275 6.50773 14.1025 6.57811 13.9617 6.71889C13.8206 6.86006 13.75 7.03273 13.75 7.23689V11.4661C13.75 11.5439 13.7208 11.6119 13.6625 11.6703C13.6042 11.7286 13.5361 11.7578 13.4583 11.7578C13.3806 11.7578 13.3125 11.7286 13.2542 11.6703C13.1958 11.6119 13.1667 11.5439 13.1667 11.4661V6.07023C13.1667 5.86606 13.0961 5.69339 12.9549 5.55223C12.8141 5.41145 12.6417 5.34106 12.4375 5.34106C12.2333 5.34106 12.0609 5.41145 11.9201 5.55223C11.7789 5.69339 11.7083 5.86606 11.7083 6.07023V11.4661C11.7083 11.5439 11.6792 11.6119 11.6208 11.6703C11.5625 11.7286 11.4944 11.7578 11.4167 11.7578C11.3389 11.7578 11.2708 11.7286 11.2125 11.6703C11.1542 11.6119 11.125 11.5439 11.125 11.4661V6.94523C11.125 6.74106 11.0544 6.56839 10.9132 6.42723C10.7725 6.28645 10.6 6.21606 10.3958 6.21606C10.1917 6.21606 10.0192 6.28645 9.87841 6.42723C9.73725 6.56839 9.66666 6.74106 9.66666 6.94523V12.0494C9.66666 12.1272 9.6375 12.1953 9.57916 12.2536C9.52083 12.3119 9.45278 12.3411 9.375 12.3411C9.29722 12.3411 9.22916 12.3119 9.17083 12.2536C9.1125 12.1953 9.08333 12.1272 9.08333 12.0494V8.69523C9.08333 8.49106 9.01294 8.31839 8.87216 8.17723C8.731 8.03645 8.55833 7.96606 8.35416 7.96606C8.15 7.96606 7.97752 8.03645 7.83675 8.17723C7.69558 8.31839 7.625 8.49106 7.625 8.69523V14.5286C7.625 15.1508 7.74419 15.7536 7.98258 16.3369C8.22058 16.9203 8.55347 17.4332 8.98125 17.8758C9.40903 18.3179 9.91711 18.6726 10.5055 18.9398Z" fill="#9D9EBF"/>
</svg>
