<svg width="24" height="34" viewBox="0 0 24 34" fill="none" xmlns="http://www.w3.org/2000/svg">
<ellipse cx="12.8437" cy="10.7863" rx="9.664" ry="9.80571" fill="white"/>
<path d="M3.35766 3.83703C5.19596 1.83231 6.93119 0.821238 9.5598 0.193672C11.0201 -0.154976 13.855 -0.0155186 15.4012 0.472588C17.3425 1.08272 18.6826 1.93691 20.2976 3.59299C22.6341 5.98122 23.6134 8.3869 23.6306 11.8036C23.6478 14.0524 23.4072 15.0809 22.3936 17.1902C21.6549 18.7418 21.4315 19.0206 19.0091 21.4612C14.8342 25.6798 12.7726 29.3057 12.1712 33.4721C12.138 33.7114 11.7981 33.7104 11.7589 33.4721C11.0373 29.0791 9.09593 25.6798 4.93826 21.4786C2.10348 18.6197 1.4678 17.6609 0.694689 15.1158C0.179275 13.4423 0.144915 10.5485 0.591606 8.84014C1.08984 6.95744 2.01758 5.28393 3.35766 3.83703ZM8.09298 13.4816C8.20122 13.5914 8.3352 13.6463 8.49492 13.6463C8.65464 13.6463 8.78862 13.5939 8.89686 13.4889C9.00472 13.3841 9.05865 13.2507 9.05865 13.0886V10.2143C9.05865 10.0522 9.00472 9.91622 8.89686 9.8064C8.78862 9.69701 8.65464 9.64228 8.49492 9.64228C8.3352 9.64228 8.20122 9.69471 8.09298 9.79958C7.98512 9.90446 7.93118 10.0379 7.93118 10.2V13.0743C7.93118 13.2363 7.98512 13.3722 8.09298 13.4816ZM11.476 13.4816C11.5838 13.5914 11.7176 13.6463 11.8773 13.6463C12.0371 13.6463 12.171 13.5939 12.2792 13.4889C12.3871 13.3841 12.441 13.2507 12.441 13.0886V10.2143C12.441 10.0522 12.3871 9.91622 12.2792 9.8064C12.171 9.69701 12.0371 9.64228 11.8773 9.64228C11.7176 9.64228 11.5838 9.69471 11.476 9.79958C11.3677 9.90446 11.3136 10.0379 11.3136 10.2V13.0743C11.3136 13.2363 11.3677 13.3722 11.476 13.4816ZM6.39501 15.7696C6.49836 15.8794 6.6299 15.9343 6.78962 15.9343H16.9509C17.1107 15.9343 17.2444 15.8794 17.3523 15.7696C17.4605 15.6601 17.5146 15.5243 17.5146 15.3623C17.5146 15.2002 17.463 15.0644 17.3596 14.955C17.2563 14.8452 17.1248 14.7903 16.965 14.7903H6.80371C6.644 14.7903 6.5102 14.8452 6.40234 14.955C6.2941 15.0644 6.23998 15.2002 6.23998 15.3623C6.23998 15.5243 6.29166 15.6601 6.39501 15.7696ZM14.8584 13.4816C14.9662 13.5914 15.1 13.6463 15.2597 13.6463C15.4195 13.6463 15.5532 13.5939 15.6611 13.4889C15.7693 13.3841 15.8234 13.2507 15.8234 13.0886V10.2143C15.8234 10.0522 15.7693 9.91622 15.6611 9.8064C15.5532 9.69701 15.4195 9.64228 15.2597 9.64228C15.1 9.64228 14.9662 9.69471 14.8584 9.79958C14.7501 9.90446 14.696 10.0379 14.696 10.2V13.0743C14.696 13.2363 14.7501 13.3722 14.8584 13.4816ZM17.1341 7.15408L12.3847 4.75168C12.2249 4.67541 12.0558 4.63729 11.8773 4.63729C11.6988 4.63729 11.5297 4.67541 11.37 4.75168L6.6205 7.16839C6.48897 7.22558 6.39275 7.31615 6.33187 7.44008C6.27061 7.56402 6.23998 7.69272 6.23998 7.82618C6.23998 8.01685 6.31045 8.17643 6.45138 8.30495C6.59231 8.43384 6.75674 8.49829 6.94465 8.49829H16.8241C17.012 8.49829 17.1742 8.43384 17.3106 8.30495C17.4466 8.17643 17.5146 8.01685 17.5146 7.82618C17.5146 7.68319 17.4818 7.55201 17.416 7.43265C17.3502 7.31367 17.2563 7.22082 17.1341 7.15408Z" fill="#299091"/>
</svg>
