<svg xmlns="http://www.w3.org/2000/svg" viewBox="0 0 25 35" height="35" width="25"><title>art_gallery.svg</title><rect fill="none" x="0" y="0" width="25" height="35"></rect><rect x="0" y="0" width="25" height="35" rx="12.5" ry="12.5" fill="#5cbdc4"></rect><path fill="#54585c" transform="translate(0 0)" d="M3.18413 3.91306C5.08635 1.86862 6.88191 0.837506 9.6019 0.197506C11.113 -0.15805 14.0463 -0.015829 15.6463 0.481949C17.6552 1.10417 19.0419 1.97528 20.713 3.66417C23.1308 6.09973 24.1441 8.55306 24.1619 12.0375C24.1797 14.3308 23.9308 15.3797 22.8819 17.5308C22.1175 19.1131 21.8864 19.3975 19.3797 21.8864C15.0597 26.1886 12.9263 29.8864 12.3041 34.1353C12.2697 34.3793 11.918 34.3783 11.8775 34.1353C11.1308 29.6553 9.12191 26.1886 4.81968 21.9042C1.88635 18.9886 1.22857 18.0108 0.428572 15.4153C-0.104762 13.7086 -0.140317 10.7575 0.321905 9.01528C0.837461 7.09528 1.79746 5.38862 3.18413 3.91306ZM6.50938 16.4906C6.73785 16.7191 7.0125 16.8333 7.33333 16.8333H16.6667C16.9875 16.8333 17.2622 16.7191 17.4906 16.4906C17.7191 16.2621 17.8333 15.9875 17.8333 15.6667V8.66666C17.8333 8.34583 17.7191 8.07118 17.4906 7.84271C17.2622 7.61423 16.9875 7.5 16.6667 7.5H14.3333L12.4083 5.575C12.2917 5.45833 12.1556 5.4 12 5.4C11.8444 5.4 11.7083 5.45833 11.5917 5.575L9.66667 7.5H7.33333C7.0125 7.5 6.73785 7.61423 6.50938 7.84271C6.2809 8.07118 6.16667 8.34583 6.16667 8.66666V15.6667C6.16667 15.9875 6.2809 16.2621 6.50938 16.4906ZM10.4833 12.4729L11.5625 13.9167L13.0792 11.8896C13.1375 11.8118 13.2153 11.7729 13.3125 11.7729C13.4097 11.7729 13.4875 11.8118 13.5458 11.8896L15.15 14.0333C15.2278 14.1306 15.2375 14.2326 15.1792 14.3396C15.1208 14.4465 15.0333 14.5 14.9167 14.5H9.08333C8.96667 14.5 8.87917 14.4465 8.82083 14.3396C8.7625 14.2326 8.77222 14.1306 8.85 14.0333L10.0167 12.4729C10.075 12.3951 10.1528 12.3562 10.25 12.3562C10.3472 12.3562 10.425 12.3951 10.4833 12.4729ZM15.8281 11.3281C15.658 11.4983 15.4514 11.5833 15.2083 11.5833C14.9653 11.5833 14.7587 11.4983 14.5885 11.3281C14.4184 11.158 14.3333 10.9514 14.3333 10.7083C14.3333 10.4653 14.4184 10.2587 14.5885 10.0885C14.7587 9.9184 14.9653 9.83333 15.2083 9.83333C15.4514 9.83333 15.658 9.9184 15.8281 10.0885C15.9983 10.2587 16.0833 10.4653 16.0833 10.7083C16.0833 10.9514 15.9983 11.158 15.8281 11.3281ZM12 6.39166L13.1083 7.5H10.8917L12 6.39166Z"></path></svg>