<svg xmlns="http://www.w3.org/2000/svg" viewBox="0 0 25 35" height="35" width="25"><title>attraction.svg</title><rect fill="none" x="0" y="0" width="25" height="35"></rect><rect x="0" y="0" width="25" height="35" rx="12.5" ry="12.5" fill="#5cbdc4"></rect><path fill="#54585c" transform="translate(0 0)" d="M3.18413 3.91306C5.08635 1.86862 6.88191 0.83751 9.6019 0.19751C11.113 -0.158046 14.0463 -0.0158252 15.6463 0.481953C17.6552 1.10417 19.0419 1.97529 20.713 3.66418C23.1308 6.09973 24.1441 8.55307 24.1619 12.0375C24.1797 14.3308 23.9308 15.3797 22.8819 17.5308C22.1175 19.1131 21.8864 19.3975 19.3797 21.8864C15.0597 26.1886 12.9263 29.8864 12.3041 34.1353C12.2697 34.3793 11.918 34.3783 11.8775 34.1353C11.1308 29.6553 9.12191 26.1886 4.81968 21.9042C1.88635 18.9886 1.22857 18.0108 0.428572 15.4153C-0.104762 13.7086 -0.140317 10.7575 0.321905 9.01529C0.837461 7.09529 1.79746 5.38862 3.18413 3.91306ZM12.5833 7.5H11.4167V11.5833H12.5833V7.5ZM10.0791 16.0791C10.1885 15.9698 10.25 15.8214 10.25 15.6667V12.1667C10.4047 12.1667 10.5531 12.1052 10.6625 11.9958C10.7719 11.8864 10.8333 11.738 10.8333 11.5833V7.5H8.5L7.33333 12.75V15.6667C7.33333 15.8214 7.39479 15.9698 7.50419 16.0791C7.61358 16.1885 7.76196 16.25 7.91667 16.25H9.66667C9.82138 16.25 9.96975 16.1885 10.0791 16.0791ZM9.08333 6.91667H10.8333V5.75H9.08333V6.91667ZM13.75 12.1667V15.6667C13.75 15.8214 13.8115 15.9698 13.9209 16.0791C14.0303 16.1885 14.1786 16.25 14.3333 16.25H16.0833C16.238 16.25 16.3864 16.1885 16.4958 16.0791C16.6052 15.9698 16.6667 15.8214 16.6667 15.6667V12.75L15.5 7.5H13.1667V11.5833C13.1667 11.738 13.2281 11.8864 13.3375 11.9958C13.4469 12.1052 13.5953 12.1667 13.75 12.1667ZM13.1667 5.75V6.91667H14.9167V5.75H13.1667Z"></path></svg>