<svg xmlns="http://www.w3.org/2000/svg" viewBox="0 0 25 35" height="35" width="25"><title>bakery.svg</title><rect fill="none" x="0" y="0" width="25" height="35"></rect><rect x="0" y="0" width="25" height="35" rx="12.5" ry="12.5" fill="#faa264"></rect><path fill="#54585c" transform="translate(0 0)" d="M3.18413 3.91306C5.08635 1.86862 6.8819 0.837508 9.6019 0.197509C11.113 -0.158048 14.0463 -0.0158244 15.6463 0.481952C17.6552 1.10417 19.0419 1.97528 20.713 3.66417C23.1308 6.09973 24.1441 8.55306 24.1619 12.0375C24.1797 14.3308 23.9308 15.3797 22.8819 17.5308C22.1175 19.1131 21.8864 19.3975 19.3797 21.8864C15.0597 26.1886 12.9263 29.8864 12.3041 34.1353C12.2697 34.3793 11.918 34.3783 11.8775 34.1353C11.1308 29.6553 9.1219 26.1886 4.81968 21.9042C1.88635 18.9886 1.22857 18.0108 0.428571 15.4153C-0.104762 13.7086 -0.140317 10.7575 0.321905 9.01529C0.83746 7.09529 1.79746 5.38862 3.18413 3.91306ZM6.77333 14.9083C6.8375 15.4567 7.14667 16.8333 7.91667 16.8333C8.6674 16.8333 9.42957 16.2845 10.0107 15.866L10.0283 15.8533C10.9859 15.1534 11.8834 14.3748 12.7117 13.5258C14.2754 12.0455 15.6208 10.3505 16.7075 8.49165C17.1169 7.87709 17.2928 7.1363 17.2033 6.40332C16.935 5.01498 15.4125 5.06165 14.31 5.31832C13.719 5.39545 13.1645 5.64733 12.7175 6.04165C12.4915 6.33219 12.6848 6.37116 12.9314 6.42086C12.9967 6.43402 13.0657 6.44794 13.1317 6.46748C13.42 6.54768 13.698 6.66123 13.96 6.80582C14.3333 7.02165 15.2083 7.91998 14.3683 8.17665C14.1086 8.26478 13.8304 8.12793 13.5777 8.00364C13.5127 7.97162 13.4493 7.94044 13.3883 7.91415C12.9231 7.70625 12.4358 7.55165 11.9358 7.45332C10.9675 7.27832 9.95833 7.49998 9.95833 8.66665C10.8158 8.66665 12.2567 8.73665 12.7642 9.59998C12.9742 9.96748 12.875 10.4692 12.3908 10.51C12.1749 10.5257 11.951 10.4172 11.7388 10.3143C11.6357 10.2644 11.5354 10.2157 11.44 10.1833C10.9611 10.0151 10.4636 9.90545 9.95833 9.85665C9.10667 9.77498 7.91667 9.91498 7.91667 11C8.66333 11 10.4892 11.0175 10.7458 12.0208C10.7678 12.1408 10.7583 12.2644 10.7182 12.3797C10.6782 12.4949 10.609 12.5978 10.5173 12.6783C10.4256 12.7588 10.3147 12.8141 10.1952 12.839C10.0758 12.8638 9.95198 12.8573 9.83583 12.82C9.6208 12.7713 9.42199 12.6902 9.22542 12.6099C8.85676 12.4595 8.49598 12.3122 8.05083 12.3883C7.80265 12.4377 7.57157 12.5507 7.38032 12.7164C7.18907 12.8821 7.04421 13.0947 6.96 13.3333C6.76839 13.8348 6.70425 14.376 6.77333 14.9083Z"></path></svg>