<svg xmlns="http://www.w3.org/2000/svg" viewBox="0 0 25 35" height="35" width="25"><title>bar.svg</title><rect fill="none" x="0" y="0" width="25" height="35"></rect><rect x="0" y="0" width="25" height="35" rx="12.5" ry="12.5" fill="#faa264"></rect><path fill="#54585c" transform="translate(0 0)" d="M3.34691 3.91306C5.24913 1.86862 7.04469 0.837509 9.76469 0.197509C11.2758 -0.158047 14.2091 -0.0158261 15.8091 0.481952C17.818 1.10417 19.2047 1.97528 20.8758 3.66417C23.2936 6.09973 24.3069 8.55306 24.3247 12.0375C24.3425 14.3308 24.0936 15.3797 23.0447 17.5308C22.2802 19.1131 22.0491 19.3975 19.5425 21.8864C15.2225 26.1886 13.0891 29.8864 12.4669 34.1353C12.4325 34.3793 12.0808 34.3783 12.0402 34.1353C11.2936 29.6553 9.28469 26.1886 4.98246 21.9042C2.04913 18.9886 1.39135 18.0108 0.591352 15.4153C0.0580188 13.7086 0.0224633 10.7575 0.484686 9.01529C1.00024 7.09529 1.96024 5.38862 3.34691 3.91306ZM9.99745 17.082C10.1091 17.194 10.2475 17.25 10.4128 17.25H13.9128C14.0781 17.25 14.2167 17.194 14.3287 17.082C14.4403 16.9704 14.4961 16.8319 14.4961 16.6667C14.4961 16.5014 14.4403 16.3629 14.3287 16.2513C14.2167 16.1393 14.0781 16.0833 13.9128 16.0833H12.7461V13.6917C13.5822 13.5555 14.2774 13.1667 14.8315 12.525C15.3857 11.8833 15.6628 11.125 15.6628 10.25V7.33332C15.6628 7.16804 15.6068 7.0294 15.4948 6.9174C15.3832 6.80579 15.2447 6.74999 15.0794 6.74999H9.24611C9.08084 6.74999 8.9422 6.80579 8.8302 6.9174C8.71859 7.0294 8.66278 7.16804 8.66278 7.33332V10.25C8.66278 11.125 8.93986 11.8833 9.49403 12.525C10.0482 13.1667 10.7433 13.5555 11.5794 13.6917V16.0833H10.4128C10.2475 16.0833 10.1091 16.1393 9.99745 16.2513C9.88545 16.3629 9.82945 16.5014 9.82945 16.6667C9.82945 16.8319 9.88545 16.9704 9.99745 17.082ZM14.4961 9.66665H9.82945V7.91665H14.4961V9.66665Z"></path></svg>