<svg xmlns="http://www.w3.org/2000/svg" viewBox="0 0 25 35" height="35" width="25"><title>beer.svg</title><rect fill="none" x="0" y="0" width="25" height="35"></rect><rect x="0" y="0" width="25" height="35" rx="12.5" ry="12.5" fill="#faa264"></rect><path fill="#54585c" transform="translate(0 0)" d="M3.50969 3.91306C5.41191 1.86862 7.20747 0.837506 9.92747 0.197506C11.4386 -0.15805 14.3719 -0.015829 15.9719 0.481949C17.9808 1.10417 19.3675 1.97528 21.0386 3.66417C23.4564 6.09973 24.4697 8.55306 24.4875 12.0375C24.5052 14.3308 24.2564 15.3797 23.2075 17.5308C22.443 19.1131 22.2119 19.3975 19.7052 21.8864C15.3852 26.1886 13.2519 29.8864 12.6297 34.1353C12.5953 34.3793 12.2435 34.3783 12.203 34.1353C11.4564 29.6553 9.44747 26.1886 5.14524 21.9042C2.21191 18.9886 1.55413 18.0108 0.754133 15.4153C0.220799 13.7086 0.185244 10.7575 0.647466 9.01528C1.16302 7.09528 2.12302 5.38862 3.50969 3.91306ZM9.16856 15.9076C9.39684 16.1358 9.67139 16.25 9.99223 16.25H14.0756C14.3964 16.25 14.6711 16.1358 14.8998 15.9076C15.1281 15.6789 15.2422 15.4041 15.2422 15.0833H16.4089C16.7297 15.0833 17.0045 14.9692 17.2331 14.7409C17.4614 14.5122 17.5756 14.2375 17.5756 13.9166V10.4166C17.5756 10.0958 17.4614 9.82107 17.2331 9.5924C17.0045 9.36412 16.7297 9.24998 16.4089 9.24998H15.5047C15.6117 9.07498 15.692 8.89026 15.7456 8.69582C15.7989 8.50137 15.8256 8.2972 15.8256 8.08332C15.8256 7.44165 15.5971 6.89234 15.1401 6.4354C14.6832 5.97846 14.1339 5.74998 13.4922 5.74998C13.3853 5.74998 13.2881 5.75718 13.2006 5.77157C13.1131 5.78634 13.0207 5.80345 12.9235 5.8229C12.6804 5.62845 12.4105 5.4729 12.1138 5.35623C11.8175 5.23957 11.4992 5.18123 11.1589 5.18123C10.6047 5.18123 10.1066 5.32707 9.6644 5.61873C9.22184 5.9104 8.88876 6.28957 8.66514 6.75623C8.19848 6.91179 7.81698 7.18887 7.52064 7.58748C7.22392 7.98609 7.07556 8.44304 7.07556 8.95832C7.07556 9.50276 7.24084 9.97915 7.57139 10.3875C7.90195 10.7958 8.32001 11.068 8.82556 11.2041V15.0833C8.82556 15.4041 8.93989 15.6789 9.16856 15.9076ZM8.58523 9.78198C8.35656 9.5537 8.24223 9.27915 8.24223 8.95832C8.24223 8.70554 8.31515 8.4794 8.46098 8.2799C8.60681 8.08079 8.80126 7.94234 9.04431 7.86457L9.51098 7.70415L9.71515 7.26665C9.85126 6.9847 10.0482 6.76109 10.3061 6.59582C10.5635 6.43054 10.8478 6.3479 11.1589 6.3479C11.3922 6.3479 11.5941 6.38912 11.7644 6.47157C11.9343 6.5544 12.0728 6.63957 12.1797 6.72707L12.6318 7.10623L12.8797 7.01115C13.045 6.94815 13.2492 6.91665 13.4922 6.91665C13.8131 6.91665 14.0878 7.03098 14.3165 7.25965C14.5448 7.48793 14.6589 7.76248 14.6589 8.08332H12.9089C12.4131 8.08332 12.0121 8.19259 11.7061 8.41115C11.3996 8.63009 11.1249 8.87082 10.8818 9.13332C10.6485 9.38609 10.4225 9.61457 10.204 9.81873C9.98503 10.0229 9.72001 10.125 9.40889 10.125C9.08806 10.125 8.81351 10.0106 8.58523 9.78198ZM16.4089 13.9166H15.2422V10.4166H16.4089V13.9166Z"></path></svg>