<svg xmlns="http://www.w3.org/2000/svg" viewBox="0 0 25 35" height="35" width="25"><title>cafe.svg</title><rect fill="none" x="0" y="0" width="25" height="35"></rect><rect x="0" y="0" width="25" height="35" rx="12.5" ry="12.5" fill="#faa264"></rect><path fill="#54585c" transform="translate(0 0)" d="M3.67244 3.91306C5.57466 1.86862 7.37022 0.837506 10.0902 0.197506C11.6013 -0.15805 14.5347 -0.015829 16.1347 0.481949C18.1435 1.10417 19.5302 1.97528 21.2013 3.66417C23.6191 6.09973 24.6324 8.55306 24.6502 12.0375C24.668 14.3308 24.4191 15.3797 23.3702 17.5308C22.6058 19.1131 22.3747 19.3975 19.868 21.8864C15.548 26.1886 13.4147 29.8864 12.7924 34.1353C12.758 34.3793 12.4063 34.3783 12.3658 34.1353C11.6191 29.6553 9.61022 26.1886 5.30799 21.9042C2.37466 18.9886 1.71688 18.0108 0.916883 15.4153C0.38355 13.7086 0.347995 10.7575 0.810217 9.01528C1.32577 7.09528 2.28577 5.38862 3.67244 3.91306ZM7.98906 16.082C8.10106 16.194 8.2397 16.25 8.40498 16.25H16.5716C16.7369 16.25 16.8754 16.194 16.987 16.082C17.099 15.9704 17.155 15.8319 17.155 15.6666C17.155 15.5014 17.099 15.3629 16.987 15.2513C16.8754 15.1393 16.7369 15.0833 16.5716 15.0833H8.40498C8.2397 15.0833 8.10106 15.1393 7.98906 15.2513C7.87745 15.3629 7.82164 15.5014 7.82164 15.6666C7.82164 15.8319 7.87745 15.9704 7.98906 16.082ZM8.50706 13.2312C8.96401 13.6882 9.51331 13.9166 10.155 13.9166H13.655C14.2966 13.9166 14.846 13.6882 15.3029 13.2312C15.7598 12.7743 15.9883 12.225 15.9883 11.5833V9.83332H17.155C17.4758 9.83332 17.7506 9.71898 17.9792 9.49032C18.2075 9.26204 18.3216 8.98748 18.3216 8.66665V6.91665C18.3216 6.59582 18.2075 6.32107 17.9792 6.0924C17.7506 5.86412 17.4758 5.74998 17.155 5.74998H8.98831C8.66748 5.74998 8.39292 5.86412 8.16464 6.0924C7.93598 6.32107 7.82164 6.59582 7.82164 6.91665V11.5833C7.82164 12.225 8.05012 12.7743 8.50706 13.2312ZM17.155 8.66665H15.9883V6.91665H17.155V8.66665Z"></path></svg>