<svg width="25" height="35" viewBox="0 0 25 35" fill="none" xmlns="http://www.w3.org/2000/svg">
<circle cx="12.3018" cy="12" r="10" fill="#7FA8D4"/>
<path d="M3.48589 3.91306C5.38811 1.86862 7.18367 0.837509 9.90366 0.197509C11.4148 -0.158047 14.3481 -0.0158259 15.9481 0.481952C17.957 1.10417 19.3437 1.97528 21.0148 3.66417C23.4326 6.09973 24.4459 8.55306 24.4637 12.0375C24.4815 14.3308 24.2326 15.3797 23.1837 17.5308C22.4193 19.1131 22.1882 19.3975 19.6815 21.8864C15.3615 26.1886 13.2281 29.8864 12.6059 34.1353C12.5715 34.3793 12.2198 34.3783 12.1793 34.1353C11.4326 29.6553 9.42367 26.1886 5.12144 21.9042C2.18811 18.9886 1.53033 18.0108 0.73033 15.4153C0.196996 13.7086 0.161441 10.7575 0.623663 9.01528C1.13922 7.09528 2.09922 5.38862 3.48589 3.91306ZM8.80176 15.3896V15.0833H15.8018V15.375C15.8018 15.618 15.887 15.8245 16.0573 15.9945C16.2272 16.1648 16.4337 16.25 16.6768 16.25C16.9296 16.25 17.1386 16.1673 17.3039 16.0021C17.4692 15.8368 17.5518 15.6326 17.5518 15.3896V11L16.3268 7.49998C16.2685 7.32498 16.1641 7.18401 16.0136 7.07707C15.8627 6.97012 15.6949 6.91665 15.5101 6.91665H9.09343C8.9087 6.91665 8.74109 6.97012 8.59059 7.07707C8.4397 7.18401 8.33509 7.32498 8.27676 7.49998L7.05176 11V15.375C7.05176 15.618 7.13693 15.8245 7.30726 15.9945C7.4772 16.1648 7.6837 16.25 7.92676 16.25C8.17954 16.25 8.38857 16.1673 8.55384 16.0021C8.71912 15.8368 8.80176 15.6326 8.80176 15.3896ZM15.9185 9.83332H8.68509L9.29759 8.08332H15.306L15.9185 9.83332ZM10.2963 13.0778C10.1263 13.2481 9.91982 13.3333 9.67676 13.3333C9.4337 13.3333 9.2272 13.2481 9.05726 13.0778C8.88693 12.9079 8.80176 12.7014 8.80176 12.4583C8.80176 12.2153 8.88693 12.0088 9.05726 11.8388C9.2272 11.6685 9.4337 11.5833 9.67676 11.5833C9.91982 11.5833 10.1263 11.6685 10.2963 11.8388C10.4666 12.0088 10.5518 12.2153 10.5518 12.4583C10.5518 12.7014 10.4666 12.9079 10.2963 13.0778ZM15.5463 13.0778C15.3764 13.2481 15.1699 13.3333 14.9268 13.3333C14.6837 13.3333 14.4772 13.2481 14.3073 13.0778C14.137 12.9079 14.0518 12.7014 14.0518 12.4583C14.0518 12.2153 14.137 12.0088 14.3073 11.8388C14.4772 11.6685 14.6837 11.5833 14.9268 11.5833C15.1699 11.5833 15.3764 11.6685 15.5463 11.8388C15.7166 12.0088 15.8018 12.2153 15.8018 12.4583C15.8018 12.7014 15.7166 12.9079 15.5463 13.0778Z" fill="#54585C"/>
</svg>
