<svg xmlns="http://www.w3.org/2000/svg" viewBox="0 0 25 35" height="35" width="25"><title>charging_station.svg</title><rect fill="none" x="0" y="0" width="25" height="35"></rect><rect x="0" y="0" width="25" height="35" rx="12.5" ry="12.5" fill="#7fa8d4"></rect><path fill="#54585c" transform="translate(0 0)" d="M3.18413 3.91306C5.08635 1.86862 6.8819 0.837506 9.6019 0.197506C11.113 -0.15805 14.0463 -0.015829 15.6463 0.481949C17.6552 1.10417 19.0419 1.97528 20.713 3.66417C23.1308 6.09973 24.1441 8.55306 24.1619 12.0375C24.1797 14.3308 23.9308 15.3797 22.8819 17.5308C22.1175 19.1131 21.8864 19.3975 19.3797 21.8864C15.0597 26.1886 12.9263 29.8864 12.3041 34.1353C12.2697 34.3793 11.918 34.3783 11.8775 34.1353C11.1308 29.6553 9.1219 26.1886 4.81968 21.9042C1.88635 18.9886 1.22857 18.0108 0.428571 15.4153C-0.104762 13.7086 -0.140318 10.7575 0.321905 9.01528C0.83746 7.09528 1.79746 5.38862 3.18413 3.91306ZM8.5 13.0416V12.75H15.5V13.0416C15.5 13.2847 15.5852 13.4912 15.7555 13.6611C15.9254 13.8315 16.1319 13.9166 16.375 13.9166C16.6181 13.9166 16.8246 13.8315 16.9945 13.6611C17.1648 13.4912 17.25 13.2847 17.25 13.0416V8.66665L16.025 5.16665C15.9667 4.99165 15.8623 4.85068 15.7118 4.74373C15.5609 4.63679 15.3931 4.58332 15.2083 4.58332H8.79167C8.60694 4.58332 8.43933 4.63679 8.28883 4.74373C8.13794 4.85068 8.03333 4.99165 7.975 5.16665L6.75 8.66665V13.0416C6.75 13.2847 6.83517 13.4912 7.0055 13.6611C7.17544 13.8315 7.38194 13.9166 7.625 13.9166C7.86806 13.9166 8.07456 13.8315 8.2445 13.6611C8.41483 13.4912 8.5 13.2847 8.5 13.0416ZM15.6167 7.49998H8.38333L8.99583 5.74998H15.0042L15.6167 7.49998ZM9.9945 10.7445C9.82456 10.9148 9.61806 11 9.375 11C9.13194 11 8.92544 10.9148 8.7555 10.7445C8.58517 10.5745 8.5 10.368 8.5 10.125C8.5 9.88193 8.58517 9.67543 8.7555 9.50548C8.92544 9.33515 9.13194 9.24998 9.375 9.24998C9.61806 9.24998 9.82456 9.33515 9.9945 9.50548C10.1648 9.67543 10.25 9.88193 10.25 10.125C10.25 10.368 10.1648 10.5745 9.9945 10.7445ZM15.2445 10.7445C15.0746 10.9148 14.8681 11 14.625 11C14.3819 11 14.1754 10.9148 14.0055 10.7445C13.8352 10.5745 13.75 10.368 13.75 10.125C13.75 9.88193 13.8352 9.67543 14.0055 9.50548C14.1754 9.33515 14.3819 9.24998 14.625 9.24998C14.8681 9.24998 15.0746 9.33515 15.2445 9.50548C15.4148 9.67543 15.5 9.88193 15.5 10.125C15.5 10.368 15.4148 10.5745 15.2445 10.7445ZM9.08333 15.6666L12.5833 17.4166V16.25H14.9167L11.4167 14.5V15.6666H9.08333Z"></path></svg>