<svg xmlns="http://www.w3.org/2000/svg" viewBox="0 0 25 35" height="35" width="25"><title>clothing_store.svg</title><rect fill="none" x="0" y="0" width="25" height="35"></rect><rect x="0" y="0" width="25" height="35" rx="12.5" ry="12.5" fill="#6aa7f7"></rect><path fill="#54585c" transform="translate(0 0)" d="M3.18413 3.91306C5.08635 1.86862 6.8819 0.837506 9.6019 0.197506C11.113 -0.15805 14.0463 -0.015829 15.6463 0.481949C17.6552 1.10417 19.0419 1.97528 20.713 3.66417C23.1308 6.09973 24.1441 8.55306 24.1619 12.0375C24.1797 14.3308 23.9308 15.3797 22.8819 17.5308C22.1175 19.1131 21.8864 19.3975 19.3797 21.8864C15.0597 26.1886 12.9263 29.8864 12.3041 34.1353C12.2697 34.3793 11.918 34.3783 11.8775 34.1353C11.1308 29.6553 9.1219 26.1886 4.81968 21.9042C1.88635 18.9886 1.22857 18.0108 0.428571 15.4153C-0.104762 13.7086 -0.140318 10.7575 0.321905 9.01528C0.83746 7.09528 1.79746 5.38862 3.18413 3.91306ZM9.25419 16.0791C9.36358 16.1885 9.51196 16.25 9.66667 16.25H14.3333C14.488 16.25 14.6364 16.1885 14.7458 16.0791C14.8552 15.9697 14.9167 15.8214 14.9167 15.6666V11.07L15.675 11.6533C15.9025 11.875 16.27 11.875 16.4975 11.6533L18.1483 10.0025C18.3758 9.77498 18.3758 9.40748 18.1483 9.17998L14.7183 5.74998H13.75C13.75 6.39165 12.9683 6.91665 12 6.91665C11.0317 6.91665 10.25 6.39165 10.25 5.74998H9.28167L5.85167 9.17998C5.62417 9.40748 5.62417 9.77498 5.85167 10.0025L7.5025 11.6241C7.73 11.8516 8.0975 11.8516 8.325 11.6241L9.08333 11.0408V15.6666C9.08333 15.8214 9.14479 15.9697 9.25419 16.0791Z"></path></svg>