<svg xmlns="http://www.w3.org/2000/svg" viewBox="0 0 25 35" height="35" width="25"><title>doctors.svg</title><rect fill="none" x="0" y="0" width="25" height="35"></rect><rect x="0" y="0" width="25" height="35" rx="12.5" ry="12.5" fill="#ff7d7f"></rect><path fill="#54585c" transform="translate(0 0)" d="M3.18413 3.91306C5.08635 1.86862 6.88191 0.837506 9.6019 0.197506C11.113 -0.15805 14.0463 -0.015829 15.6463 0.481949C17.6552 1.10417 19.0419 1.97528 20.713 3.66417C23.1308 6.09973 24.1441 8.55306 24.1619 12.0375C24.1797 14.3308 23.9308 15.3797 22.8819 17.5308C22.1175 19.1131 21.8864 19.3975 19.3797 21.8864C15.0597 26.1886 12.9263 29.8864 12.3041 34.1353C12.2697 34.3793 11.918 34.3783 11.8775 34.1353C11.1308 29.6553 9.12191 26.1886 4.81968 21.9042C1.88635 18.9886 1.22857 18.0108 0.428572 15.4153C-0.104762 13.7086 -0.140317 10.7575 0.321905 9.01528C0.837461 7.09528 1.79746 5.38862 3.18413 3.91306ZM16.6667 15.6666C16.6667 14.6691 15.4183 13.8175 13.6567 13.485L12 16.25L10.3433 13.485C8.58167 13.8175 7.33333 14.6691 7.33333 15.6666V16.8333H16.6667V15.6666ZM14.3333 9.83332V8.66665H9.66667V9.83332C9.66667 10.4522 9.9125 11.0456 10.3501 11.4832C10.7877 11.9208 11.3812 12.1666 12 12.1666C12.6188 12.1666 13.2123 11.9208 13.6499 11.4832C14.0875 11.0456 14.3333 10.4522 14.3333 9.83332ZM9.90583 5.69165L9.66667 8.08332H14.3333L14.0942 5.69165C14.065 5.39415 13.8142 5.16665 13.5167 5.16665H10.4892C10.1858 5.16665 9.935 5.39415 9.90583 5.69165ZM11.4167 5.74998H12V6.33332H12.5833V6.91665H12V7.49998H11.4167V6.91665H10.8333V6.33332H11.4167V5.74998Z"></path></svg>