<svg xmlns="http://www.w3.org/2000/svg" viewBox="0 0 25 35" height="35" width="25"><title>embassy.svg</title><rect fill="none" x="0" y="0" width="25" height="35"></rect><rect x="0" y="0" width="25" height="35" rx="12.5" ry="12.5" fill="#baa4a8"></rect><path fill="#54585c" transform="translate(0 0)" d="M3.18413 3.91306C5.08635 1.86862 6.88191 0.837506 9.6019 0.197506C11.113 -0.15805 14.0463 -0.015829 15.6463 0.481949C17.6552 1.10417 19.0419 1.97528 20.713 3.66417C23.1308 6.09973 24.1441 8.55306 24.1619 12.0375C24.1797 14.3308 23.9308 15.3797 22.8819 17.5308C22.1175 19.1131 21.8864 19.3975 19.3797 21.8864C15.0597 26.1886 12.9263 29.8864 12.3041 34.1353C12.2697 34.3793 11.918 34.3783 11.8775 34.1353C11.1308 29.6553 9.12191 26.1886 4.81968 21.9042C1.88635 18.9886 1.22857 18.0108 0.428572 15.4153C-0.104762 13.7086 -0.140317 10.7575 0.321905 9.01528C0.83746 7.09528 1.79746 5.38862 3.18413 3.91306ZM10.418 14.3763C10.3352 14.4588 10.2306 14.5 10.1042 14.5C9.97778 14.5 9.87336 14.4588 9.79092 14.3763C9.70808 14.2935 9.66667 14.1889 9.66667 14.0625V8.66665C9.66667 8.50137 9.72267 8.36273 9.83467 8.25073C9.94628 8.13912 10.0847 8.08332 10.25 8.08332H12.8021C12.909 8.08332 13.0111 8.10995 13.1083 8.16323C13.2056 8.2169 13.2785 8.2972 13.3271 8.40415L13.75 9.24998H14.9167C15.0819 9.24998 15.2204 9.30579 15.332 9.4174C15.444 9.5294 15.5 9.66804 15.5 9.83332V12.1666C15.5 12.3319 15.444 12.4704 15.332 12.582C15.2204 12.694 15.0819 12.75 14.9167 12.75H12.9479C12.841 12.75 12.7389 12.7233 12.6417 12.6701C12.5444 12.6164 12.4715 12.5361 12.4229 12.4291L12 11.5833H10.5417V14.0625C10.5417 14.1889 10.5004 14.2935 10.418 14.3763ZM9.725 16.3736C10.4347 16.6801 11.1931 16.8333 12 16.8333C12.8069 16.8333 13.5653 16.6801 14.275 16.3736C14.9847 16.0676 15.6021 15.6521 16.1271 15.1271C16.6521 14.6021 17.0676 13.9847 17.3737 13.275C17.6801 12.5653 17.8333 11.8069 17.8333 11C17.8333 10.193 17.6801 9.43471 17.3737 8.72498C17.0676 8.01526 16.6521 7.3979 16.1271 6.8729C15.6021 6.3479 14.9847 5.93218 14.275 5.62573C13.5653 5.31968 12.8069 5.16665 12 5.16665C11.1931 5.16665 10.4347 5.31968 9.725 5.62573C9.01528 5.93218 8.39792 6.3479 7.87292 6.8729C7.34792 7.3979 6.93239 8.01526 6.62633 8.72498C6.31989 9.43471 6.16667 10.193 6.16667 11C6.16667 11.8069 6.31989 12.5653 6.62633 13.275C6.93239 13.9847 7.34792 14.6021 7.87292 15.1271C8.39792 15.6521 9.01528 16.0676 9.725 16.3736Z"></path></svg>