<svg xmlns="http://www.w3.org/2000/svg" viewBox="0 0 25 35" height="35" width="25"><title>fire_station.svg</title><rect fill="none" x="0" y="0" width="25" height="35"></rect><rect x="0" y="0" width="25" height="35" rx="12.5" ry="12.5" fill="#5cbdc4"></rect><path fill="#54585c" transform="translate(0 0)" d="M3.18413 3.91306C5.08635 1.86862 6.88191 0.83751 9.60191 0.19751C11.113 -0.158046 14.0464 -0.0158252 15.6464 0.481953C17.6552 1.10417 19.0419 1.97529 20.713 3.66418C23.1308 6.09973 24.1441 8.55307 24.1619 12.0375C24.1797 14.3308 23.9308 15.3797 22.8819 17.5308C22.1175 19.1131 21.8864 19.3975 19.3797 21.8864C15.0597 26.1886 12.9264 29.8864 12.3041 34.1353C12.2697 34.3793 11.918 34.3783 11.8775 34.1353C11.1308 29.6553 9.12191 26.1886 4.81969 21.9042C1.88635 18.9886 1.22857 18.0108 0.428575 15.4153C-0.104759 13.7086 -0.140314 10.7575 0.321908 9.01529C0.837464 7.09529 1.79746 5.38862 3.18413 3.91306ZM7.84375 15.7396C8.18403 16.0799 8.59723 16.25 9.08334 16.25C9.56945 16.25 9.98264 16.0799 10.3229 15.7396C10.6632 15.3993 10.8333 14.9861 10.8333 14.5H13.1667C13.1667 14.9861 13.3368 15.3993 13.6771 15.7396C14.0174 16.0799 14.4306 16.25 14.9167 16.25C15.4028 16.25 15.816 16.0799 16.1563 15.7396C16.4965 15.3993 16.6667 14.9861 16.6667 14.5H17.25C17.5708 14.5 17.8456 14.3859 18.0743 14.1576C18.3025 13.9289 18.4167 13.6542 18.4167 13.3333V10.6063C18.4167 10.5382 18.4118 10.4725 18.4021 10.4091C18.3924 10.3461 18.3778 10.2854 18.3583 10.2271L17.5125 7.71875C17.4347 7.4757 17.2938 7.28125 17.0896 7.13542C16.8854 6.98958 16.6569 6.91667 16.4042 6.91667H16.0833V6.33333C16.0833 6.16806 16.0273 6.02942 15.9153 5.91742C15.8037 5.80581 15.6653 5.75 15.5 5.75H14.9167C14.7514 5.75 14.6129 5.80581 14.5013 5.91742C14.3893 6.02942 14.3333 6.16806 14.3333 6.33333V6.91667H13.1667C12.8458 6.91667 12.5713 7.031 12.343 7.25967C12.1143 7.48795 12 7.7625 12 8.08333V10.4167H6.75C6.42917 10.4167 6.15461 10.5308 5.92634 10.7591C5.69767 10.9878 5.58334 11.2625 5.58334 11.5833V13.3333C5.58334 13.6542 5.69767 13.9289 5.92634 14.1576C6.15461 14.3859 6.42917 14.5 6.75 14.5H7.33334C7.33334 14.9861 7.50348 15.3993 7.84375 15.7396ZM9.49925 14.9153C9.38725 15.0273 9.24861 15.0833 9.08334 15.0833C8.91806 15.0833 8.77942 15.0273 8.66742 14.9153C8.55581 14.8037 8.5 14.6653 8.5 14.5C8.5 14.3347 8.55581 14.1963 8.66742 14.0847C8.77942 13.9727 8.91806 13.9167 9.08334 13.9167C9.24861 13.9167 9.38725 13.9727 9.49925 14.0847C9.61086 14.1963 9.66667 14.3347 9.66667 14.5C9.66667 14.6653 9.61086 14.8037 9.49925 14.9153ZM15.332 14.9153C15.2204 15.0273 15.0819 15.0833 14.9167 15.0833C14.7514 15.0833 14.6129 15.0273 14.5013 14.9153C14.3893 14.8037 14.3333 14.6653 14.3333 14.5C14.3333 14.3347 14.3893 14.1963 14.5013 14.0847C14.6129 13.9727 14.7514 13.9167 14.9167 13.9167C15.0819 13.9167 15.2204 13.9727 15.332 14.0847C15.444 14.1963 15.5 14.3347 15.5 14.5C15.5 14.6653 15.444 14.8037 15.332 14.9153ZM17.1917 10.4167H13.1667V8.08333H16.4042L17.1917 10.4167ZM8.0625 8.95833H7.04167V7.79167H8.0625V8.95833ZM9.95834 8.95833H8.9375V7.79167H9.95834V8.95833ZM5.707 9.70908C5.78984 9.79192 5.89445 9.83333 6.02084 9.83333H10.9792C11.1056 9.83333 11.2102 9.79192 11.293 9.70908C11.3754 9.62664 11.4167 9.52222 11.4167 9.39583C11.4167 9.26945 11.3754 9.16483 11.293 9.082C11.2102 8.99956 11.1056 8.95833 10.9792 8.95833H10.8333V7.79167H10.9792C11.1056 7.79167 11.2102 7.75025 11.293 7.66742C11.3754 7.58497 11.4167 7.48056 11.4167 7.35417C11.4167 7.22778 11.3754 7.12336 11.293 7.04092C11.2102 6.95808 11.1056 6.91667 10.9792 6.91667H6.02084C5.89445 6.91667 5.78984 6.95808 5.707 7.04092C5.62456 7.12336 5.58334 7.22778 5.58334 7.35417C5.58334 7.48056 5.62456 7.58497 5.707 7.66742C5.78984 7.75025 5.89445 7.79167 6.02084 7.79167H6.16667V8.95833H6.02084C5.89445 8.95833 5.78984 8.99956 5.707 9.082C5.62456 9.16483 5.58334 9.26945 5.58334 9.39583C5.58334 9.52222 5.62456 9.62664 5.707 9.70908Z"></path></svg>