<svg xmlns="http://www.w3.org/2000/svg" viewBox="0 0 25 35" height="35" width="25"><title>fuel.svg</title><rect fill="none" x="0" y="0" width="25" height="35"></rect><rect x="0" y="0" width="25" height="35" rx="12.5" ry="12.5" fill="#7fa8d4"></rect><path fill="#54585c" transform="translate(0 0)" d="M3.18413 3.91306C5.08635 1.86862 6.88191 0.837506 9.6019 0.197506C11.113 -0.15805 14.0463 -0.015829 15.6463 0.481949C17.6552 1.10417 19.0419 1.97528 20.713 3.66417C23.1308 6.09973 24.1441 8.55306 24.1619 12.0375C24.1797 14.3308 23.9308 15.3797 22.8819 17.5308C22.1175 19.1131 21.8864 19.3975 19.3797 21.8864C15.0597 26.1886 12.9263 29.8864 12.3041 34.1353C12.2697 34.3793 11.918 34.3783 11.8775 34.1353C11.1308 29.6553 9.12191 26.1886 4.81968 21.9042C1.88635 18.9886 1.22857 18.0108 0.428572 15.4153C-0.104762 13.7086 -0.140317 10.7575 0.321905 9.01528C0.83746 7.09528 1.79746 5.38862 3.18413 3.91306ZM8.5 5.16665H6.75V6.33332H8.26083L9.305 7.37748L8.84417 7.84415C8.61667 8.08332 8.5 8.37498 8.5 8.66665V11V11.5833V15.0833C8.5 15.3927 8.62292 15.6895 8.84171 15.9083C9.0605 16.1271 9.35725 16.25 9.66667 16.25H15.5C15.8094 16.25 16.1062 16.1271 16.325 15.9083C16.5438 15.6895 16.6667 15.3927 16.6667 15.0833V7.49998C16.6667 7.20832 16.55 6.91665 16.3225 6.67748L15.7392 6.09415C15.5 5.86665 15.2083 5.74998 14.9167 5.74998H11.4167C11.125 5.74998 10.8333 5.86665 10.5942 6.09415L10.1275 6.55498L8.91417 5.33582C8.80917 5.23082 8.66333 5.16665 8.5 5.16665ZM11.4167 8.08332V6.91665H14.9167V8.08332H11.4167ZM10.4892 9.24998L11.6558 10.4166H13.5108L14.6775 9.24998H15.5V10.0725L14.3333 11.2391V13.0941L15.5 14.2608V15.0833H14.6775L13.5108 13.9166H11.6558L10.4892 15.0833H9.66667V14.2608L10.8333 13.0941V11.2391L9.66667 10.0725V9.24998H10.4892ZM13.1667 11.5833H12V12.75H13.1667V11.5833Z"></path></svg>