<svg xmlns="http://www.w3.org/2000/svg" viewBox="0 0 25 35" height="35" width="25"><title>gate.svg</title><rect fill="none" x="0" y="0" width="25" height="35"></rect><rect x="0" y="0" width="25" height="35" rx="12.5" ry="12.5" fill="#5cbdc4"></rect><path fill="#54585c" transform="translate(0 0)" d="M3.18413 3.91306C5.08635 1.86862 6.8819 0.837509 9.6019 0.197509C11.113 -0.158047 14.0463 -0.0158261 15.6463 0.481952C17.6552 1.10417 19.0419 1.97528 20.713 3.66417C23.1308 6.09973 24.1441 8.55306 24.1619 12.0375C24.1797 14.3308 23.9308 15.3797 22.8819 17.5308C22.1175 19.1131 21.8864 19.3975 19.3797 21.8864C15.0597 26.1886 12.9263 29.8864 12.3041 34.1353C12.2697 34.3793 11.918 34.3783 11.8775 34.1353C11.1308 29.6553 9.12191 26.1886 4.81968 21.9042C1.88635 18.9886 1.22857 18.0108 0.428571 15.4153C-0.104762 13.7086 -0.140317 10.7575 0.321905 9.01529C0.83746 7.09529 1.79746 5.38862 3.18413 3.91306ZM5.33333 8.66667V15.3333H6.66667V8.66667H5.33333ZM17.3333 8.66667V15.3333H18.6667V8.66667H17.3333ZM7.33333 10V16.6667H11.3333V12.6667H10V11.3333H11.3333V7.33333H10C9.26667 7.33333 8.63889 7.59444 8.11667 8.11667C7.59444 8.63889 7.33333 9.26667 7.33333 10ZM12.6667 12.6667V16.6667H16.6667V10C16.6667 9.26667 16.4056 8.63889 15.8833 8.11667C15.3611 7.59444 14.7333 7.33333 14 7.33333H12.6667V11.3333H14V12.6667H12.6667Z"></path></svg>