<svg xmlns="http://www.w3.org/2000/svg" viewBox="0 0 25 35" height="35" width="25"><title>grocery.svg</title><rect fill="none" x="0" y="0" width="25" height="35"></rect><rect x="0" y="0" width="25" height="35" rx="12.5" ry="12.5" fill="#6aa7f7"></rect><path fill="#54585c" transform="translate(0 0)" d="M3.18413 3.91306C5.08635 1.86862 6.88191 0.83751 9.6019 0.19751C11.113 -0.158046 14.0463 -0.0158252 15.6463 0.481953C17.6552 1.10417 19.0419 1.97529 20.713 3.66418C23.1308 6.09973 24.1441 8.55307 24.1619 12.0375C24.1797 14.3308 23.9308 15.3797 22.8819 17.5308C22.1175 19.1131 21.8864 19.3975 19.3797 21.8864C15.0597 26.1886 12.9263 29.8864 12.3041 34.1353C12.2697 34.3793 11.918 34.3783 11.8775 34.1353C11.1308 29.6553 9.12191 26.1886 4.81968 21.9042C1.88635 18.9886 1.22857 18.0108 0.428572 15.4153C-0.104762 13.7086 -0.140317 10.7575 0.321905 9.01529C0.837461 7.09529 1.79746 5.38862 3.18413 3.91306ZM18 7.2H8.4V6.6C8.4 6.44087 8.33679 6.28826 8.22426 6.17573C8.11174 6.06321 7.95913 6 7.8 6H6V7.2H7.2L7.8 9L8.598 11.4H8.4C7.92261 11.4 7.46477 11.5896 7.12721 11.9272C6.78964 12.2648 6.6 12.7226 6.6 13.2C6.6 13.6774 6.78964 14.1352 7.12721 14.4728C7.46477 14.8104 7.92261 15 8.4 15H16.2V13.8H8.4C8.24087 13.8 8.08826 13.7368 7.97574 13.6243C7.86321 13.5117 7.8 13.3591 7.8 13.2C7.8 13.0409 7.86321 12.8883 7.97574 12.7757C8.08826 12.6632 8.24087 12.6 8.4 12.6H16.2L18 7.2ZM8.15147 17.6485C8.37652 17.8736 8.68174 18 9 18C9.31826 18 9.62348 17.8736 9.84853 17.6485C10.0736 17.4235 10.2 17.1183 10.2 16.8C10.2 16.4817 10.0736 16.1765 9.84853 15.9515C9.62348 15.7264 9.31826 15.6 9 15.6C8.68174 15.6 8.37652 15.7264 8.15147 15.9515C7.92643 16.1765 7.8 16.4817 7.8 16.8C7.8 17.1183 7.92643 17.4235 8.15147 17.6485ZM14.1515 17.6485C14.3765 17.8736 14.6817 18 15 18C15.3183 18 15.6235 17.8736 15.8485 17.6485C16.0736 17.4235 16.2 17.1183 16.2 16.8C16.2 16.4817 16.0736 16.1765 15.8485 15.9515C15.6235 15.7264 15.3183 15.6 15 15.6C14.6817 15.6 14.3765 15.7264 14.1515 15.9515C13.9264 16.1765 13.8 16.4817 13.8 16.8C13.8 17.1183 13.9264 17.4235 14.1515 17.6485Z"></path></svg>