<svg xmlns="http://www.w3.org/2000/svg" viewBox="0 0 25 35" height="35" width="25"><title>health_post.svg</title><rect fill="none" x="0" y="0" width="25" height="35"></rect><rect x="0" y="0" width="25" height="35" rx="12.5" ry="12.5" fill="#ff7d7f"></rect><path fill="#54585c" transform="translate(0 0)" d="M3.18413 3.91306C5.08635 1.86862 6.8819 0.837509 9.6019 0.197509C11.113 -0.158047 14.0463 -0.0158261 15.6463 0.481952C17.6552 1.10417 19.0419 1.97528 20.713 3.66417C23.1308 6.09973 24.1441 8.55306 24.1619 12.0375C24.1797 14.3308 23.9308 15.3797 22.8819 17.5308C22.1175 19.1131 21.8864 19.3975 19.3797 21.8864C15.0597 26.1886 12.9263 29.8864 12.3041 34.1353C12.2697 34.3793 11.918 34.3783 11.8775 34.1353C11.1308 29.6553 9.1219 26.1886 4.81968 21.9042C1.88635 18.9886 1.22857 18.0108 0.428571 15.4153C-0.104762 13.7086 -0.140317 10.7575 0.321905 9.01529C0.83746 7.09529 1.79746 5.38862 3.18413 3.91306ZM12.6195 14.6612C12.4496 14.8315 12.2431 14.9167 12 14.9167C11.7569 14.9167 11.5504 14.8315 11.3805 14.6612C11.2102 14.4912 11.125 14.2847 11.125 14.0417V12.875H9.95833C9.71528 12.875 9.50878 12.7898 9.33883 12.6195C9.1685 12.4496 9.08333 12.2431 9.08333 12C9.08333 11.7569 9.1685 11.5504 9.33883 11.3805C9.50878 11.2102 9.71528 11.125 9.95833 11.125H11.125V9.95833C11.125 9.71528 11.2102 9.50878 11.3805 9.33883C11.5504 9.1685 11.7569 9.08333 12 9.08333C12.2431 9.08333 12.4496 9.1685 12.6195 9.33883C12.7898 9.50878 12.875 9.71528 12.875 9.95833V11.125H14.0417C14.2847 11.125 14.4912 11.2102 14.6612 11.3805C14.8315 11.5504 14.9167 11.7569 14.9167 12C14.9167 12.2431 14.8315 12.4496 14.6612 12.6195C14.4912 12.7898 14.2847 12.875 14.0417 12.875H12.875V14.0417C12.875 14.2847 12.7898 14.4912 12.6195 14.6612ZM7.09242 16.9076C7.32108 17.1359 7.59583 17.25 7.91667 17.25H16.0833C16.4042 17.25 16.6789 17.1359 16.9076 16.9076C17.1359 16.6789 17.25 16.4042 17.25 16.0833V7.91666C17.25 7.59583 17.1359 7.32108 16.9076 7.09241C16.6789 6.86414 16.4042 6.75 16.0833 6.75H7.91667C7.59583 6.75 7.32108 6.86414 7.09242 7.09241C6.86414 7.32108 6.75 7.59583 6.75 7.91666V16.0833C6.75 16.4042 6.86414 16.6789 7.09242 16.9076Z"></path></svg>