<svg xmlns="http://www.w3.org/2000/svg" viewBox="0 0 25 35" height="35" width="25"><title>hindu.svg</title><rect fill="none" x="0" y="0" width="25" height="35"></rect><rect x="0" y="0" width="25" height="35" rx="12.5" ry="12.5" fill="#9d9ebf"></rect><path fill="#54585c" transform="translate(0 0)" d="M3.18413 3.91306C5.08635 1.86862 6.8819 0.837508 9.6019 0.197509C11.113 -0.158048 14.0463 -0.0158244 15.6463 0.481952C17.6552 1.10417 19.0419 1.97528 20.713 3.66417C23.1308 6.09973 24.1441 8.55306 24.1619 12.0375C24.1797 14.3308 23.9308 15.3797 22.8819 17.5308C22.1175 19.1131 21.8864 19.3975 19.3797 21.8864C15.0597 26.1886 12.9263 29.8864 12.3041 34.1353C12.2697 34.3793 11.918 34.3783 11.8775 34.1353C11.1308 29.6553 9.1219 26.1886 4.81968 21.9042C1.88635 18.9886 1.22857 18.0108 0.428571 15.4153C-0.104762 13.7086 -0.140317 10.7575 0.321905 9.01529C0.83746 7.09529 1.79746 5.38862 3.18413 3.91306ZM5.84595 11.7252L5.14079 11.9279L5 11.9679L5.01214 12.1136C5.0971 13.0797 5.2925 13.9669 5.59714 14.774C5.90299 15.5823 6.32172 16.3093 6.85089 16.9538C7.38249 17.6043 7.96385 18.0922 8.59497 18.4199C9.22974 18.7488 9.91062 18.9139 10.6388 18.9139C11.0879 18.9139 11.4969 18.8484 11.8647 18.7161C12.2361 18.5838 12.5638 18.3835 12.8453 18.1189C13.1281 17.8519 13.3405 17.5448 13.4813 17.1953C13.6209 16.8482 13.6913 16.4622 13.6913 16.0362C13.6913 15.5277 13.5893 15.0082 13.3854 14.479C13.2022 14.0045 12.9376 13.5214 12.5893 13.0323C12.8004 12.894 12.9971 12.7859 13.1803 12.7095C13.3927 12.6209 13.5821 12.576 13.7471 12.576C13.8976 12.576 14.0117 12.6488 14.0894 12.7944C14.1865 12.9777 14.235 13.2641 14.235 13.6537V14.3322C14.235 14.7885 14.2678 15.1818 14.3321 15.5107C14.4001 15.8505 14.502 16.1248 14.6404 16.3336C14.7848 16.5508 14.9766 16.7147 15.2181 16.8239C15.4511 16.9295 15.7291 16.9829 16.0507 16.9829C16.5059 16.9829 16.9149 16.8773 17.279 16.6673C17.6407 16.4586 17.9538 16.1479 18.2196 15.7352C18.4805 15.3286 18.6759 14.8529 18.8058 14.3091C18.9345 13.7715 18.9988 13.1646 18.9988 12.4898C18.9988 11.8271 18.9478 11.2445 18.8446 10.7409C18.7403 10.2311 18.5837 9.80389 18.3725 9.46041C18.1577 9.10601 17.8858 8.84142 17.5593 8.66301C17.2329 8.4846 16.8542 8.396 16.4245 8.396C15.7631 8.396 15.2266 8.5999 14.814 9.0077C14.4401 9.37788 14.1743 9.91433 14.019 10.6171C13.9595 10.611 13.911 10.6074 13.8721 10.6074C13.4728 10.6074 13.0674 10.7105 12.6524 10.9181C12.287 11.1001 11.9156 11.3647 11.537 11.7094L11.469 11.6463C11.5212 11.5249 11.5612 11.3963 11.5892 11.2603C11.628 11.0819 11.6474 10.8938 11.6474 10.6935C11.6474 10.2384 11.5795 9.82452 11.4435 9.4507C11.3076 9.07567 11.1013 8.74311 10.827 8.45547C10.5515 8.16661 10.2335 7.94936 9.87299 7.80371C9.51496 7.6605 9.11807 7.58767 8.68236 7.58767C8.35709 7.58767 8.03546 7.62408 7.71868 7.69691C7.40191 7.76973 7.0912 7.87896 6.78778 8.02339L6.63606 8.095L7.39584 9.97016L7.57061 9.87307C7.91287 9.68373 8.24543 9.54294 8.56827 9.44949C8.88747 9.35724 9.19939 9.31112 9.50403 9.31112C9.70672 9.31112 9.87906 9.33176 10.0247 9.37181C10.1606 9.41065 10.2735 9.46648 10.3621 9.5393C10.4446 9.61091 10.5078 9.69951 10.549 9.8051C10.5939 9.91797 10.6158 10.0539 10.6158 10.2117C10.6158 10.6316 10.4568 10.9921 10.14 11.2955C9.80624 11.6135 9.30134 11.872 8.62167 12.0699L8.42991 12.1257L9.22003 13.9863L9.38509 13.911C9.714 13.7618 10.0199 13.5688 10.3039 13.3285C10.5369 13.1318 10.7541 12.9049 10.9568 12.6488C11.3173 13.036 11.5916 13.4389 11.7809 13.8601C11.9921 14.3322 12.0977 14.8286 12.0977 15.3493C12.0977 15.626 12.0528 15.8797 11.963 16.1103C11.8732 16.3409 11.7372 16.5508 11.5564 16.7402C11.3756 16.9283 11.1765 17.0679 10.9568 17.1613C10.7384 17.2548 10.4968 17.3009 10.2322 17.3009C9.71279 17.3009 9.22488 17.1807 8.76974 16.9404C8.30854 16.6977 7.87768 16.3311 7.47594 15.842C7.06814 15.3456 6.73195 14.7715 6.46615 14.1222C6.19913 13.468 6.00251 12.735 5.87629 11.9242L5.84595 11.7252ZM15.1356 11.3319C15.0664 11.1584 14.9693 11.0212 14.8467 10.9205C14.9899 10.6729 15.1647 10.4836 15.3747 10.3525C15.6199 10.1983 15.916 10.1207 16.2631 10.1207C16.5119 10.1207 16.7365 10.1753 16.9355 10.2833C17.1382 10.3937 17.319 10.5612 17.478 10.7858C17.6419 11.0152 17.7645 11.281 17.8458 11.5807C17.9295 11.8854 17.9708 12.2276 17.9708 12.6075C17.9708 12.9983 17.9247 13.3539 17.8336 13.6756C17.7438 13.9936 17.6091 14.2776 17.4295 14.5264L17.4283 14.5276C17.2511 14.774 17.0532 14.9585 16.836 15.0798C16.6212 15.1988 16.3845 15.2582 16.1248 15.2582C15.8444 15.2582 15.6356 15.149 15.4985 14.9318C15.3443 14.6878 15.2679 14.3103 15.2679 13.7982V12.1609C15.2679 11.8271 15.223 11.5504 15.1356 11.3319ZM10.2177 5.48312L9.62176 5.92369L9.48583 6.02322L9.57685 6.16279C10.0271 6.85339 10.532 7.37285 11.0903 7.72118C11.6559 8.07437 12.2737 8.25035 12.9424 8.25035C13.3903 8.25035 13.8345 8.13626 14.2739 7.90688C14.7047 7.68234 15.1319 7.34615 15.5555 6.90072L15.6854 6.76357L14.1367 5.4722L14.0251 5.6227C13.7665 5.97103 13.4874 6.23197 13.1852 6.40432C12.8902 6.57181 12.5723 6.65677 12.23 6.65677C11.861 6.65677 11.5188 6.57181 11.2044 6.40189C10.8864 6.22955 10.5927 5.9686 10.3233 5.62027L10.2177 5.48312ZM13.6379 5.21975L12.5601 4.12378L12.44 3.99998L11.2081 5.14814L12.4303 6.4031L13.6379 5.21975Z"></path></svg>