<svg xmlns="http://www.w3.org/2000/svg" viewBox="0 0 25 35" height="35" width="25"><title>ice_cream.svg</title><rect fill="none" x="0" y="0" width="25" height="35"></rect><rect x="0" y="0" width="25" height="35" rx="12.5" ry="12.5" fill="#faa264"></rect><path fill="#54585c" transform="translate(0 0)" d="M3.18413 3.91306C5.08635 1.86862 6.8819 0.837509 9.6019 0.197509C11.113 -0.158047 14.0463 -0.0158261 15.6463 0.481952C17.6552 1.10417 19.0419 1.97528 20.713 3.66417C23.1308 6.09973 24.1441 8.55306 24.1619 12.0375C24.1797 14.3308 23.9308 15.3797 22.8819 17.5308C22.1175 19.1131 21.8864 19.3975 19.3797 21.8864C15.0597 26.1886 12.9263 29.8864 12.3041 34.1353C12.2697 34.3793 11.918 34.3783 11.8775 34.1353C11.1308 29.6553 9.1219 26.1886 4.81968 21.9042C1.88635 18.9886 1.22857 18.0108 0.428571 15.4153C-0.104762 13.7086 -0.140317 10.7575 0.321905 9.01529C0.83746 7.09529 1.79746 5.38862 3.18413 3.91306ZM12.0292 14.8617L10.1275 11.2333C10.1858 11.1925 10.2442 11.1458 10.2967 11.0933C10.7867 11.4025 11.3758 11.5833 12 11.5833C12.6242 11.5833 13.2133 11.4025 13.7033 11.0933C13.7558 11.1458 13.8142 11.1925 13.8783 11.2392L12.0292 14.8617ZM7.33333 9.83332C7.33333 10.7667 8.0625 11.525 8.98417 11.5775L12.0408 17.4167L15.0275 11.5775C15.9433 11.525 16.6667 10.7608 16.6667 9.83332C16.6667 8.96415 16.0308 8.24082 15.1967 8.10665C15.0625 6.46165 13.68 5.16665 12 5.16665C10.32 5.16665 8.9375 6.46165 8.80333 8.10665C7.96917 8.24082 7.33333 8.96415 7.33333 9.83332Z"></path></svg>