<svg xmlns="http://www.w3.org/2000/svg" viewBox="0 0 25 35" height="35" width="25"><title>library.svg</title><rect fill="none" x="0" y="0" width="25" height="35"></rect><rect x="0" y="0" width="25" height="35" rx="12.5" ry="12.5" fill="#98a5b3"></rect><path fill="#54585c" transform="translate(0 0)" d="M3.18413 3.91306C5.08635 1.86862 6.8819 0.837506 9.6019 0.197506C11.113 -0.15805 14.0463 -0.015829 15.6463 0.481949C17.6552 1.10417 19.0419 1.97528 20.713 3.66417C23.1308 6.09973 24.1441 8.55306 24.1619 12.0375C24.1797 14.3308 23.9308 15.3797 22.8819 17.5308C22.1175 19.1131 21.8864 19.3975 19.3797 21.8864C15.0597 26.1886 12.9263 29.8864 12.3041 34.1353C12.2697 34.3793 11.918 34.3783 11.8775 34.1353C11.1308 29.6553 9.1219 26.1886 4.81968 21.9042C1.88635 18.9886 1.22857 18.0108 0.428571 15.4153C-0.104762 13.7086 -0.140318 10.7575 0.321905 9.01528C0.83746 7.09528 1.79746 5.38862 3.18413 3.91306ZM13.2618 8.84865C13.1984 8.94121 13.1667 9.03123 13.1667 9.11873C13.1667 9.29373 13.2227 9.42012 13.3347 9.4979C13.4463 9.57568 13.5896 9.58054 13.7646 9.51248C13.9882 9.4347 14.2215 9.37151 14.4646 9.3229C14.7076 9.27429 14.9556 9.24998 15.2083 9.24998C15.3639 9.24998 15.5171 9.25718 15.668 9.27157C15.8185 9.28634 15.9618 9.30832 16.0979 9.33748C16.2632 9.37637 16.3993 9.35693 16.5063 9.27915C16.6132 9.20137 16.6667 9.07984 16.6667 8.91457C16.6667 8.81734 16.635 8.72984 16.5716 8.65207C16.5086 8.57429 16.4333 8.52568 16.3458 8.50623C16.1611 8.46734 15.9741 8.43565 15.7847 8.41115C15.5949 8.38704 15.4028 8.37498 15.2083 8.37498C14.8972 8.37498 14.6007 8.39929 14.3188 8.4479C14.0368 8.49651 13.7549 8.56943 13.4729 8.66665C13.3951 8.69582 13.3247 8.75648 13.2618 8.84865ZM13.2618 12.057C13.1984 12.1495 13.1667 12.2396 13.1667 12.3271C13.1667 12.5021 13.2227 12.6259 13.3347 12.6986C13.4463 12.7718 13.5896 12.7743 13.7646 12.7062C13.9882 12.6285 14.2215 12.5678 14.4646 12.5242C14.7076 12.4803 14.9556 12.4583 15.2083 12.4583C15.3639 12.4583 15.5171 12.4655 15.668 12.4799C15.8185 12.4947 15.9618 12.5166 16.0979 12.5458C16.2632 12.5847 16.3993 12.5653 16.5063 12.4875C16.6132 12.4097 16.6667 12.2882 16.6667 12.1229C16.6667 12.0257 16.635 11.9382 16.5716 11.8604C16.5086 11.7826 16.4333 11.734 16.3458 11.7146C16.1611 11.6757 15.9741 11.644 15.7847 11.6195C15.5949 11.5954 15.4028 11.5833 15.2083 11.5833C14.8972 11.5833 14.6007 11.6076 14.3188 11.6562C14.0368 11.7048 13.7549 11.7778 13.4729 11.875C13.3951 11.9041 13.3247 11.9648 13.2618 12.057ZM13.2618 10.4528C13.1984 10.5454 13.1667 10.6354 13.1667 10.7229C13.1667 10.8979 13.2227 11.0243 13.3347 11.1021C13.4463 11.1798 13.5896 11.1847 13.7646 11.1166C13.9882 11.0389 14.2215 10.9757 14.4646 10.9271C14.7076 10.8785 14.9556 10.8541 15.2083 10.8541C15.3639 10.8541 15.5171 10.8613 15.668 10.8757C15.8185 10.8905 15.9618 10.9125 16.0979 10.9416C16.2632 10.9805 16.3993 10.9611 16.5063 10.8833C16.6132 10.8055 16.6667 10.684 16.6667 10.5187C16.6667 10.4215 16.635 10.334 16.5716 10.2562C16.5086 10.1785 16.4333 10.1298 16.3458 10.1104C16.1611 10.0715 15.9741 10.0398 15.7847 10.0153C15.5949 9.99121 15.4028 9.97915 15.2083 9.97915C14.8972 9.97915 14.6007 10.0035 14.3188 10.0521C14.0368 10.1007 13.7549 10.1736 13.4729 10.2708C13.3951 10.3 13.3247 10.3606 13.2618 10.4528ZM13.8742 13.4861C13.4414 13.5884 13.0111 13.7416 12.5833 13.9458V8.19998C12.9819 7.96665 13.4049 7.79165 13.8521 7.67498C14.2993 7.55832 14.7514 7.49998 15.2083 7.49998C15.5583 7.49998 15.906 7.53401 16.2513 7.60207C16.5963 7.67012 16.9292 7.7722 17.25 7.90832V13.6833C16.9097 13.5666 16.572 13.4791 16.2367 13.4208C15.9011 13.3625 15.5583 13.3333 15.2083 13.3333C14.7514 13.3333 14.3067 13.3843 13.8742 13.4861ZM11.6138 15.3096C11.7352 15.3435 11.8639 15.3604 12 15.3604C12.1361 15.3604 12.265 15.3435 12.3868 15.3096C12.5081 15.2754 12.6222 15.2291 12.7292 15.1708C13.1083 14.9472 13.5069 14.7796 13.925 14.668C14.3431 14.556 14.7708 14.5 15.2083 14.5C15.6167 14.5 16.0176 14.5535 16.4112 14.6604C16.8051 14.7673 17.1819 14.918 17.5417 15.1125C17.7458 15.2194 17.9428 15.2146 18.1326 15.0979C18.322 14.9812 18.4167 14.8111 18.4167 14.5875V7.55832C18.4167 7.45137 18.39 7.34929 18.3368 7.25207C18.2831 7.15484 18.2028 7.08193 18.0958 7.03332C17.6486 6.79998 17.1819 6.62498 16.6958 6.50832C16.2097 6.39165 15.7139 6.33332 15.2083 6.33332C14.6444 6.33332 14.0928 6.40623 13.5534 6.55207C13.0136 6.6979 12.4958 6.91665 12 7.20832C11.5042 6.91665 10.9866 6.6979 10.4472 6.55207C9.90739 6.40623 9.35556 6.33332 8.79167 6.33332C8.28611 6.33332 7.79028 6.39165 7.30417 6.50832C6.81806 6.62498 6.35139 6.79998 5.90417 7.03332C5.79722 7.08193 5.71711 7.15484 5.66383 7.25207C5.61017 7.34929 5.58333 7.45137 5.58333 7.55832V14.5875C5.58333 14.8111 5.67822 14.9812 5.868 15.0979C6.05739 15.2146 6.25417 15.2194 6.45833 15.1125C6.81806 14.918 7.19489 14.7673 7.58883 14.6604C7.98239 14.5535 8.38333 14.5 8.79167 14.5C9.22917 14.5 9.65694 14.556 10.075 14.668C10.4931 14.7796 10.8917 14.9472 11.2708 15.1708C11.3778 15.2291 11.4921 15.2754 11.6138 15.3096Z"></path></svg>