<svg xmlns="http://www.w3.org/2000/svg" viewBox="0 0 25 35" height="35" width="25"><title>military.svg</title><rect fill="none" x="0" y="0" width="25" height="35"></rect><rect x="0" y="0" width="25" height="35" rx="12.5" ry="12.5" fill="#9d9ebf"></rect><path fill="#54585c" transform="translate(0 0)" d="M3.18413 3.91306C5.08635 1.86862 6.8819 0.837506 9.6019 0.197506C11.113 -0.15805 14.0463 -0.015829 15.6463 0.481949C17.6552 1.10417 19.0419 1.97528 20.713 3.66417C23.1308 6.09973 24.1441 8.55306 24.1619 12.0375C24.1797 14.3308 23.9308 15.3797 22.8819 17.5308C22.1175 19.1131 21.8864 19.3975 19.3797 21.8864C15.0597 26.1886 12.9263 29.8864 12.3041 34.1353C12.2697 34.3793 11.918 34.3783 11.8775 34.1353C11.1308 29.6553 9.1219 26.1886 4.81968 21.9042C1.88635 18.9886 1.22857 18.0108 0.428571 15.4153C-0.104762 13.7086 -0.140318 10.7575 0.321905 9.01528C0.83746 7.09528 1.79746 5.38862 3.18413 3.91306ZM10.5778 16.2861C10.6996 16.369 10.8139 16.3666 10.9208 16.2791L12 15.4625L13.0792 16.2791C13.1861 16.3666 13.3004 16.369 13.4222 16.2861C13.5435 16.2037 13.5799 16.0944 13.5312 15.9583L13.1083 14.6166L14.1729 13.8583C14.2896 13.7805 14.3236 13.6736 14.275 13.5375C14.2264 13.4014 14.134 13.3333 13.9979 13.3333H12.7L12.2917 11.9916L14.3625 10.7666C14.5375 10.6597 14.6736 10.5187 14.7708 10.3437C14.8681 10.1687 14.9167 9.96943 14.9167 9.74582V6.33332C14.9167 6.01248 14.8025 5.73773 14.5743 5.50907C14.3456 5.28079 14.0708 5.16665 13.75 5.16665H10.25C9.92917 5.16665 9.65461 5.28079 9.42633 5.50907C9.19767 5.73773 9.08333 6.01248 9.08333 6.33332V9.74582C9.08333 9.96943 9.13194 10.1687 9.22917 10.3437C9.32639 10.5187 9.4625 10.6597 9.6375 10.7666L11.7083 11.9916L11.3 13.3333H10.0021C9.86597 13.3333 9.77361 13.4014 9.725 13.5375C9.67639 13.6736 9.71042 13.7805 9.82708 13.8583L10.8917 14.6166L10.4688 15.9583C10.4201 16.0944 10.4565 16.2037 10.5778 16.2861ZM12.5833 10.4458L12 10.7958L11.4167 10.4458V6.91665C11.4167 6.75137 11.4727 6.61273 11.5847 6.50073C11.6963 6.38912 11.8347 6.33332 12 6.33332C12.1653 6.33332 12.3039 6.38912 12.4159 6.50073C12.5275 6.61273 12.5833 6.75137 12.5833 6.91665V10.4458Z"></path></svg>