<svg xmlns="http://www.w3.org/2000/svg" viewBox="0 0 25 35" height="35" width="25"><title>museum.svg</title><rect fill="none" x="0" y="0" width="25" height="35"></rect><rect x="0" y="0" width="25" height="35" rx="12.5" ry="12.5" fill="#5cbdc4"></rect><path fill="#54585c" transform="translate(0 0)" d="M3.18413 3.91306C5.08635 1.86862 6.88191 0.83751 9.6019 0.19751C11.113 -0.158046 14.0463 -0.0158252 15.6463 0.481953C17.6552 1.10417 19.0419 1.97529 20.713 3.66418C23.1308 6.09973 24.1441 8.55307 24.1619 12.0375C24.1797 14.3308 23.9308 15.3797 22.8819 17.5308C22.1175 19.1131 21.8864 19.3975 19.3797 21.8864C15.0597 26.1886 12.9263 29.8864 12.3041 34.1353C12.2697 34.3793 11.918 34.3783 11.8775 34.1353C11.1308 29.6553 9.12191 26.1886 4.81968 21.9042C1.88635 18.9886 1.22857 18.0108 0.428572 15.4153C-0.104762 13.7086 -0.140317 10.7575 0.321905 9.01529C0.83746 7.09529 1.79746 5.38862 3.18413 3.91306ZM6.33467 16.6653C6.44628 16.7773 6.58472 16.8333 6.75 16.8333H17.25C17.4153 16.8333 17.5537 16.7773 17.6653 16.6653C17.7773 16.5537 17.8333 16.4153 17.8333 16.25C17.8333 16.0847 17.7773 15.9463 17.6653 15.8347C17.5537 15.7227 17.4153 15.6667 17.25 15.6667H16.6667V10.4167H17.0458C17.2694 10.4167 17.4567 10.3414 17.6076 10.1909C17.7581 10.04 17.8333 9.85278 17.8333 9.62917C17.8333 9.52222 17.8016 9.41275 17.7383 9.30075C17.6753 9.18914 17.6049 9.10417 17.5271 9.04583L12.6708 5.63333C12.5639 5.55556 12.4546 5.50208 12.343 5.47292C12.231 5.44375 12.1167 5.42917 12 5.42917C11.8833 5.42917 11.7692 5.44375 11.6576 5.47292C11.5456 5.50208 11.4361 5.55556 11.3292 5.63333L6.47292 9.04583C6.39514 9.10417 6.32475 9.18681 6.26175 9.29375C6.19836 9.40069 6.16667 9.50764 6.16667 9.61458C6.16667 9.8382 6.24211 10.0278 6.393 10.1833C6.5435 10.3389 6.73056 10.4167 6.95417 10.4167H7.33333V15.6667H6.75C6.58472 15.6667 6.44628 15.7227 6.33467 15.8347C6.22267 15.9463 6.16667 16.0847 6.16667 16.25C6.16667 16.4153 6.22267 16.5537 6.33467 16.6653ZM10.6659 14.332C10.5539 14.444 10.4153 14.5 10.25 14.5C10.0847 14.5 9.94628 14.444 9.83467 14.332C9.72267 14.2204 9.66667 14.0819 9.66667 13.9167V11.175C9.66667 10.9611 9.73958 10.7813 9.88542 10.6354C10.0312 10.4896 10.2111 10.4167 10.425 10.4167C10.5417 10.4167 10.6609 10.4507 10.7826 10.5188C10.9039 10.5868 10.9938 10.6646 11.0521 10.7521L12 12.1667L12.9479 10.7521C13.0063 10.6646 13.0963 10.5868 13.218 10.5188C13.3393 10.4507 13.4535 10.4167 13.5604 10.4167C13.7743 10.4167 13.9567 10.4896 14.1076 10.6354C14.2581 10.7813 14.3333 10.9611 14.3333 11.175V13.9167C14.3333 14.0819 14.2775 14.2204 14.1659 14.332C14.0539 14.444 13.9153 14.5 13.75 14.5C13.5847 14.5 13.4463 14.444 13.3347 14.332C13.2227 14.2204 13.1667 14.0819 13.1667 13.9167V12.1667L12.4812 13.1875C12.4229 13.275 12.3525 13.3405 12.2701 13.3841C12.1873 13.428 12.0972 13.45 12 13.45C11.9125 13.45 11.825 13.428 11.7375 13.3841C11.65 13.3405 11.5771 13.275 11.5188 13.1875L10.8333 12.1667V13.9167C10.8333 14.0819 10.7775 14.2204 10.6659 14.332Z"></path></svg>