<svg xmlns="http://www.w3.org/2000/svg" viewBox="0 0 25 35" height="35" width="25"><title>muslim.svg</title><rect fill="none" x="0" y="0" width="25" height="35"></rect><rect x="0" y="0" width="25" height="35" rx="12.5" ry="12.5" fill="#9d9ebf"></rect><path fill="#54585c" transform="translate(0 0)" d="M3.18413 3.91306C5.08635 1.86862 6.8819 0.837509 9.60191 0.197509C11.113 -0.158047 14.0463 -0.0158261 15.6463 0.481952C17.6552 1.10417 19.0419 1.97528 20.713 3.66417C23.1308 6.09973 24.1441 8.55306 24.1619 12.0375C24.1797 14.3308 23.9308 15.3797 22.8819 17.5308C22.1175 19.1131 21.8864 19.3975 19.3797 21.8864C15.0597 26.1886 12.9263 29.8864 12.3041 34.1353C12.2697 34.3793 11.918 34.3783 11.8775 34.1353C11.1308 29.6553 9.1219 26.1886 4.81968 21.9042C1.88635 18.9886 1.22857 18.0108 0.428571 15.4153C-0.104762 13.7086 -0.140317 10.7575 0.321905 9.01529C0.83746 7.09529 1.79746 5.38862 3.18413 3.91306ZM15.0594 17.4531C15.2605 17.3589 15.6809 17.105 16.3186 16.6914C16.2775 16.6997 16.2367 16.7079 16.196 16.716C13.5675 17.2442 11.7949 17.6003 9.59774 15.3806C8.40637 14.1789 7.81126 12.7382 7.81126 11.0586C7.81126 9.36631 8.40982 7.92219 9.60463 6.72738C11.8285 4.50928 13.6366 4.87415 16.3173 5.41512L16.3186 5.41538C14.971 4.47217 13.5682 3.99998 12.1137 3.99998C10.1354 3.99998 8.45577 4.687 7.07254 6.05644C5.69046 7.42703 5 9.09288 5 11.0586C5 13.0116 5.68702 14.674 7.06335 16.0504C8.43969 17.4267 10.1021 18.1172 12.0551 18.1172C13.1098 18.1172 14.1128 17.8954 15.0594 17.4531ZM15.6775 10.2486H13.6268L15.2869 11.4492L14.655 13.408L16.3186 12.204L17.9683 13.408L17.3399 11.4492L19 10.2486H16.947L16.3186 8.29902L15.6775 10.2486Z"></path></svg>