<svg xmlns="http://www.w3.org/2000/svg" viewBox="0 0 25 35" height="35" width="25"><title>office.svg</title><rect fill="none" x="0" y="0" width="25" height="35"></rect><rect x="0" y="0" width="25" height="35" rx="12.5" ry="12.5" fill="#baa4a8"></rect><path fill="#54585c" transform="translate(0 0)" d="M3.18413 3.91306C5.08635 1.86862 6.88191 0.837506 9.6019 0.197506C11.113 -0.15805 14.0463 -0.015829 15.6463 0.481949C17.6552 1.10417 19.0419 1.97528 20.713 3.66417C23.1308 6.09973 24.1441 8.55306 24.1619 12.0375C24.1797 14.3308 23.9308 15.3797 22.8819 17.5308C22.1175 19.1131 21.8864 19.3975 19.3797 21.8864C15.0597 26.1886 12.9263 29.8864 12.3041 34.1353C12.2697 34.3793 11.918 34.3783 11.8775 34.1353C11.1308 29.6553 9.12191 26.1886 4.81968 21.9042C1.88635 18.9886 1.22857 18.0108 0.428572 15.4153C-0.104762 13.7086 -0.140317 10.7575 0.321905 9.01528C0.837461 7.09528 1.79746 5.38862 3.18413 3.91306ZM9.08333 15.6666V14.5H14.9167V15.6666C14.9167 15.8319 14.9727 15.9704 15.0847 16.082C15.1963 16.194 15.3347 16.25 15.5 16.25C15.6653 16.25 15.8037 16.194 15.9153 16.082C16.0273 15.9704 16.0833 15.8319 16.0833 15.6666V12.1666C16.0833 11.8458 15.9692 11.5711 15.7409 11.3424C15.5123 11.1141 15.2375 11 14.9167 11H14.3333V9.83332H14.9167C15.2375 9.83332 15.5123 9.71898 15.7409 9.49032C15.9692 9.26204 16.0833 8.98748 16.0833 8.66665V6.91665C16.0833 6.59582 15.9692 6.32107 15.7409 6.0924C15.5123 5.86412 15.2375 5.74998 14.9167 5.74998H9.08333C8.7625 5.74998 8.48794 5.86412 8.25967 6.0924C8.031 6.32107 7.91667 6.59582 7.91667 6.91665V8.66665C7.91667 8.98748 8.031 9.26204 8.25967 9.49032C8.48794 9.71898 8.7625 9.83332 9.08333 9.83332H9.66667V11H9.08333C8.7625 11 8.48794 11.1141 8.25967 11.3424C8.031 11.5711 7.91667 11.8458 7.91667 12.1666V15.6666C7.91667 15.8319 7.97247 15.9704 8.08408 16.082C8.19608 16.194 8.33472 16.25 8.5 16.25C8.66528 16.25 8.80392 16.194 8.91592 16.082C9.02753 15.9704 9.08333 15.8319 9.08333 15.6666ZM13.1667 11H10.8333V9.83332H13.1667V11Z"></path></svg>