<svg xmlns="http://www.w3.org/2000/svg" viewBox="0 0 26 35" height="35" width="26"><title>others-1.svg</title><rect fill="none" x="0" y="0" width="26" height="35"></rect><rect x="0" y="0" width="26" height="35" rx="13" ry="13" fill="#98a5b3"></rect><path fill="#54585c" transform="translate(0 0)" d="M4.0447 3.91306C5.94692 1.86862 7.74247 0.83751 10.4625 0.19751C11.9736 -0.158046 14.9069 -0.0158252 16.5069 0.481953C18.5158 1.10417 19.9025 1.97529 21.5736 3.66418C23.9914 6.09973 25.0047 8.55307 25.0225 12.0375C25.0403 14.3308 24.7914 15.3797 23.7425 17.5308C22.978 19.1131 22.7469 19.3975 20.2403 21.8864C15.9203 26.1886 13.7869 29.8864 13.1647 34.1353C13.1303 34.3793 12.7785 34.3783 12.738 34.1353C11.9914 29.6553 9.98247 26.1886 5.68025 21.9042C2.74692 18.9886 2.08914 18.0108 1.28914 15.4153C0.755807 13.7086 0.720251 10.7575 1.18247 9.01529C1.69803 7.09529 2.65803 5.38862 4.0447 3.91306ZM12.8606 5.16667C9.63882 5.16667 7.02724 7.77825 7.02724 11C7.02724 14.2217 9.63882 16.8333 12.8606 16.8333C16.0823 16.8333 18.6939 14.2217 18.6939 11C18.6939 7.77825 16.0823 5.16667 12.8606 5.16667ZM12.2418 7.75628C12.0778 7.92037 11.9856 8.14293 11.9856 8.375V8.38083C11.9856 8.6129 12.0778 8.83546 12.2418 8.99955C12.4059 9.16365 12.6285 9.25583 12.8606 9.25583H12.8664C13.0985 9.25583 13.321 9.16365 13.4851 8.99955C13.6492 8.83546 13.7414 8.6129 13.7414 8.38083V8.375C13.7414 8.14293 13.6492 7.92037 13.4851 7.75628C13.321 7.59219 13.0985 7.5 12.8664 7.5H12.8606C12.6285 7.5 12.4059 7.59219 12.2418 7.75628ZM12.2418 10.3813C12.4059 10.2172 12.6285 10.125 12.8606 10.125H12.8664C13.0985 10.125 13.321 10.2172 13.4851 10.3813C13.6492 10.5454 13.7414 10.7679 13.7414 11V11.0058C13.7414 11.2379 13.6492 11.4605 13.4851 11.6246C13.321 11.7886 13.0985 11.8808 12.8664 11.8808H12.8606C12.6285 11.8808 12.4059 11.7886 12.2418 11.6246C12.0778 11.4605 11.9856 11.2379 11.9856 11.0058V11C11.9856 10.7679 12.0778 10.5454 12.2418 10.3813ZM12.2418 13.0063C12.4059 12.8422 12.6285 12.75 12.8606 12.75H12.8664C13.0985 12.75 13.321 12.8422 13.4851 13.0063C13.6492 13.1704 13.7414 13.3929 13.7414 13.625V13.6308C13.7414 13.8629 13.6492 14.0855 13.4851 14.2496C13.321 14.4136 13.0985 14.5058 12.8664 14.5058H12.8606C12.6285 14.5058 12.4059 14.4136 12.2418 14.2496C12.0778 14.0855 11.9856 13.8629 11.9856 13.6308V13.625C11.9856 13.3929 12.0778 13.1704 12.2418 13.0063Z"></path></svg>