<svg xmlns="http://www.w3.org/2000/svg" viewBox="0 0 25 35" height="35" width="25"><title>parking.svg</title><rect fill="none" x="0" y="0" width="25" height="35"></rect><rect x="0" y="0" width="25" height="35" rx="12.5" ry="12.5" fill="#7fa8d4"></rect><path fill="#54585c" transform="translate(0 0)" d="M3.18413 3.91306C5.08635 1.86862 6.88191 0.837506 9.6019 0.197506C11.113 -0.15805 14.0463 -0.015829 15.6463 0.481949C17.6552 1.10417 19.0419 1.97528 20.713 3.66417C23.1308 6.09973 24.1441 8.55306 24.1619 12.0375C24.1797 14.3308 23.9308 15.3797 22.8819 17.5308C22.1175 19.1131 21.8864 19.3975 19.3797 21.8864C15.0597 26.1886 12.9263 29.8864 12.3041 34.1353C12.2697 34.3793 11.918 34.3783 11.8775 34.1353C11.1308 29.6553 9.12191 26.1886 4.81968 21.9042C1.88635 18.9886 1.22857 18.0108 0.428572 15.4153C-0.104762 13.7086 -0.140317 10.7575 0.321905 9.01528C0.837461 7.09528 1.79746 5.38862 3.18413 3.91306ZM8.843 15.9076C9.07128 16.1358 9.34583 16.25 9.66667 16.25C9.9875 16.25 10.2622 16.1358 10.4909 15.9076C10.7192 15.6789 10.8333 15.4041 10.8333 15.0833V12.75H12.5833C13.5556 12.75 14.3819 12.4097 15.0625 11.7291C15.7431 11.0486 16.0833 10.2222 16.0833 9.24998C16.0833 8.27776 15.7431 7.45137 15.0625 6.77082C14.3819 6.09026 13.5556 5.74998 12.5833 5.74998H9.66667C9.34583 5.74998 9.07128 5.86412 8.843 6.0924C8.61433 6.32107 8.5 6.59582 8.5 6.91665V15.0833C8.5 15.4041 8.61433 15.6789 8.843 15.9076ZM12.7 10.4166H10.8333V8.08332H12.7C13.0208 8.08332 13.2956 8.19745 13.5243 8.42573C13.7525 8.6544 13.8667 8.92915 13.8667 9.24998C13.8667 9.57082 13.7525 9.84537 13.5243 10.0736C13.2956 10.3023 13.0208 10.4166 12.7 10.4166Z"></path></svg>