<svg xmlns="http://www.w3.org/2000/svg" viewBox="0 0 25 35" height="35" width="25"><title>park.svg</title><rect fill="none" x="0" y="0" width="25" height="35"></rect><rect x="0" y="0" width="25" height="35" rx="12.5" ry="12.5" fill="#80d980"></rect><path fill="#54585c" transform="translate(0 0)" d="M3.18413 3.91306C5.08635 1.86862 6.8819 0.83751 9.6019 0.19751C11.113 -0.158046 14.0463 -0.0158252 15.6463 0.481953C17.6552 1.10417 19.0419 1.97529 20.713 3.66418C23.1308 6.09973 24.1441 8.55307 24.1619 12.0375C24.1797 14.3308 23.9308 15.3797 22.8819 17.5308C22.1175 19.1131 21.8864 19.3975 19.3797 21.8864C15.0597 26.1886 12.9263 29.8864 12.3041 34.1353C12.2697 34.3793 11.918 34.3783 11.8775 34.1353C11.1308 29.6553 9.1219 26.1886 4.81968 21.9042C1.88635 18.9886 1.22857 18.0108 0.428571 15.4153C-0.104762 13.7086 -0.140318 10.7575 0.321904 9.01529C0.83746 7.09529 1.79746 5.38862 3.18413 3.91306ZM6.99792 10.1687C7.16319 10.334 7.37222 10.4167 7.625 10.4167C7.87778 10.4167 8.08681 10.334 8.25208 10.1687C8.41736 10.0035 8.5 9.79444 8.5 9.54167C8.5 9.28889 8.41736 9.07986 8.25208 8.91458C8.08681 8.7493 7.87778 8.66667 7.625 8.66667C7.37222 8.66667 7.16319 8.7493 6.99792 8.91458C6.83264 9.07986 6.75 9.28889 6.75 9.54167C6.75 9.79444 6.83264 10.0035 6.99792 10.1687ZM6.918 16.6653C7.02961 16.7773 7.16806 16.8333 7.33333 16.8333H16.6667C16.8319 16.8333 16.9704 16.7773 17.082 16.6653C17.194 16.5537 17.25 16.4153 17.25 16.25C17.25 16.0847 17.194 15.9463 17.082 15.8347C16.9704 15.7227 16.8319 15.6667 16.6667 15.6667H14.3333V12.75H15.3542C16.0444 12.75 16.6303 12.5093 17.1117 12.0278C17.5928 11.5468 17.8333 10.9611 17.8333 10.2708C17.8333 9.75555 17.6949 9.29608 17.418 8.89242C17.1407 8.48914 16.7833 8.19028 16.3458 7.99583C16.2389 7.36389 15.9449 6.8315 15.4638 6.39867C14.9824 5.96622 14.4111 5.75 13.75 5.75C13.0889 5.75 12.5176 5.96622 12.0362 6.39867C11.5551 6.8315 11.2611 7.36389 11.1542 7.99583C10.7167 8.19028 10.3595 8.48914 10.0826 8.89242C9.80531 9.29608 9.66667 9.75555 9.66667 10.2708C9.66667 10.9611 9.90739 11.5468 10.3888 12.0278C10.8699 12.5093 11.4556 12.75 12.1458 12.75H13.1667V15.6667H8.5V13.9167H8.79167C8.86944 13.9167 8.9375 13.8875 8.99583 13.8292C9.05417 13.7708 9.08333 13.7028 9.08333 13.625V11.5833C9.08333 11.4181 9.02753 11.2794 8.91592 11.1674C8.80392 11.0558 8.66528 11 8.5 11H6.75C6.58472 11 6.44628 11.0558 6.33467 11.1674C6.22267 11.2794 6.16667 11.4181 6.16667 11.5833V13.625C6.16667 13.7028 6.19583 13.7708 6.25417 13.8292C6.3125 13.8875 6.38056 13.9167 6.45833 13.9167H6.75V16.25C6.75 16.4153 6.806 16.5537 6.918 16.6653Z"></path></svg>