<svg xmlns="http://www.w3.org/2000/svg" viewBox="0 0 25 35" height="35" width="25"><title>place_of_worship.svg</title><rect fill="none" x="0" y="0" width="25" height="35"></rect><rect x="0" y="0" width="25" height="35" rx="12.5" ry="12.5" fill="#9d9ebf"></rect><path fill="#54585c" transform="translate(0 0)" d="M3.18413 3.91306C5.08635 1.86862 6.8819 0.837509 9.6019 0.197509C11.113 -0.158047 14.0463 -0.0158261 15.6463 0.481952C17.6552 1.10417 19.0419 1.97528 20.713 3.66417C23.1308 6.09973 24.1441 8.55306 24.1619 12.0375C24.1797 14.3308 23.9308 15.3797 22.8819 17.5308C22.1175 19.1131 21.8864 19.3975 19.3797 21.8864C15.0597 26.1886 12.9263 29.8864 12.3041 34.1353C12.2697 34.3793 11.918 34.3783 11.8775 34.1353C11.1308 29.6553 9.12191 26.1886 4.81968 21.9042C1.88635 18.9886 1.22857 18.0108 0.428571 15.4153C-0.104762 13.7086 -0.140317 10.7575 0.321905 9.01529C0.83746 7.09529 1.79746 5.38862 3.18413 3.91306ZM10.5055 18.5987C11.0935 18.8662 11.7424 19 12.4521 19C13.1618 19 13.8109 18.8662 14.3992 18.5987C14.9872 18.3315 15.4926 17.9743 15.9153 17.5271C16.3384 17.0799 16.6667 16.5669 16.9 15.9882C17.1333 15.41 17.25 14.8097 17.25 14.1875V10.3958C17.25 10.1917 17.1796 10.0192 17.0388 9.87842C16.8977 9.73725 16.725 9.66667 16.5208 9.66667C16.3167 9.66667 16.1442 9.73725 16.0034 9.87842C15.8622 10.0192 15.7917 10.1917 15.7917 10.3958V13.4583C15.7917 13.5361 15.7625 13.6042 15.7042 13.6625C15.6458 13.7208 15.5778 13.75 15.5 13.75C15.0625 13.75 14.6785 13.8935 14.3479 14.1805C14.0174 14.4671 13.8229 14.8243 13.7646 15.2521C13.7549 15.3299 13.7257 15.3905 13.6771 15.4341C13.6285 15.478 13.5701 15.5 13.5021 15.5C13.4049 15.5 13.3247 15.466 13.2617 15.3979C13.1984 15.3299 13.1764 15.2521 13.1958 15.1646C13.2736 14.6493 13.4924 14.2095 13.8521 13.8451C14.2118 13.4803 14.6639 13.259 15.2083 13.1812V6.89583C15.2083 6.69167 15.1379 6.519 14.9972 6.37783C14.856 6.23705 14.6833 6.16667 14.4792 6.16667C14.275 6.16667 14.1025 6.23705 13.9617 6.37783C13.8206 6.519 13.75 6.69167 13.75 6.89583V11.125C13.75 11.2028 13.7208 11.2708 13.6625 11.3292C13.6042 11.3875 13.5361 11.4167 13.4583 11.4167C13.3806 11.4167 13.3125 11.3875 13.2542 11.3292C13.1958 11.2708 13.1667 11.2028 13.1667 11.125V5.72917C13.1667 5.525 13.0961 5.35233 12.9549 5.21117C12.8141 5.07039 12.6417 5 12.4375 5C12.2333 5 12.0609 5.07039 11.9201 5.21117C11.7789 5.35233 11.7083 5.525 11.7083 5.72917V11.125C11.7083 11.2028 11.6792 11.2708 11.6208 11.3292C11.5625 11.3875 11.4944 11.4167 11.4167 11.4167C11.3389 11.4167 11.2708 11.3875 11.2125 11.3292C11.1542 11.2708 11.125 11.2028 11.125 11.125V6.60417C11.125 6.4 11.0544 6.22733 10.9132 6.08617C10.7725 5.94539 10.6 5.875 10.3958 5.875C10.1917 5.875 10.0192 5.94539 9.87841 6.08617C9.73725 6.22733 9.66666 6.4 9.66666 6.60417V11.7083C9.66666 11.7861 9.6375 11.8542 9.57916 11.9125C9.52083 11.9708 9.45278 12 9.375 12C9.29722 12 9.22916 11.9708 9.17083 11.9125C9.1125 11.8542 9.08333 11.7861 9.08333 11.7083V8.35417C9.08333 8.15 9.01294 7.97733 8.87216 7.83617C8.731 7.69539 8.55833 7.625 8.35416 7.625C8.15 7.625 7.97752 7.69539 7.83675 7.83617C7.69558 7.97733 7.625 8.15 7.625 8.35417V14.1875C7.625 14.8097 7.74419 15.4125 7.98258 15.9958C8.22058 16.5792 8.55347 17.0921 8.98125 17.5347C9.40903 17.9768 9.91711 18.3315 10.5055 18.5987Z"></path></svg>