<svg xmlns="http://www.w3.org/2000/svg" viewBox="0 0 25 35" height="35" width="25"><title>playground.svg</title><rect fill="none" x="0" y="0" width="25" height="35"></rect><rect x="0" y="0" width="25" height="35" rx="12.5" ry="12.5" fill="#80d980"></rect><path fill="#54585c" transform="translate(0 0)" d="M3.18413 3.91306C5.08635 1.86862 6.8819 0.837506 9.6019 0.197506C11.113 -0.15805 14.0463 -0.015829 15.6463 0.481949C17.6552 1.10417 19.0419 1.97528 20.713 3.66417C23.1308 6.09973 24.1441 8.55306 24.1619 12.0375C24.1797 14.3308 23.9308 15.3797 22.8819 17.5308C22.1175 19.1131 21.8864 19.3975 19.3797 21.8864C15.0597 26.1886 12.9263 29.8864 12.3041 34.1353C12.2697 34.3793 11.918 34.3783 11.8775 34.1353C11.1308 29.6553 9.1219 26.1886 4.81968 21.9042C1.88635 18.9886 1.22857 18.0108 0.428571 15.4153C-0.104762 13.7086 -0.140318 10.7575 0.321905 9.01528C0.83746 7.09528 1.79746 5.38862 3.18413 3.91306ZM17.8567 12.8841L17.6467 11.735L15.9258 12.0441L15.7217 10.895C15.6633 10.58 15.36 10.37 15.045 10.4166C14.7242 10.4808 14.5142 10.7841 14.5725 11.105L14.7767 12.2541L9.03667 13.2808L8.8325 12.1375C8.77417 11.8166 8.47083 11.6066 8.15583 11.665C7.835 11.7233 7.625 12.0266 7.68333 12.3416L7.8875 13.4908L6.16667 13.8L6.37083 14.9491L17.8567 12.8841ZM9.66667 16.8333L10.8683 14.7333L12.9217 14.3658L14.3333 16.8333H9.66667Z"></path></svg>