<svg xmlns="http://www.w3.org/2000/svg" viewBox="0 0 25 35" height="35" width="25"><title>police.svg</title><rect fill="none" x="0" y="0" width="25" height="35"></rect><rect x="0" y="0" width="25" height="35" rx="12.5" ry="12.5" fill="#9d9ebf"></rect><path fill="#54585c" transform="translate(0 0)" d="M3.18413 3.91306C5.08635 1.86862 6.8819 0.837509 9.6019 0.197509C11.113 -0.158047 14.0463 -0.0158261 15.6463 0.481952C17.6552 1.10417 19.0419 1.97528 20.713 3.66417C23.1308 6.09973 24.1441 8.55306 24.1619 12.0375C24.1797 14.3308 23.9308 15.3797 22.8819 17.5308C22.1175 19.1131 21.8864 19.3975 19.3797 21.8864C15.0597 26.1886 12.9263 29.8864 12.3041 34.1353C12.2697 34.3793 11.918 34.3783 11.8775 34.1353C11.1308 29.6553 9.12191 26.1886 4.81968 21.9042C1.88635 18.9886 1.22857 18.0108 0.428571 15.4153C-0.104762 13.7086 -0.140317 10.7575 0.321905 9.01529C0.83746 7.09529 1.79746 5.38862 3.18413 3.91306ZM12 12.875L11.0667 13.575C10.9597 13.6528 10.8479 13.6553 10.7313 13.5826C10.6146 13.5095 10.5806 13.4049 10.6292 13.2687L10.9792 12.1167L10.0604 11.3729C9.94375 11.2854 9.90972 11.1736 9.95833 11.0375C10.0069 10.9014 10.1042 10.8333 10.25 10.8333H11.3583L11.7375 9.68125C11.7861 9.54514 11.8736 9.47708 12 9.47708C12.1264 9.47708 12.2139 9.54514 12.2625 9.68125L12.6417 10.8333H13.75C13.8958 10.8333 13.9907 10.9014 14.0347 11.0375C14.0782 11.1736 14.0465 11.2854 13.9396 11.3729L12.9917 12.1167L13.3417 13.2687C13.3903 13.4049 13.3563 13.5095 13.2396 13.5826C13.1229 13.6553 13.0111 13.6528 12.9042 13.575L12 12.875ZM11.8542 17.7896H12C12.1361 17.7896 12.2285 17.7799 12.2771 17.7604C13.5507 17.3618 14.6007 16.5718 15.4271 15.3903C16.2535 14.2093 16.6667 12.9042 16.6667 11.475V8.71875C16.6667 8.47569 16.5963 8.25694 16.4555 8.0625C16.3143 7.86805 16.1319 7.72708 15.9083 7.63958L12.4083 6.32708C12.2722 6.27847 12.1361 6.25417 12 6.25417C11.8639 6.25417 11.7278 6.27847 11.5917 6.32708L8.09167 7.63958C7.86806 7.72708 7.68586 7.86805 7.54508 8.0625C7.40392 8.25694 7.33333 8.47569 7.33333 8.71875V11.475C7.33333 12.9042 7.74653 14.2093 8.57292 15.3903C9.39931 16.5718 10.4493 17.3618 11.7229 17.7604C11.7618 17.7799 11.8056 17.7896 11.8542 17.7896Z"></path></svg>