<svg xmlns="http://www.w3.org/2000/svg" viewBox="0 0 25 35" height="35" width="25"><title>post.svg</title><rect fill="none" x="0" y="0" width="25" height="35"></rect><rect x="0" y="0" width="25" height="35" rx="12.5" ry="12.5" fill="#5cbdc4"></rect><path fill="#54585c" transform="translate(0 0)" d="M3.18413 3.91306C5.08635 1.86862 6.8819 0.83751 9.6019 0.19751C11.113 -0.158046 14.0463 -0.0158252 15.6463 0.481953C17.6552 1.10417 19.0419 1.97529 20.713 3.66418C23.1308 6.09973 24.1441 8.55307 24.1619 12.0375C24.1797 14.3308 23.9308 15.3797 22.8819 17.5308C22.1175 19.1131 21.8864 19.3975 19.3797 21.8864C15.0597 26.1886 12.9263 29.8864 12.3041 34.1353C12.2697 34.3793 11.918 34.3783 11.8775 34.1353C11.1308 29.6553 9.1219 26.1886 4.81968 21.9042C1.88635 18.9886 1.22857 18.0108 0.428571 15.4153C-0.104762 13.7086 -0.140318 10.7575 0.321905 9.01529C0.83746 7.09529 1.79746 5.38862 3.18413 3.91306ZM13.1667 11.0583C13.05 11.0583 12.9382 11.0194 12.8313 10.9417L9.08333 8.33125V6.91667L13.1667 9.74583L17.25 6.91667V8.33125L13.5021 10.9417C13.3951 11.0194 13.2833 11.0583 13.1667 11.0583ZM5.92604 15.9073C6.15451 16.1358 6.42917 16.25 6.75 16.25H15.7917C15.9569 16.25 16.0955 16.1941 16.2073 16.0823C16.3191 15.9705 16.375 15.8319 16.375 15.6667C16.375 15.5014 16.3191 15.3628 16.2073 15.251C16.0955 15.1392 15.9569 15.0833 15.7917 15.0833H6.75V8.375C6.75 8.20972 6.6941 8.07118 6.58229 7.95938C6.47049 7.84757 6.33194 7.79167 6.16667 7.79167C6.00139 7.79167 5.86285 7.84757 5.75104 7.95938C5.63924 8.07118 5.58333 8.20972 5.58333 8.375V15.0833C5.58333 15.4042 5.69757 15.6788 5.92604 15.9073ZM8.25937 13.574C8.48785 13.8024 8.7625 13.9167 9.08333 13.9167H17.25C17.5708 13.9167 17.8455 13.8024 18.074 13.574C18.3024 13.3455 18.4167 13.0708 18.4167 12.75V6.91667C18.4167 6.59583 18.3024 6.32118 18.074 6.09271C17.8455 5.86424 17.5708 5.75 17.25 5.75H9.08333C8.7625 5.75 8.48785 5.86424 8.25937 6.09271C8.0309 6.32118 7.91667 6.59583 7.91667 6.91667V12.75C7.91667 13.0708 8.0309 13.3455 8.25937 13.574Z"></path></svg>