<svg xmlns="http://www.w3.org/2000/svg" viewBox="0 0 25 35" height="35" width="25"><title>prison.svg</title><rect fill="none" x="0" y="0" width="25" height="35"></rect><rect x="0" y="0" width="25" height="35" rx="12.5" ry="12.5" fill="#5cbdc4"></rect><path fill="#54585c" transform="translate(0 0)" d="M3.18413 3.91306C5.08635 1.86862 6.8819 0.837509 9.6019 0.197509C11.113 -0.158047 14.0463 -0.0158261 15.6463 0.481952C17.6552 1.10417 19.0419 1.97528 20.713 3.66417C23.1308 6.09973 24.1441 8.55306 24.1619 12.0375C24.1797 14.3308 23.9308 15.3797 22.8819 17.5308C22.1175 19.1131 21.8864 19.3975 19.3797 21.8864C15.0597 26.1886 12.9263 29.8864 12.3041 34.1353C12.2697 34.3793 11.918 34.3783 11.8775 34.1353C11.1308 29.6553 9.12191 26.1886 4.81968 21.9042C1.88635 18.9886 1.22857 18.0108 0.428571 15.4153C-0.104762 13.7086 -0.140317 10.7575 0.321905 9.01529C0.83746 7.09529 1.79746 5.38862 3.18413 3.91306ZM6.80241 5.8229H5V6.41763H6.80355V16.0768H5V16.9575H19.0023V16.0768H17.6465V6.41421H18.9897V5.8229H17.634V3.99998H16.9504V5.8229H15.1001V3.99998H14.4165V5.8229H12.5617V3.99998H11.8781V5.8229H10.0221V3.99998H9.33854V5.8229H7.486V3.99998H6.80241V5.8229ZM9.32943 10.3699L9.31917 9.6328H9.33626V6.41763H7.49398V15.0024C7.80216 14.6168 8.21717 14.5249 8.67249 14.424C8.88711 14.3764 9.11069 14.3269 9.33626 14.2436V10.3699H9.32943ZM10.029 12.6734C10.0278 12.6712 10.0267 12.669 10.0256 12.6668H10.029V12.6734ZM10.029 12.6734V13.8472C10.0518 13.8289 10.0745 13.8084 10.0973 13.7879C10.0575 13.903 10.8447 14.6173 11.8804 14.6447V14.001C11.5108 13.9808 11.1548 13.8547 10.855 13.6375C10.5088 13.3843 10.226 13.0543 10.029 12.6734ZM12.9456 13.7127C12.8255 13.7872 12.698 13.849 12.5651 13.8973V14.557C13.031 14.4121 13.4503 14.1468 13.7808 13.7879C13.9671 13.9566 14.182 14.0909 14.4154 14.1844V10.9168C14.216 12.3638 13.6372 13.282 12.9456 13.7127ZM13.7244 8.11214C14.0502 8.41085 14.289 8.79225 14.4154 9.2158V6.41763H12.5651V7.51935C12.998 7.60857 13.3986 7.81343 13.7244 8.11214ZM10.8369 7.78107C11.1569 7.60385 11.512 7.49932 11.877 7.47492V6.41763H10.0256V8.50031C10.2399 8.20387 10.5169 7.9583 10.8369 7.78107ZM15.2418 14.4064C15.1968 14.3975 15.1514 14.3885 15.1058 14.3792V6.41763H16.9515V16.0802H16.9287C16.6727 14.6894 16.0024 14.5568 15.2418 14.4064ZM11.877 10.7129L10.0256 10.5192V10.3711H11.877V10.7129ZM14.2741 10.4805L12.5651 10.6662V10.6627V10.3665H14.2821C14.2741 10.4075 14.2741 10.444 14.2741 10.4805ZM14.1851 11.1643C14.1859 11.1634 14.1867 11.1626 14.1875 11.1618V11.1504C14.1867 11.155 14.1859 11.1596 14.1851 11.1643ZM12.5651 11.5548C13.1111 11.8449 13.6606 11.7022 14.1851 11.1643C14.1314 11.4698 14.0514 11.7701 13.946 12.0618C13.8969 12.0821 13.8504 12.1402 13.7973 12.2065C13.6594 12.3789 13.4765 12.6074 13.0858 12.3763C12.915 12.3267 12.741 12.2887 12.5651 12.2624V11.5548ZM10.0256 11.3691C10.61 11.8989 11.2344 11.8089 11.877 11.2073V12.2156C11.5348 12.2241 11.1954 12.28 10.8687 12.382C10.4377 12.6318 10.2408 12.3359 10.0941 12.1154C10.0702 12.0795 10.0476 12.0455 10.0256 12.0163V11.3691ZM12.5605 11.147C12.5944 11.1906 12.6326 11.2306 12.6745 11.2666H12.6813C13.1587 11.671 13.6668 11.3452 13.9049 10.861C13.9078 10.8546 13.9108 10.849 13.9135 10.844C13.9245 10.8232 13.9307 10.8117 13.9049 10.7869C13.8821 10.7649 13.8465 10.7703 13.8144 10.7752C13.8015 10.7771 13.7892 10.779 13.7785 10.779L12.5605 10.9692V11.147ZM11.5295 10.9863C11.4738 11.0929 11.3984 11.188 11.3073 11.2666H11.3175C10.8402 11.671 10.332 11.3452 10.0939 10.861C10.0912 10.8549 10.0884 10.8496 10.0859 10.8447C10.0748 10.8235 10.0688 10.812 10.0939 10.7869C10.1159 10.765 10.1512 10.7703 10.1833 10.7752C10.1962 10.7771 10.2085 10.779 10.2192 10.779L11.5295 10.9863ZM12.818 13.0006C12.818 12.9106 12.7212 12.8297 12.5651 12.7728V13.2285C12.7212 13.1704 12.818 13.0906 12.818 13.0006ZM11.2218 12.9995C11.2218 13.1522 11.5067 13.2786 11.8815 13.3048V12.6942C11.5067 12.7204 11.2218 12.8468 11.2218 12.9995Z"></path></svg>