<svg xmlns="http://www.w3.org/2000/svg" viewBox="0 0 25 35" height="35" width="25"><title>restaurant.svg</title><rect fill="none" x="0" y="0" width="25" height="35"></rect><rect x="0" y="0" width="25" height="35" rx="12.5" ry="12.5" fill="#faa264"></rect><path fill="#54585c" transform="translate(0 0)" d="M3.18413 3.91306C5.08635 1.86862 6.8819 0.837509 9.6019 0.197509C11.113 -0.158047 14.0463 -0.0158261 15.6463 0.481952C17.6552 1.10417 19.0419 1.97528 20.713 3.66417C23.1308 6.09973 24.1441 8.55306 24.1619 12.0375C24.1797 14.3308 23.9308 15.3797 22.8819 17.5308C22.1175 19.1131 21.8864 19.3975 19.3797 21.8864C15.0597 26.1886 12.9263 29.8864 12.3041 34.1353C12.2697 34.3793 11.918 34.3783 11.8775 34.1353C11.1308 29.6553 9.1219 26.1886 4.81968 21.9042C1.88635 18.9886 1.22857 18.0108 0.428571 15.4153C-0.104762 13.7086 -0.140317 10.7575 0.321905 9.01529C0.83746 7.09529 1.79746 5.38862 3.18413 3.91306ZM7.0125 16.4333C7.0125 16.5986 7.06597 16.7347 7.17292 16.8417C7.28958 16.9583 7.42569 17.0167 7.58125 17.0167C7.73681 17.0167 7.87292 16.9583 7.98958 16.8417L12.0146 12.8458L16.0396 16.8417C16.1562 16.9583 16.2924 17.0167 16.4479 17.0167C16.6035 17.0167 16.7396 16.9583 16.8563 16.8417C16.9632 16.7347 17.0167 16.5986 17.0167 16.4333C17.0167 16.2681 16.9632 16.1319 16.8563 16.025L12.8313 12L13.5604 11.2708C13.9688 11.4458 14.4306 11.4701 14.9458 11.3437C15.4611 11.2174 15.9229 10.9403 16.3312 10.5125C16.8465 9.99722 17.1479 9.42361 17.2354 8.79167C17.3229 8.15972 17.1674 7.64444 16.7687 7.24583C16.3701 6.84722 15.8549 6.69167 15.2229 6.77917C14.591 6.86667 14.0174 7.16805 13.5021 7.68333C13.0743 8.09167 12.7972 8.55347 12.6708 9.06875C12.5444 9.58403 12.5687 10.0458 12.7437 10.4542L7.17292 16.025C7.06597 16.1319 7.0125 16.2681 7.0125 16.4333ZM7.55208 10.5125L9.30208 12.2625L11.1687 10.3958L8.0625 7.26042C7.91667 7.10486 7.74653 7.0368 7.55208 7.05625C7.35764 7.07569 7.21181 7.16805 7.11458 7.33333C6.82292 7.84861 6.71344 8.39792 6.78617 8.98125C6.85928 9.56458 7.11458 10.075 7.55208 10.5125Z"></path></svg>