<svg xmlns="http://www.w3.org/2000/svg" viewBox="0 0 25 35" height="35" width="25"><title>school.svg</title><rect fill="none" x="0" y="0" width="25" height="35"></rect><rect x="0" y="0" width="25" height="35" rx="12.5" ry="12.5" fill="#b7b6ba"></rect><path fill="#54585c" transform="translate(0 0)" d="M3.18413 3.91306C5.08635 1.86862 6.8819 0.83751 9.6019 0.19751C11.113 -0.158046 14.0463 -0.0158252 15.6463 0.481953C17.6552 1.10417 19.0419 1.97529 20.713 3.66418C23.1308 6.09973 24.1441 8.55307 24.1619 12.0375C24.1797 14.3308 23.9308 15.3797 22.8819 17.5308C22.1175 19.1131 21.8864 19.3975 19.3797 21.8864C15.0597 26.1886 12.9263 29.8864 12.3041 34.1353C12.2697 34.3793 11.918 34.3783 11.8775 34.1353C11.1308 29.6553 9.1219 26.1886 4.81968 21.9042C1.88635 18.9886 1.22857 18.0108 0.428571 15.4153C-0.104762 13.7086 -0.140318 10.7575 0.321904 9.01529C0.83746 7.09529 1.79746 5.38862 3.18413 3.91306ZM12 11C13.2892 11 14.3333 9.95583 14.3333 8.66667L14.2692 8.11833L15.5 7.5V10.125H16.0833V7.20833L12 5.16667L7.91667 7.20833L9.73083 8.11833L9.66667 8.66667C9.66667 9.95583 10.7108 11 12 11ZM16.6667 14.5C16.6667 13.2108 14.5783 12.1667 12 12.1667C9.42167 12.1667 7.33333 13.2108 7.33333 14.5V15.6667H16.6667V14.5Z"></path></svg>