<svg xmlns="http://www.w3.org/2000/svg" viewBox="0 0 25 35" height="35" width="25"><title>shelter.svg</title><rect fill="none" x="0" y="0" width="25" height="35"></rect><rect x="0" y="0" width="25" height="35" rx="12.5" ry="12.5" fill="#5cbdc4"></rect><path fill="#54585c" transform="translate(0 0)" d="M3.34691 3.91306C5.24913 1.86862 7.04469 0.83751 9.76469 0.19751C11.2758 -0.158046 14.2091 -0.0158252 15.8091 0.481953C17.818 1.10417 19.2047 1.97529 20.8758 3.66418C23.2936 6.09973 24.3069 8.55307 24.3247 12.0375C24.3425 14.3308 24.0936 15.3797 23.0447 17.5308C22.2802 19.1131 22.0491 19.3975 19.5425 21.8864C15.2225 26.1886 13.0891 29.8864 12.4669 34.1353C12.4325 34.3793 12.0808 34.3783 12.0402 34.1353C11.2936 29.6553 9.28469 26.1886 4.98246 21.9042C2.04913 18.9886 1.39135 18.0108 0.591352 15.4153C0.058019 13.7086 0.0224635 10.7575 0.484686 9.01529C1.00024 7.09529 1.96024 5.38862 3.34691 3.91306ZM7.83911 15.9076C8.06739 16.1359 8.34195 16.25 8.66278 16.25H15.6628C15.9836 16.25 16.2584 16.1359 16.487 15.9076C16.7153 15.6789 16.8294 15.4042 16.8294 15.0833V9.83333C16.8294 9.64861 16.7882 9.47361 16.7058 9.30833C16.6229 9.14306 16.5086 9.00695 16.3628 8.9L12.8628 6.275C12.6586 6.11945 12.4253 6.04167 12.1628 6.04167C11.9003 6.04167 11.6669 6.11945 11.4628 6.275L7.96278 8.9C7.81695 9.00695 7.70281 9.14306 7.62036 9.30833C7.53753 9.47361 7.49611 9.64861 7.49611 9.83333V15.0833C7.49611 15.4042 7.61045 15.6789 7.83911 15.9076ZM14.4961 14.2083V13.625H9.82945V14.2083C9.82945 14.2861 9.80028 14.3542 9.74195 14.4125C9.68361 14.4708 9.61556 14.5 9.53778 14.5C9.46 14.5 9.39195 14.4708 9.33361 14.4125C9.27528 14.3542 9.24611 14.2861 9.24611 14.2083V10.7083C9.24611 10.6306 9.27528 10.5625 9.33361 10.5042C9.39195 10.4458 9.46 10.4167 9.53778 10.4167C9.61556 10.4167 9.68361 10.4458 9.74195 10.5042C9.80028 10.5625 9.82945 10.6306 9.82945 10.7083V13.0417H11.8711V11.2917C11.8711 11.2139 11.9003 11.1458 11.9586 11.0875C12.0169 11.0292 12.085 11 12.1628 11H13.9128C14.2336 11 14.5084 11.1141 14.737 11.3424C14.9653 11.5711 15.0794 11.8458 15.0794 12.1667V14.2083C15.0794 14.2861 15.0503 14.3542 14.9919 14.4125C14.9336 14.4708 14.8656 14.5 14.7878 14.5C14.71 14.5 14.6419 14.4708 14.5836 14.4125C14.5253 14.3542 14.4961 14.2861 14.4961 14.2083ZM11.3677 12.5383C11.2269 12.6794 11.0544 12.75 10.8503 12.75C10.6461 12.75 10.4736 12.6794 10.3329 12.5383C10.1917 12.3975 10.1211 12.225 10.1211 12.0208C10.1211 11.8167 10.1917 11.6442 10.3329 11.5034C10.4736 11.3623 10.6461 11.2917 10.8503 11.2917C11.0544 11.2917 11.2269 11.3623 11.3677 11.5034C11.5089 11.6442 11.5794 11.8167 11.5794 12.0208C11.5794 12.225 11.5089 12.3975 11.3677 12.5383Z"></path></svg>