<svg xmlns="http://www.w3.org/2000/svg" viewBox="0 0 25 35" height="35" width="25"><title>shop.svg</title><rect fill="none" x="0" y="0" width="25" height="35"></rect><rect x="0" y="0" width="25" height="35" rx="12.5" ry="12.5" fill="#6aa7f7"></rect><path fill="#54585c" transform="translate(0 0)" d="M3.18413 3.91306C5.08635 1.86862 6.88191 0.837506 9.6019 0.197506C11.113 -0.15805 14.0463 -0.015829 15.6463 0.481949C17.6552 1.10417 19.0419 1.97528 20.713 3.66417C23.1308 6.09973 24.1441 8.55306 24.1619 12.0375C24.1797 14.3308 23.9308 15.3797 22.8819 17.5308C22.1175 19.1131 21.8864 19.3975 19.3797 21.8864C15.0597 26.1886 12.9263 29.8864 12.3041 34.1353C12.2697 34.3793 11.918 34.3783 11.8775 34.1353C11.1308 29.6553 9.12191 26.1886 4.81968 21.9042C1.88635 18.9886 1.22857 18.0108 0.428572 15.4153C-0.104762 13.7086 -0.140317 10.7575 0.321905 9.01528C0.83746 7.09528 1.79746 5.38862 3.18413 3.91306ZM10.6659 10.2486C10.5539 10.3606 10.4153 10.4166 10.25 10.4166C10.0847 10.4166 9.94628 10.3606 9.83467 10.2486C9.72267 10.137 9.66667 9.99859 9.66667 9.83332V8.66665H10.8333V9.83332C10.8333 9.99859 10.7775 10.137 10.6659 10.2486ZM12.8243 6.67632C13.0525 6.90459 13.1667 7.17915 13.1667 7.49998H10.8333C10.8333 7.17915 10.9477 6.90459 11.1763 6.67632C11.4046 6.44765 11.6792 6.33332 12 6.33332C12.3208 6.33332 12.5956 6.44765 12.8243 6.67632ZM14.1659 10.2486C14.0539 10.3606 13.9153 10.4166 13.75 10.4166C13.5847 10.4166 13.4463 10.3606 13.3347 10.2486C13.2227 10.137 13.1667 9.99859 13.1667 9.83332V8.66665H14.3333V9.83332C14.3333 9.99859 14.2775 10.137 14.1659 10.2486ZM7.67633 16.4909C7.90461 16.7192 8.17917 16.8333 8.5 16.8333H15.5C15.8208 16.8333 16.0956 16.7192 16.3242 16.4909C16.5525 16.2622 16.6667 15.9875 16.6667 15.6666V8.66665C16.6667 8.34582 16.5525 8.07126 16.3242 7.84298C16.0956 7.61432 15.8208 7.49998 15.5 7.49998H14.3333C14.3333 6.85832 14.1049 6.30901 13.6479 5.85207C13.191 5.39512 12.6417 5.16665 12 5.16665C11.3583 5.16665 10.809 5.39512 10.3521 5.85207C9.89514 6.30901 9.66667 6.85832 9.66667 7.49998H8.5C8.17917 7.49998 7.90461 7.61432 7.67633 7.84298C7.44767 8.07126 7.33333 8.34582 7.33333 8.66665V15.6666C7.33333 15.9875 7.44767 16.2622 7.67633 16.4909Z"></path></svg>