<svg xmlns="http://www.w3.org/2000/svg" viewBox="0 0 25 35" height="35" width="25"><title>sport.svg</title><rect fill="none" x="0" y="0" width="25" height="35"></rect><rect x="0" y="0" width="25" height="35" rx="12.5" ry="12.5" fill="#80d980"></rect><path fill="#54585c" transform="translate(0 0)" d="M3.18413 3.91306C5.08635 1.86862 6.88191 0.837506 9.6019 0.197506C11.113 -0.15805 14.0463 -0.015829 15.6463 0.481949C17.6552 1.10417 19.0419 1.97528 20.713 3.66417C23.1308 6.09973 24.1441 8.55306 24.1619 12.0375C24.1797 14.3308 23.9308 15.3797 22.8819 17.5308C22.1175 19.1131 21.8864 19.3975 19.3797 21.8864C15.0597 26.1886 12.9263 29.8864 12.3041 34.1353C12.2697 34.3793 11.918 34.3783 11.8775 34.1353C11.1308 29.6553 9.12191 26.1886 4.81968 21.9042C1.88635 18.9886 1.22857 18.0108 0.428572 15.4153C-0.104762 13.7086 -0.140317 10.7575 0.321905 9.01528C0.837461 7.09528 1.79746 5.38862 3.18413 3.91306ZM12.1167 13.9166L13.75 12.2833C13.8667 12.1666 13.925 12.0305 13.925 11.875C13.925 11.7194 13.8667 11.5833 13.75 11.4667L8.82083 6.53748C8.70417 6.42082 8.56319 6.36248 8.39792 6.36248C8.23264 6.36248 8.09167 6.42082 7.975 6.53748L6.34167 8.17082C6.225 8.28748 6.16667 8.41873 6.16667 8.56457C6.16667 8.7104 6.225 8.84165 6.34167 8.95832L11.3 13.9166C11.4167 14.0333 11.5528 14.0916 11.7083 14.0916C11.8639 14.0916 12 14.0333 12.1167 13.9166ZM13.3708 14.3541L15.4417 16.425C15.5486 16.5319 15.6847 16.5854 15.85 16.5854C16.0153 16.5854 16.1514 16.5319 16.2583 16.425C16.375 16.3083 16.4333 16.1722 16.4333 16.0166C16.4333 15.8611 16.3799 15.7298 16.2729 15.6229L14.1875 13.5375L13.3708 14.3541ZM14.3479 8.65207C14.7465 9.05068 15.2278 9.24998 15.7917 9.24998C16.3556 9.24998 16.8368 9.05068 17.2354 8.65207C17.634 8.25346 17.8333 7.7722 17.8333 7.20832C17.8333 6.64443 17.634 6.16318 17.2354 5.76457C16.8368 5.36595 16.3556 5.16665 15.7917 5.16665C15.2278 5.16665 14.7465 5.36595 14.3479 5.76457C13.9493 6.16318 13.75 6.64443 13.75 7.20832C13.75 7.7722 13.9493 8.25346 14.3479 8.65207Z"></path></svg>