<svg xmlns="http://www.w3.org/2000/svg" viewBox="0 0 25 35" height="35" width="25"><title>stadium.svg</title><rect fill="none" x="0" y="0" width="25" height="35"></rect><rect x="0" y="0" width="25" height="35" rx="12.5" ry="12.5" fill="#5cbdc4"></rect><path fill="#54585c" transform="translate(0 0)" d="M3.18413 3.91306C5.08635 1.86862 6.88191 0.83751 9.6019 0.19751C11.113 -0.158046 14.0463 -0.0158252 15.6463 0.481953C17.6552 1.10417 19.0419 1.97529 20.713 3.66418C23.1308 6.09973 24.1441 8.55307 24.1619 12.0375C24.1797 14.3308 23.9308 15.3797 22.8819 17.5308C22.1175 19.1131 21.8864 19.3975 19.3797 21.8864C15.0597 26.1886 12.9263 29.8864 12.3041 34.1353C12.2697 34.3793 11.918 34.3783 11.8775 34.1353C11.1308 29.6553 9.12191 26.1886 4.81968 21.9042C1.88635 18.9886 1.22857 18.0108 0.428572 15.4153C-0.104762 13.7086 -0.140317 10.7575 0.321905 9.01529C0.83746 7.09529 1.79746 5.38862 3.18413 3.91306ZM6.88825 7.86457C6.98081 7.9229 7.07569 7.92776 7.17292 7.87915L8.55833 7.17915C8.60694 7.14999 8.64583 7.1111 8.675 7.06249C8.70417 7.01387 8.71875 6.96526 8.71875 6.91665C8.71875 6.86804 8.70417 6.81943 8.675 6.77082C8.64583 6.72221 8.60694 6.68332 8.55833 6.65415L7.17292 5.95415C7.07569 5.90554 6.98081 5.9104 6.88825 5.96874C6.79608 6.02707 6.75 6.10971 6.75 6.21665V7.61665C6.75 7.7236 6.79608 7.80624 6.88825 7.86457ZM15.6388 7.86457C15.731 7.9229 15.8257 7.92776 15.9229 7.87915L17.3083 7.17915C17.3569 7.14999 17.3958 7.1111 17.425 7.06249C17.4542 7.01387 17.4688 6.96526 17.4688 6.91665C17.4688 6.86804 17.4542 6.81943 17.425 6.77082C17.3958 6.72221 17.3569 6.68332 17.3083 6.65415L15.9229 5.95415C15.8257 5.90554 15.731 5.9104 15.6388 5.96874C15.5463 6.02707 15.5 6.10971 15.5 6.21665V7.61665C15.5 7.7236 15.5463 7.80624 15.6388 7.86457ZM11.5555 7.28124C11.6477 7.33957 11.7424 7.34443 11.8396 7.29582L13.225 6.59582C13.2736 6.56665 13.3125 6.52776 13.3417 6.47915C13.3708 6.43054 13.3854 6.38193 13.3854 6.33332C13.3854 6.28471 13.3708 6.2361 13.3417 6.18749C13.3125 6.13887 13.2736 6.09999 13.225 6.07082L11.8396 5.37082C11.7424 5.32221 11.6477 5.32707 11.5555 5.3854C11.4629 5.44374 11.4167 5.52637 11.4167 5.63332V7.03332C11.4167 7.14026 11.4629 7.2229 11.5555 7.28124ZM8.7625 16.5417C9.24861 16.6389 9.74444 16.7118 10.25 16.7604V14.5C10.25 14.3347 10.306 14.1963 10.418 14.0847C10.5296 13.9727 10.6681 13.9167 10.8333 13.9167H13.1667C13.3319 13.9167 13.4706 13.9727 13.5826 14.0847C13.6942 14.1963 13.75 14.3347 13.75 14.5V16.7604C14.2556 16.7118 14.7514 16.6389 15.2375 16.5417C15.7236 16.4444 16.1588 16.3252 16.543 16.1841C16.9268 16.0433 17.2379 15.8805 17.4763 15.6958C17.7143 15.5111 17.8333 15.3069 17.8333 15.0833V9.83332C17.8333 9.59026 17.6801 9.36412 17.3737 9.1549C17.0676 8.94607 16.6521 8.76135 16.1271 8.60074C15.6021 8.44051 14.9847 8.31412 14.275 8.22157C13.5653 8.1294 12.8069 8.08332 12 8.08332C11.1931 8.08332 10.4347 8.1294 9.725 8.22157C9.01528 8.31412 8.39792 8.44051 7.87292 8.60074C7.34792 8.76135 6.93239 8.94607 6.62633 9.1549C6.31989 9.36412 6.16667 9.59026 6.16667 9.83332V15.0833C6.16667 15.3069 6.28567 15.5111 6.52367 15.6958C6.76206 15.8805 7.07336 16.0433 7.45758 16.1841C7.84142 16.3252 8.27639 16.4444 8.7625 16.5417ZM14.443 10.2487C13.7574 10.3607 12.9431 10.4167 12 10.4167C11.0569 10.4167 10.2428 10.3607 9.55758 10.2487C8.87197 10.137 8.325 10.0083 7.91667 9.86249C7.91667 9.81387 8.28611 9.69954 9.025 9.51949C9.76389 9.33982 10.7556 9.24999 12 9.24999C13.2444 9.24999 14.2361 9.33982 14.975 9.51949C15.7139 9.69954 16.0833 9.81387 16.0833 9.86249C15.675 10.0083 15.1282 10.137 14.443 10.2487Z"></path></svg>