<svg xmlns="http://www.w3.org/2000/svg" viewBox="0 0 25 35" height="35" width="25"><title>swimming.svg</title><rect fill="none" x="0" y="0" width="25" height="35"></rect><rect x="0" y="0" width="25" height="35" rx="12.5" ry="12.5" fill="#98a5b3"></rect><path fill="#54585c" transform="translate(0 0)" d="M3.18413 3.91306C5.08635 1.86862 6.88191 0.837506 9.6019 0.197506C11.113 -0.15805 14.0463 -0.015829 15.6463 0.481949C17.6552 1.10417 19.0419 1.97528 20.713 3.66417C23.1308 6.09973 24.1441 8.55306 24.1619 12.0375C24.1797 14.3308 23.9308 15.3797 22.8819 17.5308C22.1175 19.1131 21.8864 19.3975 19.3797 21.8864C15.0597 26.1886 12.9263 29.8864 12.3041 34.1353C12.2697 34.3793 11.918 34.3783 11.8775 34.1353C11.1308 29.6553 9.12191 26.1886 4.81968 21.9042C1.88635 18.9886 1.22857 18.0108 0.428572 15.4153C-0.104762 13.7086 -0.140317 10.7575 0.321905 9.01528C0.837461 7.09528 1.79746 5.38862 3.18413 3.91306ZM6.37783 16.0458C6.519 16.1722 6.67708 16.2111 6.85208 16.1625C7.12431 16.0847 7.33333 15.9826 7.47917 15.8562C7.625 15.7298 7.82917 15.6666 8.09167 15.6666C8.44167 15.6666 8.71875 15.7639 8.92292 15.9583C9.12708 16.1528 9.50139 16.25 10.0458 16.25C10.5903 16.25 10.9646 16.1528 11.1687 15.9583C11.3729 15.7639 11.65 15.6666 12 15.6666C12.35 15.6666 12.6271 15.7639 12.8313 15.9583C13.0354 16.1528 13.4097 16.25 13.9542 16.25C14.4986 16.25 14.8729 16.1528 15.0771 15.9583C15.2812 15.7639 15.5583 15.6666 15.9083 15.6666C16.1708 15.6666 16.375 15.7298 16.5208 15.8562C16.6667 15.9826 16.8757 16.0847 17.1479 16.1625C17.3229 16.2111 17.481 16.1722 17.6222 16.0458C17.7629 15.9194 17.8333 15.7541 17.8333 15.55C17.8333 15.4333 17.7921 15.3264 17.7097 15.2291C17.6268 15.1319 17.5174 15.0541 17.3813 14.9958C17.1868 14.918 16.9949 14.816 16.8055 14.6896C16.6157 14.5632 16.3167 14.5 15.9083 14.5C15.3639 14.5 14.9896 14.5972 14.7854 14.7916C14.5813 14.9861 14.3042 15.0833 13.9542 15.0833C13.6042 15.0833 13.3271 14.9861 13.1229 14.7916C12.9188 14.5972 12.5444 14.5 12 14.5C11.4556 14.5 11.0813 14.5972 10.8771 14.7916C10.6729 14.9861 10.3958 15.0833 10.0458 15.0833C9.69583 15.0833 9.41875 14.9861 9.21458 14.7916C9.01042 14.5972 8.63611 14.5 8.09167 14.5C7.68333 14.5 7.38447 14.5632 7.19508 14.6896C7.00531 14.816 6.81319 14.918 6.61875 14.9958C6.48264 15.0541 6.37336 15.1343 6.29092 15.2361C6.20808 15.3384 6.16667 15.443 6.16667 15.55C6.16667 15.7541 6.23706 15.9194 6.37783 16.0458ZM6.37783 13.4208C6.519 13.5472 6.67708 13.5861 6.85208 13.5375C7.12431 13.4597 7.33333 13.3576 7.47917 13.2312C7.625 13.1048 7.82917 13.0416 8.09167 13.0416C8.44167 13.0416 8.71156 13.1389 8.90133 13.3333C9.09072 13.5278 9.47222 13.625 10.0458 13.625C10.6194 13.625 10.9963 13.5278 11.1763 13.3333C11.356 13.1389 11.6306 13.0416 12 13.0416C12.35 13.0416 12.6248 13.1389 12.8243 13.3333C13.0234 13.5278 13.4 13.625 13.9542 13.625C14.5278 13.625 14.9093 13.5278 15.0987 13.3333C15.2884 13.1389 15.5583 13.0416 15.9083 13.0416C16.1708 13.0416 16.375 13.1048 16.5208 13.2312C16.6667 13.3576 16.8757 13.4597 17.1479 13.5375C17.3229 13.5861 17.481 13.5472 17.6222 13.4208C17.7629 13.2944 17.8333 13.1291 17.8333 12.925C17.8333 12.8083 17.7921 12.7014 17.7097 12.6041C17.6268 12.5069 17.5174 12.4291 17.3813 12.3708C17.1868 12.293 16.9949 12.191 16.8055 12.0646C16.6157 11.9382 16.3167 11.875 15.9083 11.875C15.3639 11.875 14.9896 11.9722 14.7854 12.1666C14.5813 12.3611 14.3042 12.4583 13.9542 12.4583C13.6042 12.4583 13.3271 12.3611 13.1229 12.1666C12.9188 11.9722 12.5444 11.875 12 11.875C11.4556 11.875 11.0813 11.9722 10.8771 12.1666C10.6729 12.3611 10.3958 12.4583 10.0458 12.4583C9.70556 12.4583 9.431 12.3611 9.22217 12.1666C9.01294 11.9722 8.63611 11.875 8.09167 11.875C7.68333 11.875 7.38447 11.9382 7.19508 12.0646C7.00531 12.191 6.81319 12.293 6.61875 12.3708C6.48264 12.4291 6.37336 12.5093 6.29092 12.6111C6.20808 12.7134 6.16667 12.818 6.16667 12.925C6.16667 13.1291 6.23706 13.2944 6.37783 13.4208ZM9.50625 10.9049C9.66181 10.9683 9.84167 11 10.0458 11C10.3958 11 10.6729 10.9028 10.8771 10.7083C11.0813 10.5139 11.4556 10.4166 12 10.4166C12.5444 10.4166 12.9188 10.5139 13.1229 10.7083C13.3271 10.9028 13.6042 11 13.9542 11C14.1583 11 14.3382 10.9683 14.4938 10.9049C14.6493 10.8419 14.8097 10.7569 14.975 10.65L11.2417 6.91665C10.8722 6.5472 10.4979 6.27732 10.1187 6.10698C9.73958 5.93704 9.29236 5.82776 8.77708 5.77915C8.58264 5.7597 8.41017 5.82037 8.25967 5.96115C8.10878 6.10232 8.03333 6.27984 8.03333 6.49373C8.03333 6.68818 8.10139 6.85579 8.2375 6.99657C8.37361 7.13773 8.53889 7.2229 8.73333 7.25207C9.07361 7.30068 9.37267 7.3979 9.6305 7.54373C9.88795 7.68957 10.1382 7.88401 10.3813 8.12707L10.9646 8.7104L9.025 10.65C9.19028 10.7569 9.35069 10.8419 9.50625 10.9049ZM13.7063 8.24373C13.9882 8.52568 14.3333 8.66665 14.7417 8.66665C15.15 8.66665 15.4951 8.52568 15.7771 8.24373C16.059 7.96179 16.2 7.61665 16.2 7.20832C16.2 6.8097 16.059 6.4669 15.7771 6.1799C15.4951 5.89329 15.15 5.74998 14.7417 5.74998C14.3333 5.74998 13.9882 5.89329 13.7063 6.1799C13.4243 6.4669 13.2833 6.8097 13.2833 7.20832C13.2833 7.61665 13.4243 7.96179 13.7063 8.24373Z"></path></svg>