<svg xmlns="http://www.w3.org/2000/svg" viewBox="0 0 25 35" height="35" width="25"><title>toilet.svg</title><rect fill="none" x="0" y="0" width="25" height="35"></rect><rect x="0" y="0" width="25" height="35" rx="12.5" ry="12.5" fill="#5cbdc4"></rect><path fill="#54585c" transform="translate(0 0)" d="M3.34691 3.91306C5.24913 1.86862 7.04469 0.83751 9.76469 0.19751C11.2758 -0.158046 14.2091 -0.0158252 15.8091 0.481953C17.818 1.10417 19.2047 1.97529 20.8758 3.66418C23.2936 6.09973 24.3069 8.55307 24.3247 12.0375C24.3425 14.3308 24.0936 15.3797 23.0447 17.5308C22.2802 19.1131 22.0491 19.3975 19.5425 21.8864C15.2225 26.1886 13.0891 29.8864 12.4669 34.1353C12.4325 34.3793 12.0808 34.3783 12.0402 34.1353C11.2936 29.6553 9.28469 26.1886 4.98246 21.9042C2.04913 18.9886 1.39135 18.0108 0.591352 15.4153C0.0580187 13.7086 0.0224631 10.7575 0.484685 9.01529C1.00024 7.09529 1.96024 5.38862 3.34691 3.91306ZM10.3627 5.50836C10.1439 5.28957 9.8472 5.16665 9.53778 5.16665C9.22836 5.16665 8.93161 5.28957 8.71282 5.50836C8.49403 5.72715 8.37111 6.0239 8.37111 6.33332C8.37111 6.64274 8.49403 6.93948 8.71282 7.15828C8.93161 7.37707 9.22836 7.49999 9.53778 7.49999C9.8472 7.49999 10.1439 7.37707 10.3627 7.15828C10.5815 6.93948 10.7044 6.64274 10.7044 6.33332C10.7044 6.0239 10.5815 5.72715 10.3627 5.50836ZM11.2377 8.42503C11.0189 8.20624 10.7222 8.08332 10.4128 8.08332H8.66278C8.35336 8.08332 8.05662 8.20624 7.83782 8.42503C7.61903 8.64382 7.49611 8.94057 7.49611 9.24999V12.4583H8.37111V16.8333H10.7044V12.4583H11.5794V9.24999C11.5794 8.94057 11.4565 8.64382 11.2377 8.42503ZM15.6127 5.50836C15.3939 5.28957 15.0972 5.16665 14.7878 5.16665C14.4784 5.16665 14.1816 5.28957 13.9628 5.50836C13.744 5.72715 13.6211 6.0239 13.6211 6.33332C13.6211 6.64274 13.744 6.93948 13.9628 7.15828C14.1816 7.37707 14.4784 7.49999 14.7878 7.49999C15.0972 7.49999 15.3939 7.37707 15.6127 7.15828C15.8315 6.93948 15.9544 6.64274 15.9544 6.33332C15.9544 6.0239 15.8315 5.72715 15.6127 5.50836ZM13.9128 13.3333V16.8333H15.6628V13.3333H17.4128L15.9019 8.90582C15.7561 8.42749 15.3128 8.08332 14.7878 8.08332C14.2628 8.08332 13.8194 8.42749 13.6736 8.90582L12.1628 13.3333H13.9128Z"></path></svg>