<svg xmlns="http://www.w3.org/2000/svg" viewBox="0 0 25 35" height="35" width="25"><title>zoo.svg</title><rect fill="none" x="0" y="0" width="25" height="35"></rect><rect x="0" y="0" width="25" height="35" rx="12.5" ry="12.5" fill="#80d980"></rect><path fill="#54585c" transform="translate(0 0)" d="M3.18413 3.91306C5.08635 1.86862 6.8819 0.837508 9.6019 0.197509C11.113 -0.158048 14.0463 -0.0158244 15.6463 0.481952C17.6552 1.10417 19.0419 1.97528 20.713 3.66417C23.1308 6.09973 24.1441 8.55306 24.1619 12.0375C24.1797 14.3308 23.9308 15.3797 22.8819 17.5308C22.1175 19.1131 21.8864 19.3975 19.3797 21.8864C15.0597 26.1886 12.9263 29.8864 12.3041 34.1353C12.2697 34.3793 11.918 34.3783 11.8775 34.1353C11.1308 29.6553 9.1219 26.1886 4.81968 21.9042C1.88635 18.9886 1.22857 18.0108 0.428571 15.4153C-0.104762 13.7086 -0.140317 10.7575 0.321905 9.01529C0.83746 7.09529 1.79746 5.38862 3.18413 3.91306ZM9.23819 4.06597C8.97061 4.13992 8.71783 4.23808 8.46907 4.34027C7.53726 4.72617 6.97522 5.45495 6.73319 6.28322C6.21821 6.06539 5.73012 6.11246 5.43834 6.50508C5.01882 7.07116 5.1627 7.87254 5.79735 8.23558C6.04476 8.37677 6.34057 8.38887 6.72512 8.24768C7.06531 9.52775 8.06973 10.6048 9.56627 10.6075C10.845 10.6102 11.7593 9.99298 12.2245 8.81645C12.3025 8.62014 12.3657 8.4292 12.4155 8.24231C12.8068 8.38887 13.1066 8.37811 13.3567 8.23558C13.9914 7.87254 14.1366 7.07116 13.7157 6.50508C13.428 6.11918 12.9506 6.06808 12.4451 6.27381C12.242 5.46839 11.8992 4.99912 11.1717 4.56078C10.802 4.33758 10.3757 4.17085 9.89704 4.05656C9.5824 3.98126 9.55282 3.97857 9.23819 4.06597ZM8.50672 8.85544C8.52017 8.93612 8.59547 8.9899 8.67614 8.97646C8.99347 8.92267 9.30676 8.89847 9.61736 8.9025C9.92797 8.90519 10.2386 8.93209 10.5478 8.98318C10.6285 8.99528 10.7038 8.9415 10.7172 8.86082C10.7294 8.78015 10.6756 8.70485 10.5949 8.6914C10.2735 8.63896 9.94814 8.60938 9.61871 8.60804C9.28928 8.60535 8.95851 8.6309 8.62774 8.68602C8.54706 8.69947 8.49328 8.77477 8.50672 8.85544ZM10.0006 7.5216C10.0006 7.45975 9.95083 7.41 9.88897 7.41C9.82712 7.41 9.77737 7.45975 9.77737 7.5216C9.77737 7.58345 9.82712 7.6332 9.88897 7.6332C9.95083 7.6332 10.0006 7.58345 10.0006 7.5216ZM11.0843 6.9609C11.0843 6.7982 10.9526 6.66643 10.7899 6.66643C10.6258 6.66643 10.494 6.7982 10.4954 6.9609C10.4954 7.1236 10.6272 7.25537 10.7899 7.25537C10.9526 7.25537 11.0843 7.1236 11.0843 6.9609ZM8.70976 6.9609C8.70976 6.7982 8.57799 6.66643 8.41529 6.66643C8.25259 6.66643 8.11948 6.7982 8.12082 6.9609C8.12082 7.1236 8.25259 7.25537 8.41529 7.25537C8.57799 7.25537 8.70976 7.1236 8.70976 6.9609ZM9.45332 7.5216C9.45332 7.45975 9.40357 7.41 9.34172 7.41C9.27987 7.41 9.23012 7.45975 9.23012 7.5216C9.23012 7.58345 9.27987 7.6332 9.34172 7.6332C9.40357 7.6332 9.45332 7.58345 9.45332 7.5216ZM12.4773 7.98414C12.5782 7.48529 12.5836 7.01872 12.5096 6.57769C12.8484 6.4513 13.1671 6.49029 13.3607 6.74442C13.6512 7.12494 13.5517 7.66278 13.1133 7.90615C12.9479 7.99893 12.7476 8.00834 12.4921 7.92095C12.4894 7.9317 12.4871 7.94211 12.4847 7.95253C12.4824 7.96296 12.48 7.97338 12.4773 7.98414ZM6.66327 6.58307C6.57856 7.02275 6.57722 7.47992 6.65521 7.92363C6.40377 8.00834 6.20745 7.99759 6.04341 7.90481C5.60507 7.66144 5.50557 7.1236 5.796 6.74307C5.99232 6.48491 6.31771 6.44995 6.66327 6.58307ZM9.05177 5.51989C8.83215 5.4485 8.60625 5.37507 8.25932 5.41057C7.00211 5.53831 6.56915 7.30512 7.85056 7.92767C7.75106 8.12667 7.6892 8.33374 7.66904 8.54887C7.53726 9.96205 9.08087 10.1866 10.166 10.0575C11.4998 9.85583 11.7849 9.09075 11.3694 7.94918C11.9207 7.69505 12.1842 7.24461 12.1439 6.5871C12.1062 6.23212 11.9677 5.96993 11.7526 5.77765C11.6988 5.72924 11.6383 5.68487 11.5738 5.64453C11.169 5.39309 10.8598 5.34065 10.4107 5.45226C10.2735 5.48587 10.1404 5.5289 10.01 5.57193C9.88817 5.61253 9.75615 5.61747 9.62137 5.62251C9.58656 5.62381 9.55157 5.62512 9.51652 5.62705C9.34174 5.61415 9.19815 5.56747 9.05177 5.51989ZM12.0632 9.95533C10.845 11.7047 8.29159 11.7692 7.03169 9.91768C6.74933 10.114 6.49251 10.3601 6.25451 10.6518C5.56621 11.5082 5.519 11.8239 5.3689 12.8277C5.36653 12.8435 5.36413 12.8596 5.3617 12.8758L5.24203 13.8722C5.25547 13.8775 5.26892 13.8843 5.28102 13.8923C5.73684 14.1935 6.18997 14.5149 6.56646 14.9008C6.95505 15.2974 7.26297 15.7586 7.41222 16.3261C7.41625 16.3395 7.41759 16.3543 7.41894 16.3704L7.45121 17.0602C7.59912 17.2915 7.75778 17.4286 7.91106 17.4932C8.0267 17.5416 8.13965 17.5483 8.24049 17.5201C8.34537 17.4918 8.44353 17.4259 8.52555 17.3345C8.64791 17.1974 8.72993 17.0037 8.74741 16.7819C8.7743 16.0598 8.59412 15.4427 8.25394 14.9008C7.90838 14.3481 7.39339 13.8681 6.76143 13.4338C6.70092 13.3908 6.66327 13.3182 6.67134 13.2388C6.70361 12.9188 6.74798 12.6203 6.82328 12.346C6.90261 12.061 7.01287 11.8042 7.17422 11.5756C7.24145 11.4801 7.37457 11.4572 7.47003 11.5245C7.5655 11.5917 7.58836 11.7248 7.52113 11.8203C7.38801 12.0072 7.29793 12.221 7.23204 12.4576C7.17422 12.6714 7.13523 12.9054 7.10699 13.1568C7.73627 13.6032 8.25394 14.1007 8.61429 14.6762C9.00019 15.2907 9.20323 15.9899 9.1723 16.8047V16.8128C9.15886 17.0024 9.10911 17.1785 9.03381 17.3332L9.50845 16.9822C9.62409 17.9571 9.93604 18.7598 10.8315 19.0516C10.6742 19.5276 10.7872 19.8839 11.1489 20.1326L12.8256 20.5239C13.4871 20.4029 13.7117 20.017 13.627 19.4428C13.3661 18.948 13.0353 18.8203 12.6763 18.8458L12.9251 18.2327C13.0932 18.1883 13.2774 18.144 13.4616 18.113C13.6646 18.0794 13.8609 18.0619 14.0196 18.0794C14.1756 18.0969 14.3477 18.1278 14.5117 18.1789C14.6421 18.2179 14.7672 18.2704 14.8774 18.3362L14.9581 18.3941C16.1562 19.2627 17.2803 20.0775 18.8212 19.6943C18.9449 19.6647 19.0215 19.5383 18.9906 19.4146C18.961 19.2896 18.8346 19.1578 18.7109 19.1887C17.3793 19.5193 16.3404 18.7675 15.2319 17.9654L15.2297 17.9638L15.1437 17.9019C15.1396 17.8979 15.1343 17.8939 15.1289 17.8912C14.9823 17.8011 14.8169 17.7419 14.6475 17.6895C14.4526 17.629 14.2522 17.5913 14.0707 17.5712C13.8663 17.5483 13.627 17.5685 13.3863 17.6088C13.3056 17.6236 13.2236 17.6397 13.1416 17.6572L14.0935 15.3606C14.2624 14.7261 14.2306 14.6727 14.0097 14.3013C14.0054 14.2942 14.0011 14.2869 13.9967 14.2796C13.5799 14.5566 13.1685 14.8524 12.8296 15.1993C12.4935 15.5422 12.2286 15.9375 12.0982 16.4148C12.0951 16.4804 12.093 16.5435 12.0909 16.6042C12.072 17.1612 12.0597 17.5235 11.4232 17.8508C11.2578 18.0149 11.1865 18.1614 11.0991 18.4384C10.568 18.2004 10.0517 17.3856 9.92393 16.8141V16.8061C9.89166 15.9899 10.0987 15.2907 10.486 14.6762C10.8477 14.1007 11.368 13.6046 11.9973 13.1582C11.9677 12.9094 11.9274 12.6768 11.8669 12.4617C11.7997 12.2223 11.7055 12.0085 11.5738 11.8216C11.5052 11.7262 11.5294 11.5931 11.6249 11.5258C11.7203 11.4586 11.8534 11.4815 11.9207 11.5769C12.082 11.8055 12.195 12.0623 12.2756 12.3447C12.3523 12.6176 12.3993 12.9175 12.4316 13.2402C12.4397 13.3195 12.402 13.3935 12.3415 13.4352C11.7096 13.8695 11.1919 14.3495 10.8436 14.9021C10.5021 15.444 10.3192 16.0612 10.3461 16.7819C10.3636 17.0037 10.4456 17.1974 10.568 17.3345C10.65 17.4259 10.7482 17.4918 10.8531 17.5201C10.9552 17.547 11.0668 17.5416 11.1825 17.4932C11.3358 17.4286 11.4931 17.2901 11.6423 17.0602L11.6746 16.3704C11.6746 16.3556 11.6773 16.3408 11.6813 16.3261C11.8306 15.76 12.1385 15.2974 12.5271 14.9008C12.8995 14.5203 13.3473 14.2002 13.7991 13.9017C13.9645 12.5786 13.2962 10.6007 12.0632 9.95533ZM8.35478 19.0126L7.903 17.9355C7.8519 17.9234 7.80215 17.9073 7.75106 17.8844C7.51172 17.7836 7.27238 17.5765 7.06531 17.2364C7.04514 17.2027 7.03438 17.1651 7.03438 17.1288L7.00077 16.4148C6.87034 15.9375 6.60546 15.5422 6.2693 15.1993C5.95467 14.8766 5.57818 14.5982 5.19093 14.3387L5.1869 14.3723C5.07197 14.4594 5.05477 14.6023 5.03761 14.7449C5.02908 14.8158 5.02055 14.8867 5 14.9505L6.52747 18.7894C5.16807 19.0206 5.35498 20.415 6.43469 20.5226L7.94468 20.1313C8.40319 19.9672 8.54572 19.5975 8.35478 19.0126Z"></path></svg>