<svg width="25" height="35" viewBox="0 0 25 35" fill="none" xmlns="http://www.w3.org/2000/svg">
<circle cx="12" cy="12" r="10" fill="white"/>
<path d="M3.18413 4.25412C5.08635 2.20968 6.8819 1.17857 9.6019 0.538574C11.113 0.183017 14.0463 0.32524 15.6463 0.823017C17.6552 1.44523 19.0419 2.31634 20.713 4.00523C23.1308 6.44079 24.1441 8.89412 24.1619 12.3786C24.1797 14.6719 23.9308 15.7208 22.8819 17.8719C22.1175 19.4542 21.8864 19.7386 19.3797 22.2275C15.0597 26.5297 12.9263 30.2275 12.3041 34.4764C12.2697 34.7204 11.918 34.7194 11.8775 34.4764C11.1308 29.9964 9.1219 26.5297 4.81968 22.2453C1.88635 19.3297 1.22857 18.3519 0.428571 15.7564C-0.104762 14.0497 -0.140317 11.0986 0.321905 9.35635C0.83746 7.43635 1.79746 5.72968 3.18413 4.25412ZM6.77333 15.2494C6.8375 15.7978 7.14667 17.1744 7.91667 17.1744C8.6674 17.1744 9.42957 16.6256 10.0107 16.2071L10.0283 16.1944C10.9859 15.4945 11.8834 14.7159 12.7117 13.8669C14.2754 12.3866 15.6208 10.6916 16.7075 8.83271C17.1169 8.21815 17.2928 7.47736 17.2033 6.74438C16.935 5.35604 15.4125 5.40271 14.31 5.65938C13.719 5.73651 13.1645 5.98839 12.7175 6.38271C12.4915 6.67325 12.6848 6.71222 12.9314 6.76192C12.9967 6.77508 13.0657 6.789 13.1317 6.80854C13.42 6.88874 13.698 7.00229 13.96 7.14688C14.3333 7.36271 15.2083 8.26104 14.3683 8.51771C14.1086 8.60584 13.8304 8.46899 13.5777 8.3447C13.5127 8.31268 13.4493 8.2815 13.3883 8.25521C12.9231 8.04731 12.4358 7.89271 11.9358 7.79438C10.9675 7.61938 9.95833 7.84104 9.95833 9.00771C10.8158 9.00771 12.2567 9.07771 12.7642 9.94104C12.9742 10.3085 12.875 10.8103 12.3908 10.8511C12.1749 10.8668 11.951 10.7583 11.7388 10.6554C11.6357 10.6055 11.5354 10.5568 11.44 10.5244C10.9611 10.3562 10.4636 10.2465 9.95833 10.1977C9.10667 10.116 7.91667 10.256 7.91667 11.3411C8.66333 11.3411 10.4892 11.3586 10.7458 12.3619C10.7678 12.4819 10.7583 12.6055 10.7182 12.7208C10.6782 12.836 10.609 12.9389 10.5173 13.0194C10.4256 13.0999 10.3147 13.1552 10.1952 13.1801C10.0758 13.2049 9.95198 13.1984 9.83583 13.1611C9.6208 13.1124 9.42199 13.0313 9.22542 12.951C8.85676 12.8006 8.49598 12.6533 8.05083 12.7294C7.80265 12.7788 7.57157 12.8918 7.38032 13.0575C7.18907 13.2232 7.04421 13.4358 6.96 13.6744C6.76839 14.1759 6.70425 14.7171 6.77333 15.2494Z" fill="#FAA264"/>
</svg>
