<svg width="25" height="35" viewBox="0 0 25 35" fill="none" xmlns="http://www.w3.org/2000/svg">
<circle cx="12" cy="12" r="10" fill="white"/>
<path d="M3.18413 4.25413C5.08635 2.20969 6.88191 1.17857 9.60191 0.538574C11.113 0.183017 14.0463 0.325239 15.6463 0.823017C17.6552 1.44524 19.0419 2.31635 20.713 4.00524C23.1308 6.4408 24.1441 8.89413 24.1619 12.3786C24.1796 14.6719 23.9308 15.7208 22.8819 17.8719C22.1174 19.4542 21.8863 19.7386 19.3796 22.2275C15.0596 26.5297 12.9263 30.2275 12.3041 34.4764C12.2697 34.7204 11.9179 34.7194 11.8774 34.4764C11.1308 29.9964 9.12191 26.5297 4.81968 22.2453C1.88635 19.3297 1.22857 18.3519 0.428572 15.7564C-0.104762 14.0497 -0.140317 11.0986 0.321905 9.35635C0.837459 7.43635 1.79746 5.72969 3.18413 4.25413ZM8.843 16.2487C9.07128 16.4769 9.34583 16.5911 9.66667 16.5911H13.75C14.0708 16.5911 14.3455 16.4769 14.5742 16.2487C14.8025 16.02 14.9166 15.7452 14.9166 15.4244H16.0833C16.4041 15.4244 16.6789 15.3103 16.9075 15.082C17.1358 14.8533 17.25 14.5786 17.25 14.2577V10.7577C17.25 10.4369 17.1358 10.1621 16.9075 9.93347C16.6789 9.70519 16.4041 9.59105 16.0833 9.59105H15.1791C15.2861 9.41605 15.3664 9.23133 15.42 9.03689C15.4733 8.84244 15.5 8.63827 15.5 8.42439C15.5 7.78272 15.2715 7.23341 14.8145 6.77647C14.3576 6.31953 13.8083 6.09105 13.1666 6.09105C13.0597 6.09105 12.9625 6.09825 12.875 6.11264C12.7875 6.12741 12.6951 6.14452 12.5979 6.16397C12.3548 5.96952 12.0849 5.81397 11.7882 5.6973C11.4919 5.58064 11.1736 5.5223 10.8333 5.5223C10.2791 5.5223 9.78104 5.66814 9.33884 5.9598C8.89628 6.25147 8.5632 6.63064 8.33958 7.0973C7.87292 7.25286 7.49142 7.52994 7.19508 7.92855C6.89836 8.32716 6.75 8.78411 6.75 9.29939C6.75 9.84383 6.91528 10.3202 7.24583 10.7286C7.57639 11.1369 7.99445 11.4091 8.5 11.5452V15.4244C8.5 15.7452 8.61433 16.02 8.843 16.2487ZM8.25967 10.123C8.031 9.89477 7.91667 9.62022 7.91667 9.29939C7.91667 9.04661 7.98959 8.82047 8.13542 8.62097C8.28125 8.42186 8.4757 8.28341 8.71875 8.20564L9.18542 8.04522L9.38959 7.60772C9.5257 7.32577 9.72264 7.10216 9.98054 6.93689C10.2379 6.77161 10.5222 6.68897 10.8333 6.68897C11.0666 6.68897 11.2685 6.73019 11.4388 6.81264C11.6087 6.89547 11.7472 6.98064 11.8541 7.06814L12.3062 7.4473L12.5541 7.35222C12.7194 7.28922 12.9236 7.25772 13.1666 7.25772C13.4875 7.25772 13.7622 7.37205 13.9909 7.60072C14.2192 7.829 14.3333 8.10355 14.3333 8.42439H12.5833C12.0875 8.42439 11.6865 8.53366 11.3805 8.75222C11.074 8.97116 10.7993 9.21189 10.5562 9.47439C10.3229 9.72716 10.0969 9.95564 9.87844 10.1598C9.65947 10.364 9.39445 10.4661 9.08333 10.4661C8.7625 10.4661 8.48795 10.3517 8.25967 10.123ZM16.0833 14.2577H14.9166V10.7577H16.0833V14.2577Z" fill="#FAA264"/>
</svg>
