<svg width="25" height="35" viewBox="0 0 25 35" fill="none" xmlns="http://www.w3.org/2000/svg">
<circle cx="12" cy="12.6589" r="10" fill="white"/>
<path d="M3.18413 3.91306C5.08635 1.86862 6.88191 0.837509 9.6019 0.197509C11.113 -0.158047 14.0463 -0.0158261 15.6463 0.481952C17.6552 1.10417 19.0419 1.97529 20.713 3.66418C23.1308 6.09973 24.1441 8.55307 24.1619 12.0375C24.1797 14.3308 23.9308 15.3797 22.8819 17.5308C22.1175 19.1131 21.8864 19.3975 19.3797 21.8864C15.0597 26.1886 12.9263 29.8864 12.3041 34.1353C12.2697 34.3793 11.918 34.3783 11.8775 34.1353C11.1308 29.6553 9.12191 26.1886 4.81968 21.9042C1.88635 18.9886 1.22857 18.0108 0.428572 15.4153C-0.104762 13.7086 -0.140317 10.7575 0.321905 9.01529C0.837461 7.09529 1.79746 5.38862 3.18413 3.91306ZM13.1667 5.16667H10.8333C8.9025 5.16667 7.91667 6.73583 7.91667 8.66667V14.885C9.15333 14.2842 10.2092 13.9167 12 13.9167C13.7908 13.9167 14.8467 14.2842 16.0833 14.885V8.66667C16.0833 6.73583 15.0975 5.16667 13.1667 5.16667ZM9.66667 9.54167V8.66667H14.3333V9.54167H9.66667ZM10.25 11.875V11H13.75V11.875H10.25ZM6.75 16.4308V16.8333H17.25V16.3958C12.7175 13.24 8.30167 15.445 6.75 16.4308Z" fill="#5CBDC4"/>
</svg>
