<svg width="25" height="35" viewBox="0 0 25 35" fill="none" xmlns="http://www.w3.org/2000/svg">
<circle cx="12" cy="12" r="10" fill="white"/>
<path d="M3.18413 4.25412C5.08635 2.20968 6.88191 1.17857 9.6019 0.538574C11.113 0.183018 14.0463 0.325238 15.6463 0.823017C17.6552 1.44523 19.0419 2.31635 20.713 4.00524C23.1308 6.44079 24.1441 8.89413 24.1619 12.3786C24.1797 14.6719 23.9308 15.7208 22.8819 17.8719C22.1175 19.4542 21.8864 19.7386 19.3797 22.2275C15.0597 26.5297 12.9263 30.2275 12.3041 34.4764C12.2697 34.7204 11.918 34.7194 11.8775 34.4764C11.1308 29.9964 9.12191 26.5297 4.81968 22.2453C1.88635 19.3297 1.22857 18.3519 0.428572 15.7564C-0.104762 14.0497 -0.140317 11.0986 0.321905 9.35635C0.837461 7.43635 1.79746 5.72968 3.18413 4.25412ZM18 7.54106H8.4V6.94106C8.4 6.78193 8.33679 6.62932 8.22426 6.51679C8.11174 6.40427 7.95913 6.34106 7.8 6.34106H6V7.54106H7.2L7.8 9.34106L8.598 11.7411H8.4C7.92261 11.7411 7.46477 11.9307 7.12721 12.2683C6.78964 12.6059 6.6 13.0637 6.6 13.5411C6.6 14.0185 6.78964 14.4763 7.12721 14.8139C7.46477 15.1515 7.92261 15.3411 8.4 15.3411H16.2V14.1411H8.4C8.24087 14.1411 8.08826 14.0779 7.97574 13.9654C7.86321 13.8528 7.8 13.7002 7.8 13.5411C7.8 13.382 7.86321 13.2294 7.97574 13.1168C8.08826 13.0043 8.24087 12.9411 8.4 12.9411H16.2L18 7.54106ZM8.15147 17.9896C8.37652 18.2147 8.68174 18.3411 9 18.3411C9.31826 18.3411 9.62348 18.2147 9.84853 17.9896C10.0736 17.7646 10.2 17.4594 10.2 17.1411C10.2 16.8228 10.0736 16.5176 9.84853 16.2926C9.62348 16.0675 9.31826 15.9411 9 15.9411C8.68174 15.9411 8.37652 16.0675 8.15147 16.2926C7.92643 16.5176 7.8 16.8228 7.8 17.1411C7.8 17.4594 7.92643 17.7646 8.15147 17.9896ZM14.1515 17.9896C14.3765 18.2147 14.6817 18.3411 15 18.3411C15.3183 18.3411 15.6235 18.2147 15.8485 17.9896C16.0736 17.7646 16.2 17.4594 16.2 17.1411C16.2 16.8228 16.0736 16.5176 15.8485 16.2926C15.6235 16.0675 15.3183 15.9411 15 15.9411C14.6817 15.9411 14.3765 16.0675 14.1515 16.2926C13.9264 16.5176 13.8 16.8228 13.8 17.1411C13.8 17.4594 13.9264 17.7646 14.1515 17.9896Z" fill="#6AA7F7"/>
</svg>
