<svg width="25" height="35" viewBox="0 0 25 35" fill="none" xmlns="http://www.w3.org/2000/svg">
<circle cx="12" cy="12" r="10" fill="white"/>
<path d="M3.18413 4.25412C5.08635 2.20968 6.88191 1.17857 9.6019 0.538574C11.113 0.183018 14.0463 0.325238 15.6463 0.823017C17.6552 1.44523 19.0419 2.31635 20.713 4.00524C23.1308 6.44079 24.1441 8.89413 24.1619 12.3786C24.1797 14.6719 23.9308 15.7208 22.8819 17.8719C22.1175 19.4542 21.8864 19.7386 19.3797 22.2275C15.0597 26.5297 12.9263 30.2275 12.3041 34.4764C12.2697 34.7204 11.918 34.7194 11.8775 34.4764C11.1308 29.9964 9.12191 26.5297 4.81968 22.2453C1.88635 19.3297 1.22857 18.3519 0.428572 15.7564C-0.104762 14.0497 -0.140317 11.0986 0.321905 9.35635C0.83746 7.43635 1.79746 5.72968 3.18413 4.25412ZM6.88825 8.20563C6.98081 8.26396 7.07569 8.26882 7.17292 8.22021L8.55833 7.52021C8.60694 7.49105 8.64583 7.45216 8.675 7.40355C8.70417 7.35493 8.71875 7.30632 8.71875 7.25771C8.71875 7.2091 8.70417 7.16049 8.675 7.11188C8.64583 7.06327 8.60694 7.02438 8.55833 6.99521L7.17292 6.29521C7.07569 6.2466 6.98081 6.25146 6.88825 6.3098C6.79608 6.36813 6.75 6.45077 6.75 6.55771V7.95771C6.75 8.06466 6.79608 8.1473 6.88825 8.20563ZM15.6388 8.20563C15.731 8.26396 15.8257 8.26882 15.9229 8.22021L17.3083 7.52021C17.3569 7.49105 17.3958 7.45216 17.425 7.40355C17.4542 7.35493 17.4688 7.30632 17.4688 7.25771C17.4688 7.2091 17.4542 7.16049 17.425 7.11188C17.3958 7.06327 17.3569 7.02438 17.3083 6.99521L15.9229 6.29521C15.8257 6.2466 15.731 6.25146 15.6388 6.3098C15.5463 6.36813 15.5 6.45077 15.5 6.55771V7.95771C15.5 8.06466 15.5463 8.1473 15.6388 8.20563ZM11.5555 7.6223C11.6477 7.68063 11.7424 7.68549 11.8396 7.63688L13.225 6.93688C13.2736 6.90771 13.3125 6.86882 13.3417 6.82021C13.3708 6.7716 13.3854 6.72299 13.3854 6.67438C13.3854 6.62577 13.3708 6.57716 13.3417 6.52855C13.3125 6.47993 13.2736 6.44105 13.225 6.41188L11.8396 5.71188C11.7424 5.66327 11.6477 5.66813 11.5555 5.72646C11.4629 5.7848 11.4167 5.86743 11.4167 5.97438V7.37438C11.4167 7.48132 11.4629 7.56396 11.5555 7.6223ZM8.7625 16.8828C9.24861 16.98 9.74444 17.0529 10.25 17.1015V14.8411C10.25 14.6758 10.306 14.5374 10.418 14.4258C10.5296 14.3138 10.6681 14.2578 10.8333 14.2578H13.1667C13.3319 14.2578 13.4706 14.3138 13.5826 14.4258C13.6942 14.5374 13.75 14.6758 13.75 14.8411V17.1015C14.2556 17.0529 14.7514 16.98 15.2375 16.8828C15.7236 16.7855 16.1588 16.6663 16.543 16.5252C16.9268 16.3844 17.2379 16.2216 17.4763 16.0369C17.7143 15.8522 17.8333 15.648 17.8333 15.4244V10.1744C17.8333 9.93132 17.6801 9.70518 17.3737 9.49596C17.0676 9.28713 16.6521 9.10241 16.1271 8.9418C15.6021 8.78157 14.9847 8.65518 14.275 8.56263C13.5653 8.47046 12.8069 8.42438 12 8.42438C11.1931 8.42438 10.4347 8.47046 9.725 8.56263C9.01528 8.65518 8.39792 8.78157 7.87292 8.9418C7.34792 9.10241 6.93239 9.28713 6.62633 9.49596C6.31989 9.70518 6.16667 9.93132 6.16667 10.1744V15.4244C6.16667 15.648 6.28567 15.8522 6.52367 16.0369C6.76206 16.2216 7.07336 16.3844 7.45758 16.5252C7.84142 16.6663 8.27639 16.7855 8.7625 16.8828ZM14.443 10.5898C13.7574 10.7018 12.9431 10.7578 12 10.7578C11.0569 10.7578 10.2428 10.7018 9.55758 10.5898C8.87197 10.4781 8.325 10.3494 7.91667 10.2036C7.91667 10.1549 8.28611 10.0406 9.025 9.86055C9.76389 9.68088 10.7556 9.59105 12 9.59105C13.2444 9.59105 14.2361 9.68088 14.975 9.86055C15.7139 10.0406 16.0833 10.1549 16.0833 10.2036C15.675 10.3494 15.1282 10.4781 14.443 10.5898Z" fill="#5CBDC4"/>
</svg>
