<svg width="25" height="35" viewBox="0 0 25 35" fill="none" xmlns="http://www.w3.org/2000/svg">
<circle cx="12.2548" cy="11.9999" r="10" fill="white"/>
<path fill-rule="evenodd" clip-rule="evenodd" d="M3.43889 3.913C5.34111 1.86856 7.13667 0.837448 9.85667 0.197448C11.3678 -0.158108 14.3011 -0.0158871 15.9011 0.481891C17.91 1.10411 19.2967 1.97522 20.9678 3.66411C23.3856 6.09967 24.3989 8.553 24.4167 12.0374C24.4344 14.3308 24.1856 15.3797 23.1367 17.5308C22.3722 19.113 22.1411 19.3974 19.6344 21.8863C15.3144 26.1886 13.1811 29.8863 12.5589 34.1352C12.5245 34.3792 12.1727 34.3783 12.1322 34.1352C11.3856 29.6552 9.37667 26.1886 5.07444 21.9041C2.14111 18.9886 1.48333 18.0108 0.683332 15.4152C0.149999 13.7086 0.114443 10.7574 0.576666 9.01523C1.09222 7.09523 2.05222 5.38856 3.43889 3.913ZM18.2198 11.9989H18.7528C18.8854 11.9989 19.0125 12.0526 19.1063 12.1464C19.2001 12.2401 19.2528 12.3673 19.2528 12.4999C19.2528 12.6325 19.2001 12.7597 19.1063 12.8535C19.0125 12.9472 18.8854 12.9999 18.7528 12.9999H18.2198C18.1193 14.1069 17.6836 15.157 16.9708 16.0099L17.3488 16.3879L17.3608 16.3999C17.4523 16.4954 17.5024 16.6232 17.4999 16.7555C17.4974 16.8878 17.4426 17.0136 17.3475 17.1056C17.2523 17.1975 17.1247 17.248 16.9924 17.246C16.8601 17.244 16.7341 17.1897 16.6418 17.0949L16.2628 16.7169C15.4099 17.4298 14.3598 17.8655 13.2528 17.9659V18.4989C13.2528 18.6315 13.2001 18.7587 13.1063 18.8525C13.0125 18.9462 12.8854 18.9989 12.7528 18.9989C12.6202 18.9989 12.493 18.9462 12.3992 18.8525C12.3054 18.7587 12.2528 18.6315 12.2528 18.4989V17.9659C11.1454 17.8658 10.0949 17.43 9.24176 16.7169L8.86376 17.0949L8.85176 17.1079C8.75628 17.2001 8.6281 17.2505 8.49542 17.2482C8.36274 17.2459 8.23642 17.1909 8.14426 17.0954C8.0521 16.9999 8.00164 16.8718 8.00398 16.7391C8.00633 16.6064 8.06128 16.4801 8.15676 16.3879L8.53476 16.0099C7.82262 15.1568 7.3876 14.1067 7.28776 12.9999H6.75476C6.62215 12.9999 6.49498 12.9472 6.40121 12.8535C6.30744 12.7597 6.25476 12.6325 6.25476 12.4999C6.25476 12.3673 6.30744 12.2401 6.40121 12.1464C6.49498 12.0526 6.62215 11.9999 6.75476 11.9999H7.28876C7.38741 10.891 7.82249 9.83871 8.53576 8.98392L8.15776 8.60692C8.06668 8.51262 8.01628 8.38632 8.01742 8.25522C8.01856 8.12412 8.07115 7.99872 8.16385 7.90601C8.25655 7.81331 8.38196 7.76073 8.51306 7.75959C8.64416 7.75845 8.77046 7.80884 8.86476 7.89992L9.24376 8.28192C10.0967 7.56911 11.1467 7.13339 12.2538 7.03292V6.49992C12.2538 6.36731 12.3064 6.24014 12.4002 6.14637C12.494 6.0526 12.6212 5.99992 12.7538 5.99992C12.8864 5.99992 13.0135 6.0526 13.1073 6.14637C13.2011 6.24014 13.2538 6.36731 13.2538 6.49992V7.03292C14.361 7.13291 15.4114 7.56829 16.2648 8.28092L16.6428 7.90292L16.6548 7.89092C16.7502 7.79934 16.8781 7.74932 17.0103 7.75181C17.1426 7.7543 17.2685 7.80911 17.3604 7.90422C17.4524 7.99933 17.5029 8.127 17.5009 8.25927C17.4989 8.39154 17.4445 8.51763 17.3498 8.60992L16.9718 8.98892C17.6843 9.84194 18.1196 10.892 18.2198 11.9989ZM15.5458 8.99992C14.8868 8.47292 14.0915 8.14413 13.2528 8.05192V11.0919C13.3014 11.1088 13.3491 11.1281 13.3958 11.1499L15.5458 8.99992ZM12.2528 11.0919V8.05192C11.414 8.14413 10.6198 8.47292 9.96076 8.99992L12.1108 11.1499C12.1571 11.1282 12.2045 11.1088 12.2528 11.0919ZM11.4028 11.8569L9.25276 9.70692C8.72575 10.3659 8.39697 11.1612 8.30476 11.9999H11.3468C11.3629 11.9513 11.3816 11.9036 11.4028 11.8569ZM11.3458 12.9999H8.30476C8.39715 13.8388 8.7263 14.6341 9.25376 15.2929L11.4038 13.1429C11.3818 13.0959 11.3628 13.0479 11.3458 12.9999ZM9.96176 15.9979C10.6206 16.5253 11.4159 16.8544 12.2548 16.9469V13.9059C12.2068 13.8889 12.1588 13.8699 12.1118 13.8479L9.96176 15.9979ZM13.2548 13.9069V16.9469C14.0935 16.8548 14.8888 16.526 15.5478 15.9989L13.3978 13.8489C13.3508 13.8699 13.3038 13.8899 13.2548 13.9069ZM16.2542 15.2904L14.1048 13.1409C14.1268 13.0949 14.1458 13.0469 14.1628 12.9979H17.2038C17.1111 13.8367 16.7818 14.6318 16.2542 15.2904ZM14.1038 11.8569C14.1256 11.9036 14.1449 11.9513 14.1618 11.9999L17.2018 11.9989C17.1094 11.1605 16.7806 10.3656 16.2538 9.70692L14.1038 11.8569Z" fill="#ADADAD"/>
</svg>
