<svg width="25" height="35" viewBox="0 0 25 35" fill="none" xmlns="http://www.w3.org/2000/svg">
<circle cx="12.3951" cy="12" r="10" fill="white"/>
<path fill-rule="evenodd" clip-rule="evenodd" d="M3.57921 3.91306C5.48143 1.86862 7.27699 0.837509 9.99699 0.197509C11.5081 -0.158047 14.4414 -0.0158261 16.0414 0.481952C18.0503 1.10417 19.437 1.97528 21.1081 3.66417C23.5259 6.09973 24.5392 8.55306 24.557 12.0375C24.5748 14.3308 24.3259 15.3797 23.277 17.5308C22.5125 19.1131 22.2814 19.3975 19.7748 21.8864C15.4548 26.1886 13.3214 29.8864 12.6992 34.1353C12.6648 34.3793 12.3131 34.3783 12.2725 34.1353C11.5259 29.6553 9.51699 26.1886 5.21476 21.9042C2.28143 18.9886 1.62365 18.0108 0.823652 15.4153C0.290319 13.7086 0.254763 10.7575 0.716985 9.01529C1.23254 7.09529 2.19254 5.38862 3.57921 3.91306ZM10.3601 18.7055C10.5202 18.8076 10.6705 18.8047 10.8111 18.6969L12.2301 17.6903L13.649 18.6969C13.7896 18.8047 13.94 18.8076 14.1 18.7055C14.2596 18.6039 14.3074 18.4692 14.2435 18.3014L13.6874 16.6477L15.0872 15.713C15.2406 15.6172 15.2853 15.4853 15.2214 15.3176C15.1575 15.1498 15.036 15.0659 14.8571 15.0659H13.1505L12.6136 13.4122L15.3364 11.9023C15.5665 11.7705 15.7455 11.5968 15.8733 11.3811C16.0012 11.1654 16.0651 10.9197 16.0651 10.6441V6.43796C16.0651 6.04251 15.915 5.70386 15.6148 5.42201C15.3142 5.14065 14.9529 4.99996 14.5311 4.99996H9.92908C9.50723 4.99996 9.14622 5.14065 8.84607 5.42201C8.54541 5.70386 8.39508 6.04251 8.39508 6.43796V10.6441C8.39508 10.9197 8.45899 11.1654 8.58683 11.3811C8.71466 11.5968 8.89363 11.7705 9.12373 11.9023L11.8466 13.4122L11.3097 15.0659H9.6031C9.42413 15.0659 9.30269 15.1498 9.23878 15.3176C9.17486 15.4853 9.2196 15.6172 9.373 15.713L10.7728 16.6477L10.2167 18.3014C10.1528 18.4692 10.2006 18.6039 10.3601 18.7055ZM12.9971 11.5069L12.2301 11.9383L11.4631 11.5069V7.15695C11.4631 6.95324 11.5367 6.78236 11.684 6.64431C11.8307 6.50674 12.0128 6.43796 12.2301 6.43796C12.4474 6.43796 12.6297 6.50674 12.7769 6.64431C12.9237 6.78236 12.9971 6.95324 12.9971 7.15695V11.5069Z" fill="#969696"/>
</svg>
