<svg width="25" height="35" viewBox="0 0 25 35" fill="none" xmlns="http://www.w3.org/2000/svg">
<circle cx="12" cy="13" r="10" fill="white"/>
<path d="M3.18413 4.25413C5.08635 2.20969 6.88191 1.17857 9.6019 0.538574C11.113 0.183017 14.0463 0.325239 15.6463 0.823017C17.6552 1.44524 19.0419 2.31635 20.713 4.00524C23.1308 6.4408 24.1441 8.89413 24.1619 12.3786C24.1797 14.6719 23.9308 15.7208 22.8819 17.8719C22.1175 19.4542 21.8864 19.7386 19.3797 22.2275C15.0597 26.5297 12.9263 30.2275 12.3041 34.4764C12.2697 34.7204 11.918 34.7194 11.8775 34.4764C11.1308 29.9964 9.12191 26.5297 4.81968 22.2453C1.88635 19.3297 1.22857 18.3519 0.428572 15.7564C-0.104762 14.0497 -0.140317 11.0986 0.321905 9.35635C0.837461 7.43635 1.79746 5.72969 3.18413 4.25413ZM6.50938 16.8317C6.73785 17.0602 7.0125 17.1744 7.33333 17.1744H16.6667C16.9875 17.1744 17.2622 17.0602 17.4906 16.8317C17.7191 16.6032 17.8333 16.3286 17.8333 16.0078V9.00773C17.8333 8.6869 17.7191 8.41225 17.4906 8.18378C17.2622 7.9553 16.9875 7.84107 16.6667 7.84107H14.3333L12.4083 5.91607C12.2917 5.7994 12.1556 5.74107 12 5.74107C11.8444 5.74107 11.7083 5.7994 11.5917 5.91607L9.66667 7.84107H7.33333C7.0125 7.84107 6.73785 7.9553 6.50938 8.18378C6.2809 8.41225 6.16667 8.6869 6.16667 9.00773V16.0078C6.16667 16.3286 6.2809 16.6032 6.50938 16.8317ZM10.4833 12.814L11.5625 14.2578L13.0792 12.2307C13.1375 12.1529 13.2153 12.114 13.3125 12.114C13.4097 12.114 13.4875 12.1529 13.5458 12.2307L15.15 14.3744C15.2278 14.4717 15.2375 14.5737 15.1792 14.6807C15.1208 14.7876 15.0333 14.8411 14.9167 14.8411H9.08333C8.96667 14.8411 8.87917 14.7876 8.82083 14.6807C8.7625 14.5737 8.77222 14.4717 8.85 14.3744L10.0167 12.814C10.075 12.7362 10.1528 12.6973 10.25 12.6973C10.3472 12.6973 10.425 12.7362 10.4833 12.814ZM15.8281 11.6692C15.658 11.8394 15.4514 11.9244 15.2083 11.9244C14.9653 11.9244 14.7587 11.8394 14.5885 11.6692C14.4184 11.4991 14.3333 11.2925 14.3333 11.0494C14.3333 10.8064 14.4184 10.5998 14.5885 10.4296C14.7587 10.2595 14.9653 10.1744 15.2083 10.1744C15.4514 10.1744 15.658 10.2595 15.8281 10.4296C15.9983 10.5998 16.0833 10.8064 16.0833 11.0494C16.0833 11.2925 15.9983 11.4991 15.8281 11.6692ZM12 6.73273L13.1083 7.84107H10.8917L12 6.73273Z" fill="#5CBDC4"/>
</svg>
