<svg width="25" height="35" viewBox="0 0 25 35" fill="none" xmlns="http://www.w3.org/2000/svg">
<circle cx="12" cy="13" r="10" fill="white"/>
<path d="M3.18413 4.25412C5.08635 2.20968 6.88191 1.17857 9.6019 0.538574C11.113 0.183018 14.0463 0.325238 15.6463 0.823017C17.6552 1.44523 19.0419 2.31635 20.713 4.00524C23.1308 6.44079 24.1441 8.89413 24.1619 12.3786C24.1797 14.6719 23.9308 15.7208 22.8819 17.8719C22.1175 19.4542 21.8864 19.7386 19.3797 22.2275C15.0597 26.5297 12.9263 30.2275 12.3041 34.4764C12.2697 34.7204 11.918 34.7194 11.8775 34.4764C11.1308 29.9964 9.12191 26.5297 4.81968 22.2453C1.88635 19.3297 1.22857 18.3519 0.428572 15.7564C-0.104762 14.0497 -0.140317 11.0986 0.321905 9.35635C0.837461 7.43635 1.79746 5.72968 3.18413 4.25412ZM12.5833 7.84106H11.4167V11.9244H12.5833V7.84106ZM10.0791 16.4202C10.1885 16.3109 10.25 16.1625 10.25 16.0078V12.5078C10.4047 12.5078 10.5531 12.4463 10.6625 12.3369C10.7719 12.2275 10.8333 12.0791 10.8333 11.9244V7.84106H8.5L7.33333 13.0911V16.0078C7.33333 16.1625 7.39479 16.3109 7.50419 16.4202C7.61358 16.5296 7.76196 16.5911 7.91667 16.5911H9.66667C9.82138 16.5911 9.96975 16.5296 10.0791 16.4202ZM9.08333 7.25773H10.8333V6.09106H9.08333V7.25773ZM13.75 12.5078V16.0078C13.75 16.1625 13.8115 16.3109 13.9209 16.4202C14.0303 16.5296 14.1786 16.5911 14.3333 16.5911H16.0833C16.238 16.5911 16.3864 16.5296 16.4958 16.4202C16.6052 16.3109 16.6667 16.1625 16.6667 16.0078V13.0911L15.5 7.84106H13.1667V11.9244C13.1667 12.0791 13.2281 12.2275 13.3375 12.3369C13.4469 12.4463 13.5953 12.5078 13.75 12.5078ZM13.1667 6.09106V7.25773H14.9167V6.09106H13.1667Z" fill="#5CBDC4"/>
</svg>
