<svg width="25" height="35" viewBox="0 0 25 35" fill="none" xmlns="http://www.w3.org/2000/svg">
<circle cx="12" cy="12" r="10" fill="white"/>
<path fill-rule="evenodd" clip-rule="evenodd" d="M3.18413 3.91306C5.08635 1.86862 6.8819 0.837509 9.6019 0.197509C11.113 -0.158047 14.0463 -0.0158261 15.6463 0.481952C17.6552 1.10417 19.0419 1.97528 20.713 3.66417C23.1308 6.09973 24.1441 8.55306 24.1619 12.0375C24.1797 14.3308 23.9308 15.3797 22.8819 17.5308C22.1175 19.1131 21.8864 19.3975 19.3797 21.8864C15.0597 26.1886 12.9263 29.8864 12.3041 34.1353C12.2697 34.3793 11.918 34.3783 11.8775 34.1353C11.1308 29.6553 9.12191 26.1886 4.81968 21.9042C1.88635 18.9886 1.22857 18.0108 0.428571 15.4153C-0.104762 13.7086 -0.140317 10.7575 0.321905 9.01529C0.83746 7.09529 1.79746 5.38862 3.18413 3.91306ZM6.17109 8.41249C6.20625 8.3867 7.51172 7.61092 9.075 6.68514C11.2031 5.42655 11.9367 5.00467 11.9953 5.00233C12.0563 4.99998 12.6445 5.33748 14.9367 6.68983C16.5117 7.61795 17.8242 8.40545 17.8547 8.43827C17.9156 8.50624 17.9109 8.59764 17.843 8.6492C17.782 8.69608 6.21562 8.69374 6.15234 8.64686C6.08437 8.59764 6.09609 8.46873 6.17109 8.41249ZM12.3563 7.72577C13.0383 7.40467 13.043 6.46014 12.3656 6.13905C12.1805 6.05233 11.9297 6.03592 11.7398 6.09686C11.4773 6.18592 11.2758 6.37811 11.1773 6.63592C11.107 6.82811 11.1211 7.11873 11.2125 7.30389C11.3016 7.4867 11.4539 7.6367 11.6438 7.72577C11.782 7.79139 11.8242 7.80077 12 7.80077C12.1758 7.80077 12.218 7.79139 12.3563 7.72577ZM11.7961 6.34295C11.5406 6.43905 11.3906 6.65233 11.3906 6.92655C11.3906 7.11873 11.4328 7.22889 11.55 7.35077C11.6906 7.49608 11.7961 7.54295 12 7.54295C12.1992 7.54295 12.3141 7.49608 12.4453 7.36248C12.757 7.05311 12.6258 6.4953 12.2109 6.34764C12.0937 6.30545 11.9016 6.30545 11.7961 6.34295ZM6.76172 9.28201C6.70078 9.19998 6.63281 9.01952 6.63281 8.9328C6.63281 8.89295 6.80391 8.89061 12 8.89061H17.3672L17.3531 8.98905C17.3203 9.21405 17.1797 9.39452 16.9945 9.45077C16.9453 9.46483 16.7672 9.47655 16.5961 9.47655H16.2891V9.58202C16.2891 9.77186 16.1695 9.94764 16.0172 9.98983L15.9492 10.0062L15.9445 12.0922L15.9398 14.1758L16.0547 14.2297C16.1977 14.2953 16.2703 14.4078 16.2844 14.5742L16.2937 14.6984L16.6266 14.7078C16.9031 14.7172 16.9734 14.7265 17.0508 14.7664C17.2172 14.8531 17.3227 15.0008 17.3555 15.1883L17.3719 15.289H12.0047H6.63516L6.64922 15.2C6.67969 14.9703 6.85781 14.7758 7.07812 14.7289C7.14375 14.7148 7.3125 14.7031 7.45312 14.7031H7.71094V14.6047C7.71094 14.464 7.79062 14.314 7.90078 14.2508L7.99219 14.1992V12.0992V9.9992L7.90547 9.94295C7.77187 9.85623 7.72734 9.77655 7.71562 9.61717L7.70625 9.47655H7.38516C7.09922 9.47655 7.05469 9.46951 6.94687 9.4203C6.88125 9.38983 6.79687 9.32655 6.76172 9.28201ZM14.1211 9.96873C13.9805 9.90077 13.8984 9.76483 13.8984 9.59842V9.47655H12.0117C10.1555 9.47655 10.125 9.47655 10.125 9.52342C10.125 9.75545 9.99844 9.94764 9.80625 9.99686L9.70312 10.025V12.1062C9.70312 14.1851 9.70312 14.1875 9.75 14.1875C9.82969 14.1875 9.97734 14.2742 10.0336 14.3562C10.0711 14.4055 10.0898 14.4734 10.0969 14.5672L10.1062 14.7031H12H13.8938L13.9031 14.5648C13.9148 14.3984 13.9875 14.2883 14.1305 14.2226L14.2266 14.1805V12.0992V10.0203L14.1211 9.96873ZM11.5687 9.97342C11.5453 10.0086 11.5312 10.0789 11.5312 10.1726V10.318L11.4047 10.3437C11.2336 10.3789 10.9781 10.5055 10.8492 10.6203C10.5281 10.9062 10.432 11.539 10.6406 11.975C10.7648 12.2305 11.0344 12.425 11.3672 12.5C11.4375 12.5164 11.6977 12.5305 11.9414 12.5351C12.4922 12.5422 12.5391 12.5562 12.5391 12.7297C12.5391 12.8914 12.4992 12.95 12.3633 12.9969C12.0984 13.0883 11.6953 13.0344 11.3367 12.8586C11.0391 12.7133 11.0367 12.7133 10.8305 13.114C10.6805 13.4023 10.6758 13.414 10.7109 13.4773C10.7578 13.5594 11.1164 13.7445 11.3531 13.8078L11.5195 13.8523L11.5312 14.0281L11.532 14.0401C11.5384 14.1409 11.5421 14.1996 11.573 14.2337C11.6159 14.2813 11.7115 14.2813 11.9403 14.2812L11.9625 14.2812C12.157 14.2812 12.3281 14.2719 12.3422 14.2625C12.3938 14.2297 12.4219 14.1406 12.4219 14.0187V13.8945L12.6305 13.8289C13.1883 13.6601 13.4273 13.2992 13.4016 12.6687C13.3875 12.357 13.3336 12.2 13.1719 12.0242C12.9281 11.757 12.6797 11.6797 12.0211 11.6656C11.768 11.6609 11.5312 11.6469 11.4984 11.6328C11.4633 11.6211 11.4258 11.5836 11.4141 11.5531C11.393 11.4922 11.407 11.3445 11.4422 11.2765C11.4727 11.2156 11.6789 11.164 11.8805 11.164C12.1312 11.164 12.3469 11.2156 12.6094 11.3398C12.7922 11.4242 12.8484 11.443 12.893 11.4242C12.9328 11.4101 12.9914 11.3211 13.0969 11.1242C13.268 10.7914 13.2797 10.7187 13.1672 10.6484C13.0195 10.557 12.7547 10.4398 12.5766 10.3859L12.3984 10.3344V10.1726C12.3984 10.1646 12.3985 10.1568 12.3985 10.1492C12.3986 10.0555 12.3987 10.0004 12.3716 9.96799C12.333 9.92171 12.2389 9.92175 12.0104 9.92185C11.9994 9.92186 11.9881 9.92186 11.9766 9.92186C11.618 9.92186 11.6039 9.9242 11.5687 9.97342ZM6.10547 15.7461C6.15234 15.6711 6.21094 15.6148 6.27891 15.5773L6.38203 15.5234H12H17.618L17.7211 15.5773C17.7891 15.6148 17.8477 15.6711 17.8945 15.7461L17.9648 15.8586L17.9719 16.3672C17.9789 16.8523 17.9766 16.8758 17.9297 16.9367L17.8805 17H12H6.11953L6.07031 16.9367C6.02344 16.8758 6.02109 16.8523 6.02812 16.3672L6.03516 15.8586L6.10547 15.7461Z" fill="#9B9BE0"/>
</svg>
