<svg width="25" height="35" viewBox="0 0 25 35" fill="none" xmlns="http://www.w3.org/2000/svg">
<circle cx="12" cy="12" r="10" fill="white"/>
<path d="M3.18413 3.91306C5.08635 1.86862 6.8819 0.837509 9.6019 0.197509C11.113 -0.158047 14.0463 -0.0158261 15.6463 0.481952C17.6552 1.10417 19.0419 1.97529 20.713 3.66418C23.1308 6.09973 24.1441 8.55307 24.1619 12.0375C24.1797 14.3308 23.9308 15.3797 22.8819 17.5308C22.1175 19.1131 21.8864 19.3975 19.3797 21.8864C15.0597 26.1886 12.9263 29.8864 12.3041 34.1353C12.2697 34.3793 11.918 34.3783 11.8775 34.1353C11.1308 29.6553 9.1219 26.1886 4.81968 21.9042C1.88635 18.9886 1.22857 18.0108 0.428571 15.4153C-0.104762 13.7086 -0.140318 10.7575 0.321905 9.01529C0.83746 7.09529 1.79746 5.38862 3.18413 3.91306ZM6.16667 14.5V16.25C6.16667 16.4153 6.22267 16.5537 6.33467 16.6653C6.44628 16.7773 6.58472 16.8333 6.75 16.8333H17.25C17.4153 16.8333 17.5537 16.7773 17.6653 16.6653C17.7773 16.5537 17.8333 16.4153 17.8333 16.25V14.5C17.8333 14.3736 17.8139 14.2521 17.775 14.1354C17.7361 14.0187 17.6778 13.9069 17.6 13.8L12.7292 7.23749L13.4 6.33332C13.4972 6.19721 13.5361 6.05137 13.5167 5.89582C13.4972 5.74026 13.4194 5.61387 13.2833 5.51665C13.1472 5.41943 13.0014 5.38054 12.8458 5.39999C12.6903 5.41943 12.5639 5.49721 12.4667 5.63332L12 6.2604L11.5333 5.63332C11.4361 5.49721 11.3097 5.41943 11.1542 5.39999C10.9986 5.38054 10.8528 5.41943 10.7167 5.51665C10.6486 5.56526 10.5951 5.6236 10.5562 5.69165C10.5174 5.75971 10.4931 5.8301 10.4833 5.90282C10.4736 5.97593 10.4785 6.04885 10.4979 6.12157C10.5174 6.19468 10.5514 6.26526 10.6 6.33332L11.2708 7.23749L6.4 13.8C6.32222 13.9069 6.26389 14.0187 6.225 14.1354C6.18611 14.2521 6.16667 14.3736 6.16667 14.5ZM12 12.5896L14.2021 15.6667H9.79792L12 12.5896Z" fill="#80D980"/>
</svg>
