<svg width="25" height="35" viewBox="0 0 25 35" fill="none" xmlns="http://www.w3.org/2000/svg">
<circle cx="12" cy="12" r="10" fill="white"/>
<path d="M3.18413 3.91306C5.08635 1.86862 6.8819 0.837509 9.6019 0.197509C11.113 -0.158047 14.0463 -0.015826 15.6463 0.481952C17.6552 1.10417 19.0419 1.97528 20.713 3.66417C23.1308 6.09973 24.1441 8.55306 24.1619 12.0375C24.1797 14.3308 23.9308 15.3797 22.8819 17.5308C22.1175 19.1131 21.8864 19.3975 19.3797 21.8864C15.0597 26.1886 12.9263 29.8864 12.3041 34.1353C12.2697 34.3793 11.918 34.3783 11.8775 34.1353C11.1308 29.6553 9.12191 26.1886 4.81968 21.9042C1.88635 18.9886 1.22857 18.0108 0.428571 15.4153C-0.104762 13.7086 -0.140317 10.7575 0.321905 9.01529C0.83746 7.09529 1.79746 5.38862 3.18413 3.91306ZM8.5 12.75H7.33333C7.02391 12.75 6.72717 12.8729 6.50838 13.0917C6.28958 13.3105 6.16667 13.6072 6.16667 13.9167V15.0833H5.58333V16.8333H18.4167V15.0833H17.8333V13.9167C17.8333 13.6072 17.7104 13.3105 17.4916 13.0917C17.2728 12.8729 16.9761 12.75 16.6667 12.75H15.5C15.1906 12.75 14.8938 12.8729 14.675 13.0917C14.4563 13.3105 14.3333 13.6072 14.3333 13.9167V15.0833H13.75V13.9167C13.75 13.6072 13.6271 13.3105 13.4083 13.0917C13.1895 12.8729 12.8928 12.75 12.5833 12.75H11.4167C11.1072 12.75 10.8105 12.8729 10.5917 13.0917C10.3729 13.3105 10.25 13.6072 10.25 13.9167V15.0833H9.66667V13.9167C9.66667 13.6072 9.54375 13.3105 9.32496 13.0917C9.10617 12.8729 8.80942 12.75 8.5 12.75ZM13.75 9.83333L11.4167 8.08333V11.5833L13.75 9.83333ZM16.6667 5.16667H7.33333C7.02391 5.16667 6.72717 5.28958 6.50838 5.50838C6.28958 5.72717 6.16667 6.02391 6.16667 6.33333V11.8983C6.51083 11.6942 6.9075 11.5833 7.33333 11.5833V6.33333H16.6667V11.5833C17.0925 11.5833 17.4892 11.6942 17.8333 11.8983V6.33333C17.8333 6.02391 17.7104 5.72717 17.4916 5.50838C17.2728 5.28958 16.9761 5.16667 16.6667 5.16667Z" fill="#5CBDC4"/>
</svg>
