<svg width="25" height="35" viewBox="0 0 25 35" fill="none" xmlns="http://www.w3.org/2000/svg">
<circle cx="12" cy="11.6589" r="10" fill="white"/>
<path d="M3.18413 3.91306C5.08635 1.86862 6.88191 0.837509 9.6019 0.197509C11.113 -0.158047 14.0463 -0.0158261 15.6463 0.481952C17.6552 1.10417 19.0419 1.97529 20.713 3.66418C23.1308 6.09973 24.1441 8.55307 24.1619 12.0375C24.1797 14.3308 23.9308 15.3797 22.8819 17.5308C22.1175 19.1131 21.8864 19.3975 19.3797 21.8864C15.0597 26.1886 12.9263 29.8864 12.3041 34.1353C12.2697 34.3793 11.918 34.3783 11.8775 34.1353C11.1308 29.6553 9.12191 26.1886 4.81968 21.9042C1.88635 18.9886 1.22857 18.0108 0.428572 15.4153C-0.104762 13.7086 -0.140317 10.7575 0.321905 9.01529C0.837461 7.09529 1.79746 5.38862 3.18413 3.91306ZM5.80208 12.5528C5.91875 12.6843 6.06944 12.75 6.25417 12.75H13.7208C13.9056 12.75 14.0562 12.6843 14.1729 12.5528C14.2896 12.4218 14.3333 12.2736 14.3042 12.1083C14.1194 11.1458 13.6042 10.4287 12.7583 9.95699C11.9125 9.48565 10.9889 9.24999 9.9875 9.24999C8.98611 9.24999 8.0625 9.48565 7.21667 9.95699C6.37083 10.4287 5.85556 11.1458 5.67083 12.1083C5.64167 12.2736 5.68542 12.4218 5.80208 12.5528ZM14.5013 9.89924C15.1866 10.6817 15.5292 11.6319 15.5292 12.75V17.4167H16.5208C16.7736 17.4167 16.99 17.334 17.1701 17.1687C17.3498 17.0035 17.4542 16.8042 17.4833 16.5708L18.3875 7.55832C18.4069 7.38332 18.3583 7.23262 18.2417 7.10624C18.125 6.97985 17.9792 6.91665 17.8042 6.91665H15.5292V5.16665C15.5292 5.00137 15.4734 4.86274 15.3617 4.75074C15.2498 4.63912 15.1111 4.58332 14.9458 4.58332C14.7806 4.58332 14.6419 4.63912 14.5299 4.75074C14.4183 4.86274 14.3625 5.00137 14.3625 5.16665V6.91665H12.1021C11.9271 6.91665 11.7838 6.98237 11.6722 7.11382C11.5602 7.24487 11.5139 7.3979 11.5333 7.5729L11.6062 8.25832C12.8507 8.56943 13.8157 9.1164 14.5013 9.89924ZM5.75133 14.9153C5.86294 15.0273 6.00139 15.0833 6.16667 15.0833H13.75C13.9153 15.0833 14.0539 15.0273 14.1659 14.9153C14.2775 14.8037 14.3333 14.6653 14.3333 14.5C14.3333 14.3347 14.2775 14.1963 14.1659 14.0847C14.0539 13.9727 13.9153 13.9167 13.75 13.9167H6.16667C6.00139 13.9167 5.86294 13.9727 5.75133 14.0847C5.63933 14.1963 5.58333 14.3347 5.58333 14.5C5.58333 14.6653 5.63933 14.8037 5.75133 14.9153ZM5.75133 17.2487C5.86294 17.3607 6.00139 17.4167 6.16667 17.4167H13.75C13.9153 17.4167 14.0539 17.3607 14.1659 17.2487C14.2775 17.137 14.3333 16.9986 14.3333 16.8333C14.3333 16.668 14.2775 16.5296 14.1659 16.418C14.0539 16.306 13.9153 16.25 13.75 16.25H6.16667C6.00139 16.25 5.86294 16.306 5.75133 16.418C5.63933 16.5296 5.58333 16.668 5.58333 16.8333C5.58333 16.9986 5.63933 17.137 5.75133 17.2487Z" fill="#FAA264"/>
</svg>
