<svg width="25" height="35" viewBox="0 0 25 35" fill="none" xmlns="http://www.w3.org/2000/svg">
<circle cx="12" cy="12" r="10" fill="white"/>
<path d="M3.18413 4.25412C5.08635 2.20968 6.88191 1.17857 9.60191 0.538574C11.113 0.183018 14.0464 0.325238 15.6464 0.823017C17.6552 1.44523 19.0419 2.31635 20.713 4.00524C23.1308 6.44079 24.1441 8.89413 24.1619 12.3786C24.1797 14.6719 23.9308 15.7208 22.8819 17.8719C22.1175 19.4542 21.8864 19.7386 19.3797 22.2275C15.0597 26.5297 12.9264 30.2275 12.3041 34.4764C12.2697 34.7204 11.918 34.7194 11.8775 34.4764C11.1308 29.9964 9.12191 26.5297 4.81969 22.2453C1.88635 19.3297 1.22857 18.3519 0.428572 15.7564C-0.104762 14.0497 -0.140317 11.0986 0.321905 9.35635C0.837461 7.43635 1.79746 5.72968 3.18413 4.25412ZM7.84375 16.0807C8.18403 16.421 8.59723 16.5911 9.08334 16.5911C9.56945 16.5911 9.98264 16.421 10.3229 16.0807C10.6632 15.7404 10.8333 15.3272 10.8333 14.8411H13.1667C13.1667 15.3272 13.3368 15.7404 13.6771 16.0807C14.0174 16.421 14.4306 16.5911 14.9167 16.5911C15.4028 16.5911 15.816 16.421 16.1563 16.0807C16.4965 15.7404 16.6667 15.3272 16.6667 14.8411H17.25C17.5708 14.8411 17.8456 14.727 18.0743 14.4987C18.3025 14.27 18.4167 13.9953 18.4167 13.6744V10.9474C18.4167 10.8793 18.4118 10.8136 18.4021 10.7502C18.3924 10.6872 18.3778 10.6265 18.3583 10.5682L17.5125 8.05981C17.4347 7.81676 17.2938 7.62231 17.0896 7.47648C16.8854 7.33064 16.6569 7.25773 16.4042 7.25773H16.0833V6.67439C16.0833 6.50912 16.0273 6.37048 15.9153 6.25848C15.8037 6.14687 15.6653 6.09106 15.5 6.09106H14.9167C14.7514 6.09106 14.6129 6.14687 14.5013 6.25848C14.3893 6.37048 14.3333 6.50912 14.3333 6.67439V7.25773H13.1667C12.8458 7.25773 12.5713 7.37206 12.343 7.60073C12.1143 7.82901 12 8.10356 12 8.42439V10.7578H6.75C6.42917 10.7578 6.15461 10.8719 5.92634 11.1002C5.69767 11.3289 5.58334 11.6036 5.58334 11.9244V13.6744C5.58334 13.9953 5.69767 14.27 5.92634 14.4987C6.15461 14.727 6.42917 14.8411 6.75 14.8411H7.33334C7.33334 15.3272 7.50348 15.7404 7.84375 16.0807ZM9.49925 15.2564C9.38725 15.3684 9.24861 15.4244 9.08334 15.4244C8.91806 15.4244 8.77942 15.3684 8.66742 15.2564C8.55581 15.1448 8.5 15.0064 8.5 14.8411C8.5 14.6758 8.55581 14.5374 8.66742 14.4258C8.77942 14.3138 8.91806 14.2578 9.08334 14.2578C9.24861 14.2578 9.38725 14.3138 9.49925 14.4258C9.61086 14.5374 9.66667 14.6758 9.66667 14.8411C9.66667 15.0064 9.61086 15.1448 9.49925 15.2564ZM15.332 15.2564C15.2204 15.3684 15.0819 15.4244 14.9167 15.4244C14.7514 15.4244 14.6129 15.3684 14.5013 15.2564C14.3893 15.1448 14.3333 15.0064 14.3333 14.8411C14.3333 14.6758 14.3893 14.5374 14.5013 14.4258C14.6129 14.3138 14.7514 14.2578 14.9167 14.2578C15.0819 14.2578 15.2204 14.3138 15.332 14.4258C15.444 14.5374 15.5 14.6758 15.5 14.8411C15.5 15.0064 15.444 15.1448 15.332 15.2564ZM17.1917 10.7578H13.1667V8.42439H16.4042L17.1917 10.7578ZM8.0625 9.29939H7.04167V8.13273H8.0625V9.29939ZM9.95834 9.29939H8.9375V8.13273H9.95834V9.29939ZM5.707 10.0501C5.78984 10.133 5.89445 10.1744 6.02084 10.1744H10.9792C11.1056 10.1744 11.2102 10.133 11.293 10.0501C11.3754 9.9677 11.4167 9.86328 11.4167 9.73689C11.4167 9.61051 11.3754 9.50589 11.293 9.42306C11.2102 9.34062 11.1056 9.29939 10.9792 9.29939H10.8333V8.13273H10.9792C11.1056 8.13273 11.2102 8.09131 11.293 8.00848C11.3754 7.92603 11.4167 7.82162 11.4167 7.69523C11.4167 7.56884 11.3754 7.46442 11.293 7.38198C11.2102 7.29914 11.1056 7.25773 10.9792 7.25773H6.02084C5.89445 7.25773 5.78984 7.29914 5.707 7.38198C5.62456 7.46442 5.58334 7.56884 5.58334 7.69523C5.58334 7.82162 5.62456 7.92603 5.707 8.00848C5.78984 8.09131 5.89445 8.13273 6.02084 8.13273H6.16667V9.29939H6.02084C5.89445 9.29939 5.78984 9.34062 5.707 9.42306C5.62456 9.50589 5.58334 9.61051 5.58334 9.73689C5.58334 9.86328 5.62456 9.9677 5.707 10.0501Z" fill="#5CBDC4"/>
</svg>
