<svg width="25" height="35" viewBox="0 0 25 35" fill="none" xmlns="http://www.w3.org/2000/svg">
<circle cx="12" cy="11" r="10" fill="white"/>
<path fill-rule="evenodd" clip-rule="evenodd" d="M3.18413 3.91311C5.08635 1.86866 6.8819 0.837552 9.6019 0.197552C11.113 -0.158004 14.0463 -0.0157832 15.6463 0.481995C17.6552 1.10422 19.0419 1.97533 20.713 3.66422C23.1308 6.09977 24.1441 8.55311 24.1619 12.0376C24.1797 14.3309 23.9308 15.3798 22.8819 17.5309C22.1175 19.1131 21.8864 19.3976 19.3797 21.8864C15.0597 26.1887 12.9263 29.8864 12.3041 34.1353C12.2697 34.3793 11.918 34.3784 11.8775 34.1353C11.1308 29.6553 9.1219 26.1887 4.81968 21.9042C1.88635 18.9887 1.22857 18.0109 0.428571 15.4153C-0.104762 13.7087 -0.140318 10.7576 0.321905 9.01533C0.83746 7.09533 1.79746 5.38866 3.18413 3.91311ZM12.9291 14.6727H10.7409V12.8815H8.9175V10.732H10.7409V8.94074H12.9291V10.732H14.7525V12.8815H12.9291V14.6727ZM7.64985 16.4726C8.75023 17.9596 10.1453 18.912 11.835 19.33C13.5252 18.9125 14.9203 17.9603 16.0202 16.4733C17.1201 14.9863 17.67 13.3353 17.67 11.5201V7.14949L11.835 4.99999L6 7.14949V11.5201C5.99951 13.3348 6.54946 14.9856 7.64985 16.4726Z" fill="#FF7D7F"/>
</svg>
