<svg width="25" height="35" viewBox="0 0 25 35" fill="none" xmlns="http://www.w3.org/2000/svg">
<circle cx="12" cy="12" r="10" fill="white"/>
<path fill-rule="evenodd" clip-rule="evenodd" d="M9.6019 0.197509C6.8819 0.837509 5.08635 1.86862 3.18413 3.91306C1.79746 5.38862 0.83746 7.09529 0.321905 9.01529C-0.140317 10.7575 -0.104762 13.7086 0.428571 15.4153C1.22857 18.0108 1.88635 18.9886 4.81968 21.9042C9.1219 26.1886 11.1308 29.6553 11.8775 34.1353C11.918 34.3783 12.2697 34.3793 12.3041 34.1353C12.9263 29.8864 15.0597 26.1886 19.3797 21.8864C21.8864 19.3975 22.1175 19.1131 22.8819 17.5308C23.9308 15.3797 24.1797 14.3308 24.1619 12.0375C24.1441 8.55306 23.1308 6.09973 20.713 3.66417C19.0419 1.97528 17.6552 1.10417 15.6463 0.481952C14.0463 -0.0158261 11.113 -0.158047 9.6019 0.197509ZM8.80354 16.2007C7.99704 16.1834 7.36336 15.5708 7.36336 14.8429V13.7074C7.36332 13.6483 7.34153 13.5909 7.30143 13.5443C7.26132 13.4976 7.20518 13.4642 7.1418 13.4495C5.89549 13.1545 5 12.126 5 10.8682C5.00096 10.2406 5.24674 9.63337 5.69423 9.15301C6.14172 8.67266 6.76233 8.34986 7.44719 8.24124C7.50956 8.2319 7.56697 8.20475 7.61098 8.16378C7.65498 8.1228 7.68326 8.07017 7.69165 8.01361C7.81328 7.1799 8.26658 6.41453 8.96708 5.86009C9.66759 5.30565 10.5675 4.99996 11.4993 4.99996C12.431 4.99996 13.3309 5.30565 14.0314 5.86009C14.7319 6.41453 15.1852 7.1799 15.3069 8.01361C15.3152 8.07017 15.3435 8.1228 15.3875 8.16378C15.4315 8.20475 15.4889 8.2319 15.5513 8.24124C16.2801 8.35548 16.9349 8.71233 17.3863 9.24126C17.8376 9.77018 18.0527 10.4327 17.989 11.0978C17.9253 11.763 17.5874 12.3823 17.0422 12.8335C16.4969 13.2846 15.784 13.5348 15.0443 13.5344C14.4031 13.5317 13.7831 13.3264 13.2921 12.9542C13.2407 12.9159 13.1764 12.8946 13.1098 12.8938C13.0432 12.8929 12.9783 12.9126 12.9258 12.9495C12.5194 13.2394 12.0172 13.3984 11.4993 13.4011C11.2268 13.3993 10.9559 13.3636 10.6942 13.2951C10.6503 13.2838 10.604 13.2818 10.559 13.2893C10.5141 13.2969 10.4717 13.3137 10.4351 13.3386C10.3986 13.3634 10.369 13.3956 10.3486 13.4325C10.3282 13.4695 10.3176 13.5102 10.3176 13.5514V14.8676C10.3176 15.0455 10.2782 15.2216 10.2017 15.3856C10.1252 15.5495 10.0131 15.698 9.87196 15.8222C9.73087 15.9465 9.56364 16.0439 9.38015 16.1089C9.19665 16.174 9.0006 16.2051 8.80354 16.2007ZM11.8835 14.5414C11.934 14.4926 12.003 14.4627 12.0768 14.4576C12.484 14.4267 12.882 14.3319 13.253 14.1773C13.2944 14.16 13.3398 14.1516 13.3855 14.1527C13.4312 14.1539 13.4759 14.1646 13.5163 14.184C13.9291 14.3831 14.3781 14.5139 14.842 14.5703C14.8868 14.5762 14.9295 14.5913 14.9668 14.6144C15.0041 14.6376 15.035 14.6682 15.0572 14.7038C15.0793 14.7395 15.092 14.7793 15.0944 14.8201C15.0968 14.8609 15.0888 14.9016 15.0709 14.9392L12.3464 20.6767C12.3009 20.7725 12.2253 20.8542 12.1289 20.9117C12.0324 20.9692 11.9195 20.9998 11.8039 21C11.6886 21 11.5757 20.9695 11.4793 20.9123C11.3829 20.855 11.3072 20.7736 11.2615 20.678L9.75077 17.5185C9.73449 17.4843 9.72631 17.4475 9.72675 17.4103C9.72718 17.3731 9.73623 17.3365 9.75331 17.3026C9.77038 17.2688 9.7951 17.2386 9.82589 17.2139C9.85668 17.1892 9.89285 17.1705 9.93208 17.1592C10.4739 17.0071 10.9477 16.7027 11.2845 16.2905C11.6212 15.8782 11.8032 15.3797 11.8039 14.8676V14.7212C11.8046 14.6544 11.8329 14.5903 11.8835 14.5414Z" fill="#FAA264"/>
</svg>
