<svg width="25" height="35" viewBox="0 0 25 35" fill="none" xmlns="http://www.w3.org/2000/svg">
<circle cx="12" cy="12" r="10" fill="white"/>
<path d="M3.18413 4.25412C5.08635 2.20968 6.88191 1.17857 9.6019 0.538574C11.113 0.183018 14.0463 0.325238 15.6463 0.823017C17.6552 1.44523 19.0419 2.31635 20.713 4.00524C23.1308 6.44079 24.1441 8.89413 24.1619 12.3786C24.1797 14.6719 23.9308 15.7208 22.8819 17.8719C22.1175 19.4542 21.8864 19.7386 19.3797 22.2275C15.0597 26.5297 12.9263 30.2275 12.3041 34.4764C12.2697 34.7204 11.918 34.7194 11.8775 34.4764C11.1308 29.9964 9.12191 26.5297 4.81968 22.2453C1.88635 19.3297 1.22857 18.3519 0.428572 15.7564C-0.104762 14.0497 -0.140317 11.0986 0.321905 9.35635C0.83746 7.43635 1.79746 5.72968 3.18413 4.25412ZM6.33467 17.0064C6.44628 17.1184 6.58472 17.1744 6.75 17.1744H17.25C17.4153 17.1744 17.5537 17.1184 17.6653 17.0064C17.7773 16.8948 17.8333 16.7564 17.8333 16.5911C17.8333 16.4258 17.7773 16.2874 17.6653 16.1758C17.5537 16.0638 17.4153 16.0078 17.25 16.0078H16.6667V10.7578H17.0458C17.2694 10.7578 17.4567 10.6825 17.6076 10.532C17.7581 10.3811 17.8333 10.1938 17.8333 9.97023C17.8333 9.86328 17.8016 9.75381 17.7383 9.64181C17.6753 9.5302 17.6049 9.44523 17.5271 9.38689L12.6708 5.97439C12.5639 5.89662 12.4546 5.84314 12.343 5.81398C12.231 5.78481 12.1167 5.77023 12 5.77023C11.8833 5.77023 11.7692 5.78481 11.6576 5.81398C11.5456 5.84314 11.4361 5.89662 11.3292 5.97439L6.47292 9.38689C6.39514 9.44523 6.32475 9.52787 6.26175 9.63481C6.19836 9.74175 6.16667 9.8487 6.16667 9.95564C6.16667 10.1793 6.24211 10.3689 6.393 10.5244C6.5435 10.68 6.73056 10.7578 6.95417 10.7578H7.33333V16.0078H6.75C6.58472 16.0078 6.44628 16.0638 6.33467 16.1758C6.22267 16.2874 6.16667 16.4258 6.16667 16.5911C6.16667 16.7564 6.22267 16.8948 6.33467 17.0064ZM10.6659 14.6731C10.5539 14.7851 10.4153 14.8411 10.25 14.8411C10.0847 14.8411 9.94628 14.7851 9.83467 14.6731C9.72267 14.5615 9.66667 14.423 9.66667 14.2578V11.5161C9.66667 11.3022 9.73958 11.1224 9.88542 10.9765C10.0312 10.8307 10.2111 10.7578 10.425 10.7578C10.5417 10.7578 10.6609 10.7918 10.7826 10.8599C10.9039 10.9279 10.9938 11.0057 11.0521 11.0932L12 12.5078L12.9479 11.0932C13.0063 11.0057 13.0963 10.9279 13.218 10.8599C13.3393 10.7918 13.4535 10.7578 13.5604 10.7578C13.7743 10.7578 13.9567 10.8307 14.1076 10.9765C14.2581 11.1224 14.3333 11.3022 14.3333 11.5161V14.2578C14.3333 14.423 14.2775 14.5615 14.1659 14.6731C14.0539 14.7851 13.9153 14.8411 13.75 14.8411C13.5847 14.8411 13.4463 14.7851 13.3347 14.6731C13.2227 14.5615 13.1667 14.423 13.1667 14.2578V12.5078L12.4812 13.5286C12.4229 13.6161 12.3525 13.6816 12.2701 13.7252C12.1873 13.7691 12.0972 13.7911 12 13.7911C11.9125 13.7911 11.825 13.7691 11.7375 13.7252C11.65 13.6816 11.5771 13.6161 11.5188 13.5286L10.8333 12.5078V14.2578C10.8333 14.423 10.7775 14.5615 10.6659 14.6731Z" fill="#5CBDC4"/>
</svg>
