<svg width="25" height="35" viewBox="0 0 25 35" fill="none" xmlns="http://www.w3.org/2000/svg">
<circle cx="12" cy="12" r="10" fill="white"/>
<path d="M3.18413 4.25412C5.08635 2.20968 6.8819 1.17857 9.6019 0.538574C11.113 0.183018 14.0463 0.325238 15.6463 0.823017C17.6552 1.44523 19.0419 2.31635 20.713 4.00524C23.1308 6.44079 24.1441 8.89413 24.1619 12.3786C24.1797 14.6719 23.9308 15.7208 22.8819 17.8719C22.1175 19.4542 21.8864 19.7386 19.3797 22.2275C15.0597 26.5297 12.9263 30.2275 12.3041 34.4764C12.2697 34.7204 11.918 34.7194 11.8775 34.4764C11.1308 29.9964 9.1219 26.5297 4.81968 22.2453C1.88635 19.3297 1.22857 18.3519 0.428571 15.7564C-0.104762 14.0497 -0.140318 11.0986 0.321904 9.35635C0.83746 7.43635 1.79746 5.72968 3.18413 4.25412ZM6.99792 10.5098C7.16319 10.6751 7.37222 10.7578 7.625 10.7578C7.87778 10.7578 8.08681 10.6751 8.25208 10.5098C8.41736 10.3446 8.5 10.1355 8.5 9.88273C8.5 9.62995 8.41736 9.42092 8.25208 9.25564C8.08681 9.09036 7.87778 9.00773 7.625 9.00773C7.37222 9.00773 7.16319 9.09036 6.99792 9.25564C6.83264 9.42092 6.75 9.62995 6.75 9.88273C6.75 10.1355 6.83264 10.3446 6.99792 10.5098ZM6.918 17.0064C7.02961 17.1184 7.16806 17.1744 7.33333 17.1744H16.6667C16.8319 17.1744 16.9704 17.1184 17.082 17.0064C17.194 16.8948 17.25 16.7564 17.25 16.5911C17.25 16.4258 17.194 16.2874 17.082 16.1758C16.9704 16.0638 16.8319 16.0078 16.6667 16.0078H14.3333V13.0911H15.3542C16.0444 13.0911 16.6303 12.8504 17.1117 12.3689C17.5928 11.8879 17.8333 11.3022 17.8333 10.6119C17.8333 10.0966 17.6949 9.63714 17.418 9.23348C17.1407 8.8302 16.7833 8.53134 16.3458 8.33689C16.2389 7.70495 15.9449 7.17256 15.4638 6.73973C14.9824 6.30728 14.4111 6.09106 13.75 6.09106C13.0889 6.09106 12.5176 6.30728 12.0362 6.73973C11.5551 7.17256 11.2611 7.70495 11.1542 8.33689C10.7167 8.53134 10.3595 8.8302 10.0826 9.23348C9.80531 9.63714 9.66667 10.0966 9.66667 10.6119C9.66667 11.3022 9.90739 11.8879 10.3888 12.3689C10.8699 12.8504 11.4556 13.0911 12.1458 13.0911H13.1667V16.0078H8.5V14.2578H8.79167C8.86944 14.2578 8.9375 14.2286 8.99583 14.1703C9.05417 14.1119 9.08333 14.0439 9.08333 13.9661V11.9244C9.08333 11.7592 9.02753 11.6205 8.91592 11.5085C8.80392 11.3969 8.66528 11.3411 8.5 11.3411H6.75C6.58472 11.3411 6.44628 11.3969 6.33467 11.5085C6.22267 11.6205 6.16667 11.7592 6.16667 11.9244V13.9661C6.16667 14.0439 6.19583 14.1119 6.25417 14.1703C6.3125 14.2286 6.38056 14.2578 6.45833 14.2578H6.75V16.5911C6.75 16.7564 6.806 16.8948 6.918 17.0064Z" fill="#80D980"/>
</svg>
