<svg width="25" height="35" viewBox="0 0 25 35" fill="none" xmlns="http://www.w3.org/2000/svg">
<circle cx="12" cy="12" r="10" fill="white"/>
<path d="M3.18413 4.25412C5.08635 2.20968 6.8819 1.17857 9.6019 0.538574C11.113 0.183018 14.0463 0.325238 15.6463 0.823017C17.6552 1.44523 19.0419 2.31634 20.713 4.00523C23.1308 6.44079 24.1441 8.89412 24.1619 12.3786C24.1797 14.6719 23.9308 15.7208 22.8819 17.8719C22.1175 19.4542 21.8864 19.7386 19.3797 22.2275C15.0597 26.5297 12.9263 30.2275 12.3041 34.4764C12.2697 34.7204 11.918 34.7194 11.8775 34.4764C11.1308 29.9964 9.12191 26.5297 4.81968 22.2453C1.88635 19.3297 1.22857 18.3519 0.428571 15.7564C-0.104762 14.0497 -0.140317 11.0986 0.321905 9.35635C0.83746 7.43635 1.79746 5.72968 3.18413 4.25412ZM6.80241 6.16396H5V6.75869H6.80355V16.4179H5V17.2986H19.0023V16.4179H17.6465V6.75527H18.9897V6.16396H17.634V4.34104H16.9504V6.16396H15.1001V4.34104H14.4165V6.16396H12.5617V4.34104H11.8781V6.16396H10.0221V4.34104H9.33854V6.16396H7.486V4.34104H6.80241V6.16396ZM9.32943 10.711L9.31917 9.97386H9.33626V6.75869H7.49398V15.3435C7.80216 14.9579 8.21717 14.866 8.67249 14.7651C8.88711 14.7175 9.11069 14.668 9.33626 14.5847V10.711H9.32943ZM10.029 13.0145C10.0278 13.0123 10.0267 13.0101 10.0256 13.0079H10.029V13.0145ZM10.029 13.0145V14.1883C10.0518 14.17 10.0745 14.1495 10.0973 14.129C10.0575 14.2441 10.8447 14.9584 11.8804 14.9858V14.3421C11.5108 14.3219 11.1548 14.1958 10.855 13.9786C10.5088 13.7254 10.226 13.3954 10.029 13.0145ZM12.9456 14.0538C12.8255 14.1283 12.698 14.1901 12.5651 14.2384V14.8981C13.031 14.7532 13.4503 14.4879 13.7808 14.129C13.9671 14.2977 14.182 14.432 14.4154 14.5255V11.2579C14.216 12.7049 13.6372 13.6231 12.9456 14.0538ZM13.7244 8.4532C14.0502 8.75191 14.289 9.13331 14.4154 9.55686V6.75869H12.5651V7.86041C12.998 7.94963 13.3986 8.15449 13.7244 8.4532ZM10.8369 8.12213C11.1569 7.94491 11.512 7.84038 11.877 7.81598V6.75869H10.0256V8.84137C10.2399 8.54493 10.5169 8.29936 10.8369 8.12213ZM15.2418 14.7475C15.1968 14.7386 15.1514 14.7296 15.1058 14.7203V6.75869H16.9515V16.4213H16.9287C16.6727 15.0305 16.0024 14.8979 15.2418 14.7475ZM11.877 11.054L10.0256 10.8603V10.7122H11.877V11.054ZM14.2741 10.8216L12.5651 11.0073V11.0038V10.7076H14.2821C14.2741 10.7486 14.2741 10.7851 14.2741 10.8216ZM14.1851 11.5054C14.1859 11.5045 14.1867 11.5037 14.1875 11.5029V11.4915C14.1867 11.4961 14.1859 11.5007 14.1851 11.5054ZM12.5651 11.8959C13.1111 12.186 13.6606 12.0433 14.1851 11.5054C14.1314 11.8109 14.0514 12.1112 13.946 12.4029C13.8969 12.4232 13.8504 12.4813 13.7973 12.5476C13.6594 12.72 13.4765 12.9485 13.0858 12.7174C12.915 12.6678 12.741 12.6298 12.5651 12.6035V11.8959ZM10.0256 11.7102C10.61 12.24 11.2344 12.15 11.877 11.5484V12.5567C11.5348 12.5652 11.1954 12.6211 10.8687 12.7231C10.4377 12.9729 10.2408 12.677 10.0941 12.4565C10.0702 12.4206 10.0476 12.3866 10.0256 12.3574V11.7102ZM12.5605 11.4881C12.5944 11.5317 12.6326 11.5717 12.6745 11.6077H12.6813C13.1587 12.0121 13.6668 11.6863 13.9049 11.2021C13.9078 11.1957 13.9108 11.1901 13.9135 11.1851C13.9245 11.1643 13.9307 11.1528 13.9049 11.128C13.8821 11.106 13.8465 11.1114 13.8144 11.1163C13.8015 11.1182 13.7892 11.1201 13.7785 11.1201L12.5605 11.3103V11.4881ZM11.5295 11.3274C11.4738 11.434 11.3984 11.5291 11.3073 11.6077H11.3175C10.8402 12.0121 10.332 11.6863 10.0939 11.2021C10.0912 11.196 10.0884 11.1907 10.0859 11.1858C10.0748 11.1646 10.0688 11.1531 10.0939 11.128C10.1159 11.1061 10.1512 11.1114 10.1833 11.1163C10.1962 11.1182 10.2085 11.1201 10.2192 11.1201L11.5295 11.3274ZM12.818 13.3417C12.818 13.2517 12.7212 13.1708 12.5651 13.1139V13.5696C12.7212 13.5115 12.818 13.4317 12.818 13.3417ZM11.2218 13.3406C11.2218 13.4933 11.5067 13.6197 11.8815 13.6459V13.0353C11.5067 13.0615 11.2218 13.1879 11.2218 13.3406Z" fill="#5CBDC4"/>
</svg>
