<svg width="25" height="35" viewBox="0 0 25 35" fill="none" xmlns="http://www.w3.org/2000/svg">
<circle cx="12" cy="12" r="10" fill="white"/>
<path fill-rule="evenodd" clip-rule="evenodd" d="M3.18413 3.91306C5.08635 1.86862 6.8819 0.837509 9.6019 0.197509C11.113 -0.158047 14.0463 -0.0158261 15.6463 0.481952C17.6552 1.10417 19.0419 1.97528 20.713 3.66417C23.1308 6.09973 24.1441 8.55306 24.1619 12.0375C24.1797 14.3308 23.9308 15.3797 22.8819 17.5308C22.1175 19.1131 21.8864 19.3975 19.3797 21.8864C15.0597 26.1886 12.9263 29.8864 12.3041 34.1353C12.2697 34.3793 11.918 34.3783 11.8775 34.1353C11.1308 29.6553 9.1219 26.1886 4.81968 21.9042C1.88635 18.9886 1.22857 18.0108 0.428571 15.4153C-0.104762 13.7086 -0.140317 10.7575 0.321905 9.01529C0.83746 7.09529 1.79746 5.38862 3.18413 3.91306ZM11.835 12.2222C13.4469 12.2222 14.7525 10.9294 14.7525 9.33329L14.6722 8.6544L16.2112 7.88885V11.1388H16.9406V7.52774L11.835 4.99996L6.72935 7.52774L8.99771 8.6544L8.91748 9.33329C8.91748 10.9294 10.2231 12.2222 11.835 12.2222ZM17.67 16.5555C17.67 14.9594 15.0588 13.6666 11.835 13.6666C8.61114 13.6666 5.99998 14.9594 5.99998 16.5555V18H17.67V16.5555Z" fill="#B7B6BA"/>
</svg>
