<svg width="25" height="35" viewBox="0 0 25 35" fill="none" xmlns="http://www.w3.org/2000/svg">
<circle cx="12" cy="12" r="10" fill="white"/>
<path d="M3.18413 4.25413C5.08635 2.20969 6.88191 1.17857 9.6019 0.538574C11.113 0.183017 14.0463 0.325239 15.6463 0.823017C17.6552 1.44524 19.0419 2.31635 20.713 4.00524C23.1308 6.4408 24.1441 8.89413 24.1619 12.3786C24.1797 14.6719 23.9308 15.7208 22.8819 17.8719C22.1175 19.4542 21.8864 19.7386 19.3797 22.2275C15.0597 26.5297 12.9263 30.2275 12.3041 34.4764C12.2697 34.7204 11.918 34.7194 11.8775 34.4764C11.1308 29.9964 9.12191 26.5297 4.81968 22.2453C1.88635 19.3297 1.22857 18.3519 0.428572 15.7564C-0.104762 14.0497 -0.140317 11.0986 0.321905 9.35635C0.83746 7.43635 1.79746 5.72969 3.18413 4.25413ZM10.6659 10.5897C10.5539 10.7017 10.4153 10.7577 10.25 10.7577C10.0847 10.7577 9.94628 10.7017 9.83467 10.5897C9.72267 10.4781 9.66667 10.3397 9.66667 10.1744V9.00772H10.8333V10.1744C10.8333 10.3397 10.7775 10.4781 10.6659 10.5897ZM12.8243 7.01739C13.0525 7.24566 13.1667 7.52022 13.1667 7.84105H10.8333C10.8333 7.52022 10.9477 7.24566 11.1763 7.01739C11.4046 6.78872 11.6792 6.67439 12 6.67439C12.3208 6.67439 12.5956 6.78872 12.8243 7.01739ZM14.1659 10.5897C14.0539 10.7017 13.9153 10.7577 13.75 10.7577C13.5847 10.7577 13.4463 10.7017 13.3347 10.5897C13.2227 10.4781 13.1667 10.3397 13.1667 10.1744V9.00772H14.3333V10.1744C14.3333 10.3397 14.2775 10.4781 14.1659 10.5897ZM7.67633 16.832C7.90461 17.0603 8.17917 17.1744 8.5 17.1744H15.5C15.8208 17.1744 16.0956 17.0603 16.3242 16.832C16.5525 16.6033 16.6667 16.3286 16.6667 16.0077V9.00772C16.6667 8.68689 16.5525 8.41233 16.3242 8.18405C16.0956 7.95539 15.8208 7.84105 15.5 7.84105H14.3333C14.3333 7.19939 14.1049 6.65008 13.6479 6.19314C13.191 5.73619 12.6417 5.50772 12 5.50772C11.3583 5.50772 10.809 5.73619 10.3521 6.19314C9.89514 6.65008 9.66667 7.19939 9.66667 7.84105H8.5C8.17917 7.84105 7.90461 7.95539 7.67633 8.18405C7.44767 8.41233 7.33333 8.68689 7.33333 9.00772V16.0077C7.33333 16.3286 7.44767 16.6033 7.67633 16.832Z" fill="#6AA7F7"/>
</svg>
