<svg width="25" height="35" viewBox="0 0 25 35" fill="none" xmlns="http://www.w3.org/2000/svg">
<circle cx="12" cy="12" r="10" fill="white"/>
<path d="M3.18413 4.25413C5.08635 2.20969 6.88191 1.17857 9.6019 0.538574C11.113 0.183017 14.0463 0.325239 15.6463 0.823017C17.6552 1.44524 19.0419 2.31635 20.713 4.00524C23.1308 6.4408 24.1441 8.89413 24.1619 12.3786C24.1797 14.6719 23.9308 15.7208 22.8819 17.8719C22.1175 19.4542 21.8864 19.7386 19.3797 22.2275C15.0597 26.5297 12.9263 30.2275 12.3041 34.4764C12.2697 34.7204 11.918 34.7194 11.8775 34.4764C11.1308 29.9964 9.12191 26.5297 4.81968 22.2453C1.88635 19.3297 1.22857 18.3519 0.428572 15.7564C-0.104762 14.0497 -0.140317 11.0986 0.321905 9.35635C0.837461 7.43635 1.79746 5.72969 3.18413 4.25413ZM12.1167 14.2577L13.75 12.6244C13.8667 12.5077 13.925 12.3716 13.925 12.2161C13.925 12.0605 13.8667 11.9244 13.75 11.8078L8.82083 6.87855C8.70417 6.76189 8.56319 6.70355 8.39792 6.70355C8.23264 6.70355 8.09167 6.76189 7.975 6.87855L6.34167 8.51189C6.225 8.62855 6.16667 8.7598 6.16667 8.90564C6.16667 9.05147 6.225 9.18272 6.34167 9.29939L11.3 14.2577C11.4167 14.3744 11.5528 14.4327 11.7083 14.4327C11.8639 14.4327 12 14.3744 12.1167 14.2577ZM13.3708 14.6952L15.4417 16.7661C15.5486 16.873 15.6847 16.9265 15.85 16.9265C16.0153 16.9265 16.1514 16.873 16.2583 16.7661C16.375 16.6494 16.4333 16.5133 16.4333 16.3577C16.4333 16.2022 16.3799 16.0709 16.2729 15.964L14.1875 13.8786L13.3708 14.6952ZM14.3479 8.99314C14.7465 9.39175 15.2278 9.59105 15.7917 9.59105C16.3556 9.59105 16.8368 9.39175 17.2354 8.99314C17.634 8.59453 17.8333 8.11327 17.8333 7.54939C17.8333 6.9855 17.634 6.50425 17.2354 6.10564C16.8368 5.70702 16.3556 5.50772 15.7917 5.50772C15.2278 5.50772 14.7465 5.70702 14.3479 6.10564C13.9493 6.50425 13.75 6.9855 13.75 7.54939C13.75 8.11327 13.9493 8.59453 14.3479 8.99314Z" fill="#80D980"/>
</svg>
