<svg width="25" height="35" viewBox="0 0 25 35" fill="none" xmlns="http://www.w3.org/2000/svg">
<circle cx="12" cy="12" r="10" fill="white"/>
<path d="M3.18413 4.25412C5.08635 2.20968 6.88191 1.17857 9.60191 0.538574C11.113 0.183018 14.0463 0.325238 15.6463 0.823017C17.6552 1.44523 19.0419 2.31635 20.713 4.00524C23.1308 6.44079 24.1441 8.89413 24.1619 12.3786C24.1797 14.6719 23.9308 15.7208 22.8819 17.8719C22.1174 19.4542 21.8863 19.7386 19.3797 22.2275C15.0597 26.5297 12.9263 30.2275 12.3041 34.4764C12.2697 34.7204 11.918 34.7194 11.8774 34.4764C11.1308 29.9964 9.12191 26.5297 4.81968 22.2453C1.88635 19.3297 1.22857 18.3519 0.428571 15.7564C-0.104762 14.0497 -0.140317 11.0986 0.321904 9.35635C0.83746 7.43635 1.79746 5.72968 3.18413 4.25412ZM10.1999 5.84942C9.98112 5.63063 9.68442 5.50771 9.375 5.50771C9.06558 5.50771 8.76883 5.63063 8.55004 5.84942C8.33125 6.06821 8.20833 6.36496 8.20833 6.67438C8.20833 6.9838 8.33125 7.28054 8.55004 7.49934C8.76883 7.71813 9.06558 7.84105 9.375 7.84105C9.68442 7.84105 9.98112 7.71813 10.1999 7.49934C10.4187 7.28054 10.5416 6.9838 10.5416 6.67438C10.5416 6.36496 10.4187 6.06821 10.1999 5.84942ZM11.0749 8.76609C10.8561 8.5473 10.5594 8.42438 10.25 8.42438H8.5C8.19058 8.42438 7.89384 8.5473 7.67504 8.76609C7.45625 8.98488 7.33333 9.28163 7.33333 9.59105V12.7994H8.20833V17.1744H10.5416V12.7994H11.4166V9.59105C11.4166 9.28163 11.2937 8.98488 11.0749 8.76609ZM15.4499 5.84942C15.2311 5.63063 14.9344 5.50771 14.625 5.50771C14.3156 5.50771 14.0188 5.63063 13.8 5.84942C13.5812 6.06821 13.4583 6.36496 13.4583 6.67438C13.4583 6.9838 13.5812 7.28054 13.8 7.49934C14.0188 7.71813 14.3156 7.84105 14.625 7.84105C14.9344 7.84105 15.2311 7.71813 15.4499 7.49934C15.6687 7.28054 15.7916 6.9838 15.7916 6.67438C15.7916 6.36496 15.6687 6.06821 15.4499 5.84942ZM13.75 13.6744V17.1744H15.5V13.6744H17.25L15.7391 9.24688C15.5933 8.76855 15.15 8.42438 14.625 8.42438C14.1 8.42438 13.6566 8.76855 13.5108 9.24688L12 13.6744H13.75Z" fill="#5CBDC4"/>
</svg>
