<svg width="25" height="35" viewBox="0 0 25 35" fill="none" xmlns="http://www.w3.org/2000/svg">
<circle cx="12" cy="12" r="10" fill="white"/>
<path d="M3.18413 3.91306C5.08635 1.86862 6.8819 0.837509 9.6019 0.197509C11.113 -0.158047 14.0463 -0.0158261 15.6463 0.481952C17.6552 1.10417 19.0419 1.97529 20.713 3.66418C23.1308 6.09973 24.1441 8.55307 24.1619 12.0375C24.1797 14.3308 23.9308 15.3797 22.8819 17.5308C22.1175 19.1131 21.8864 19.3975 19.3797 21.8864C15.0597 26.1886 12.9263 29.8864 12.3041 34.1353C12.2697 34.3793 11.918 34.3783 11.8775 34.1353C11.1308 29.6553 9.1219 26.1886 4.81968 21.9042C1.88635 18.9886 1.22857 18.0108 0.428571 15.4153C-0.104762 13.7086 -0.140318 10.7575 0.321905 9.01529C0.83746 7.09529 1.79746 5.38862 3.18413 3.91306ZM6.58958 10.65C6.87153 10.9319 7.21667 11.0729 7.625 11.0729C8.03333 11.0729 8.37847 10.9319 8.66042 10.65C8.94236 10.368 9.08333 10.0229 9.08333 9.61457C9.08333 9.20624 8.94236 8.8611 8.66042 8.57915C8.37847 8.29721 8.03333 8.15624 7.625 8.15624C7.21667 8.15624 6.87153 8.29721 6.58958 8.57915C6.30764 8.8611 6.16667 9.20624 6.16667 9.61457C6.16667 10.0229 6.30764 10.368 6.58958 10.65ZM9.21458 8.31665C9.49653 8.5986 9.84167 8.73957 10.25 8.73957C10.6583 8.73957 11.0035 8.5986 11.2854 8.31665C11.5674 8.03471 11.7083 7.68957 11.7083 7.28124C11.7083 6.8729 11.5674 6.52776 11.2854 6.24582C11.0035 5.96387 10.6583 5.8229 10.25 5.8229C9.84167 5.8229 9.49653 5.96387 9.21458 6.24582C8.93264 6.52776 8.79167 6.8729 8.79167 7.28124C8.79167 7.68957 8.93264 8.03471 9.21458 8.31665ZM12.7146 8.31665C12.9965 8.5986 13.3417 8.73957 13.75 8.73957C14.1583 8.73957 14.5035 8.5986 14.7854 8.31665C15.0674 8.03471 15.2083 7.68957 15.2083 7.28124C15.2083 6.8729 15.0674 6.52776 14.7854 6.24582C14.5035 5.96387 14.1583 5.8229 13.75 5.8229C13.3417 5.8229 12.9965 5.96387 12.7146 6.24582C12.4326 6.52776 12.2917 6.8729 12.2917 7.28124C12.2917 7.68957 12.4326 8.03471 12.7146 8.31665ZM15.3396 10.65C15.6215 10.9319 15.9667 11.0729 16.375 11.0729C16.7833 11.0729 17.1285 10.9319 17.4104 10.65C17.6924 10.368 17.8333 10.0229 17.8333 9.61457C17.8333 9.20624 17.6924 8.8611 17.4104 8.57915C17.1285 8.29721 16.7833 8.15624 16.375 8.15624C15.9667 8.15624 15.6215 8.29721 15.3396 8.57915C15.0576 8.8611 14.9167 9.20624 14.9167 9.61457C14.9167 10.0229 15.0576 10.368 15.3396 10.65ZM7.77842 16.4028C8.07475 16.7384 8.44167 16.9062 8.87917 16.9062C9.40417 16.9062 9.9243 16.8625 10.4396 16.775C10.9549 16.6875 11.475 16.6437 12 16.6437C12.525 16.6437 13.0451 16.6875 13.5604 16.775C14.0757 16.8625 14.5958 16.9062 15.1208 16.9062C15.5583 16.9062 15.9254 16.7384 16.2222 16.4028C16.5185 16.0676 16.6667 15.6715 16.6667 15.2146C16.6667 14.709 16.4942 14.2667 16.1493 13.8875C15.8039 13.5083 15.4611 13.134 15.1208 12.7646C14.8389 12.4535 14.5933 12.118 14.3841 11.7583C14.1753 11.3986 13.9347 11.0632 13.6625 10.7521C13.4486 10.4993 13.2007 10.2951 12.9187 10.1396C12.6368 9.98401 12.3306 9.90624 12 9.90624C11.6694 9.90624 11.3632 9.98887 11.0813 10.1542C10.7993 10.3194 10.5514 10.5285 10.3375 10.7812C10.0556 11.0923 9.8125 11.4252 9.60833 11.7799C9.40417 12.135 9.16111 12.4632 8.87917 12.7646C8.53889 13.134 8.19628 13.5083 7.85133 13.8875C7.506 14.2667 7.33333 14.709 7.33333 15.2146C7.33333 15.6715 7.48169 16.0676 7.77842 16.4028Z" fill="#FF7D7F"/>
</svg>
