<svg width="25" height="35" viewBox="0 0 25 35" fill="none" xmlns="http://www.w3.org/2000/svg">
<circle cx="12" cy="12" r="10" fill="white"/>
<path fill-rule="evenodd" clip-rule="evenodd" d="M3.18413 3.91306C5.08635 1.86862 6.8819 0.837509 9.60191 0.197509C11.113 -0.158047 14.0463 -0.0158261 15.6463 0.481952C17.6552 1.10417 19.0419 1.97528 20.713 3.66417C23.1308 6.09973 24.1441 8.55306 24.1619 12.0375C24.1797 14.3308 23.9308 15.3797 22.8819 17.5308C22.1175 19.1131 21.8864 19.3975 19.3797 21.8864C15.0597 26.1886 12.9263 29.8864 12.3041 34.1353C12.2697 34.3793 11.918 34.3783 11.8775 34.1353C11.1308 29.6553 9.1219 26.1886 4.81968 21.9042C1.88635 18.9886 1.22857 18.0108 0.428571 15.4153C-0.104762 13.7086 -0.140317 10.7575 0.321905 9.01529C0.83746 7.09529 1.79746 5.38862 3.18413 3.91306ZM6.17068 12.0234L6.14016 12.1057C6.12705 12.1401 6.12085 12.1767 6.1219 12.2135C6.12295 12.2503 6.13125 12.2865 6.1463 12.32C6.16136 12.3536 6.18288 12.3839 6.20965 12.4091C6.23641 12.4344 6.26789 12.4541 6.30228 12.4672L6.30256 12.4675C6.37192 12.4939 6.44893 12.4916 6.51666 12.4613C6.58438 12.431 6.6373 12.375 6.66376 12.3056L6.69624 12.2183C6.76792 12.0245 6.84212 11.824 6.97624 11.7437C7.06276 11.6916 7.17644 11.6611 7.3002 11.6359C7.26184 11.7708 7.24 11.9201 7.24 12.0886V12.7979C7.24 13.1486 7.44505 13.4908 7.65254 13.8372C7.86499 14.1918 8.08 14.5507 8.08 14.9273V15.6371C8.08 16.2416 7.91898 16.4701 7.71481 16.7598C7.55946 16.9802 7.37913 17.236 7.22572 17.72H7.93552L9.48 14.92V17.72H10.04V14.2177L10.74 13.5079C11.4498 13.5079 11.44 14.2177 11.44 14.2177V17.72H12.28V14.5722L12.9472 15.6138L13.6142 17.72H14.324L13.2701 13.2845C13.6803 13.0345 13.6802 12.5979 13.68 12.116C13.68 12.1068 13.68 12.0976 13.68 12.0883V9.95866L16.4862 6.05434L17.4869 6.37046C17.6994 6.43626 17.8797 6.4091 17.8797 6.23186C17.8797 5.94048 17.721 5.83516 17.5961 5.75221C17.5689 5.73417 17.5433 5.71719 17.5213 5.69958L15.7472 4.27998C14.3274 6.4091 13.0648 7.83262 11.4918 9.2483C10.8866 9.79328 10.0794 10.0436 9.33111 10.2756C8.72224 10.4644 8.15233 10.6411 7.76192 10.9546L7.74932 10.9588L7.6698 10.9868C7.56866 11.0148 7.46601 11.0371 7.36236 11.0535C7.14564 11.0921 6.8998 11.1361 6.6884 11.2626C6.38563 11.4439 6.26702 11.7636 6.17139 12.0215L6.17068 12.0234Z" fill="#80D980"/>
</svg>
