<svg width="25" height="35" viewBox="0 0 25 35" fill="none" xmlns="http://www.w3.org/2000/svg">
<ellipse cx="12.7586" cy="12.0007" rx="9.99885" ry="10.0006" fill="white"/>
<path d="M3.94377 3.9133C5.84578 1.86874 7.64112 0.83756 10.3608 0.197521C11.8717 -0.158056 14.8047 -0.0158269 16.4045 0.481981C18.4132 1.10424 19.7997 1.9754 21.4706 3.66439C23.8882 6.1001 24.9013 8.55358 24.9191 12.0382C24.9369 14.3317 24.6881 15.3806 23.6393 17.5319C22.875 19.1143 22.6439 19.3987 20.1375 21.8877C15.818 26.1902 13.6848 29.8882 13.0627 34.1374C13.0283 34.3814 12.6766 34.3804 12.6361 34.1374C11.8895 29.6571 9.88086 26.1902 5.57914 21.9055C2.64614 18.9897 1.98844 18.0119 1.18853 15.4162C0.65526 13.7094 0.619708 10.7582 1.08188 9.01583C1.59737 7.09571 2.55726 5.38895 3.94377 3.9133ZM10.7172 15.9593V16.8343L12.7586 16.251L14.8001 16.8343V15.9593L13.6335 15.0842V11.8757L18.5913 13.3341V12.1673L13.6335 9.25054V6.04202C13.6335 5.78922 13.5509 5.58018 13.3857 5.4149C13.2204 5.24961 13.0114 5.16696 12.7586 5.16696C12.5059 5.16696 12.2969 5.24961 12.1316 5.4149C11.9663 5.58018 11.8837 5.78922 11.8837 6.04202V9.25054L6.92597 12.1673V13.3341L11.8837 11.8757V15.0842L10.7172 15.9593Z" fill="#1F6FC4"/>
</svg>
