<svg width="26" height="35" viewBox="0 0 26 35" fill="none" xmlns="http://www.w3.org/2000/svg">
<ellipse cx="12.9592" cy="12.0007" rx="9.99885" ry="10.0006" fill="white"/>
<path d="M4.14434 3.9133C6.04634 1.86873 7.84169 0.83756 10.5614 0.197521C12.0723 -0.158056 15.0053 -0.0158271 16.6051 0.481981C18.6137 1.10424 20.0003 1.97541 21.6712 3.6644C24.0887 6.1001 25.1019 8.55359 25.1197 12.0382C25.1375 14.3317 24.8886 15.3806 23.8398 17.5319C23.0755 19.1143 22.8445 19.3987 20.338 21.8877C16.0185 26.1902 13.8854 29.8882 13.2633 34.1374C13.2289 34.3814 12.8772 34.3804 12.8367 34.1374C12.0901 29.6571 10.0814 26.1902 5.7797 21.9055C2.84671 18.9897 2.189 18.0119 1.38909 15.4162C0.855821 13.7094 0.82027 10.7581 1.28244 9.01583C1.79794 7.09572 2.75782 5.38894 4.14434 3.9133ZM13.5424 7.50045H12.376V11.584H13.5424V7.50045ZM11.0385 16.0801C11.1479 15.9708 11.2094 15.8224 11.2094 15.6676V12.1674C11.3641 12.1674 11.5125 12.1059 11.6218 11.9965C11.7312 11.8871 11.7926 11.7387 11.7926 11.584V7.50045H9.4596L8.29306 12.7508V15.6676C8.29306 15.8224 8.35451 15.9708 8.4639 16.0801C8.57328 16.1895 8.72164 16.251 8.87633 16.251H10.6261C10.7808 16.251 10.9292 16.1895 11.0385 16.0801ZM10.0429 6.91709H11.7926V5.75035H10.0429V6.91709ZM14.709 12.1674V15.6676C14.709 15.8224 14.7705 15.9708 14.8799 16.0801C14.9893 16.1895 15.1375 16.251 15.2922 16.251H17.042C17.1967 16.251 17.3451 16.1895 17.4545 16.0801C17.5639 15.9708 17.6254 15.8224 17.6254 15.6676V12.7508L16.4588 7.50045H14.1258V11.584C14.1258 11.7387 14.1872 11.8871 14.2965 11.9965C14.4059 12.1059 14.5543 12.1674 14.709 12.1674ZM14.1258 5.75035V6.91709H15.8756V5.75035H14.1258Z" fill="#299091"/>
</svg>
