<svg width="25" height="35" viewBox="0 0 25 35" fill="none" xmlns="http://www.w3.org/2000/svg">
<ellipse cx="12.319" cy="11.0007" rx="9.99885" ry="10.0006" fill="white"/>
<path d="M3.5042 3.9133C5.4062 1.86873 7.20155 0.837559 9.92123 0.197521C11.4322 -0.158057 14.3651 -0.0158253 15.9649 0.481981C17.9736 1.10424 19.3602 1.9754 21.0311 3.66439C23.4486 6.1001 24.4618 8.55358 24.4796 12.0382C24.4974 14.3317 24.2485 15.3806 23.1997 17.5319C22.4354 19.1143 22.2043 19.3987 19.6979 21.8877C15.3784 26.1902 13.2453 29.8882 12.6231 34.1374C12.5887 34.3814 12.2371 34.3804 12.1966 34.1374C11.45 29.6571 9.44129 26.1902 5.13956 21.9055C2.20657 18.9897 1.54886 18.0119 0.748956 15.4162C0.215684 13.7094 0.180134 10.7582 0.642303 9.01584C1.1578 7.09572 2.11769 5.38895 3.5042 3.9133ZM7.09299 14.9092C7.15715 15.4576 7.46628 16.8343 8.2362 16.8343C8.98684 16.8343 9.74892 16.2855 10.33 15.867L10.3476 15.8543C11.3051 15.1543 12.2025 14.3757 13.0307 13.5266C14.5942 12.0462 15.9394 10.3511 17.026 8.49216C17.4354 7.87757 17.6113 7.13673 17.5218 6.40371C17.2535 5.01528 15.7312 5.06196 14.6288 5.31864C14.0379 5.39578 13.4834 5.64767 13.0365 6.04201C12.8105 6.33257 13.0038 6.37154 13.2504 6.42125C13.3156 6.43441 13.3846 6.44833 13.4506 6.46787C13.7389 6.54808 14.0169 6.66163 14.2788 6.80623C14.6521 7.02207 15.527 7.92046 14.6871 8.17714C14.4274 8.26528 14.1492 8.12842 13.8966 8.00412C13.8316 7.9721 13.7682 7.94092 13.7072 7.91463C13.2421 7.70672 12.7548 7.55211 12.2549 7.45377C11.2867 7.27876 10.2776 7.50043 10.2776 8.66717C11.135 8.66717 12.5757 8.73718 13.0832 9.60056C13.2931 9.96808 13.194 10.4698 12.7098 10.5106C12.4939 10.5263 12.2701 10.4178 12.0579 10.3149C11.9548 10.265 11.8545 10.2163 11.7591 10.1839C11.2803 10.0157 10.7828 9.90605 10.2776 9.85725C9.42606 9.77557 8.2362 9.91558 8.2362 11.0007C8.98277 11.0007 10.8084 11.0182 11.065 12.0215C11.087 12.1415 11.0775 12.2651 11.0374 12.3804C10.9974 12.4957 10.9282 12.5986 10.8365 12.6791C10.7448 12.7596 10.634 12.8149 10.5145 12.8398C10.3951 12.8646 10.2713 12.8581 10.1551 12.8208C9.94013 12.7721 9.74134 12.691 9.5448 12.6107C9.17618 12.4603 8.81544 12.3129 8.37034 12.389C8.12219 12.4385 7.89114 12.5515 7.69991 12.7172C7.50868 12.8829 7.36384 13.0955 7.27964 13.3341C7.08805 13.8356 7.02392 14.3769 7.09299 14.9092Z" fill="#D97200"/>
</svg>
