<svg width="25" height="35" viewBox="0 0 25 35" fill="none" xmlns="http://www.w3.org/2000/svg">
<ellipse cx="12.4792" cy="12.0007" rx="9.99885" ry="10.0006" fill="white"/>
<path d="M3.66423 3.9133C5.56624 1.86873 7.36159 0.83756 10.0813 0.197521C11.5922 -0.158056 14.5252 -0.015827 16.125 0.481981C18.1336 1.10424 19.5202 1.9754 21.1911 3.66439C23.6086 6.1001 24.6218 8.55358 24.6396 12.0382C24.6574 14.3317 24.4085 15.3806 23.3597 17.5319C22.5954 19.1143 22.3644 19.3987 19.8579 21.8877C15.5384 26.1902 13.4053 29.8882 12.7832 34.1374C12.7488 34.3814 12.3971 34.3804 12.3566 34.1374C11.61 29.6571 9.60133 26.1902 5.2996 21.9055C2.3666 18.9897 1.7089 18.0119 0.90899 15.4162C0.375719 13.7094 0.340168 10.7582 0.802337 9.01583C1.31783 7.09572 2.27772 5.38895 3.66423 3.9133ZM8.43822 17.7091C8.63241 17.9038 8.86839 18.0011 9.14614 18.0011C9.42388 18.0011 9.65986 17.9038 9.85405 17.7091C10.0487 17.5149 10.146 17.2788 10.146 17.001V16.6677H15.4787V17.001C15.4787 17.2788 15.576 17.5149 15.7707 17.7091C15.9649 17.9038 16.2009 18.0011 16.4786 18.0011C16.7564 18.0011 16.9924 17.9038 17.1866 17.7091C17.3812 17.5149 17.4785 17.2788 17.4785 17.001V15.9677C17.6785 15.7454 17.8396 15.498 17.9618 15.2256C18.084 14.9536 18.1451 14.6565 18.1451 14.3342V8.00048C18.1451 7.04487 17.7341 6.36149 16.9119 5.95036C16.0898 5.53922 14.7232 5.33365 12.8124 5.33365C10.9682 5.33365 9.6183 5.54745 8.76285 5.97502C7.90739 6.40305 7.47967 7.07821 7.47967 8.00048V14.3342C7.47967 14.6565 7.54077 14.9536 7.66297 15.2256C7.78518 15.498 7.94627 15.7454 8.14625 15.9677V17.001C8.14625 17.2788 8.24358 17.5149 8.43822 17.7091ZM16.8119 8.66719V10.6673H8.81284V8.66719H16.8119ZM11.1872 14.3756C10.9931 14.5702 10.7571 14.6676 10.4793 14.6676C10.2016 14.6676 9.9656 14.5702 9.7714 14.3756C9.57676 14.1813 9.47944 13.9452 9.47944 13.6675C9.47944 13.3897 9.57676 13.1537 9.7714 12.9595C9.9656 12.7648 10.2016 12.6675 10.4793 12.6675C10.7571 12.6675 10.9931 12.7648 11.1872 12.9595C11.3819 13.1537 11.4792 13.3897 11.4792 13.6675C11.4792 13.9452 11.3819 14.1813 11.1872 14.3756ZM15.8534 14.3756C15.6591 14.5702 15.4232 14.6676 15.1455 14.6676C14.8677 14.6676 14.6317 14.5702 14.4376 14.3756C14.2429 14.1813 14.1456 13.9452 14.1456 13.6675C14.1456 13.3897 14.2429 13.1537 14.4376 12.9595C14.6317 12.7648 14.8677 12.6675 15.1455 12.6675C15.4232 12.6675 15.6591 12.7648 15.8534 12.9595C16.048 13.1537 16.1454 13.3897 16.1454 13.6675C16.1454 13.9452 16.048 14.1813 15.8534 14.3756Z" fill="#1F6FC4"/>
</svg>
