<svg width="25" height="35" viewBox="0 0 25 35" fill="none" xmlns="http://www.w3.org/2000/svg">
<ellipse cx="12.1428" cy="12.0007" rx="9.99886" ry="10.0006" fill="white"/>
<path d="M3.81609 3.9133C5.71809 1.86874 7.51345 0.83756 10.2331 0.197521C11.744 -0.158056 14.6771 -0.0158269 16.2769 0.481981C18.2855 1.10424 19.672 1.9754 21.3429 3.66439C23.7605 6.1001 24.7737 8.55358 24.7915 12.0382C24.8093 14.3317 24.5604 15.3806 23.5116 17.5319C22.7473 19.1143 22.5162 19.3987 20.0098 21.8877C15.6903 26.1902 13.5572 29.8882 12.935 34.1374C12.9006 34.3814 12.549 34.3804 12.5085 34.1374C11.7618 29.6571 9.75319 26.1902 5.45145 21.9055C2.51846 18.9897 1.86075 18.0119 1.06085 15.4162C0.527574 13.7094 0.492023 10.7582 0.954192 9.01583C1.46969 7.09571 2.42958 5.38895 3.81609 3.9133ZM8.13222 16.083C8.2442 16.195 8.38283 16.251 8.54809 16.251H16.7138C16.8791 16.251 17.0175 16.195 17.1291 16.083C17.2411 15.9714 17.2971 15.8329 17.2971 15.6675C17.2971 15.5023 17.2411 15.3638 17.1291 15.2522C17.0175 15.1402 16.8791 15.0842 16.7138 15.0842H8.54809C8.38283 15.0842 8.2442 15.1402 8.13222 15.2522C8.02062 15.3638 7.96481 15.5023 7.96481 15.6675C7.96481 15.8329 8.02062 15.9714 8.13222 16.083ZM8.65016 13.232C9.10705 13.689 9.65629 13.9174 10.2979 13.9174H13.7975C14.439 13.9174 14.9884 13.689 15.4452 13.232C15.9021 12.7751 16.1305 12.2257 16.1305 11.584V9.83392H17.2971C17.6179 9.83392 17.8926 9.71957 18.1212 9.4909C18.3495 9.2626 18.4636 8.98802 18.4636 8.66718V6.91707C18.4636 6.59622 18.3495 6.32145 18.1212 6.09277C17.8926 5.86448 17.6179 5.75033 17.2971 5.75033H9.13135C8.81056 5.75033 8.53603 5.86448 8.30778 6.09277C8.07914 6.32145 7.96481 6.59622 7.96481 6.91707V11.584C7.96481 12.2257 8.19327 12.7751 8.65016 13.232ZM17.2971 8.66718H16.1305V6.91707H17.2971V8.66718Z" fill="#D97200"/>
</svg>
