<svg width="25" height="35" viewBox="0 0 25 35" fill="none" xmlns="http://www.w3.org/2000/svg">
<ellipse cx="12.7187" cy="12.0007" rx="9.99885" ry="10.0006" fill="white"/>
<path d="M3.90386 3.9133C5.80586 1.86873 7.60121 0.83756 10.3209 0.197521C11.8318 -0.158056 14.7648 -0.015827 16.3646 0.481981C18.3733 1.10424 19.7598 1.9754 21.4307 3.66439C23.8482 6.1001 24.8614 8.55358 24.8792 12.0382C24.897 14.3317 24.6481 15.3806 23.5994 17.5319C22.8351 19.1143 22.604 19.3987 20.0976 21.8877C15.7781 26.1902 13.6449 29.8882 13.0228 34.1374C12.9884 34.3814 12.6367 34.3804 12.5962 34.1374C11.8496 29.6571 9.84096 26.1902 5.53922 21.9055C2.60623 18.9897 1.94852 18.0119 1.14861 15.4162C0.615343 13.7094 0.579792 10.7582 1.04196 9.01584C1.55746 7.09572 2.51735 5.38895 3.90386 3.9133ZM17.2828 6.9254C16.8258 6.46843 16.2766 6.23995 15.6351 6.23995C15.2948 6.23995 15.0178 6.28603 14.8039 6.37821C14.59 6.47076 14.3859 6.57052 14.1914 6.67747C13.9971 6.78442 13.7906 6.88399 13.572 6.97615C13.3531 7.06872 13.0687 7.115 12.7187 7.115C12.3688 7.115 12.0845 7.06872 11.866 6.97615C11.647 6.88399 11.4404 6.78442 11.246 6.67747C11.0515 6.57052 10.8499 6.47076 10.6411 6.37821C10.4319 6.28603 10.1523 6.23995 9.80238 6.23995C9.16079 6.23995 8.61155 6.46843 8.15466 6.9254C7.69776 7.38238 7.46932 7.93171 7.46932 8.57342C7.46932 8.68036 7.47671 8.82368 7.49149 9.00336C7.50587 9.18343 7.52764 9.39014 7.55681 9.62348L8.34422 15.4863C8.39282 15.8558 8.55808 16.1598 8.83999 16.3982C9.12191 16.6362 9.44756 16.7552 9.81697 16.7552C10.0406 16.7552 10.2521 16.704 10.4516 16.6017C10.6506 16.4998 10.8182 16.3517 10.9543 16.1572L12.4708 13.955C12.5874 13.8675 12.6652 13.8237 12.7041 13.8237C12.7527 13.8237 12.799 13.8309 12.843 13.8453C12.8865 13.8601 12.918 13.8869 12.9375 13.9258L14.4977 16.201C14.6241 16.376 14.7821 16.5121 14.9719 16.6093C15.1612 16.7065 15.3677 16.7552 15.5913 16.7552C15.9607 16.7552 16.2889 16.6385 16.5759 16.4052C16.8624 16.1718 17.03 15.8704 17.0786 15.5009L17.8806 9.62348C17.9098 9.39014 17.9315 9.18343 17.9459 9.00336C17.9607 8.82368 17.9681 8.68036 17.9681 8.57342C17.9681 7.93171 17.7396 7.38238 17.2828 6.9254Z" fill="#BA272A"/>
</svg>
