<svg width="25" height="35" viewBox="0 0 25 35" fill="none" xmlns="http://www.w3.org/2000/svg">
<ellipse cx="12.2387" cy="12.0007" rx="9.99885" ry="10.0006" fill="white"/>
<path d="M3.42375 3.9133C5.32576 1.86873 7.12111 0.83756 9.84079 0.197521C11.3517 -0.158056 14.2847 -0.0158271 15.8845 0.481981C17.8932 1.10424 19.2797 1.97541 20.9506 3.6644C23.3681 6.1001 24.3813 8.55359 24.3991 12.0382C24.4169 14.3317 24.168 15.3806 23.1193 17.5319C22.355 19.1143 22.1239 19.3987 19.6175 21.8877C15.298 26.1902 13.1648 29.8882 12.5427 34.1374C12.5083 34.3814 12.1566 34.3804 12.1161 34.1374C11.3695 29.6571 9.36085 26.1902 5.05912 21.9055C2.12612 18.9897 1.46842 18.0119 0.668513 15.4162C0.13524 13.7094 0.0996891 10.7581 0.561858 9.01583C1.07735 7.09572 2.03724 5.38894 3.42375 3.9133ZM6.04141 12.5536C6.15806 12.6851 6.30873 12.7508 6.49344 12.7508H13.9592C14.144 12.7508 14.2946 12.6851 14.4113 12.5536C14.528 12.4225 14.5716 12.2743 14.5426 12.109C14.3578 11.1465 13.8426 10.4293 12.9968 9.95759C12.1511 9.48622 11.2276 9.25055 10.2263 9.25055C9.22507 9.25055 8.30157 9.48622 7.45583 9.95759C6.61009 10.4293 6.09488 11.1465 5.91017 12.109C5.88101 12.2743 5.92476 12.4225 6.04141 12.5536ZM14.7396 9.89984C15.4248 10.6823 15.7674 11.6326 15.7674 12.7508V17.4178H16.7589C17.0117 17.4178 17.228 17.335 17.4081 17.1697C17.5878 17.0045 17.6922 16.8052 17.7213 16.5718L18.6254 7.55878C18.6448 7.38377 18.5962 7.23306 18.4796 7.10667C18.3629 6.98027 18.2171 6.91707 18.0421 6.91707H15.7674V5.16696C15.7674 5.00167 15.7116 4.86303 15.5999 4.75103C15.488 4.6394 15.3494 4.5836 15.1841 4.5836C15.0189 4.5836 14.8802 4.6394 14.7682 4.75103C14.6566 4.86303 14.6008 5.00167 14.6008 5.16696V6.91707H12.3407C12.1657 6.91707 12.0224 6.98279 11.9109 7.11425C11.7989 7.24531 11.7526 7.39835 11.772 7.57336L11.8449 8.25882C13.0892 8.56995 14.0541 9.11695 14.7396 9.89984ZM5.99066 14.9162C6.10226 15.0282 6.24069 15.0842 6.40595 15.0842H13.9884C14.1537 15.0842 14.2923 15.0282 14.4043 14.9162C14.5159 14.8046 14.5716 14.6662 14.5716 14.5009C14.5716 14.3356 14.5159 14.1972 14.4043 14.0855C14.2923 13.9735 14.1537 13.9175 13.9884 13.9175H6.40595C6.24069 13.9175 6.10226 13.9735 5.99066 14.0855C5.87867 14.1972 5.82268 14.3356 5.82268 14.5009C5.82268 14.6662 5.87867 14.8046 5.99066 14.9162ZM5.99066 17.2497C6.10226 17.3617 6.24069 17.4178 6.40595 17.4178H13.9884C14.1537 17.4178 14.2923 17.3617 14.4043 17.2497C14.5159 17.138 14.5716 16.9996 14.5716 16.8343C14.5716 16.669 14.5159 16.5306 14.4043 16.419C14.2923 16.307 14.1537 16.251 13.9884 16.251H6.40595C6.24069 16.251 6.10226 16.307 5.99066 16.419C5.87867 16.5306 5.82268 16.669 5.82268 16.8343C5.82268 16.9996 5.87867 17.138 5.99066 17.2497Z" fill="#D97200"/>
</svg>
