<svg width="25" height="35" viewBox="0 0 25 35" fill="none" xmlns="http://www.w3.org/2000/svg">
<ellipse cx="12.1583" cy="12.0007" rx="9.99885" ry="10.0006" fill="white"/>
<path d="M3.34343 3.9133C5.24544 1.86873 7.04078 0.83756 9.76047 0.197521C11.2714 -0.158056 14.2044 -0.0158271 15.8042 0.481981C17.8128 1.10424 19.1994 1.97541 20.8703 3.6644C23.2878 6.1001 24.301 8.55359 24.3188 12.0382C24.3366 14.3317 24.0877 15.3806 23.0389 17.5319C22.2746 19.1143 22.0436 19.3987 19.5371 21.8877C15.2176 26.1902 13.0845 29.8882 12.4624 34.1374C12.428 34.3814 12.0763 34.3804 12.0358 34.1374C11.2892 29.6571 9.28052 26.1902 4.9788 21.9055C2.0458 18.9897 1.3881 18.0119 0.58819 15.4162C0.0549184 13.7094 0.0193665 10.7581 0.481535 9.01583C0.997032 7.09572 1.95692 5.38894 3.34343 3.9133ZM7.15679 10.1693C7.32204 10.3346 7.53104 10.4173 7.78379 10.4173C8.03655 10.4173 8.24555 10.3346 8.4108 10.1693C8.57606 10.0041 8.65869 9.79503 8.65869 9.54225C8.65869 9.28945 8.57606 9.08041 8.4108 8.91512C8.24555 8.74983 8.03655 8.66719 7.78379 8.66719C7.53104 8.66719 7.32204 8.74983 7.15679 8.91512C6.99152 9.08041 6.90889 9.28945 6.90889 9.54225C6.90889 9.79503 6.99152 10.0041 7.15679 10.1693ZM7.07688 16.6663C7.18847 16.7783 7.32691 16.8343 7.49216 16.8343H16.8245C16.9896 16.8343 17.1281 16.7783 17.2397 16.6663C17.3517 16.5547 17.4077 16.4163 17.4077 16.251C17.4077 16.0857 17.3517 15.9473 17.2397 15.8357C17.1281 15.7236 16.9896 15.6676 16.8245 15.6676H14.4913V12.7508H15.5121C16.2022 12.7508 16.7881 12.5101 17.2694 12.0285C17.7505 11.5475 17.9909 10.9618 17.9909 10.2714C17.9909 9.75614 17.8525 9.29664 17.5757 8.89296C17.2984 8.48965 16.941 8.19077 16.5036 7.99631C16.3967 7.36433 16.1027 6.83191 15.6217 6.39906C15.1404 5.96658 14.5691 5.75035 13.9081 5.75035C13.2471 5.75035 12.6758 5.96658 12.1945 6.39906C11.7134 6.83191 11.4195 7.36433 11.3126 7.99631C10.8751 8.19077 10.518 8.48965 10.2411 8.89296C9.96385 9.29664 9.82523 9.75614 9.82523 10.2714C9.82523 10.9618 10.0659 11.5475 10.5473 12.0285C11.0283 12.5101 11.614 12.7508 12.3041 12.7508H13.3249V15.6676H8.65869V13.9175H8.95033C9.02809 13.9175 9.09614 13.8883 9.15447 13.83C9.2128 13.7716 9.24196 13.7036 9.24196 13.6258V11.584C9.24196 11.4188 9.18616 11.2801 9.07457 11.1681C8.96258 11.0565 8.82395 11.0007 8.65869 11.0007H6.90889C6.74363 11.0007 6.60521 11.0565 6.49361 11.1681C6.38162 11.2801 6.32563 11.4188 6.32563 11.584V13.6258C6.32563 13.7036 6.35479 13.7716 6.41312 13.83C6.47144 13.8883 6.5395 13.9175 6.61726 13.9175H6.90889V16.251C6.90889 16.4163 6.96489 16.5547 7.07688 16.6663Z" fill="#3A7A3A"/>
</svg>
