<svg width="25" height="35" viewBox="0 0 25 35" fill="none" xmlns="http://www.w3.org/2000/svg">
<ellipse cx="12.2388" cy="12.0006" rx="9.99885" ry="10.0006" fill="white"/>
<path fill-rule="evenodd" clip-rule="evenodd" d="M3.42375 3.9133C5.32576 1.86873 7.1211 0.837559 9.84079 0.197521C11.3517 -0.158056 14.2847 -0.015827 15.8845 0.481981C17.8932 1.10424 19.2797 1.9754 20.9506 3.66439C23.3681 6.1001 24.3813 8.55358 24.3991 12.0382C24.4169 14.3317 24.168 15.3807 23.1193 17.5319C22.3549 19.1142 22.1238 19.3987 19.6174 21.8877C15.2979 26.1902 13.1649 29.8882 12.5427 34.1373C12.5083 34.3813 12.1566 34.3804 12.1161 34.1373C11.3695 29.6571 9.36085 26.1902 5.05912 21.9055C2.12612 18.9898 1.46842 18.0119 0.668512 15.4162C0.13524 13.7094 0.0996889 10.7582 0.561858 9.01583C1.07735 7.09571 2.03724 5.38894 3.42375 3.9133ZM8.63153 17.6087C8.89242 17.8695 9.2062 18 9.57286 18C9.93953 18 10.2535 17.8695 10.5149 17.6087C10.7758 17.3473 10.9062 17.0333 10.9062 16.6667V14H12.9062C14.0173 14 14.9618 13.6111 15.7395 12.8333C16.5173 12.0555 16.9062 11.1111 16.9062 9.99999C16.9062 8.88887 16.5173 7.94443 15.7395 7.16665C14.9618 6.38887 14.0173 5.99999 12.9062 5.99999H9.57286C9.2062 5.99999 8.89242 6.13043 8.63153 6.39132C8.3702 6.65265 8.23953 6.96665 8.23953 7.33332V16.6667C8.23953 17.0333 8.3702 17.3473 8.63153 17.6087ZM13.0395 11.3333H10.9062V8.66665H13.0395C13.4062 8.66665 13.7202 8.7971 13.9815 9.05799C14.2424 9.31932 14.3729 9.63332 14.3729 9.99999C14.3729 10.3667 14.2424 10.6804 13.9815 10.9413C13.7202 11.2027 13.4062 11.3333 13.0395 11.3333Z" fill="#1F6FC4"/>
</svg>
