<svg width="25" height="35" viewBox="0 0 25 35" fill="none" xmlns="http://www.w3.org/2000/svg">
<ellipse cx="13.7985" cy="12.0007" rx="9.99885" ry="10.0006" fill="white"/>
<path d="M3.98381 3.9133C5.88582 1.86874 7.68117 0.83756 10.4008 0.197521C11.9118 -0.158056 14.8447 -0.0158269 16.4446 0.481981C18.4532 1.10424 19.8398 1.9754 21.5107 3.66439C23.9282 6.1001 24.9414 8.55358 24.9592 12.0382C24.977 14.3317 24.7281 15.3806 23.6793 17.5319C22.915 19.1143 22.6839 19.3987 20.1775 21.8877C15.858 26.1902 13.7249 29.8882 13.1027 34.1374C13.0683 34.3814 12.7167 34.3804 12.6762 34.1374C11.9296 29.6571 9.92091 26.1902 5.61918 21.9055C2.68618 18.9897 2.02848 18.0119 1.22857 15.4162C0.695299 13.7094 0.659748 10.7582 1.12192 9.01583C1.63741 7.09571 2.5973 5.38895 3.98381 3.9133ZM12.9154 13.9174L14.5485 12.284C14.6652 12.1673 14.7235 12.0312 14.7235 11.8757C14.7235 11.7201 14.6652 11.584 14.5485 11.4674L9.61987 6.53788C9.50322 6.42121 9.36226 6.36287 9.19701 6.36287C9.03174 6.36287 8.89079 6.42121 8.77413 6.53788L7.14099 8.17132C7.02433 8.28798 6.96601 8.41924 6.96601 8.56509C6.96601 8.71093 7.02433 8.84219 7.14099 8.95886L12.0988 13.9174C12.2154 14.0341 12.3515 14.0925 12.507 14.0925C12.6626 14.0925 12.7987 14.0341 12.9154 13.9174ZM14.1693 14.355L16.24 16.426C16.3469 16.5329 16.483 16.5864 16.6482 16.5864C16.8135 16.5864 16.9496 16.5329 17.0565 16.426C17.1732 16.3093 17.2315 16.1732 17.2315 16.0176C17.2315 15.8621 17.1781 15.7308 17.0711 15.6238L14.9859 13.5383L14.1693 14.355ZM15.1463 8.65259C15.5449 9.05123 16.0261 9.25054 16.5899 9.25054C17.1538 9.25054 17.6349 9.05123 18.0335 8.65259C18.432 8.25396 18.6313 7.77267 18.6313 7.20876C18.6313 6.64483 18.432 6.16355 18.0335 5.76492C17.6349 5.36628 17.1538 5.16696 16.5899 5.16696C16.0261 5.16696 15.5449 5.36628 15.1463 5.76492C14.7477 6.16355 14.5485 6.64483 14.5485 7.20876C14.5485 7.77267 14.7477 8.25396 15.1463 8.65259Z" fill="#3A7A3A"/>
</svg>
