<svg width="25" height="35" viewBox="0 0 25 35" fill="none" xmlns="http://www.w3.org/2000/svg">
<ellipse cx="12.3587" cy="12.0006" rx="9.99885" ry="10.0006" fill="white"/>
<path fill-rule="evenodd" clip-rule="evenodd" d="M9.96066 0.197475C7.24098 0.837514 5.44563 1.86869 3.54362 3.91325C2.15712 5.3889 1.19723 7.09567 0.681731 9.01578C0.219562 10.7581 0.255113 13.7094 0.788385 15.4162C1.58829 18.0119 2.246 18.9897 5.17899 21.9054C9.48072 26.1901 11.4894 29.657 12.236 34.1373C12.2765 34.3803 12.6282 34.3813 12.6626 34.1373C13.2847 29.8881 15.4178 26.1901 19.7373 21.8877C22.2437 19.3986 22.4748 19.1142 23.2391 17.5318C24.2879 15.3806 24.5368 14.3317 24.519 12.0382C24.5012 8.55353 23.488 6.10005 21.0705 3.66435C19.3996 1.97536 18.0131 1.10419 16.0044 0.481935C14.4046 -0.0158728 11.4716 -0.158102 9.96066 0.197475ZM8.42156 6.31274C8.42156 6.07212 8.61841 5.87524 8.85901 5.87524H15.8582C16.0988 5.87524 16.2957 6.07212 16.2957 6.31274C16.2957 6.55337 16.0988 6.75024 15.8582 6.75024H15.8538C15.8569 6.78087 15.8582 6.81149 15.8582 6.84212V9.37524H18.0455C18.1615 9.37524 18.2727 9.42133 18.3548 9.50338C18.4368 9.58543 18.4829 9.69671 18.4829 9.81274C18.4829 9.92877 18.4368 10.0401 18.3548 10.1221C18.2727 10.2041 18.1615 10.2502 18.0455 10.2502V18.1252H15.8582V18.1296H13.6753V16.1084C13.6753 15.7759 13.4041 15.5046 13.0717 15.5046H11.6456C11.3131 15.5046 11.0463 15.7715 11.0463 16.104V18.1296H9.29646V17.2546H9.34458C9.55893 17.2546 9.73391 17.0796 9.73829 16.8609V15.894C9.73829 15.6752 9.55893 15.5002 9.34458 15.5002H8.37782C8.15909 15.5002 7.98411 15.6796 7.98411 15.894V16.8609C7.98411 17.0796 8.16347 17.2546 8.37782 17.2546H8.42156V18.1252H6.67176V10.2502C6.55574 10.2502 6.44448 10.2041 6.36244 10.1221C6.2804 10.0401 6.23431 9.92877 6.23431 9.81274C6.23431 9.69671 6.2804 9.58543 6.36244 9.50338C6.44448 9.42133 6.55574 9.37524 6.67176 9.37524H8.85901V6.84212C8.85901 6.81149 8.86032 6.78087 8.86339 6.75024H8.85901C8.61841 6.75024 8.42156 6.55774 8.42156 6.31274ZM13.9072 8.50462C14.0209 8.50462 14.1084 8.41274 14.1128 8.29899V7.82649C14.1128 7.71274 14.0209 7.62524 13.9116 7.62524H10.81C10.6963 7.62524 10.6088 7.71712 10.6088 7.82649V8.30337C10.6088 8.41712 10.7007 8.50462 10.81 8.50462H13.9072ZM13.9072 8.94212H10.81C10.7007 8.94212 10.6088 9.02962 10.6088 9.14337V9.61587C10.6088 9.72524 10.6963 9.81712 10.81 9.81712H11.7199C11.8293 9.81712 11.9212 9.90462 11.9212 10.0184V10.4909C11.9212 10.6002 12.0087 10.6921 12.1224 10.6921H12.5948C12.7042 10.6921 12.7961 10.6046 12.7961 10.4909V10.014C12.7961 9.90462 12.8835 9.81274 12.9973 9.81274H13.9072C14.0165 9.81274 14.1084 9.72524 14.1084 9.61149V9.14337C14.1084 9.03399 14.0209 8.94212 13.9072 8.94212ZM11.7068 12.8796C11.8249 12.8796 11.9212 12.7834 11.9255 12.6609V11.7815C11.9255 11.659 11.8249 11.5627 11.7068 11.5627H10.3901C10.2676 11.5627 10.1714 11.6634 10.1714 11.7815V12.6609C10.1714 12.7834 10.272 12.8796 10.3901 12.8796H11.7068ZM14.5459 12.6609V11.7815C14.5459 11.6634 14.4496 11.5627 14.3271 11.5627H13.0104C12.8923 11.5627 12.7917 11.659 12.7917 11.7815V12.6609C12.7917 12.779 12.8879 12.8796 13.0104 12.8796H14.3271C14.4496 12.8796 14.5459 12.7834 14.5459 12.6609ZM11.9212 14.4109V13.5315C11.9212 13.4134 11.8249 13.3127 11.7024 13.3127H10.3857C10.2676 13.3127 10.167 13.409 10.167 13.5315V14.4109C10.167 14.529 10.2632 14.6296 10.3857 14.6296H11.7024C11.8249 14.6296 11.9212 14.5334 11.9212 14.4109ZM14.5459 14.4109V13.5315C14.5459 13.4134 14.4496 13.3127 14.3271 13.3127H13.0104C12.8923 13.3127 12.7917 13.409 12.7917 13.5315V14.4109C12.7917 14.529 12.8879 14.6296 13.0104 14.6296H14.3271C14.4496 14.6296 14.5459 14.5334 14.5459 14.4109ZM7.37606 14.1921H8.15472C8.30345 14.1921 8.42156 14.074 8.42156 13.9252V11.834C8.42156 11.6852 8.30345 11.5671 8.15472 11.5671H7.37606C7.22732 11.5671 7.10921 11.6852 7.10921 11.834V13.9252C7.10921 14.074 7.22732 14.1921 7.37606 14.1921ZM16.5625 14.1921H17.3412C17.4899 14.1921 17.608 14.074 17.608 13.9252V11.834C17.608 11.6852 17.4899 11.5671 17.3412 11.5671H16.5625C16.4138 11.5671 16.2957 11.6852 16.2957 11.834V13.9252C16.2957 14.074 16.4138 14.1921 16.5625 14.1921ZM8.64021 16.3796C8.51771 16.3796 8.42146 16.2834 8.42146 16.1609C8.42146 16.0384 8.51771 15.9421 8.64021 15.9421H9.07771C9.20021 15.9421 9.29646 16.0384 9.29646 16.1609C9.29646 16.279 9.20021 16.3796 9.07771 16.3796H8.64021Z" fill="#F0438B"/>
</svg>
