<svg width="25" height="35" viewBox="0 0 25 35" fill="none" xmlns="http://www.w3.org/2000/svg">
<ellipse cx="12.0786" cy="12.0007" rx="9.99885" ry="10.0006" fill="white"/>
<path d="M3.26372 3.9133C5.16572 1.86873 6.96107 0.83756 9.68076 0.197521C11.1917 -0.158056 14.1247 -0.0158271 15.7246 0.481981C17.7331 1.10424 19.1197 1.97541 20.7906 3.6644C23.2081 6.1001 24.2213 8.55359 24.2391 12.0382C24.2569 14.3317 24.008 15.3806 22.9592 17.5319C22.1949 19.1143 21.9638 19.3987 19.4574 21.8877C15.1379 26.1902 13.0049 29.8882 12.3826 34.1374C12.3482 34.3814 11.9966 34.3804 11.9561 34.1374C11.2095 29.6571 9.20082 26.1902 4.89909 21.9055C1.96609 18.9897 1.30838 18.0119 0.508479 15.4162C-0.0247942 13.7094 -0.0603451 10.7581 0.401824 9.01583C0.917321 7.09572 1.87721 5.38894 3.26372 3.9133ZM7.9228 15.7406C8.26304 16.0809 8.6762 16.251 9.16225 16.251C9.64831 16.251 10.0614 16.0809 10.4017 15.7406C10.7419 15.4002 10.912 14.987 10.912 14.5009H13.2451C13.2451 14.987 13.4152 15.4002 13.7555 15.7406C14.0957 16.0809 14.5089 16.251 14.9949 16.251C15.481 16.251 15.8941 16.0809 16.2344 15.7406C16.5746 15.4002 16.7447 14.987 16.7447 14.5009H17.328C17.6487 14.5009 17.9235 14.3868 18.1522 14.1585C18.3804 13.9297 18.4945 13.655 18.4945 13.3341V10.6069C18.4945 10.5388 18.4896 10.4731 18.4799 10.4097C18.4702 10.3467 18.4556 10.286 18.4361 10.2277L17.5904 7.71922C17.5127 7.47615 17.3718 7.28169 17.1676 7.13585C16.9634 6.99 16.7349 6.91709 16.4823 6.91709H16.1614V6.33371C16.1614 6.16843 16.1054 6.02978 15.9934 5.91778C15.8818 5.80616 15.7435 5.75035 15.5782 5.75035H14.9949C14.8297 5.75035 14.6912 5.80616 14.5796 5.91778C14.4676 6.02978 14.4116 6.16843 14.4116 6.33371V6.91709H13.2451C12.9243 6.91709 12.6498 7.03142 12.4215 7.26011C12.1929 7.4884 12.0786 7.76297 12.0786 8.08382V10.4173H6.82918C6.50839 10.4173 6.23386 10.5314 6.00561 10.7597C5.77697 10.9885 5.66265 11.2632 5.66265 11.584V13.3341C5.66265 13.655 5.77697 13.9297 6.00561 14.1585C6.23386 14.3868 6.50839 14.5009 6.82918 14.5009H7.41245C7.41245 14.987 7.58257 15.4002 7.9228 15.7406ZM9.57811 14.9162C9.46613 15.0282 9.3275 15.0842 9.16225 15.0842C8.99699 15.0842 8.85837 15.0282 8.74638 14.9162C8.63478 14.8046 8.57898 14.6662 8.57898 14.5009C8.57898 14.3356 8.63478 14.1972 8.74638 14.0855C8.85837 13.9735 8.99699 13.9175 9.16225 13.9175C9.3275 13.9175 9.46613 13.9735 9.57811 14.0855C9.68971 14.1972 9.74552 14.3356 9.74552 14.5009C9.74552 14.6662 9.68971 14.8046 9.57811 14.9162ZM15.4102 14.9162C15.2986 15.0282 15.1601 15.0842 14.9949 15.0842C14.8297 15.0842 14.6912 15.0282 14.5796 14.9162C14.4676 14.8046 14.4116 14.6662 14.4116 14.5009C14.4116 14.3356 14.4676 14.1972 14.5796 14.0855C14.6912 13.9735 14.8297 13.9175 14.9949 13.9175C15.1601 13.9175 15.2986 13.9735 15.4102 14.0855C15.5222 14.1972 15.5782 14.3356 15.5782 14.5009C15.5782 14.6662 15.5222 14.8046 15.4102 14.9162ZM17.2697 10.4173H13.2451V8.08382H16.4823L17.2697 10.4173ZM8.14153 8.95887H7.12082V7.79214H8.14153V8.95887ZM10.0372 8.95887H9.01643V7.79214H10.0372V8.95887ZM5.7863 9.70967C5.86913 9.79251 5.97373 9.83392 6.1001 9.83392H11.0579C11.1843 9.83392 11.2889 9.79251 11.3717 9.70967C11.454 9.62722 11.4953 9.52279 11.4953 9.3964C11.4953 9.27001 11.454 9.16538 11.3717 9.08255C11.2889 9.0001 11.1843 8.95887 11.0579 8.95887H10.912V7.79214H11.0579C11.1843 7.79214 11.2889 7.75072 11.3717 7.66788C11.454 7.58543 11.4953 7.48101 11.4953 7.35461C11.4953 7.22822 11.454 7.12379 11.3717 7.04134C11.2889 6.9585 11.1843 6.91709 11.0579 6.91709H6.1001C5.97373 6.91709 5.86913 6.9585 5.7863 7.04134C5.70387 7.12379 5.66265 7.22822 5.66265 7.35461C5.66265 7.48101 5.70387 7.58543 5.7863 7.66788C5.86913 7.75072 5.97373 7.79214 6.1001 7.79214H6.24592V8.95887H6.1001C5.97373 8.95887 5.86913 9.0001 5.7863 9.08255C5.70387 9.16538 5.66265 9.27001 5.66265 9.3964C5.66265 9.52279 5.70387 9.62722 5.7863 9.70967Z" fill="#299091"/>
</svg>
