<svg width="25" height="35" viewBox="0 0 25 35" fill="none" xmlns="http://www.w3.org/2000/svg">
<ellipse cx="12.6383" cy="11.0007" rx="9.99885" ry="10.0006" fill="white"/>
<path d="M3.82341 3.9133C5.72542 1.86874 7.52076 0.83756 10.2404 0.197521C11.7514 -0.158056 14.6843 -0.0158269 16.2842 0.481981C18.2928 1.10424 19.6794 1.9754 21.3503 3.66439C23.7678 6.1001 24.781 8.55358 24.7988 12.0382C24.8166 14.3317 24.5677 15.3806 23.5189 17.5319C22.7546 19.1143 22.5235 19.3987 20.0171 21.8877C15.6976 26.1902 13.5645 29.8882 12.9423 34.1374C12.9079 34.3814 12.5563 34.3804 12.5158 34.1374C11.7692 29.6571 9.7605 26.1902 5.45878 21.9055C2.52578 18.9897 1.86808 18.0119 1.06817 15.4162C0.534899 13.7094 0.499347 10.7582 0.961517 9.01583C1.47701 7.09571 2.4369 5.38895 3.82341 3.9133ZM13.8999 8.84919C13.8365 8.94175 13.8048 9.03178 13.8048 9.11928C13.8048 9.29429 13.8608 9.42069 13.9728 9.49848C14.0844 9.57626 14.2277 9.58112 14.4027 9.51306C14.6262 9.43527 14.8595 9.37208 15.1026 9.32347C15.3456 9.27485 15.5935 9.25054 15.8462 9.25054C16.0018 9.25054 16.155 9.25774 16.3059 9.27213C16.4563 9.2869 16.5996 9.30888 16.7357 9.33805C16.901 9.37694 17.0371 9.3575 17.1441 9.27971C17.2509 9.20193 17.3044 9.08039 17.3044 8.91511C17.3044 8.81787 17.2727 8.73037 17.2093 8.65259C17.1464 8.57481 17.0711 8.5262 16.9836 8.50675C16.7989 8.46785 16.6119 8.43616 16.4225 8.41166C16.2328 8.38755 16.0407 8.37549 15.8462 8.37549C15.5351 8.37549 15.2387 8.3998 14.9568 8.44841C14.6748 8.49703 14.393 8.56995 14.111 8.66718C14.0332 8.69635 13.9628 8.75701 13.8999 8.84919ZM13.8999 12.0577C13.8365 12.1502 13.8048 12.2403 13.8048 12.3278C13.8048 12.5029 13.8608 12.6267 13.9728 12.6994C14.0844 12.7726 14.2277 12.7751 14.4027 12.707C14.6262 12.6293 14.8595 12.5686 15.1026 12.525C15.3456 12.4811 15.5935 12.4591 15.8462 12.4591C16.0018 12.4591 16.155 12.4663 16.3059 12.4807C16.4563 12.4955 16.5996 12.5174 16.7357 12.5466C16.901 12.5855 17.0371 12.5661 17.1441 12.4883C17.2509 12.4105 17.3044 12.2889 17.3044 12.1236C17.3044 12.0264 17.2727 11.9389 17.2093 11.8611C17.1464 11.7833 17.0711 11.7347 16.9836 11.7153C16.7989 11.6764 16.6119 11.6447 16.4225 11.6202C16.2328 11.5961 16.0407 11.584 15.8462 11.584C15.5351 11.584 15.2387 11.6083 14.9568 11.6569C14.6748 11.7055 14.393 11.7785 14.111 11.8757C14.0332 11.9048 13.9628 11.9655 13.8999 12.0577ZM13.8999 10.4534C13.8365 10.546 13.8048 10.636 13.8048 10.7236C13.8048 10.8986 13.8608 11.025 13.9728 11.1028C14.0844 11.1805 14.2277 11.1854 14.4027 11.1173C14.6262 11.0396 14.8595 10.9764 15.1026 10.9278C15.3456 10.8792 15.5935 10.8548 15.8462 10.8548C16.0018 10.8548 16.155 10.862 16.3059 10.8764C16.4563 10.8912 16.5996 10.9132 16.7357 10.9423C16.901 10.9812 17.0371 10.9618 17.1441 10.884C17.2509 10.8062 17.3044 10.6846 17.3044 10.5193C17.3044 10.4221 17.2727 10.3346 17.2093 10.2568C17.1464 10.1791 17.0711 10.1304 16.9836 10.111C16.7989 10.0721 16.6119 10.0404 16.4225 10.0159C16.2328 9.99182 16.0407 9.97975 15.8462 9.97975C15.5351 9.97975 15.2387 10.0041 14.9568 10.0527C14.6748 10.1013 14.393 10.1742 14.111 10.2714C14.0332 10.3006 13.9628 10.3612 13.8999 10.4534ZM14.5123 13.4869C14.0795 13.5892 13.6493 13.7424 13.2215 13.9466V8.20048C13.6201 7.96713 14.043 7.79212 14.4902 7.67545C14.9373 7.55878 15.3894 7.50044 15.8462 7.50044C16.1962 7.50044 16.5438 7.53447 16.8891 7.60253C17.234 7.67059 17.5669 7.77267 17.8877 7.9088V13.6841C17.5474 13.5674 17.2097 13.4799 16.8745 13.4216C16.5389 13.3633 16.1962 13.3341 15.8462 13.3341C15.3894 13.3341 14.9447 13.3851 14.5123 13.4869ZM12.2521 15.3105C12.3735 15.3444 12.5022 15.3613 12.6383 15.3613C12.7744 15.3613 12.9032 15.3444 13.025 15.3105C13.1463 15.2763 13.2604 15.23 13.3674 15.1717C13.7464 14.9481 14.145 14.7805 14.5631 14.6689C14.9811 14.5569 15.4088 14.5009 15.8462 14.5009C16.2546 14.5009 16.6554 14.5544 17.049 14.6613C17.4428 14.7682 17.8196 14.9189 18.1793 15.1134C18.3834 15.2203 18.5804 15.2155 18.7702 15.0988C18.9595 14.9821 19.0542 14.812 19.0542 14.5884V7.55878C19.0542 7.45182 19.0275 7.34974 18.9743 7.25251C18.9207 7.15527 18.8404 7.08236 18.7334 7.03375C18.2862 6.80039 17.8196 6.62538 17.3335 6.50872C16.8475 6.39204 16.3517 6.33371 15.8462 6.33371C15.2824 6.33371 14.7308 6.40662 14.1915 6.55247C13.6518 6.69831 13.134 6.91707 12.6383 7.20876C12.1425 6.91707 11.625 6.69831 11.0857 6.55247C10.5459 6.40662 9.99414 6.33371 9.43031 6.33371C8.92481 6.33371 8.42904 6.39204 7.94298 6.50872C7.45693 6.62538 6.99031 6.80039 6.54314 7.03375C6.4362 7.08236 6.3561 7.15527 6.30283 7.25251C6.24918 7.34974 6.22234 7.45182 6.22234 7.55878V14.5884C6.22234 14.812 6.31722 14.9821 6.50698 15.0988C6.69634 15.2155 6.8931 15.2203 7.09724 15.1134C7.45693 14.9189 7.83371 14.7682 8.22761 14.6613C8.62112 14.5544 9.02202 14.5009 9.43031 14.5009C9.86776 14.5009 10.2955 14.5569 10.7135 14.6689C11.1315 14.7805 11.5301 14.9481 11.9092 15.1717C12.0161 15.23 12.1304 15.2763 12.2521 15.3105Z" fill="#8F8D8D"/>
</svg>
