<svg width="25" height="35" viewBox="0 0 25 35" fill="none" xmlns="http://www.w3.org/2000/svg">
<ellipse cx="12.8385" cy="12.0007" rx="9.99885" ry="10.0006" fill="white"/>
<path d="M4.02361 3.9133C5.92561 1.86874 7.72096 0.83756 10.4406 0.197521C11.9516 -0.158056 14.8845 -0.0158269 16.4843 0.481981C18.493 1.10424 19.8796 1.9754 21.5505 3.66439C23.968 6.1001 24.9812 8.55358 24.999 12.0382C25.0168 14.3317 24.7679 15.3806 23.7191 17.5319C22.9548 19.1143 22.7237 19.3987 20.2173 21.8877C15.8978 26.1902 13.7647 29.8882 13.1425 34.1374C13.1081 34.3814 12.7565 34.3804 12.716 34.1374C11.9694 29.6571 9.96071 26.1902 5.65897 21.9055C2.72598 18.9897 2.06827 18.0119 1.26837 15.4162C0.735094 13.7094 0.699543 10.7582 1.16171 9.01583C1.67721 7.09571 2.6371 5.38895 4.02361 3.9133ZM15.7548 5.75033H14.5883V9.93308L12.5468 14.3259L10.5054 11.584L7.00581 16.251H18.6711L15.7548 9.93308V8.08381L18.6711 6.91707L15.7548 5.75033Z" fill="#8F8D8D"/>
</svg>
