<svg width="25" height="35" viewBox="0 0 25 35" fill="none" xmlns="http://www.w3.org/2000/svg">
<ellipse cx="12.0789" cy="13.0006" rx="9.99885" ry="10.0006" fill="white"/>
<path fill-rule="evenodd" clip-rule="evenodd" d="M9.68088 0.197521C6.96119 0.837559 5.16584 1.86873 3.26384 3.9133C1.87733 5.38894 0.917442 7.09571 0.401946 9.01583C-0.0602232 10.7582 -0.0246718 13.7094 0.5086 15.4162C1.30851 18.0119 1.96621 18.9898 4.89921 21.9055C9.20094 26.1902 11.2096 29.6571 11.9562 34.1373C11.9967 34.3804 12.3484 34.3813 12.3828 34.1373C13.0049 29.8882 15.138 26.1902 19.4575 21.8877C21.9639 19.3987 22.195 19.1142 22.9594 17.5319C24.0081 15.3807 24.257 14.3317 24.2392 12.0382C24.2214 8.55358 23.2082 6.1001 20.7907 3.66439C19.1198 1.9754 17.7333 1.10424 15.7246 0.481981C14.1248 -0.015827 11.1918 -0.158056 9.68088 0.197521ZM7.11069 11.1458H8.56056L8.05831 9.99085C7.87567 9.5705 7.53543 9.23858 7.11069 9.06641V11.1458ZM7.11069 13.3198H9.5095C9.5014 13.3055 9.49381 13.2909 9.48675 13.276L8.94425 12.0283H7.11069V13.3198ZM7.11069 15.4933H9.72869V14.2009H7.11069V15.4933ZM8.97142 5.94704C9.34367 5.61849 9.82317 5.43738 10.3196 5.43779C10.5885 5.43784 10.8547 5.4909 11.103 5.59393C11.3513 5.69695 11.5769 5.84793 11.7668 6.03821C11.9568 6.22849 12.1073 6.45436 12.2099 6.70289C12.3125 6.95141 12.3651 7.21773 12.3647 7.4866V7.70535C13.1023 8.04233 13.6893 8.64025 14.0126 9.38404L14.8669 11.3528H14.9264C15.4694 11.3541 16.0007 11.5104 16.458 11.8034C16.9152 12.0963 17.2792 12.5137 17.5074 13.0065L19.4973 17.3216C19.5588 17.4549 19.5857 17.6015 19.5756 17.7479C19.5655 17.8944 19.5187 18.0359 19.4396 18.1595C19.3605 18.2831 19.2515 18.3849 19.1228 18.4553C18.9941 18.5258 18.8497 18.5628 18.7029 18.5628H13.4317C13.2655 18.5628 13.1027 18.5155 12.9624 18.4264C12.8221 18.3373 12.7101 18.2101 12.6394 18.0597L11.2593 15.1188V17.6878C11.2593 17.9199 11.1671 18.1424 11.003 18.3065C10.839 18.4706 10.6164 18.5628 10.3844 18.5628H9.72821C9.49617 18.5628 9.27364 18.4706 9.10956 18.3065C8.94549 18.1424 8.85331 17.9199 8.85331 17.6878V17.2503H7.98541V17.6878C7.98541 17.9199 7.89323 18.1424 7.72916 18.3065C7.56508 18.4706 7.34255 18.5628 7.11051 18.5628H6.45434C6.2223 18.5628 5.99976 18.4706 5.83569 18.3065C5.67161 18.1424 5.57944 17.9199 5.57944 17.6878V7.48179C5.57915 7.08871 5.69227 6.7039 5.90522 6.37353C6.11818 6.04315 6.42192 5.78124 6.78001 5.61922C7.1381 5.4572 7.53532 5.40194 7.92403 5.46009C8.31273 5.51824 8.67641 5.68732 8.97142 5.94704ZM11.1462 6.65518C10.927 6.43595 10.6296 6.31279 10.3196 6.31279C10.0096 6.31279 9.71233 6.43595 9.49313 6.65518C9.27392 6.87441 9.15078 7.17175 9.15078 7.48179V8.93035L9.80695 8.93079V7.48179C9.80695 7.3458 9.86097 7.21538 9.95711 7.11922C10.0533 7.02306 10.1837 6.96904 10.3196 6.96904C10.4556 6.96904 10.586 7.02306 10.6822 7.11922C10.7783 7.21538 10.8323 7.3458 10.8323 7.48179V8.93604L10.8424 8.93079V8.93779H11.0012C11.3423 8.93783 11.6759 9.03757 11.9611 9.22474C12.2462 9.41191 12.4704 9.67835 12.6062 9.99129L13.7466 12.6189C13.7753 12.685 13.8199 12.743 13.8763 12.7877C13.9328 12.8324 13.9994 12.8625 14.0703 12.8753C14.096 12.88 14.1221 12.8823 14.1482 12.8823H14.9251C15.1759 12.8822 15.4215 12.9541 15.6328 13.0893C15.8441 13.2245 16.0122 13.4175 16.1172 13.6453L16.1657 13.7503L17.9803 17.6878H18.7029L16.713 13.3697C16.5555 13.028 16.3034 12.7386 15.9865 12.5357C15.6697 12.3329 15.3013 12.2251 14.9251 12.2252H14.2917L13.2086 9.73141C13.0552 9.37718 12.8188 9.06506 12.5194 8.82139C12.2201 8.57773 11.8665 8.40967 11.4885 8.33141V7.48179C11.4885 7.17175 11.3654 6.87441 11.1462 6.65518ZM8.13589 8.92947L8.79207 8.92991V7.48179C8.79207 7.17175 8.66892 6.87441 8.44971 6.65518C8.23051 6.43595 7.9332 6.31279 7.6232 6.31279C7.3132 6.31279 7.01589 6.43595 6.79669 6.65518C6.57748 6.87441 6.45434 7.17175 6.45434 7.48179V17.6878H7.11051V16.3753H9.72952V17.6878H10.3857V13.5385H10.6661C10.9442 13.5807 11.2071 13.6924 11.4306 13.8632C11.654 14.0341 11.8307 14.2586 11.9443 14.5159L13.4317 17.6878H14.1539L12.5388 14.2412C12.3415 13.8133 11.9701 13.399 11.5353 13.1426C11.2669 12.9953 10.9701 12.9068 10.6648 12.8832H10.0314V12.8823L10.0283 12.8753L8.65952 9.73054C8.53 9.43096 8.34099 9.16081 8.10396 8.93647C7.82312 8.67091 7.48234 8.47929 7.11051 8.37341V7.48091C7.11051 7.34492 7.16453 7.2145 7.26067 7.11834C7.35682 7.02218 7.48723 6.96816 7.6232 6.96816C7.75918 6.96816 7.88958 7.02218 7.98573 7.11834C8.08188 7.2145 8.13589 7.34492 8.13589 7.48091V8.92947Z" fill="#3A7A3A"/>
</svg>
