<svg width="25" height="35" viewBox="0 0 25 35" fill="none" xmlns="http://www.w3.org/2000/svg">
<ellipse cx="12.5986" cy="12.0007" rx="9.99885" ry="10.0006" fill="white"/>
<path d="M3.78374 3.9133C5.68574 1.86873 7.48109 0.83756 10.2008 0.197521C11.7117 -0.158056 14.6447 -0.015827 16.2445 0.481981C18.2532 1.10424 19.6397 1.9754 21.3106 3.66439C23.7281 6.1001 24.7413 8.55358 24.7591 12.0382C24.7769 14.3317 24.528 15.3806 23.4793 17.5319C22.7149 19.1143 22.4839 19.3987 19.9775 21.8877C15.6579 26.1902 13.5248 29.8882 12.9027 34.1374C12.8683 34.3814 12.5166 34.3804 12.4761 34.1374C11.7295 29.6571 9.72084 26.1902 5.4191 21.9055C2.48611 18.9897 1.8284 18.0119 1.0285 15.4162C0.495225 13.7094 0.459675 10.7582 0.921844 9.01584C1.43734 7.09572 2.39723 5.38895 3.78374 3.9133ZM7.40161 5.82325H5.5994V6.41802H7.40275V16.0778H5.5994V16.9585H19.6001V16.0778H18.2445V6.4146H19.5875V5.82325H18.232V4.00022H17.5484V5.82325H15.6983V4.00022H15.0148V5.82325H13.1602V4.00022H12.4767V5.82325H10.6209V4.00022H9.93744V5.82325H8.08512V4.00022H7.40161V5.82325ZM9.92834 10.3705L9.91808 9.63338H9.93516V6.41802H8.0931V15.0033C8.40124 14.6177 8.8162 14.5258 9.27147 14.4249C9.48607 14.3773 9.70962 14.3278 9.93516 14.2445V10.3705H9.92834ZM10.6278 12.6742C10.6266 12.672 10.6255 12.6698 10.6244 12.6676H10.6278V12.6742ZM10.6278 12.6742V13.848C10.6506 13.8297 10.6733 13.8092 10.6961 13.7887C10.6563 13.9038 11.4434 14.6182 12.479 14.6456V14.0018C12.1095 13.9816 11.7535 13.8555 11.4537 13.6383C11.1076 13.3851 10.8248 13.0551 10.6278 12.6742ZM13.5441 13.7135C13.424 13.788 13.2965 13.8498 13.1636 13.8981V14.5579C13.6295 14.413 14.0487 14.1477 14.3792 13.7887C14.5655 13.9574 14.7803 14.0918 15.0137 14.1853V10.9175C14.8143 12.3645 14.2356 13.2828 13.5441 13.7135ZM14.3228 8.11263C14.6486 8.41136 14.8873 8.79278 15.0137 9.21636V6.41802H13.1636V7.5198C13.5965 7.60903 13.997 7.8139 14.3228 8.11263ZM11.4356 7.78154C11.7556 7.60431 12.1107 7.49977 12.4756 7.47537V6.41802H10.6244V8.50082C10.8387 8.20437 11.1157 7.95878 11.4356 7.78154ZM15.84 14.4073C15.795 14.3984 15.7496 14.3894 15.704 14.3801V6.41802H17.5495V16.0812H17.5267C17.2708 14.6903 16.6005 14.5577 15.84 14.4073ZM12.4756 10.7135L10.6244 10.5198V10.3717H12.4756V10.7135ZM14.8724 10.4811L13.1636 10.6668V10.6633V10.3671H14.8804C14.8724 10.4081 14.8724 10.4446 14.8724 10.4811ZM14.7834 11.165C14.7842 11.1641 14.785 11.1633 14.7858 11.1625V11.1511C14.785 11.1557 14.7842 11.1603 14.7834 11.165ZM13.1636 11.5555C13.7096 11.8456 14.259 11.7029 14.7834 11.165C14.7298 11.4705 14.6498 11.7708 14.5444 12.0625C14.4953 12.0828 14.4488 12.1409 14.3957 12.2072C14.2578 12.3796 14.0749 12.6082 13.6843 12.377C13.5135 12.3274 13.3395 12.2894 13.1636 12.2631V11.5555ZM10.6244 11.3698C11.2088 11.8996 11.8331 11.8096 12.4756 11.208V12.2163C12.1335 12.2248 11.7941 12.2807 11.4674 12.3827C11.0365 12.6326 10.8396 12.3366 10.6929 12.1161C10.669 12.0802 10.6464 12.0462 10.6244 12.017V11.3698ZM13.159 11.1477C13.1929 11.1913 13.2311 11.2313 13.273 11.2673H13.2798C13.7572 11.6717 14.2652 11.3459 14.5033 10.8617C14.5062 10.8553 14.5092 10.8497 14.5119 10.8447C14.5229 10.8239 14.5291 10.8124 14.5033 10.7876C14.4805 10.7656 14.4449 10.771 14.4128 10.7759C14.3999 10.7778 14.3876 10.7797 14.3769 10.7797L13.159 10.9699V11.1477ZM12.1282 10.987C12.0725 11.0936 11.9971 11.1887 11.906 11.2673H11.9162C11.4389 11.6717 10.9308 11.3459 10.6927 10.8617C10.69 10.8556 10.6872 10.8503 10.6847 10.8454C10.6736 10.8242 10.6676 10.8127 10.6927 10.7876C10.7147 10.7657 10.75 10.771 10.7821 10.7759C10.795 10.7778 10.8073 10.7797 10.818 10.7797L12.1282 10.987ZM13.4165 13.0014C13.4165 12.9114 13.3197 12.8305 13.1636 12.7736V13.2293C13.3197 13.1712 13.4165 13.0914 13.4165 13.0014ZM11.8205 13.0003C11.8205 13.153 12.1054 13.2794 12.4801 13.3056V12.695C12.1054 12.7212 11.8205 12.8476 11.8205 13.0003Z" fill="#299091"/>
</svg>
