<svg width="25" height="35" viewBox="0 0 25 35" fill="none" xmlns="http://www.w3.org/2000/svg">
<ellipse cx="12.2789" cy="12.0006" rx="9.99885" ry="10.0006" fill="white"/>
<path fill-rule="evenodd" clip-rule="evenodd" d="M3.46379 3.9133C5.36579 1.86873 7.16114 0.837559 9.88083 0.197521C11.3918 -0.158056 14.3248 -0.015827 15.9246 0.481981C17.9332 1.10424 19.3197 1.9754 20.9907 3.66439C23.4082 6.1001 24.4214 8.55358 24.4392 12.0382C24.4569 14.3317 24.2081 15.3807 23.1593 17.5319C22.395 19.1142 22.1639 19.3987 19.6575 21.8877C15.338 26.1902 13.2049 29.8882 12.5827 34.1373C12.5483 34.3813 12.1966 34.3804 12.1561 34.1373C11.4095 29.6571 9.40089 26.1902 5.09916 21.9055C2.16616 18.9898 1.50846 18.0119 0.708551 15.4162C0.175279 13.7094 0.139728 10.7582 0.601897 9.01583C1.11739 7.09571 2.07728 5.38894 3.46379 3.9133ZM12.1145 12.2222C13.7265 12.2222 15.032 10.9294 15.032 9.33329L14.9518 8.6544L16.4908 7.88885V11.1388H17.2202V7.52773L12.1145 4.99996L7.00892 7.52773L9.27728 8.6544L9.19705 9.33329C9.19705 10.9294 10.5026 12.2222 12.1145 12.2222ZM17.9495 16.5555C17.9495 14.9594 15.3384 13.6666 12.1145 13.6666C8.89071 13.6666 6.27955 14.9594 6.27955 16.5555V18H17.9495V16.5555Z" fill="#874ABD"/>
</svg>
