<svg width="25" height="35" viewBox="0 0 25 35" fill="none" xmlns="http://www.w3.org/2000/svg">
<ellipse cx="12.6386" cy="12.0007" rx="9.99885" ry="10.0006" fill="white"/>
<path d="M3.82378 3.9133C5.72578 1.86873 7.52114 0.83756 10.2408 0.197521C11.7517 -0.158056 14.6847 -0.0158271 16.2845 0.481981C18.2932 1.10424 19.6797 1.97541 21.3506 3.6644C23.7682 6.1001 24.7813 8.55359 24.7991 12.0382C24.8169 14.3317 24.5681 15.3806 23.5193 17.5319C22.755 19.1143 22.5239 19.3987 20.0175 21.8877C15.698 26.1902 13.5648 29.8882 12.9427 34.1374C12.9083 34.3814 12.5566 34.3804 12.5162 34.1374C11.7695 29.6571 9.76088 26.1902 5.45914 21.9055C2.52615 18.9897 1.86844 18.0119 1.06854 15.4162C0.535264 13.7094 0.499713 10.7581 0.961882 9.01583C1.47738 7.09572 2.43727 5.38894 3.82378 3.9133ZM7.52747 7.86504C7.62002 7.92338 7.71489 7.92824 7.81211 7.87963L9.19736 7.17958C9.24597 7.15042 9.28485 7.11153 9.31402 7.06292C9.34319 7.01429 9.35776 6.96568 9.35776 6.91707C9.35776 6.86845 9.34319 6.81984 9.31402 6.77123C9.28485 6.72262 9.24597 6.68372 9.19736 6.65455L7.81211 5.95451C7.71489 5.9059 7.62002 5.91076 7.52747 5.9691C7.43532 6.02743 7.38924 6.11008 7.38924 6.21702V7.61711C7.38924 7.72407 7.43532 7.80671 7.52747 7.86504ZM16.277 7.86504C16.3692 7.92338 16.4639 7.92824 16.5611 7.87963L17.9463 7.17958C17.9949 7.15042 18.0338 7.11153 18.063 7.06292C18.0922 7.01429 18.1068 6.96568 18.1068 6.91707C18.1068 6.86845 18.0922 6.81984 18.063 6.77123C18.0338 6.72262 17.9949 6.68372 17.9463 6.65455L16.5611 5.95451C16.4639 5.9059 16.3692 5.91076 16.277 5.9691C16.1845 6.02743 16.1382 6.11008 16.1382 6.21702V7.61711C16.1382 7.72407 16.1845 7.80671 16.277 7.86504ZM12.1942 7.28168C12.2864 7.34001 12.3811 7.34487 12.4783 7.29626L13.8635 6.59622C13.9121 6.56705 13.951 6.52815 13.9802 6.47954C14.0093 6.43093 14.0239 6.38231 14.0239 6.3337C14.0239 6.28509 14.0093 6.23648 13.9802 6.18786C13.951 6.13924 13.9121 6.10036 13.8635 6.07119L12.4783 5.37114C12.3811 5.32253 12.2864 5.32739 12.1942 5.38572C12.1016 5.44407 12.0554 5.5267 12.0554 5.63366V7.03374C12.0554 7.14069 12.1016 7.22334 12.1942 7.28168ZM9.40151 16.5427C9.88756 16.6399 10.3833 16.7128 10.8888 16.7614V14.5009C10.8888 14.3356 10.9448 14.1972 11.0568 14.0855C11.1684 13.9735 11.3069 13.9175 11.4721 13.9175H13.8052C13.9704 13.9175 14.1091 13.9735 14.2211 14.0855C14.3326 14.1972 14.3884 14.3356 14.3884 14.5009V16.7614C14.894 16.7128 15.3897 16.6399 15.8758 16.5427C16.3618 16.4454 16.797 16.3262 17.1811 16.1851C17.5649 16.0443 17.8759 15.8815 18.1143 15.6967C18.3523 15.512 18.4713 15.3078 18.4713 15.0842V9.83391C18.4713 9.59084 18.3181 9.36468 18.0117 9.15545C17.7057 8.94661 17.2902 8.76188 16.7653 8.60126C16.2403 8.44102 15.623 8.31462 14.9134 8.22207C14.2038 8.12989 13.4454 8.08381 12.6386 8.08381C11.8318 8.08381 11.0735 8.12989 10.3639 8.22207C9.65426 8.31462 9.03697 8.44102 8.51203 8.60126C7.98709 8.76188 7.57161 8.94661 7.26558 9.15545C6.95918 9.36468 6.80598 9.59084 6.80598 9.83391V15.0842C6.80598 15.3078 6.92496 15.512 7.16294 15.6967C7.4013 15.8815 7.71256 16.0443 8.09674 16.1851C8.48054 16.3262 8.91546 16.4454 9.40151 16.5427ZM15.0814 10.2493C14.3958 10.3613 13.5816 10.4173 12.6386 10.4173C11.6956 10.4173 10.8816 10.3613 10.1965 10.2493C9.51097 10.1376 8.96406 10.0089 8.55578 9.86308C8.55578 9.81446 8.92517 9.70013 9.66398 9.52006C10.4028 9.34038 11.3944 9.25055 12.6386 9.25055C13.8829 9.25055 14.8745 9.34038 15.6133 9.52006C16.3521 9.70013 16.7215 9.81446 16.7215 9.86308C16.3132 10.0089 15.7665 10.1376 15.0814 10.2493Z" fill="#299091"/>
</svg>
