<svg width="25" height="35" viewBox="0 0 25 35" fill="none" xmlns="http://www.w3.org/2000/svg">
<ellipse cx="12" cy="12.1078" rx="10" ry="10.1466" fill="white"/>
<path d="M3.18376 3.9133C5.08576 1.86873 6.88112 0.83756 9.6008 0.197521C11.1117 -0.158056 14.0447 -0.015827 15.6445 0.481981C17.6532 1.10424 19.0397 1.97541 20.7106 3.6644C23.1281 6.1001 24.1413 8.55359 24.1591 12.0382C24.1769 14.3317 23.9281 15.3806 22.8793 17.5319C22.1149 19.1143 21.8838 19.3987 19.3775 21.8877C15.058 26.1902 12.9248 29.8882 12.3027 34.1374C12.2683 34.3814 11.9166 34.3804 11.876 34.1374C11.1295 29.6571 9.12086 26.1902 4.81912 21.9055C1.88613 18.9897 1.22843 18.0119 0.428522 15.4162C-0.10475 13.7094 -0.140301 10.7582 0.321867 9.01583C0.837363 7.09572 1.79725 5.38894 3.18376 3.9133ZM10.1987 5.50869C9.97997 5.28989 9.6833 5.16696 9.37392 5.16696C9.06453 5.16696 8.76782 5.28989 8.54905 5.50869C8.33029 5.7275 8.20738 6.02426 8.20738 6.3337C8.20738 6.64314 8.33029 6.9399 8.54905 7.15871C8.76782 7.37752 9.06453 7.50044 9.37392 7.50044C9.6833 7.50044 9.97997 7.37752 10.1987 7.15871C10.4175 6.9399 10.5404 6.64314 10.5404 6.3337C10.5404 6.02426 10.4175 5.7275 10.1987 5.50869ZM11.0736 8.42554C10.8549 8.20674 10.5582 8.08381 10.2488 8.08381H8.49902C8.18963 8.08381 7.89293 8.20674 7.67415 8.42554C7.45539 8.64434 7.33248 8.94111 7.33248 9.25055V12.4591H8.20738V16.8343H10.5404V12.4591H11.4153V9.25055C11.4153 8.94111 11.2924 8.64434 11.0736 8.42554ZM15.4481 5.50869C15.2294 5.28989 14.9327 5.16696 14.6233 5.16696C14.314 5.16696 14.0172 5.28989 13.7984 5.50869C13.5797 5.7275 13.4568 6.02426 13.4568 6.3337C13.4568 6.64314 13.5797 6.9399 13.7984 7.15871C14.0172 7.37752 14.314 7.50044 14.6233 7.50044C14.9327 7.50044 15.2294 7.37752 15.4481 7.15871C15.6669 6.9399 15.7898 6.64314 15.7898 6.3337C15.7898 6.02426 15.6669 5.7275 15.4481 5.50869ZM13.7484 13.3341V16.8343H15.4982V13.3341H17.248L15.7373 8.90636C15.5915 8.428 15.1483 8.08381 14.6233 8.08381C14.0984 8.08381 13.655 8.428 13.5093 8.90636L11.9986 13.3341H13.7484Z" fill="#299091"/>
</svg>
