<svg width="25" height="35" viewBox="0 0 25 35" fill="none" xmlns="http://www.w3.org/2000/svg">
<circle cx="12" cy="11" r="10" fill="white"/>
<path d="M3.18413 3.91306C5.08635 1.86862 6.88191 0.837509 9.60191 0.197509C11.113 -0.158047 14.0464 -0.0158261 15.6464 0.481952C17.6552 1.10417 19.0419 1.97529 20.713 3.66418C23.1308 6.09973 24.1441 8.55307 24.1619 12.0375C24.1797 14.3308 23.9308 15.3797 22.8819 17.5308C22.1175 19.1131 21.8864 19.3975 19.3797 21.8864C15.0597 26.1886 12.9264 29.8864 12.3041 34.1353C12.2697 34.3793 11.918 34.3783 11.8775 34.1353C11.1308 29.6553 9.12191 26.1886 4.81969 21.9042C1.88635 18.9886 1.22857 18.0108 0.428572 15.4153C-0.104762 13.7086 -0.140317 10.7575 0.321905 9.01529C0.837461 7.09529 1.79746 5.38862 3.18413 3.91306ZM8.08409 13.7487C8.19609 13.8607 8.33473 13.9167 8.5 13.9167C8.66528 13.9167 8.80392 13.8632 8.91592 13.7562C9.02753 13.6493 9.08334 13.5132 9.08334 13.3479V10.4167C9.08334 10.2514 9.02753 10.1127 8.91592 10.0007C8.80392 9.88914 8.66528 9.83333 8.5 9.83333C8.33473 9.83333 8.19609 9.8868 8.08409 9.99375C7.97248 10.1007 7.91667 10.2368 7.91667 10.4021V13.3333C7.91667 13.4986 7.97248 13.6371 8.08409 13.7487ZM11.5847 13.7487C11.6963 13.8607 11.8347 13.9167 12 13.9167C12.1653 13.9167 12.3039 13.8632 12.4159 13.7562C12.5275 13.6493 12.5833 13.5132 12.5833 13.3479V10.4167C12.5833 10.2514 12.5275 10.1127 12.4159 10.0007C12.3039 9.88914 12.1653 9.83333 12 9.83333C11.8347 9.83333 11.6963 9.8868 11.5847 9.99375C11.4727 10.1007 11.4167 10.2368 11.4167 10.4021V13.3333C11.4167 13.4986 11.4727 13.6371 11.5847 13.7487ZM6.32709 16.082C6.43403 16.194 6.57014 16.25 6.73542 16.25H17.25C17.4153 16.25 17.5537 16.194 17.6653 16.082C17.7773 15.9704 17.8333 15.8319 17.8333 15.6667C17.8333 15.5014 17.7799 15.3629 17.6729 15.2513C17.566 15.1393 17.4299 15.0833 17.2646 15.0833H6.75C6.58473 15.0833 6.44628 15.1393 6.33467 15.2513C6.22267 15.3629 6.16667 15.5014 6.16667 15.6667C6.16667 15.8319 6.22014 15.9704 6.32709 16.082ZM15.0847 13.7487C15.1963 13.8607 15.3347 13.9167 15.5 13.9167C15.6653 13.9167 15.8037 13.8632 15.9153 13.7562C16.0273 13.6493 16.0833 13.5132 16.0833 13.3479V10.4167C16.0833 10.2514 16.0273 10.1127 15.9153 10.0007C15.8037 9.88914 15.6653 9.83333 15.5 9.83333C15.3347 9.83333 15.1963 9.8868 15.0847 9.99375C14.9727 10.1007 14.9167 10.2368 14.9167 10.4021V13.3333C14.9167 13.4986 14.9727 13.6371 15.0847 13.7487ZM17.4396 7.29583L12.525 4.84583C12.3597 4.76805 12.1847 4.72917 12 4.72917C11.8153 4.72917 11.6403 4.76805 11.475 4.84583L6.56042 7.31042C6.42431 7.36875 6.32475 7.46111 6.26175 7.5875C6.19836 7.71389 6.16667 7.84514 6.16667 7.98125C6.16667 8.17569 6.23959 8.33844 6.38542 8.4695C6.53125 8.60094 6.70139 8.66667 6.89584 8.66667H17.1188C17.3132 8.66667 17.481 8.60094 17.6222 8.4695C17.7629 8.33844 17.8333 8.17569 17.8333 7.98125C17.8333 7.83542 17.7993 7.70164 17.7313 7.57992C17.6632 7.45858 17.566 7.36389 17.4396 7.29583Z" fill="#9B9BE0"/>
</svg>
