<svg width="25" height="35" viewBox="0 0 25 35" fill="none" xmlns="http://www.w3.org/2000/svg">
<circle cx="12" cy="11" r="10" fill="white"/>
<path fill-rule="evenodd" clip-rule="evenodd" d="M3.18413 3.91306C5.08635 1.86862 6.8819 0.837509 9.6019 0.197509C11.113 -0.158047 14.0463 -0.0158261 15.6463 0.481952C17.6552 1.10417 19.0419 1.97528 20.713 3.66417C23.1308 6.09973 24.1441 8.55306 24.1619 12.0375C24.1797 14.3308 23.9308 15.3797 22.8819 17.5308C22.1175 19.1131 21.8864 19.3975 19.3797 21.8864C15.0597 26.1886 12.9263 29.8864 12.3041 34.1353C12.2697 34.3793 11.918 34.3783 11.8775 34.1353C11.1308 29.6553 9.12191 26.1886 4.81968 21.9042C1.88635 18.9886 1.22857 18.0108 0.428571 15.4153C-0.104762 13.7086 -0.140317 10.7575 0.321905 9.01529C0.83746 7.09529 1.79746 5.38862 3.18413 3.91306ZM9.716 17.792C9.8595 17.9307 10.0375 18 10.25 18H14.75C14.9625 18 15.1407 17.9307 15.2847 17.792C15.4283 17.6538 15.5 17.4824 15.5 17.2778C15.5 17.0732 15.4283 16.9017 15.2847 16.7636C15.1407 16.6249 14.9625 16.5556 14.75 16.5556H13.25V13.5944C14.325 13.4259 15.2188 12.9444 15.9313 12.15C16.6438 11.3556 17 10.4167 17 9.33334V5.72223C17 5.5176 16.928 5.34595 16.784 5.20728C16.6405 5.0691 16.4625 5 16.25 5H8.75C8.5375 5 8.35925 5.0691 8.21525 5.20728C8.07175 5.34595 8 5.5176 8 5.72223V9.33334C8 10.4167 8.35625 11.3556 9.06875 12.15C9.78125 12.9444 10.675 13.4259 11.75 13.5944V16.5556H10.25C10.0375 16.5556 9.8595 16.6249 9.716 16.7636C9.572 16.9017 9.5 17.0732 9.5 17.2778C9.5 17.4824 9.572 17.6538 9.716 17.792ZM15.5 8.61111H9.5V6.44445H15.5V8.61111Z" fill="#FAA264"/>
</svg>
