<svg width="25" height="35" viewBox="0 0 25 35" fill="none" xmlns="http://www.w3.org/2000/svg">
<circle cx="12" cy="12.6589" r="10" fill="white"/>
<path d="M3.18413 3.91306C5.08635 1.86862 6.8819 0.837509 9.6019 0.197509C11.113 -0.158047 14.0463 -0.0158261 15.6463 0.481952C17.6552 1.10417 19.0419 1.97529 20.713 3.66418C23.1308 6.09973 24.1441 8.55307 24.1619 12.0375C24.1797 14.3308 23.9308 15.3797 22.8819 17.5308C22.1175 19.1131 21.8864 19.3975 19.3797 21.8864C15.0597 26.1886 12.9263 29.8864 12.3041 34.1353C12.2697 34.3793 11.918 34.3783 11.8775 34.1353C11.1308 29.6553 9.1219 26.1886 4.81968 21.9042C1.88635 18.9886 1.22857 18.0108 0.428571 15.4153C-0.104762 13.7086 -0.140318 10.7575 0.321904 9.01529C0.83746 7.09529 1.79746 5.38862 3.18413 3.91306ZM5.92633 15.9076C6.15461 16.1359 6.42917 16.25 6.75 16.25H10.8333V14.5C10.8333 14.1792 10.9477 13.9044 11.1763 13.6758C11.4046 13.4475 11.6792 13.3333 12 13.3333C12.3208 13.3333 12.5956 13.4475 12.8242 13.6758C13.0525 13.9044 13.1667 14.1792 13.1667 14.5V16.25H17.25C17.5708 16.25 17.8456 16.1359 18.0742 15.9076C18.3025 15.6789 18.4167 15.4042 18.4167 15.0833V9.83333C18.4167 9.66806 18.3607 9.52942 18.2487 9.41742C18.1371 9.30581 17.9986 9.25 17.8333 9.25C17.6681 9.25 17.5296 9.30581 17.418 9.41742C17.306 9.52942 17.25 9.66806 17.25 9.83333V10.4167H16.0833V6.33333C16.0833 6.16806 16.0273 6.02942 15.9153 5.91742C15.8037 5.80581 15.6653 5.75 15.5 5.75C15.3347 5.75 15.1963 5.80581 15.0847 5.91742C14.9727 6.02942 14.9167 6.16806 14.9167 6.33333V6.91667H13.75V6.33333C13.75 6.16806 13.6942 6.02942 13.5826 5.91742C13.4706 5.80581 13.3319 5.75 13.1667 5.75C13.0014 5.75 12.8629 5.80581 12.7513 5.91742C12.6393 6.02942 12.5833 6.16806 12.5833 6.33333V6.91667H11.4167V6.33333C11.4167 6.16806 11.3609 6.02942 11.2492 5.91742C11.1372 5.80581 10.9986 5.75 10.8333 5.75C10.6681 5.75 10.5296 5.80581 10.418 5.91742C10.306 6.02942 10.25 6.16806 10.25 6.33333V6.91667H9.08333V6.33333C9.08333 6.16806 9.02753 6.02942 8.91592 5.91742C8.80392 5.80581 8.66528 5.75 8.5 5.75C8.33472 5.75 8.19608 5.80581 8.08408 5.91742C7.97247 6.02942 7.91667 6.16806 7.91667 6.33333V10.4167H6.75V9.83333C6.75 9.66806 6.69419 9.52942 6.58258 9.41742C6.47058 9.30581 6.33194 9.25 6.16667 9.25C6.00139 9.25 5.86294 9.30581 5.75133 9.41742C5.63933 9.52942 5.58333 9.66806 5.58333 9.83333V15.0833C5.58333 15.4042 5.69767 15.6789 5.92633 15.9076ZM11.4167 11H10.25V9.25H11.4167V11ZM13.75 9.25V11H12.5833V9.25H13.75Z" fill="#5CBDC4"/>
</svg>
