<svg width="25" height="35" viewBox="0 0 25 35" fill="none" xmlns="http://www.w3.org/2000/svg">
<circle cx="12" cy="12" r="10" fill="white"/>
<path fill-rule="evenodd" clip-rule="evenodd" d="M3.18413 3.91306C5.08635 1.86862 6.8819 0.837509 9.6019 0.197509C11.113 -0.158047 14.0463 -0.0158261 15.6463 0.481952C17.6552 1.10417 19.0419 1.97528 20.713 3.66417C23.1308 6.09973 24.1441 8.55306 24.1619 12.0375C24.1797 14.3308 23.9308 15.3797 22.8819 17.5308C22.1175 19.1131 21.8864 19.3975 19.3797 21.8864C15.0597 26.1886 12.9263 29.8864 12.3041 34.1353C12.2697 34.3793 11.918 34.3783 11.8775 34.1353C11.1308 29.6553 9.12191 26.1886 4.81968 21.9042C1.88635 18.9886 1.22857 18.0108 0.428571 15.4153C-0.104762 13.7086 -0.140317 10.7575 0.321905 9.01529C0.83746 7.09529 1.79746 5.38862 3.18413 3.91306ZM17.67 17.8969C17.67 16.6717 16.1091 15.6256 13.9064 15.2172L11.835 18.6134L9.76357 15.2172C7.56086 15.6256 5.99999 16.6717 5.99999 17.8969V19.3299H17.67V17.8969ZM14.7525 10.7319V9.29894H8.9175V10.7319C8.9175 11.4921 9.22487 12.221 9.77201 12.7585C10.3191 13.296 11.0612 13.5979 11.835 13.5979C12.6088 13.5979 13.3508 13.296 13.898 12.7585C14.4451 12.221 14.7525 11.4921 14.7525 10.7319ZM9.21654 5.64479L8.9175 8.58244H14.7525L14.4535 5.64479C14.417 5.27938 14.1034 4.99994 13.7314 4.99994H9.94591C9.56664 4.99994 9.25301 5.27938 9.21654 5.64479ZM11.1056 5.71644H11.835V6.43294H12.5644V7.14944H11.835V7.86594H11.1056V7.14944H10.3762V6.43294H11.1056V5.71644Z" fill="#FF7D7F"/>
</svg>
