<svg width="25" height="35" viewBox="0 0 25 35" fill="none" xmlns="http://www.w3.org/2000/svg">
<circle cx="12" cy="12" r="10" fill="white"/>
<path fill-rule="evenodd" clip-rule="evenodd" d="M3.18413 3.91306C5.08635 1.86862 6.8819 0.837509 9.6019 0.197509C11.113 -0.158047 14.0463 -0.0158261 15.6463 0.481952C17.6552 1.10417 19.0419 1.97528 20.713 3.66417C23.1308 6.09973 24.1441 8.55306 24.1619 12.0375C24.1797 14.3308 23.9308 15.3797 22.8819 17.5308C22.1175 19.1131 21.8864 19.3975 19.3797 21.8864C15.0597 26.1886 12.9263 29.8864 12.3041 34.1353C12.2697 34.3793 11.918 34.3783 11.8775 34.1353C11.1308 29.6553 9.12191 26.1886 4.81968 21.9042C1.88635 18.9886 1.22857 18.0108 0.428571 15.4153C-0.104762 13.7086 -0.140317 10.7575 0.321905 9.01529C0.83746 7.09529 1.79746 5.38862 3.18413 3.91306ZM10.2219 16.312C10.1201 16.4133 9.99162 16.4639 9.83638 16.4639C9.68114 16.4639 9.55288 16.4133 9.45162 16.312C9.34988 16.2103 9.299 16.0818 9.299 15.9266V9.29894C9.299 9.09594 9.36779 8.92565 9.50536 8.78808C9.64245 8.65099 9.8125 8.58244 10.0155 8.58244H13.1502C13.2816 8.58244 13.4069 8.61516 13.5264 8.6806C13.6458 8.74652 13.7353 8.84516 13.795 8.97652L14.3145 10.0154H15.7475C15.9505 10.0154 16.1206 10.084 16.2577 10.2211C16.3952 10.3586 16.464 10.5289 16.464 10.7319V13.5979C16.464 13.801 16.3952 13.971 16.2577 14.1081C16.1206 14.2457 15.9505 14.3144 15.7475 14.3144H13.3293C13.198 14.3144 13.0726 14.2817 12.9532 14.2163C12.8337 14.1504 12.7442 14.0517 12.6845 13.9204L12.165 12.8814H10.3738V15.9266C10.3738 16.0818 10.3231 16.2103 10.2219 16.312ZM9.37065 18.7653C10.2424 19.1417 11.1738 19.3299 12.165 19.3299C13.1562 19.3299 14.0876 19.1417 14.9594 18.7653C15.8311 18.3894 16.5894 17.879 17.2342 17.2342C17.8791 16.5893 18.3895 15.831 18.7654 14.9593C19.1418 14.0876 19.33 13.1561 19.33 12.1649C19.33 11.1738 19.1418 10.2423 18.7654 9.3706C18.3895 8.49885 17.8791 7.74056 17.2342 7.09571C16.5894 6.45086 15.8311 5.94023 14.9594 5.56383C14.0876 5.18791 13.1562 4.99994 12.165 4.99994C11.1738 4.99994 10.2424 5.18791 9.37065 5.56383C8.49891 5.94023 7.74062 6.45086 7.09577 7.09571C6.45092 7.74056 5.94053 8.49885 5.56461 9.3706C5.18821 10.2423 5 11.1738 5 12.1649C5 13.1561 5.18821 14.0876 5.56461 14.9593C5.94053 15.831 6.45092 16.5893 7.09577 17.2342C7.74062 17.879 8.49891 18.3894 9.37065 18.7653Z" fill="#BAA4A8"/>
</svg>
