<svg width="25" height="35" viewBox="0 0 25 35" fill="none" xmlns="http://www.w3.org/2000/svg">
<circle cx="12" cy="13" r="10" fill="white"/>
<path d="M3.18413 4.25412C5.08635 2.20968 6.8819 1.17857 9.6019 0.538574C11.113 0.183018 14.0463 0.325238 15.6463 0.823017C17.6552 1.44523 19.0419 2.31634 20.713 4.00523C23.1308 6.44079 24.1441 8.89412 24.1619 12.3786C24.1797 14.6719 23.9308 15.7208 22.8819 17.8719C22.1175 19.4542 21.8864 19.7386 19.3797 22.2275C15.0597 26.5297 12.9263 30.2275 12.3041 34.4764C12.2697 34.7204 11.918 34.7194 11.8775 34.4764C11.1308 29.9964 9.12191 26.5297 4.81968 22.2453C1.88635 19.3297 1.22857 18.3519 0.428571 15.7564C-0.104762 14.0497 -0.140317 11.0986 0.321905 9.35635C0.83746 7.43635 1.79746 5.72968 3.18413 4.25412ZM5.33333 9.00773V15.6744H6.66667V9.00773H5.33333ZM17.3333 9.00773V15.6744H18.6667V9.00773H17.3333ZM7.33333 10.3411V17.0078H11.3333V13.0078H10V11.6744H11.3333V7.67439H10C9.26667 7.67439 8.63889 7.9355 8.11667 8.45773C7.59444 8.97995 7.33333 9.60773 7.33333 10.3411ZM12.6667 13.0078V17.0078H16.6667V10.3411C16.6667 9.60773 16.4056 8.97995 15.8833 8.45773C15.3611 7.9355 14.7333 7.67439 14 7.67439H12.6667V11.6744H14V13.0078H12.6667Z" fill="#5CBDC4"/>
</svg>
