<svg width="25" height="35" viewBox="0 0 25 35" fill="none" xmlns="http://www.w3.org/2000/svg">
<circle cx="12" cy="12" r="10" fill="white"/>
<path d="M3.18413 4.25413C5.08635 2.20969 6.8819 1.17857 9.6019 0.538574C11.113 0.183017 14.0463 0.325239 15.6463 0.823017C17.6552 1.44524 19.0419 2.31635 20.713 4.00524C23.1308 6.4408 24.1441 8.89413 24.1619 12.3786C24.1797 14.6719 23.9308 15.7208 22.8819 17.8719C22.1175 19.4542 21.8864 19.7386 19.3797 22.2275C15.0597 26.5297 12.9263 30.2275 12.3041 34.4764C12.2697 34.7204 11.918 34.7194 11.8775 34.4764C11.1308 29.9964 9.1219 26.5297 4.81968 22.2453C1.88635 19.3297 1.22857 18.3519 0.428571 15.7564C-0.104762 14.0497 -0.140318 11.0986 0.321905 9.35635C0.83746 7.43635 1.79746 5.72969 3.18413 4.25413ZM13.2618 9.18972C13.1984 9.28228 13.1667 9.3723 13.1667 9.4598C13.1667 9.6348 13.2227 9.76119 13.3347 9.83897C13.4463 9.91675 13.5896 9.92161 13.7646 9.85355C13.9882 9.77577 14.2215 9.71258 14.4646 9.66397C14.7076 9.61536 14.9556 9.59105 15.2083 9.59105C15.3639 9.59105 15.5171 9.59825 15.668 9.61264C15.8185 9.62741 15.9618 9.64939 16.0979 9.67855C16.2632 9.71744 16.3993 9.698 16.5063 9.62022C16.6132 9.54244 16.6667 9.42091 16.6667 9.25564C16.6667 9.15841 16.635 9.07091 16.5716 8.99314C16.5086 8.91536 16.4333 8.86675 16.3458 8.8473C16.1611 8.80841 15.9741 8.77672 15.7847 8.75222C15.5949 8.72811 15.4028 8.71605 15.2083 8.71605C14.8972 8.71605 14.6007 8.74036 14.3188 8.78897C14.0368 8.83758 13.7549 8.9105 13.4729 9.00772C13.3951 9.03689 13.3247 9.09755 13.2618 9.18972ZM13.2618 12.3981C13.1984 12.4906 13.1667 12.5807 13.1667 12.6682C13.1667 12.8432 13.2227 12.967 13.3347 13.0397C13.4463 13.1129 13.5896 13.1154 13.7646 13.0473C13.9882 12.9696 14.2215 12.9089 14.4646 12.8653C14.7076 12.8214 14.9556 12.7994 15.2083 12.7994C15.3639 12.7994 15.5171 12.8066 15.668 12.821C15.8185 12.8358 15.9618 12.8577 16.0979 12.8869C16.2632 12.9258 16.3993 12.9064 16.5063 12.8286C16.6132 12.7508 16.6667 12.6293 16.6667 12.464C16.6667 12.3668 16.635 12.2793 16.5716 12.2015C16.5086 12.1237 16.4333 12.0751 16.3458 12.0557C16.1611 12.0168 15.9741 11.9851 15.7847 11.9606C15.5949 11.9365 15.4028 11.9244 15.2083 11.9244C14.8972 11.9244 14.6007 11.9487 14.3188 11.9973C14.0368 12.0459 13.7549 12.1189 13.4729 12.2161C13.3951 12.2452 13.3247 12.3059 13.2618 12.3981ZM13.2618 10.7939C13.1984 10.8865 13.1667 10.9765 13.1667 11.064C13.1667 11.239 13.2227 11.3654 13.3347 11.4432C13.4463 11.5209 13.5896 11.5258 13.7646 11.4577C13.9882 11.38 14.2215 11.3168 14.4646 11.2682C14.7076 11.2196 14.9556 11.1952 15.2083 11.1952C15.3639 11.1952 15.5171 11.2024 15.668 11.2168C15.8185 11.2316 15.9618 11.2536 16.0979 11.2827C16.2632 11.3216 16.3993 11.3022 16.5063 11.2244C16.6132 11.1466 16.6667 11.0251 16.6667 10.8598C16.6667 10.7626 16.635 10.6751 16.5716 10.5973C16.5086 10.5196 16.4333 10.4709 16.3458 10.4515C16.1611 10.4126 15.9741 10.3809 15.7847 10.3564C15.5949 10.3323 15.4028 10.3202 15.2083 10.3202C14.8972 10.3202 14.6007 10.3446 14.3188 10.3932C14.0368 10.4418 13.7549 10.5147 13.4729 10.6119C13.3951 10.6411 13.3247 10.7017 13.2618 10.7939ZM13.8742 13.8272C13.4414 13.9295 13.0111 14.0827 12.5833 14.2869V8.54105C12.9819 8.30772 13.4049 8.13272 13.8521 8.01605C14.2993 7.89939 14.7514 7.84105 15.2083 7.84105C15.5583 7.84105 15.906 7.87508 16.2513 7.94314C16.5963 8.01119 16.9292 8.11327 17.25 8.24939V14.0244C16.9097 13.9077 16.572 13.8202 16.2367 13.7619C15.9011 13.7036 15.5583 13.6744 15.2083 13.6744C14.7514 13.6744 14.3067 13.7254 13.8742 13.8272ZM11.6138 15.6507C11.7352 15.6846 11.8639 15.7015 12 15.7015C12.1361 15.7015 12.265 15.6846 12.3868 15.6507C12.5081 15.6165 12.6222 15.5702 12.7292 15.5119C13.1083 15.2883 13.5069 15.1207 13.925 15.0091C14.3431 14.8971 14.7708 14.8411 15.2083 14.8411C15.6167 14.8411 16.0176 14.8946 16.4112 15.0015C16.8051 15.1084 17.1819 15.2591 17.5417 15.4536C17.7458 15.5605 17.9428 15.5557 18.1326 15.439C18.322 15.3223 18.4167 15.1522 18.4167 14.9286V7.89939C18.4167 7.79244 18.39 7.69036 18.3368 7.59314C18.2831 7.49591 18.2028 7.423 18.0958 7.37439C17.6486 7.14105 17.1819 6.96605 16.6958 6.84939C16.2097 6.73272 15.7139 6.67439 15.2083 6.67439C14.6444 6.67439 14.0928 6.7473 13.5534 6.89314C13.0136 7.03897 12.4958 7.25772 12 7.54939C11.5042 7.25772 10.9866 7.03897 10.4472 6.89314C9.90739 6.7473 9.35556 6.67439 8.79167 6.67439C8.28611 6.67439 7.79028 6.73272 7.30417 6.84939C6.81806 6.96605 6.35139 7.14105 5.90417 7.37439C5.79722 7.423 5.71711 7.49591 5.66383 7.59314C5.61017 7.69036 5.58333 7.79244 5.58333 7.89939V14.9286C5.58333 15.1522 5.67822 15.3223 5.868 15.439C6.05739 15.5557 6.25417 15.5605 6.45833 15.4536C6.81806 15.2591 7.19489 15.1084 7.58883 15.0015C7.98239 14.8946 8.38333 14.8411 8.79167 14.8411C9.22917 14.8411 9.65694 14.8971 10.075 15.0091C10.4931 15.1207 10.8917 15.2883 11.2708 15.5119C11.3778 15.5702 11.4921 15.6165 11.6138 15.6507Z" fill="#98A5B3"/>
</svg>
