<svg width="25" height="35" viewBox="0 0 25 35" fill="none" xmlns="http://www.w3.org/2000/svg">
<circle cx="12" cy="12" r="10" fill="white"/>
<path d="M3.18413 3.91306C5.08635 1.86862 6.88191 0.837509 9.6019 0.197509C11.113 -0.158047 14.0463 -0.0158261 15.6463 0.481952C17.6552 1.10417 19.0419 1.97529 20.713 3.66418C23.1308 6.09973 24.1441 8.55307 24.1619 12.0375C24.1797 14.3308 23.9308 15.3797 22.8819 17.5308C22.1175 19.1131 21.8864 19.3975 19.3797 21.8864C15.0597 26.1886 12.9263 29.8864 12.3041 34.1353C12.2697 34.3793 11.918 34.3783 11.8775 34.1353C11.1308 29.6553 9.12191 26.1886 4.81968 21.9042C1.88635 18.9886 1.22857 18.0108 0.428572 15.4153C-0.104762 13.7086 -0.140317 10.7575 0.321905 9.01529C0.837461 7.09529 1.79746 5.38862 3.18413 3.91306ZM5.75133 15.4987C5.86294 15.6107 6.00139 15.6667 6.16667 15.6667C6.33194 15.6667 6.47058 15.6107 6.58258 15.4987C6.69419 15.3871 6.75 15.2486 6.75 15.0833V13.9167H17.25V15.0833C17.25 15.2486 17.306 15.3871 17.418 15.4987C17.5296 15.6107 17.6681 15.6667 17.8333 15.6667C17.9986 15.6667 18.1371 15.6107 18.2487 15.4987C18.3607 15.3871 18.4167 15.2486 18.4167 15.0833V10.4167C18.4167 9.775 18.1882 9.22569 17.7313 8.76875C17.2743 8.3118 16.725 8.08333 16.0833 8.08333H12.5833C12.2625 8.08333 11.9879 8.19747 11.7597 8.42575C11.531 8.65442 11.4167 8.92917 11.4167 9.25V12.75H6.75V7.5C6.75 7.33472 6.69419 7.19608 6.58258 7.08408C6.47058 6.97247 6.33194 6.91667 6.16667 6.91667C6.00139 6.91667 5.86294 6.97247 5.75133 7.08408C5.63933 7.19608 5.58333 7.33472 5.58333 7.5V15.0833C5.58333 15.2486 5.63933 15.3871 5.75133 15.4987ZM7.84375 11.6562C8.18403 11.9965 8.59722 12.1667 9.08333 12.1667C9.56944 12.1667 9.98264 11.9965 10.3229 11.6562C10.6632 11.316 10.8333 10.9028 10.8333 10.4167C10.8333 9.93055 10.6632 9.51736 10.3229 9.17708C9.98264 8.8368 9.56944 8.66667 9.08333 8.66667C8.59722 8.66667 8.18403 8.8368 7.84375 9.17708C7.50347 9.51736 7.33333 9.93055 7.33333 10.4167C7.33333 10.9028 7.50347 11.316 7.84375 11.6562Z" fill="#FC77B3"/>
</svg>
