<svg width="25" height="35" viewBox="0 0 25 35" fill="none" xmlns="http://www.w3.org/2000/svg">
<circle cx="12" cy="12" r="10" fill="white"/>
<path fill-rule="evenodd" clip-rule="evenodd" d="M9.6019 0.197509C6.88191 0.837509 5.08635 1.86862 3.18413 3.91306C1.79746 5.38862 0.83746 7.09529 0.321905 9.01529C-0.140317 10.7575 -0.104762 13.7086 0.428571 15.4153C1.22857 18.0108 1.88635 18.9886 4.81968 21.9042C9.12191 26.1886 11.1308 29.6553 11.8775 34.1353C11.918 34.3783 12.2697 34.3793 12.3041 34.1353C12.9263 29.8864 15.0597 26.1886 19.3797 21.8864C21.8864 19.3975 22.1175 19.1131 22.8819 17.5308C23.9308 15.3797 24.1797 14.3308 24.1619 12.0375C24.1441 8.55306 23.1308 6.09973 20.713 3.66417C19.0419 1.97528 17.6552 1.10417 15.6463 0.481952C14.0463 -0.0158261 11.113 -0.158047 9.6019 0.197509ZM8.0625 6.31248C8.0625 6.07186 8.25937 5.87498 8.5 5.87498H15.5C15.7406 5.87498 15.9375 6.07186 15.9375 6.31248C15.9375 6.55311 15.7406 6.74998 15.5 6.74998H15.4956C15.4987 6.78061 15.5 6.81123 15.5 6.84186V9.37498H17.6875C17.8035 9.37498 17.9148 9.42108 17.9969 9.50313C18.0789 9.58517 18.125 9.69645 18.125 9.81248C18.125 9.92852 18.0789 10.0398 17.9969 10.1218C17.9148 10.2039 17.8035 10.25 17.6875 10.25V18.125H15.5V18.1294H13.3169V16.1081C13.3169 15.7756 13.0456 15.5044 12.7131 15.5044H11.2869C10.9544 15.5044 10.6875 15.7712 10.6875 16.1037V18.1294H8.9375V17.2544H8.98563C9.2 17.2544 9.375 17.0794 9.37938 16.8606V15.8937C9.37938 15.675 9.2 15.5 8.98563 15.5H8.01875C7.8 15.5 7.625 15.6794 7.625 15.8937V16.8606C7.625 17.0794 7.80438 17.2544 8.01875 17.2544H8.0625V18.125H6.3125V10.25C6.19647 10.25 6.08519 10.2039 6.00314 10.1218C5.92109 10.0398 5.875 9.92852 5.875 9.81248C5.875 9.69645 5.92109 9.58517 6.00314 9.50313C6.08519 9.42108 6.19647 9.37498 6.3125 9.37498H8.5V6.84186C8.5 6.81123 8.50131 6.78061 8.50438 6.74998H8.5C8.25937 6.74998 8.0625 6.55748 8.0625 6.31248ZM13.5488 8.50436C13.6625 8.50436 13.75 8.41248 13.7544 8.29873V7.82623C13.7544 7.71248 13.6625 7.62498 13.5531 7.62498H10.4513C10.3375 7.62498 10.25 7.71686 10.25 7.82623V8.30311C10.25 8.41686 10.3419 8.50436 10.4513 8.50436H13.5488ZM13.5488 8.94186H10.4513C10.3419 8.94186 10.25 9.02936 10.25 9.14311V9.61561C10.25 9.72498 10.3375 9.81686 10.4513 9.81686H11.3612C11.4706 9.81686 11.5625 9.90436 11.5625 10.0181V10.4906C11.5625 10.6 11.65 10.6919 11.7638 10.6919H12.2363C12.3456 10.6919 12.4375 10.6044 12.4375 10.4906V10.0137C12.4375 9.90436 12.525 9.81248 12.6387 9.81248H13.5488C13.6581 9.81248 13.75 9.72498 13.75 9.61123V9.14311C13.75 9.03373 13.6625 8.94186 13.5488 8.94186ZM11.3481 12.8794C11.4663 12.8794 11.5625 12.7831 11.5669 12.6606V11.7812C11.5669 11.6587 11.4663 11.5625 11.3481 11.5625H10.0312C9.90875 11.5625 9.8125 11.6631 9.8125 11.7812V12.6606C9.8125 12.7831 9.91313 12.8794 10.0312 12.8794H11.3481ZM14.1875 12.6606V11.7812C14.1875 11.6631 14.0913 11.5625 13.9687 11.5625H12.6519C12.5337 11.5625 12.4331 11.6587 12.4331 11.7812V12.6606C12.4331 12.7787 12.5294 12.8794 12.6519 12.8794H13.9687C14.0913 12.8794 14.1875 12.7831 14.1875 12.6606ZM11.5625 14.4106V13.5312C11.5625 13.4131 11.4663 13.3125 11.3437 13.3125H10.0269C9.90875 13.3125 9.80812 13.4087 9.80812 13.5312V14.4106C9.80812 14.5287 9.90438 14.6294 10.0269 14.6294H11.3437C11.4663 14.6294 11.5625 14.5331 11.5625 14.4106ZM14.1875 14.4106V13.5312C14.1875 13.4131 14.0913 13.3125 13.9687 13.3125H12.6519C12.5337 13.3125 12.4331 13.4087 12.4331 13.5312V14.4106C12.4331 14.5287 12.5294 14.6294 12.6519 14.6294H13.9687C14.0913 14.6294 14.1875 14.5331 14.1875 14.4106ZM7.01688 14.1919H7.79562C7.94438 14.1919 8.0625 14.0737 8.0625 13.925V11.8337C8.0625 11.685 7.94438 11.5669 7.79562 11.5669H7.01688C6.86812 11.5669 6.75 11.685 6.75 11.8337V13.925C6.75 14.0737 6.86812 14.1919 7.01688 14.1919ZM16.2044 14.1919H16.9831C17.1319 14.1919 17.25 14.0737 17.25 13.925V11.8337C17.25 11.685 17.1319 11.5669 16.9831 11.5669H16.2044C16.0556 11.5669 15.9375 11.685 15.9375 11.8337V13.925C15.9375 14.0737 16.0556 14.1919 16.2044 14.1919ZM8.28125 16.3794C8.15875 16.3794 8.0625 16.2831 8.0625 16.1606C8.0625 16.0381 8.15875 15.9419 8.28125 15.9419H8.71875C8.84125 15.9419 8.9375 16.0381 8.9375 16.1606C8.9375 16.2787 8.84125 16.3794 8.71875 16.3794H8.28125Z" fill="#BAA4A8"/>
</svg>
