<svg width="25" height="35" viewBox="0 0 25 35" fill="none" xmlns="http://www.w3.org/2000/svg">
<circle cx="12" cy="12" r="10" fill="white"/>
<path d="M3.18413 4.25412C5.08635 2.20968 6.8819 1.17857 9.6019 0.538574C11.113 0.183018 14.0463 0.325238 15.6463 0.823017C17.6552 1.44523 19.0419 2.31635 20.713 4.00524C23.1308 6.44079 24.1441 8.89413 24.1619 12.3786C24.1797 14.6719 23.9308 15.7208 22.8819 17.8719C22.1175 19.4542 21.8864 19.7386 19.3797 22.2275C15.0597 26.5297 12.9263 30.2275 12.3041 34.4764C12.2697 34.7204 11.918 34.7194 11.8775 34.4764C11.1308 29.9964 9.1219 26.5297 4.81968 22.2453C1.88635 19.3297 1.22857 18.3519 0.428571 15.7564C-0.104762 14.0497 -0.140318 11.0986 0.321905 9.35635C0.83746 7.43635 1.79746 5.72968 3.18413 4.25412ZM13.1667 11.3994C13.05 11.3994 12.9382 11.3605 12.8313 11.2828L9.08333 8.67231V7.25773L13.1667 10.0869L17.25 7.25773V8.67231L13.5021 11.2828C13.3951 11.3605 13.2833 11.3994 13.1667 11.3994ZM5.92604 16.2484C6.15451 16.4769 6.42917 16.5911 6.75 16.5911H15.7917C15.9569 16.5911 16.0955 16.5352 16.2073 16.4234C16.3191 16.3116 16.375 16.173 16.375 16.0078C16.375 15.8425 16.3191 15.7039 16.2073 15.5921C16.0955 15.4803 15.9569 15.4244 15.7917 15.4244H6.75V8.71606C6.75 8.55078 6.6941 8.41224 6.58229 8.30044C6.47049 8.18863 6.33194 8.13273 6.16667 8.13273C6.00139 8.13273 5.86285 8.18863 5.75104 8.30044C5.63924 8.41224 5.58333 8.55078 5.58333 8.71606V15.4244C5.58333 15.7453 5.69757 16.0199 5.92604 16.2484ZM8.25937 13.9151C8.48785 14.1435 8.7625 14.2578 9.08333 14.2578H17.25C17.5708 14.2578 17.8455 14.1435 18.074 13.9151C18.3024 13.6866 18.4167 13.4119 18.4167 13.0911V7.25773C18.4167 6.93689 18.3024 6.66224 18.074 6.43377C17.8455 6.2053 17.5708 6.09106 17.25 6.09106H9.08333C8.7625 6.09106 8.48785 6.2053 8.25937 6.43377C8.0309 6.66224 7.91667 6.93689 7.91667 7.25773V13.0911C7.91667 13.4119 8.0309 13.6866 8.25937 13.9151Z" fill="#5CBDC4"/>
</svg>
