<svg width="25" height="35" viewBox="0 0 25 35" fill="none" xmlns="http://www.w3.org/2000/svg">
<circle cx="12" cy="12" r="10" fill="white"/>
<path fill-rule="evenodd" clip-rule="evenodd" d="M3.18413 3.91306C5.08635 1.86862 6.8819 0.837509 9.6019 0.197509C11.113 -0.158047 14.0463 -0.0158261 15.6463 0.481952C17.6552 1.10417 19.0419 1.97528 20.713 3.66417C23.1308 6.09973 24.1441 8.55306 24.1619 12.0375C24.1797 14.3308 23.9308 15.3797 22.8819 17.5308C22.1175 19.1131 21.8864 19.3975 19.3797 21.8864C15.0597 26.1886 12.9263 29.8864 12.3041 34.1353C12.2697 34.3793 11.918 34.3783 11.8775 34.1353C11.1308 29.6553 9.1219 26.1886 4.81968 21.9042C1.88635 18.9886 1.22857 18.0108 0.428571 15.4153C-0.104762 13.7086 -0.140317 10.7575 0.321905 9.01529C0.83746 7.09529 1.79746 5.38862 3.18413 3.91306ZM6.28352 18.0667C6.28352 18.2556 6.34463 18.4111 6.46685 18.5333C6.60019 18.6667 6.75574 18.7333 6.93352 18.7333C7.1113 18.7333 7.26685 18.6667 7.40019 18.5333L12.0002 13.9667L16.6002 18.5333C16.7335 18.6667 16.8891 18.7333 17.0669 18.7333C17.2446 18.7333 17.4002 18.6667 17.5335 18.5333C17.6557 18.4111 17.7169 18.2556 17.7169 18.0667C17.7169 17.8778 17.6557 17.7222 17.5335 17.6L12.9335 13L13.7669 12.1667C14.2335 12.3667 14.7613 12.3944 15.3502 12.25C15.9391 12.1056 16.4669 11.7889 16.9335 11.3C17.5224 10.7111 17.8669 10.0556 17.9669 9.33333C18.0669 8.61111 17.8891 8.02222 17.4335 7.56667C16.978 7.11111 16.3891 6.93333 15.6669 7.03333C14.9446 7.13333 14.2891 7.47778 13.7002 8.06667C13.2113 8.53333 12.8946 9.06111 12.7502 9.65C12.6057 10.2389 12.6335 10.7667 12.8335 11.2333L6.46685 17.6C6.34463 17.7222 6.28352 17.8778 6.28352 18.0667ZM6.90019 11.3L8.90019 13.3L11.0335 11.1667L7.48352 7.58333C7.31685 7.40555 7.12241 7.32778 6.90019 7.35C6.67797 7.37222 6.5113 7.47778 6.40019 7.66667C6.06685 8.25555 5.94174 8.88333 6.02485 9.55C6.10841 10.2167 6.40019 10.8 6.90019 11.3Z" fill="#FAA264"/>
</svg>
