<svg width="25" height="35" viewBox="0 0 25 35" fill="none" xmlns="http://www.w3.org/2000/svg">
<circle cx="12" cy="13" r="10" fill="white"/>
<path fill-rule="evenodd" clip-rule="evenodd" d="M3.18413 3.91306C5.08635 1.86862 6.8819 0.837509 9.6019 0.197509C11.113 -0.158047 14.0463 -0.0158261 15.6463 0.481952C17.6552 1.10417 19.0419 1.97528 20.713 3.66417C23.1308 6.09973 24.1441 8.55306 24.1619 12.0375C24.1797 14.3308 23.9308 15.3797 22.8819 17.5308C22.1175 19.1131 21.8864 19.3975 19.3797 21.8864C15.0597 26.1886 12.9263 29.8864 12.3041 34.1353C12.2697 34.3793 11.918 34.3783 11.8775 34.1353C11.1308 29.6553 9.12191 26.1886 4.81968 21.9042C1.88635 18.9886 1.22857 18.0108 0.428571 15.4153C-0.104762 13.7086 -0.140317 10.7575 0.321905 9.01529C0.83746 7.09529 1.79746 5.38862 3.18413 3.91306ZM6.42885 18.245C6.71428 18.5283 7.05757 18.67 7.45873 18.67H16.2112C16.6124 18.67 16.9559 18.5283 17.2418 18.245C17.5273 17.9612 17.67 17.6202 17.67 17.222V10.706C17.67 10.4767 17.6184 10.2595 17.5154 10.0544C17.4118 9.84923 17.2688 9.68029 17.0865 9.54756L12.7102 6.28956C12.4549 6.09649 12.1632 5.99996 11.835 5.99996C11.5068 5.99996 11.215 6.09649 10.9597 6.28956L6.58348 9.54756C6.40114 9.68029 6.25842 9.84923 6.15534 10.0544C6.05176 10.2595 5.99998 10.4767 5.99998 10.706V17.222C5.99998 17.6202 6.14294 17.9612 6.42885 18.245ZM14.7525 16.136V15.412H8.91748V16.136C8.91748 16.2325 8.88101 16.317 8.80807 16.3894C8.73514 16.4618 8.65004 16.498 8.55279 16.498C8.45554 16.498 8.37045 16.4618 8.29751 16.3894C8.22457 16.317 8.1881 16.2325 8.1881 16.136V11.792C8.1881 11.6954 8.22457 11.611 8.29751 11.5386C8.37045 11.4662 8.45554 11.43 8.55279 11.43C8.65004 11.43 8.73514 11.4662 8.80807 11.5386C8.88101 11.611 8.91748 11.6954 8.91748 11.792V14.688H11.4703V12.516C11.4703 12.4194 11.5068 12.335 11.5797 12.2626C11.6526 12.1902 11.7377 12.154 11.835 12.154H14.0231C14.4243 12.154 14.7678 12.2956 15.0537 12.5789C15.3391 12.8628 15.4819 13.2038 15.4819 13.602V16.136C15.4819 16.2325 15.4454 16.317 15.3724 16.3894C15.2995 16.4618 15.2144 16.498 15.1172 16.498C15.0199 16.498 14.9348 16.4618 14.8619 16.3894C14.7889 16.317 14.7525 16.2325 14.7525 16.136ZM10.8408 14.0631C10.6648 14.2384 10.4492 14.326 10.1939 14.326C9.9386 14.326 9.72295 14.2384 9.54693 14.0631C9.37042 13.8884 9.28217 13.6744 9.28217 13.421C9.28217 13.1676 9.37042 12.9535 9.54693 12.7788C9.72295 12.6036 9.9386 12.516 10.1939 12.516C10.4492 12.516 10.6648 12.6036 10.8408 12.7788C11.0173 12.9535 11.1056 13.1676 11.1056 13.421C11.1056 13.6744 11.0173 13.8884 10.8408 14.0631Z" fill="#5CBDC4"/>
</svg>
