<svg width="25" height="35" viewBox="0 0 25 35" fill="none" xmlns="http://www.w3.org/2000/svg">
<ellipse cx="12.7991" cy="12.0007" rx="9.99884" ry="10.0006" fill="white"/>
<path d="M3.9843 3.9133C5.8863 1.86874 7.68165 0.83756 10.4013 0.197521C11.9123 -0.158056 14.8452 -0.0158269 16.4451 0.481981C18.4537 1.10424 19.8403 1.9754 21.5112 3.66439C23.9287 6.1001 24.9419 8.55358 24.9597 12.0382C24.9774 14.3317 24.7286 15.3806 23.6798 17.5319C22.9154 19.1143 22.6843 19.3987 20.1779 21.8877C15.8584 26.1902 13.7254 29.8882 13.1032 34.1374C13.0689 34.3814 12.7171 34.3804 12.6766 34.1374C11.9301 29.6571 9.92139 26.1902 5.61966 21.9055C2.68667 18.9897 2.02896 18.0119 1.22906 15.4162C0.695787 13.7094 0.660236 10.7582 1.1224 9.01583C1.6379 7.09571 2.59779 5.38895 3.9843 3.9133ZM9.64251 15.9086C9.87076 16.1368 10.1453 16.251 10.4661 16.251H14.549C14.8697 16.251 15.1444 16.1368 15.3731 15.9086C15.6014 15.6798 15.7154 15.405 15.7154 15.0842H16.882C17.2028 15.0842 17.4775 14.9701 17.7061 14.7418C17.9344 14.5131 18.0486 14.2384 18.0486 13.9174V10.4172C18.0486 10.0964 17.9344 9.82166 17.7061 9.59298C17.4775 9.36469 17.2028 9.25054 16.882 9.25054H15.9779C16.0849 9.07553 16.1652 8.8908 16.2188 8.69635C16.2721 8.50189 16.2988 8.2977 16.2988 8.08381C16.2988 7.4421 16.0703 6.89276 15.6134 6.43579C15.1565 5.97882 14.6073 5.75033 13.9656 5.75033C13.8588 5.75033 13.7616 5.75753 13.6741 5.77192C13.5866 5.78669 13.4942 5.8038 13.397 5.82325C13.1539 5.62879 12.8841 5.47323 12.5874 5.35656C12.2911 5.23989 11.9729 5.18155 11.6326 5.18155C11.0785 5.18155 10.5804 5.32739 10.1383 5.61907C9.69578 5.91076 9.36274 6.28995 9.13915 6.75664C8.67254 6.91221 8.29109 7.18931 7.99478 7.58794C7.6981 7.98657 7.54975 8.44355 7.54975 8.95886C7.54975 9.50334 7.71501 9.97975 8.04553 10.3881C8.37605 10.7965 8.79406 11.0687 9.29955 11.2048V15.0842C9.29955 15.405 9.41387 15.6798 9.64251 15.9086ZM9.05925 9.78257C8.8306 9.55428 8.71629 9.27971 8.71629 8.95886C8.71629 8.70607 8.7892 8.47991 8.93501 8.2804C9.08083 8.08128 9.27525 7.94282 9.51827 7.86505L9.98489 7.70462L10.189 7.26709C10.3251 6.98512 10.522 6.7615 10.7799 6.59622C11.0373 6.43093 11.3216 6.34829 11.6326 6.34829C11.8659 6.34829 12.0678 6.38951 12.238 6.47196C12.4079 6.5548 12.5464 6.63997 12.6533 6.72748L13.1053 7.10666L13.3532 7.01158C13.5185 6.94857 13.7227 6.91707 13.9656 6.91707C14.2865 6.91707 14.5612 7.03141 14.7899 7.26009C15.0181 7.48838 15.1322 7.76295 15.1322 8.08381H13.3824C12.8867 8.08381 12.4857 8.19309 12.1798 8.41166C11.8733 8.63061 11.5986 8.87136 11.3556 9.13387C11.1223 9.38666 10.8963 9.61515 10.6778 9.81933C10.4589 10.0235 10.1939 10.1256 9.88281 10.1256C9.56202 10.1256 9.2875 10.0112 9.05925 9.78257ZM16.882 13.9174H15.7154V10.4172H16.882V13.9174Z" fill="#D97200"/>
</svg>
