<svg width="25" height="35" viewBox="0 0 25 35" fill="none" xmlns="http://www.w3.org/2000/svg">
<ellipse cx="12.6391" cy="12.0007" rx="9.99885" ry="10.0006" fill="white"/>
<path d="M3.82427 3.9133C5.72627 1.86874 7.52162 0.83756 10.2413 0.197521C11.7522 -0.158056 14.6852 -0.0158269 16.285 0.481981C18.2937 1.10424 19.6802 1.9754 21.3511 3.66439C23.7686 6.1001 24.7818 8.55358 24.7996 12.0382C24.8174 14.3317 24.5686 15.3806 23.5198 17.5319C22.7555 19.1143 22.5244 19.3987 20.018 21.8877C15.6985 26.1902 13.5653 29.8882 12.9432 34.1374C12.9088 34.3814 12.5571 34.3804 12.5166 34.1374C11.77 29.6571 9.76137 26.1902 5.45963 21.9055C2.52664 18.9897 1.86893 18.0119 1.06903 15.4162C0.535753 13.7094 0.500202 10.7582 0.962371 9.01583C1.47787 7.09571 2.43776 5.38895 3.82427 3.9133ZM9.13953 15.3905V15.0842H16.1387V15.3759C16.1387 15.6189 16.2239 15.8255 16.3942 15.9955C16.5641 16.1658 16.7706 16.251 17.0136 16.251C17.2664 16.251 17.4754 16.1683 17.6407 16.0031C17.8059 15.8378 17.8885 15.6335 17.8885 15.3905V11.0007L16.6637 7.50044C16.6054 7.32542 16.501 7.18445 16.3505 7.0775C16.1996 6.97054 16.0318 6.91707 15.8471 6.91707H9.43116C9.24646 6.91707 9.07886 6.97054 8.92838 7.0775C8.77751 7.18445 8.67291 7.32542 8.61459 7.50044L7.38973 11.0007V15.3759C7.38973 15.6189 7.47489 15.8255 7.6452 15.9955C7.81512 16.1658 8.0216 16.251 8.26463 16.251C8.51738 16.251 8.72639 16.1683 8.89164 16.0031C9.0569 15.8378 9.13953 15.6335 9.13953 15.3905ZM16.2554 9.83392H9.02287L9.6353 8.08381H15.643L16.2554 9.83392ZM10.6339 13.0786C10.4639 13.2489 10.2575 13.3341 10.0144 13.3341C9.7714 13.3341 9.56492 13.2489 9.395 13.0786C9.22469 12.9087 9.13953 12.7022 9.13953 12.4591C9.13953 12.216 9.22469 12.0095 9.395 11.8395C9.56492 11.6692 9.7714 11.584 10.0144 11.584C10.2575 11.584 10.4639 11.6692 10.6339 11.8395C10.8041 12.0095 10.8893 12.216 10.8893 12.4591C10.8893 12.7022 10.8041 12.9087 10.6339 13.0786ZM15.8833 13.0786C15.7134 13.2489 15.5069 13.3341 15.2638 13.3341C15.0208 13.3341 14.8143 13.2489 14.6444 13.0786C14.4741 12.9087 14.3889 12.7022 14.3889 12.4591C14.3889 12.216 14.4741 12.0095 14.6444 11.8395C14.8143 11.6692 15.0208 11.584 15.2638 11.584C15.5069 11.584 15.7134 11.6692 15.8833 11.8395C16.0535 12.0095 16.1387 12.216 16.1387 12.4591C16.1387 12.7022 16.0535 12.9087 15.8833 13.0786Z" fill="#1F6FC4"/>
</svg>
