<svg width="25" height="35" viewBox="0 0 25 35" fill="none" xmlns="http://www.w3.org/2000/svg">
<ellipse cx="12.8391" cy="12.0007" rx="9.99885" ry="10.0006" fill="white"/>
<path d="M4.0241 3.9133C5.9261 1.86873 7.72144 0.83756 10.4411 0.197521C11.9521 -0.158056 14.885 -0.0158271 16.4848 0.481981C18.4935 1.10424 19.88 1.97541 21.551 3.6644C23.9685 6.1001 24.9817 8.55359 24.9995 12.0382C25.0173 14.3317 24.7684 15.3806 23.7196 17.5319C22.9553 19.1143 22.7242 19.3987 20.2178 21.8877C15.8983 26.1902 13.7651 29.8882 13.143 34.1374C13.1086 34.3814 12.757 34.3804 12.7165 34.1374C11.9699 29.6571 9.96119 26.1902 5.65946 21.9055C2.72647 18.9897 2.06876 18.0119 1.26885 15.4162C0.735582 13.7094 0.700031 10.7581 1.1622 9.01583C1.6777 7.09572 2.63759 5.38894 4.0241 3.9133ZM6.76598 15.9086C6.99424 16.1369 7.26877 16.251 7.58956 16.251H11.6724V14.5009C11.6724 14.1801 11.7868 13.9052 12.0154 13.6766C12.2436 13.4483 12.5182 13.3341 12.839 13.3341C13.1597 13.3341 13.4345 13.4483 13.6631 13.6766C13.8913 13.9052 14.0055 14.1801 14.0055 14.5009V16.251H18.0884C18.4091 16.251 18.6839 16.1369 18.9125 15.9086C19.1407 15.6798 19.2549 15.4051 19.2549 15.0842V9.83392C19.2549 9.66864 19.1989 9.53 19.0869 9.41799C18.9754 9.30637 18.8369 9.25056 18.6716 9.25056C18.5064 9.25056 18.3679 9.30637 18.2563 9.41799C18.1443 9.53 18.0884 9.66864 18.0884 9.83392V10.4173H16.9218V6.33371C16.9218 6.16843 16.8658 6.02978 16.7538 5.91778C16.6422 5.80616 16.5038 5.75035 16.3386 5.75035C16.1733 5.75035 16.0349 5.80616 15.9233 5.91778C15.8113 6.02978 15.7553 6.16843 15.7553 6.33371V6.91709H14.5888V6.33371C14.5888 6.16843 14.533 6.02978 14.4214 5.91778C14.3094 5.80616 14.1707 5.75035 14.0055 5.75035C13.8402 5.75035 13.7018 5.80616 13.5902 5.91778C13.4782 6.02978 13.4222 6.16843 13.4222 6.33371V6.91709H12.2557V6.33371C12.2557 6.16843 12.1999 6.02978 12.0882 5.91778C11.9763 5.80616 11.8377 5.75035 11.6724 5.75035C11.5072 5.75035 11.3687 5.80616 11.2571 5.91778C11.1452 6.02978 11.0892 6.16843 11.0892 6.33371V6.91709H9.92262V6.33371C9.92262 6.16843 9.86683 6.02978 9.75523 5.91778C9.64324 5.80616 9.50462 5.75035 9.33936 5.75035C9.1741 5.75035 9.03547 5.80616 8.92348 5.91778C8.81189 6.02978 8.75609 6.16843 8.75609 6.33371V10.4173H7.58956V9.83392C7.58956 9.66864 7.53375 9.53 7.42216 9.41799C7.31017 9.30637 7.17155 9.25056 7.0063 9.25056C6.84103 9.25056 6.7026 9.30637 6.591 9.41799C6.47902 9.53 6.42302 9.66864 6.42302 9.83392V15.0842C6.42302 15.4051 6.53735 15.6798 6.76598 15.9086ZM12.2557 11.0007H11.0892V9.25056H12.2557V11.0007ZM14.5888 9.25056V11.0007H13.4222V9.25056H14.5888Z" fill="#299091"/>
</svg>
