<svg width="25" height="35" viewBox="0 0 25 35" fill="none" xmlns="http://www.w3.org/2000/svg">
<ellipse cx="12.6789" cy="12.0007" rx="9.99885" ry="10.0006" fill="white"/>
<path d="M3.86406 3.9133C5.76606 1.86873 7.56142 0.83756 10.2811 0.197521C11.792 -0.158056 14.725 -0.0158271 16.3248 0.481981C18.3335 1.10424 19.72 1.97541 21.3909 3.6644C23.8084 6.1001 24.8216 8.55359 24.8394 12.0382C24.8572 14.3317 24.6084 15.3806 23.5596 17.5319C22.7953 19.1143 22.5642 19.3987 20.0578 21.8877C15.7383 26.1902 13.6051 29.8882 12.983 34.1374C12.9486 34.3814 12.5969 34.3804 12.5564 34.1374C11.8098 29.6571 9.80116 26.1902 5.49943 21.9055C2.56643 18.9897 1.90873 18.0119 1.10882 15.4162C0.575548 13.7094 0.539997 10.7581 1.00217 9.01583C1.51766 7.09572 2.47755 5.38894 3.86406 3.9133ZM13.8455 5.16698H11.5124C9.58178 5.16698 8.59606 6.73624 8.59606 8.66719V14.8859C9.83258 14.2851 10.8883 13.9175 12.6789 13.9175C14.4695 13.9175 15.5253 14.2851 16.7618 14.8859V8.66719C16.7618 6.73624 15.7761 5.16698 13.8455 5.16698ZM10.3459 9.54225V8.66719H15.012V9.54225H10.3459ZM10.9291 11.8757V11.0007H14.4287V11.8757H10.9291ZM7.42952 16.4318V16.8343H17.9283V16.3968C13.3963 13.2408 8.98102 15.4459 7.42952 16.4318Z" fill="#299091"/>
</svg>
