<svg width="25" height="35" viewBox="0 0 25 35" fill="none" xmlns="http://www.w3.org/2000/svg">
<ellipse cx="12.1989" cy="12.0007" rx="9.99885" ry="10.0006" fill="white"/>
<path d="M3.38396 3.9133C5.28596 1.86873 7.08131 0.83756 9.80099 0.197521C11.3119 -0.158056 14.2449 -0.015827 15.8447 0.481981C17.8534 1.10424 19.2399 1.9754 20.9108 3.66439C23.3283 6.1001 24.3415 8.55358 24.3593 12.0382C24.3771 14.3317 24.1283 15.3806 23.0795 17.5319C22.3152 19.1143 22.0841 19.3987 19.5777 21.8877C15.2582 26.1902 13.125 29.8882 12.5029 34.1374C12.4685 34.3814 12.1168 34.3804 12.0763 34.1374C11.3297 29.6571 9.32106 26.1902 5.01932 21.9055C2.08633 18.9897 1.42862 18.0119 0.628717 15.4162C0.0954452 13.7094 0.0598943 10.7582 0.522063 9.01584C1.03756 7.09572 1.99745 5.38895 3.38396 3.9133ZM8.69922 12.7508H7.53268C7.2233 12.7508 6.92659 12.8737 6.70783 13.0925C6.48905 13.3113 6.36616 13.608 6.36616 13.9175V15.0842H5.78289V16.8343H18.6148V15.0842H18.0314V13.9175C18.0314 13.608 17.9086 13.3113 17.6898 13.0925C17.471 12.8737 17.1743 12.7508 16.865 12.7508H15.6984C15.3891 12.7508 15.0923 12.8737 14.8735 13.0925C14.6548 13.3113 14.5319 13.608 14.5319 13.9175V15.0842H13.9486V13.9175C13.9486 13.608 13.8257 13.3113 13.607 13.0925C13.3882 12.8737 13.0915 12.7508 12.7821 12.7508H11.6156C11.3061 12.7508 11.0095 12.8737 10.7907 13.0925C10.5719 13.3113 10.449 13.608 10.449 13.9175V15.0842H9.86576V13.9175C9.86576 13.608 9.74285 13.3113 9.52409 13.0925C9.30532 12.8737 9.00861 12.7508 8.69922 12.7508ZM13.9486 9.83392L11.6156 8.08382V11.584L13.9486 9.83392ZM16.865 5.16698H7.53268C7.2233 5.16698 6.92659 5.2899 6.70783 5.50871C6.48905 5.72752 6.36616 6.02427 6.36616 6.33371V11.899C6.71028 11.6949 7.1069 11.584 7.53268 11.584V6.33371H16.865V11.584C17.2907 11.584 17.6874 11.6949 18.0314 11.899V6.33371C18.0314 6.02427 17.9086 5.72752 17.6898 5.50871C17.471 5.2899 17.1743 5.16698 16.865 5.16698Z" fill="#299091"/>
</svg>
