<svg width="25" height="35" viewBox="0 0 25 35" fill="none" xmlns="http://www.w3.org/2000/svg">
<ellipse cx="12.6784" cy="12.0007" rx="9.99885" ry="10.0006" fill="white"/>
<path d="M3.86357 3.9133C5.76558 1.86873 7.56093 0.83756 10.2806 0.197521C11.7915 -0.158056 14.7245 -0.0158271 16.3243 0.481981C18.333 1.10424 19.7195 1.97541 21.3904 3.6644C23.808 6.1001 24.8211 8.55359 24.8389 12.0382C24.8567 14.3317 24.6079 15.3806 23.5591 17.5319C22.7948 19.1143 22.5637 19.3987 20.0573 21.8877C15.7378 26.1902 13.6046 29.8882 12.9825 34.1374C12.9481 34.3814 12.5964 34.3804 12.5559 34.1374C11.8093 29.6571 9.80067 26.1902 5.49894 21.9055C2.56594 18.9897 1.90824 18.0119 1.10833 15.4162C0.575059 13.7094 0.539508 10.7581 1.00168 9.01583C1.51717 7.09572 2.47706 5.38894 3.86357 3.9133ZM7.01375 16.6663C7.12535 16.7783 7.26377 16.8343 7.42904 16.8343H17.9278C18.0931 16.8343 18.2315 16.7783 18.3431 16.6663C18.4551 16.5547 18.5111 16.4163 18.5111 16.251C18.5111 16.0857 18.4551 15.9473 18.3431 15.8357C18.2315 15.7236 18.0931 15.6676 17.9278 15.6676H17.3446V10.4173H17.7237C17.9472 10.4173 18.1345 10.342 18.2854 10.1915C18.4359 10.0406 18.5111 9.85337 18.5111 9.62975C18.5111 9.52279 18.4794 9.41332 18.4161 9.30131C18.3531 9.18969 18.2827 9.10472 18.2049 9.04638L13.3492 5.63367C13.2423 5.55589 13.133 5.50241 13.0214 5.47325C12.9094 5.44408 12.7951 5.4295 12.6784 5.4295C12.5617 5.4295 12.4477 5.44408 12.3361 5.47325C12.2241 5.50241 12.1146 5.55589 12.0077 5.63367L7.15199 9.04638C7.07422 9.10472 7.00383 9.18736 6.94084 9.29431C6.87746 9.40126 6.84577 9.50821 6.84577 9.61516C6.84577 9.83879 6.9212 10.0284 7.07208 10.1839C7.22256 10.3395 7.4096 10.4173 7.63318 10.4173H8.0123V15.6676H7.42904C7.26377 15.6676 7.12535 15.7236 7.01375 15.8357C6.90177 15.9473 6.84577 16.0857 6.84577 16.251C6.84577 16.4163 6.90177 16.5547 7.01375 16.6663ZM11.3445 14.3329C11.2325 14.4449 11.0939 14.5009 10.9286 14.5009C10.7634 14.5009 10.6249 14.4449 10.5134 14.3329C10.4014 14.2213 10.3454 14.0828 10.3454 13.9175V11.1757C10.3454 10.9618 10.4183 10.782 10.5641 10.636C10.7099 10.4902 10.8897 10.4173 11.1036 10.4173C11.2203 10.4173 11.3395 10.4513 11.4612 10.5194C11.5825 10.5874 11.6723 10.6652 11.7306 10.7527L12.6784 12.1674L13.6262 10.7527C13.6846 10.6652 13.7746 10.5874 13.8963 10.5194C14.0176 10.4513 14.1318 10.4173 14.2387 10.4173C14.4525 10.4173 14.6349 10.4902 14.7858 10.636C14.9363 10.782 15.0115 10.9618 15.0115 11.1757V13.9175C15.0115 14.0828 14.9557 14.2213 14.8441 14.3329C14.7321 14.4449 14.5935 14.5009 14.4282 14.5009C14.263 14.5009 14.1246 14.4449 14.013 14.3329C13.901 14.2213 13.845 14.0828 13.845 13.9175V12.1674L13.1596 13.1883C13.1013 13.2758 13.0309 13.3413 12.9485 13.3849C12.8657 13.4288 12.7756 13.4508 12.6784 13.4508C12.5909 13.4508 12.5035 13.4288 12.416 13.3849C12.3285 13.3413 12.2556 13.2758 12.1973 13.1883L11.5119 12.1674V13.9175C11.5119 14.0828 11.4561 14.2213 11.3445 14.3329Z" fill="#299091"/>
</svg>
