<svg width="25" height="35" viewBox="0 0 25 35" fill="none" xmlns="http://www.w3.org/2000/svg">
<ellipse cx="12.5186" cy="11.0006" rx="9.99885" ry="10.0006" fill="white"/>
<path fill-rule="evenodd" clip-rule="evenodd" d="M3.70354 3.9133C5.60554 1.86873 7.40089 0.837559 10.1206 0.197521C11.6315 -0.158056 14.5645 -0.015827 16.1643 0.481981C18.173 1.10424 19.5595 1.9754 21.2304 3.66439C23.6479 6.1001 24.6611 8.55358 24.6789 12.0382C24.6967 14.3317 24.4478 15.3807 23.3991 17.5319C22.6347 19.1142 22.4036 19.3987 19.8972 21.8877C15.5777 26.1902 13.4446 29.8882 12.8225 34.1373C12.7881 34.3813 12.4364 34.3804 12.3959 34.1373C11.6493 29.6571 9.64063 26.1902 5.3389 21.9055C2.40591 18.9898 1.74821 18.0119 0.948298 15.4162C0.415025 13.7094 0.379474 10.7582 0.841643 9.01583C1.35714 7.09571 2.31703 5.38894 3.70354 3.9133ZM15.1405 16.4358C15.3128 16.3558 15.6731 16.14 16.2196 15.7884C16.1844 15.7954 16.1494 15.8024 16.1146 15.8093C13.8618 16.2582 12.3426 16.561 10.4596 14.6741C9.43851 13.6526 8.92848 12.428 8.92848 11.0003C8.92848 9.56182 9.44147 8.33429 10.4655 7.31866C12.3714 5.43322 13.921 5.74337 16.2185 6.20321L16.2196 6.20343C15.0647 5.40167 13.8624 5.0003 12.6159 5.0003C10.9204 5.0003 9.48085 5.58429 8.29536 6.74835C7.11086 7.91339 6.5191 9.3294 6.5191 11.0003C6.5191 12.6605 7.10791 14.0735 8.28749 15.2435C9.46707 16.4134 10.8918 17.0003 12.5657 17.0003C13.4696 17.0003 14.3291 16.8118 15.1405 16.4358ZM15.6702 10.3118H13.9126L15.3354 11.3323L14.7939 12.9974L16.2196 11.9739L17.6335 12.9974L17.0949 11.3323L18.5177 10.3118H16.7582L16.2196 8.6546L15.6702 10.3118Z" fill="#8F8D8D"/>
</svg>
