<svg width="25" height="35" viewBox="0 0 25 35" fill="none" xmlns="http://www.w3.org/2000/svg">
<ellipse cx="12.5587" cy="11.0007" rx="9.99885" ry="10.0006" fill="white"/>
<path d="M3.74382 3.9133C5.64583 1.86873 7.44117 0.83756 10.1609 0.197521C11.6718 -0.158056 14.6047 -0.0158271 16.2046 0.481981C18.2132 1.10424 19.5998 1.97541 21.2707 3.6644C23.6882 6.1001 24.7014 8.55359 24.7192 12.0382C24.737 14.3317 24.4881 15.3806 23.4393 17.5319C22.675 19.1143 22.4439 19.3987 19.9375 21.8877C15.618 26.1902 13.4849 29.8882 12.8627 34.1374C12.8284 34.3814 12.4767 34.3804 12.4362 34.1374C11.6896 29.6571 9.68091 26.1902 5.37919 21.9055C2.44619 18.9897 1.78849 18.0119 0.988581 15.4162C0.455309 13.7094 0.419757 10.7581 0.881927 9.01583C1.39742 7.09572 2.35731 5.38894 3.74382 3.9133ZM13.7252 11.059C13.6086 11.059 13.4968 11.0201 13.3899 10.9424L9.64235 8.33175V6.91709L13.7252 9.74642L17.8081 6.91709V8.33175L14.0606 10.9424C13.9536 11.0201 13.8418 11.059 13.7252 11.059ZM6.48542 15.9083C6.71386 16.1368 6.98849 16.251 7.30928 16.251H16.3499C16.5151 16.251 16.6537 16.1951 16.7655 16.0833C16.8773 15.9715 16.9332 15.8329 16.9332 15.6676C16.9332 15.5023 16.8773 15.3637 16.7655 15.2519C16.6537 15.1401 16.5151 15.0842 16.3499 15.0842H7.30928V8.37551C7.30928 8.21022 7.25339 8.07167 7.14159 7.95986C7.02981 7.84804 6.89127 7.79214 6.72602 7.79214C6.56076 7.79214 6.42224 7.84804 6.31044 7.95986C6.19865 8.07167 6.14275 8.21022 6.14275 8.37551V15.0842C6.14275 15.4051 6.25698 15.6797 6.48542 15.9083ZM8.81848 13.5748C9.04694 13.8032 9.32155 13.9175 9.64235 13.9175H17.8081C18.1288 13.9175 18.4035 13.8032 18.632 13.5748C18.8604 13.3463 18.9746 13.0716 18.9746 12.7508V6.91709C18.9746 6.59623 18.8604 6.32156 18.632 6.09308C18.4035 5.86459 18.1288 5.75035 17.8081 5.75035H9.64235C9.32155 5.75035 9.04694 5.86459 8.81848 6.09308C8.59004 6.32156 8.47582 6.59623 8.47582 6.91709V12.7508C8.47582 13.0716 8.59004 13.3463 8.81848 13.5748Z" fill="#299091"/>
</svg>
