<svg width="25" height="35" viewBox="0 0 25 35" fill="none" xmlns="http://www.w3.org/2000/svg">
<ellipse cx="12.1188" cy="13.0006" rx="9.99885" ry="10.0006" fill="white"/>
<path fill-rule="evenodd" clip-rule="evenodd" d="M3.30376 3.9133C5.20576 1.86873 7.00111 0.837559 9.7208 0.197521C11.2317 -0.158056 14.1647 -0.015827 15.7645 0.481981C17.7732 1.10424 19.1597 1.9754 20.8306 3.66439C23.2481 6.1001 24.2613 8.55358 24.2791 12.0382C24.2969 14.3317 24.048 15.3807 22.9993 17.5319C22.2349 19.1142 22.0038 19.3987 19.4975 21.8877C15.1779 26.1902 13.0449 29.8882 12.4227 34.1373C12.3883 34.3813 12.0366 34.3804 11.9961 34.1373C11.2495 29.6571 9.24085 26.1902 4.93912 21.9055C2.00613 18.9898 1.34843 18.0119 0.548517 15.4162C0.0152452 13.7094 -0.0203062 10.7582 0.441863 9.01583C0.957359 7.09571 1.91725 5.38894 3.30376 3.9133ZM6.54839 18.245C6.83382 18.5283 7.17711 18.67 7.57827 18.67H16.3308C16.7319 18.67 17.0755 18.5283 17.3614 18.245C17.6468 17.9612 17.7895 17.6202 17.7895 17.222V10.706C17.7895 10.4767 17.738 10.2595 17.6349 10.0544C17.5313 9.84922 17.3884 9.68029 17.206 9.54756L12.8298 6.28956C12.5745 6.09649 12.2827 5.99996 11.9545 5.99996C11.6263 5.99996 11.3345 6.09649 11.0793 6.28956L6.70302 9.54756C6.52067 9.68029 6.37796 9.84922 6.27487 10.0544C6.1713 10.2595 6.11952 10.4767 6.11952 10.706V17.222C6.11952 17.6202 6.26247 17.9612 6.54839 18.245ZM14.872 16.136V15.412H9.03701V16.136C9.03701 16.2325 9.00055 16.317 8.92761 16.3894C8.85467 16.4618 8.76958 16.498 8.67233 16.498C8.57508 16.498 8.48998 16.4618 8.41705 16.3894C8.34411 16.317 8.30764 16.2325 8.30764 16.136V11.792C8.30764 11.6954 8.34411 11.611 8.41705 11.5386C8.48998 11.4662 8.57508 11.43 8.67233 11.43C8.76958 11.43 8.85467 11.4662 8.92761 11.5386C9.00055 11.611 9.03701 11.6954 9.03701 11.792V14.688H11.5898V12.516C11.5898 12.4194 11.6263 12.335 11.6992 12.2626C11.7722 12.1902 11.8573 12.154 11.9545 12.154H14.1426C14.5438 12.154 14.8873 12.2956 15.1732 12.5789C15.4587 12.8628 15.6014 13.2038 15.6014 13.602V16.136C15.6014 16.2325 15.5649 16.317 15.492 16.3894C15.419 16.4618 15.334 16.498 15.2367 16.498C15.1395 16.498 15.0544 16.4618 14.9814 16.3894C14.9085 16.317 14.872 16.2325 14.872 16.136ZM10.9604 14.0631C10.7844 14.2384 10.5687 14.326 10.3134 14.326C10.0581 14.326 9.84249 14.2384 9.66647 14.0631C9.48996 13.8884 9.4017 13.6744 9.4017 13.421C9.4017 13.1676 9.48996 12.9535 9.66647 12.7788C9.84249 12.6036 10.0581 12.516 10.3134 12.516C10.5687 12.516 10.7844 12.6036 10.9604 12.7788C11.1369 12.9535 11.2251 13.1676 11.2251 13.421C11.2251 13.6744 11.1369 13.8884 10.9604 14.0631Z" fill="#299091"/>
</svg>
