<svg width="25" height="35" viewBox="0 0 25 35" fill="none" xmlns="http://www.w3.org/2000/svg">
<circle cx="12.79" cy="13" r="10" fill="white"/>
<path d="M3.97417 3.91306C5.87639 1.86862 7.67195 0.837509 10.3919 0.197509C11.903 -0.158047 14.8363 -0.015826 16.4363 0.481952C18.4452 1.10417 19.8319 1.97528 21.503 3.66417C23.9208 6.09973 24.9341 8.55306 24.9519 12.0375C24.9697 14.3308 24.7208 15.3797 23.6719 17.5308C22.9075 19.1131 22.6764 19.3975 20.1697 21.8864C15.8497 26.1886 13.7163 29.8864 13.0941 34.1353C13.0597 34.3793 12.708 34.3783 12.6675 34.1353C11.9208 29.6553 9.91195 26.1886 5.60972 21.9042C2.67639 18.9886 2.01861 18.0108 1.21861 15.4153C0.685277 13.7086 0.649722 10.7575 1.11194 9.01529C1.6275 7.09529 2.5875 5.38862 3.97417 3.91306ZM8.7487 17.708C8.94292 17.9027 9.17892 18 9.4567 18C9.73448 18 9.97048 17.9027 10.1647 17.708C10.3594 17.5138 10.4567 17.2778 10.4567 17V16.6667H15.79V17C15.79 17.2778 15.8873 17.5138 16.082 17.708C16.2762 17.9027 16.5122 18 16.79 18C17.0678 18 17.3038 17.9027 17.498 17.708C17.6927 17.5138 17.79 17.2778 17.79 17V15.9667C17.99 15.7444 18.1511 15.4971 18.2733 15.2247C18.3956 14.9527 18.4567 14.6556 18.4567 14.3333V8C18.4567 7.04444 18.0456 6.36111 17.2233 5.95C16.4011 5.53889 15.0344 5.33333 13.1233 5.33333C11.2789 5.33333 9.92892 5.54711 9.07337 5.97466C8.21781 6.40266 7.79004 7.07778 7.79004 8V14.3333C7.79004 14.6556 7.85115 14.9527 7.97337 15.2247C8.09559 15.4971 8.2567 15.7444 8.4567 15.9667V17C8.4567 17.2778 8.55404 17.5138 8.7487 17.708ZM17.1233 8.66667V10.6667H9.12337V8.66667H17.1233ZM11.498 14.3747C11.3038 14.5693 11.0678 14.6667 10.79 14.6667C10.5123 14.6667 10.2763 14.5693 10.082 14.3747C9.88737 14.1804 9.79004 13.9444 9.79004 13.6667C9.79004 13.3889 9.88737 13.1529 10.082 12.9587C10.2763 12.764 10.5123 12.6667 10.79 12.6667C11.0678 12.6667 11.3038 12.764 11.498 12.9587C11.6927 13.1529 11.79 13.3889 11.79 13.6667C11.79 13.9444 11.6927 14.1804 11.498 14.3747ZM16.1647 14.3747C15.9704 14.5693 15.7344 14.6667 15.4567 14.6667C15.1789 14.6667 14.9429 14.5693 14.7487 14.3747C14.554 14.1804 14.4567 13.9444 14.4567 13.6667C14.4567 13.3889 14.554 13.1529 14.7487 12.9587C14.9429 12.764 15.1789 12.6667 15.4567 12.6667C15.7344 12.6667 15.9704 12.764 16.1647 12.9587C16.3593 13.1529 16.4567 13.3889 16.4567 13.6667C16.4567 13.9444 16.3593 14.1804 16.1647 14.3747Z" fill="#929EA1"/>
</svg>
