<svg width="25" height="35" viewBox="0 0 25 35" fill="none" xmlns="http://www.w3.org/2000/svg">
<circle cx="12.4646" cy="12" r="10" fill="white"/>
<path d="M3.64873 3.91306C5.55095 1.86862 7.3465 0.837509 10.0665 0.197509C11.5776 -0.158047 14.5109 -0.0158261 16.1109 0.481952C18.1198 1.10417 19.5065 1.97529 21.1776 3.66418C23.5954 6.09973 24.6087 8.55307 24.6265 12.0375C24.6443 14.3308 24.3954 15.3797 23.3465 17.5308C22.5821 19.1131 22.351 19.3975 19.8443 21.8864C15.5243 26.1886 13.3909 29.8864 12.7687 34.1353C12.7343 34.3793 12.3826 34.3783 12.3421 34.1353C11.5954 29.6553 9.5865 26.1886 5.28428 21.9042C2.35095 18.9886 1.69317 18.0108 0.893171 15.4153C0.359838 13.7086 0.324282 10.7575 0.786505 9.01529C1.30206 7.09529 2.26206 5.38862 3.64873 3.91306ZM6.63127 14.5V16.25C6.63127 16.4153 6.68727 16.5537 6.79927 16.6653C6.91088 16.7773 7.04932 16.8333 7.2146 16.8333H17.7146C17.8799 16.8333 18.0183 16.7773 18.1299 16.6653C18.2419 16.5537 18.2979 16.4153 18.2979 16.25V14.5C18.2979 14.3736 18.2785 14.2521 18.2396 14.1354C18.2007 14.0187 18.1424 13.9069 18.0646 13.8L13.1938 7.23749L13.8646 6.33332C13.9618 6.19721 14.0007 6.05137 13.9813 5.89582C13.9618 5.74026 13.884 5.61387 13.7479 5.51665C13.6118 5.41943 13.466 5.38054 13.3104 5.39999C13.1549 5.41943 13.0285 5.49721 12.9313 5.63332L12.4646 6.2604L11.9979 5.63332C11.9007 5.49721 11.7743 5.41943 11.6188 5.39999C11.4632 5.38054 11.3174 5.41943 11.1813 5.51665C11.1132 5.56526 11.0597 5.6236 11.0208 5.69165C10.982 5.75971 10.9577 5.8301 10.9479 5.90282C10.9382 5.97593 10.9431 6.04885 10.9625 6.12157C10.982 6.19468 11.016 6.26526 11.0646 6.33332L11.7354 7.23749L6.8646 13.8C6.78682 13.9069 6.72849 14.0187 6.6896 14.1354C6.65071 14.2521 6.63127 14.3736 6.63127 14.5ZM12.4646 12.5896L14.6667 15.6667H10.2625L12.4646 12.5896Z" fill="#96A685"/>
</svg>
