<svg width="25" height="35" viewBox="0 0 25 35" fill="none" xmlns="http://www.w3.org/2000/svg">
<circle cx="12.3717" cy="13" r="10" fill="white"/>
<path d="M3.55583 3.91306C5.45805 1.86862 7.25361 0.837509 9.9736 0.197509C11.4847 -0.158047 14.418 -0.015826 16.018 0.481952C18.0269 1.10417 19.4136 1.97528 21.0847 3.66417C23.5025 6.09973 24.5158 8.55306 24.5336 12.0375C24.5514 14.3308 24.3025 15.3797 23.2536 17.5308C22.4892 19.1131 22.2581 19.3975 19.7514 21.8864C15.4314 26.1886 13.298 29.8864 12.6758 34.1353C12.6414 34.3793 12.2897 34.3783 12.2492 34.1353C11.5025 29.6553 9.49361 26.1886 5.19138 21.9042C2.25805 18.9886 1.60027 18.0108 0.800275 15.4153C0.266942 13.7086 0.231387 10.7575 0.693609 9.01529C1.20916 7.09529 2.16916 5.38862 3.55583 3.91306ZM10.629 9.84875V6.02729H8.3717V15.9729H10.629V11.811H14.3327V15.9727H16.5748V6.02729H14.3325V9.84875H10.629Z" fill="#9E8888"/>
</svg>
