<svg width="25" height="35" viewBox="0 0 25 35" fill="none" xmlns="http://www.w3.org/2000/svg">
<circle cx="12" cy="11.9999" r="10" fill="white"/>
<path fill-rule="evenodd" clip-rule="evenodd" d="M3.18413 3.913C5.08635 1.86856 6.8819 0.837448 9.60191 0.197448C11.113 -0.158108 14.0463 -0.0158871 15.6463 0.481891C17.6552 1.10411 19.0419 1.97522 20.713 3.66411C23.1308 6.09967 24.1441 8.553 24.1619 12.0374C24.1797 14.3308 23.9308 15.3797 22.8819 17.5308C22.1175 19.113 21.8864 19.3974 19.3797 21.8863C15.0597 26.1886 12.9263 29.8863 12.3041 34.1352C12.2697 34.3792 11.918 34.3783 11.8775 34.1352C11.1308 29.6552 9.1219 26.1886 4.81968 21.9041C1.88635 18.9886 1.22857 18.0108 0.428571 15.4152C-0.104762 13.7086 -0.140317 10.7574 0.321905 9.01523C0.83746 7.09523 1.79746 5.38856 3.18413 3.913ZM6.17068 12.0233L6.14016 12.1056C6.12705 12.14 6.12085 12.1766 6.1219 12.2134C6.12295 12.2502 6.13125 12.2864 6.1463 12.32C6.16136 12.3536 6.18288 12.3838 6.20965 12.4091C6.23641 12.4343 6.26789 12.454 6.30228 12.4671L6.30256 12.4674C6.37192 12.4938 6.44893 12.4916 6.51666 12.4612C6.58438 12.4309 6.6373 12.3749 6.66376 12.3056L6.69624 12.2182C6.76792 12.0244 6.84212 11.824 6.97624 11.7436C7.06276 11.6915 7.17644 11.661 7.3002 11.6358C7.26184 11.7708 7.24 11.92 7.24 12.0886V12.7978C7.24 13.1485 7.44505 13.4908 7.65254 13.8371C7.86499 14.1918 8.08 14.5507 8.08 14.9272V15.637C8.08 16.2416 7.91898 16.47 7.71481 16.7597C7.55946 16.9801 7.37913 17.236 7.22572 17.7199H7.93552L9.48 14.9199V17.7199H10.04V14.2177L10.74 13.5079C11.4498 13.5079 11.44 14.2177 11.44 14.2177V17.7199H12.28V14.5722L12.9472 15.6138L13.6142 17.7199H14.324L13.2701 13.2844C13.6803 13.0344 13.6802 12.5978 13.68 12.1159C13.68 12.1067 13.68 12.0975 13.68 12.0883V9.9586L16.4862 6.05428L17.4869 6.3704C17.6994 6.4362 17.8797 6.40904 17.8797 6.2318C17.8797 5.94042 17.721 5.8351 17.5961 5.75215C17.5689 5.73411 17.5433 5.71713 17.5213 5.69952L15.7472 4.27992C14.3274 6.40904 13.0648 7.83256 11.4918 9.24824C10.8866 9.79322 10.0794 10.0435 9.33111 10.2755C8.72224 10.4643 8.15233 10.641 7.76192 10.9546L7.74932 10.9588L7.6698 10.9868C7.56866 11.0148 7.46601 11.037 7.36236 11.0534C7.14564 11.092 6.8998 11.136 6.6884 11.2626C6.38563 11.4438 6.26702 11.7636 6.17139 12.0214L6.17068 12.0233Z" fill="#96A685"/>
</svg>
