<svg width="24" height="34" viewBox="0 0 24 34" fill="none" xmlns="http://www.w3.org/2000/svg">
<ellipse cx="12.1972" cy="11.7669" rx="9.664" ry="9.80571" fill="white"/>
<path d="M3.67749 3.83704C5.51579 1.83232 7.25101 0.821237 9.87962 0.193672C11.3399 -0.154976 14.1747 -0.0155185 15.7209 0.472588C17.6623 1.08272 19.0024 1.93691 20.6174 3.59298C22.9539 5.98122 23.9332 8.38689 23.9504 11.8036C23.9676 14.0524 23.7271 15.0809 22.7134 17.1902C21.9747 18.7418 21.7514 19.0206 19.3289 21.4612C15.154 25.6798 13.0923 29.3058 12.491 33.4721C12.4578 33.7114 12.1179 33.7104 12.0788 33.4721C11.3571 29.0791 9.41575 25.6798 5.25808 21.4786C2.42331 18.6197 1.78763 17.6609 1.01451 15.1158C0.4991 13.4423 0.464739 10.5485 0.91143 8.84013C1.40966 6.95743 2.33741 5.28393 3.67749 3.83704ZM17.8344 13.6462H6.55981V15.9343H17.8344V13.6462ZM10.5059 7.92628H8.95567C8.27919 7.92628 7.71546 8.49827 7.71546 9.07027L7.40541 13.0743H16.9888L16.707 9.07027C16.5943 8.49827 16.0306 7.92628 15.4668 7.92628H11.6334V7.35427H13.3246V5.63827H8.81474V7.35427H10.5059V7.92628ZM15.5795 10.2142H12.7608V9.07027H15.5795V10.2142ZM8.81474 9.64227V9.07027H9.94221V9.64227H8.81474ZM10.5059 9.64227V9.07027H11.6334V9.64227H10.5059ZM8.81474 10.7863V10.2142H9.94221V10.7863H8.81474ZM10.5059 10.7863V10.2142H11.6334V10.7863H10.5059ZM8.81474 11.9302V11.3583H9.94221V11.9302H8.81474ZM10.5059 11.9302V11.3583H11.6334V11.9302H10.5059ZM9.37847 6.78227V6.21028H12.7608V6.78227H9.37847Z" fill="#299091"/>
</svg>
