<svg width="25" height="36" viewBox="0 0 25 36" fill="none" xmlns="http://www.w3.org/2000/svg">
<path d="M9.6019 0.197506C6.8819 0.837506 5.08635 1.86862 3.18413 3.91306C1.79746 5.38862 0.83746 7.09528 0.321905 9.01528C-0.140317 10.7575 -0.104762 13.7086 0.428571 15.4153C1.22857 18.0108 1.88635 18.9886 4.81968 21.9042C9.1219 26.1886 11.1308 29.6553 11.8775 34.1353V34.1353C11.918 34.3783 12.2697 34.3793 12.3041 34.1353V34.1353C12.9263 29.8864 15.0597 26.1886 19.3797 21.8864C21.8864 19.3975 22.1175 19.1131 22.8819 17.5308C23.9308 15.3797 24.1797 14.3308 24.1619 12.0375C24.1441 8.55306 23.1308 6.09973 20.713 3.66417C19.0419 1.97528 17.6552 1.10417 15.6463 0.481949C14.0463 -0.015829 11.113 -0.15805 9.6019 0.197506Z" fill="#54585C"/>
<g clip-path="url(#clip0_444_4268)">
<path d="M15.8582 4.42656C15.6422 4.48398 15.3578 4.64258 15.202 4.79297C14.5621 5.40547 14.5484 6.41992 15.1719 7.03516C15.4809 7.33867 15.8445 7.48359 16.2984 7.47812C16.7277 7.47539 17.0613 7.3332 17.373 7.02148C18.1906 6.20391 17.8488 4.79844 16.7441 4.44844C16.5008 4.37187 16.1016 4.36094 15.8582 4.42656Z" fill="#BAA4A8"/>
<path d="M6.99609 5.82383C6.86758 5.85938 6.75547 5.90039 6.74453 5.91133C6.72812 5.925 7.42265 8.53906 7.69609 9.49063L7.73711 9.63281L9.2875 9.62734L10.8379 9.61914V9.33203V9.04492L9.51445 9.03125L8.19101 9.01758L7.75351 7.4043C7.51015 6.51563 7.29961 5.78281 7.28594 5.77188C7.25039 5.74727 7.27773 5.7418 6.99609 5.82383Z" fill="#BAA4A8"/>
<path d="M16.1234 7.56016C15.8855 7.5875 15.7078 7.65586 15.3906 7.8418C15.2484 7.92656 15.0434 8.03594 14.9367 8.08789C14.3105 8.3832 13.4301 8.44336 12.3281 8.26289C11.8523 8.18633 11.7238 8.18906 11.5379 8.28476C11.1387 8.48984 11.0348 9.03125 11.3355 9.36211C11.4668 9.50703 11.5953 9.56992 11.8578 9.61914C12.8039 9.79687 13.8785 9.81875 14.5812 9.67109C14.6852 9.64922 14.7754 9.63555 14.7781 9.64102C14.7973 9.65742 14.5676 11.6945 14.543 11.7574C14.5184 11.8148 14.4965 11.8203 14.3406 11.8203C14.1629 11.8203 13.8812 11.8504 13.5586 11.9051C12.8094 12.0336 12.3172 12.3098 12.1094 12.7227C11.8387 13.2559 11.4559 14.4371 10.9992 16.1406C10.816 16.8242 10.8297 17.0512 11.0648 17.3191C11.207 17.4832 11.3766 17.5488 11.6445 17.5488C11.9125 17.5488 12.0273 17.4996 12.1969 17.3246C12.3281 17.1906 12.3527 17.125 12.5332 16.4633C12.823 15.4105 13.2004 14.2566 13.4055 13.8055C13.5094 13.5785 13.5777 13.5184 13.8184 13.4445C14.1301 13.3516 14.4691 13.3242 15.4645 13.316C16.3176 13.3078 16.4625 13.2996 16.5937 13.2586C17.0531 13.1082 17.2855 12.8484 17.3566 12.4082C17.373 12.3016 17.4687 11.4895 17.5672 10.6035C17.7723 8.77969 17.775 8.64023 17.6437 8.36133C17.5453 8.15351 17.2418 7.84453 17.0176 7.72695C16.7387 7.58203 16.4297 7.52187 16.1234 7.56016Z" fill="#BAA4A8"/>
<path d="M18.032 9.17344C18.0238 9.22266 17.9746 9.90352 17.9199 10.6855C17.8187 12.1594 17.7996 12.3234 17.7148 12.6051C17.5699 13.0781 17.2664 13.398 16.8152 13.5484C16.6457 13.6059 16.5664 13.6086 15.6367 13.625L14.6387 13.6387L14.6305 14.109L14.625 14.582H15.3359H16.0469V15.5227V16.4633L15.6996 16.4742C15.377 16.4824 15.3359 16.4879 15.1937 16.5617C15.0078 16.6547 14.8219 16.8242 14.7262 16.991C14.6469 17.125 14.5703 17.3902 14.5703 17.527V17.6172H14.9094H15.2457L15.2648 17.5133C15.273 17.4531 15.3059 17.3738 15.3387 17.3328C15.459 17.1797 15.4672 17.1797 16.5445 17.1797C17.4578 17.1797 17.5426 17.1852 17.6191 17.2289C17.7039 17.2809 17.7832 17.4094 17.8105 17.5434L17.8242 17.6172H18.1523C18.3301 17.6172 18.4832 17.6063 18.4914 17.5926C18.5187 17.5516 18.4504 17.2234 18.3875 17.084C18.2918 16.8762 18.0758 16.6547 17.8734 16.5617C17.7176 16.4906 17.6684 16.4824 17.3512 16.4742L17.0039 16.4633L17.0094 15.4762L17.0176 14.4863L17.1953 14.4672C18.0785 14.3688 18.5762 13.6414 18.7676 12.1594C18.8113 11.8039 19 9.44141 19 9.22266V9.08594H18.5215H18.0457L18.032 9.17344Z" fill="#BAA4A8"/>
<path d="M4.99999 10.248V10.6445H5.30077H5.60155V14.1035V17.5625H8.13085H10.6601V14.1035V10.6445H11.3984H12.1367V10.248V9.85156H8.56835H4.99999V10.248Z" fill="#BAA4A8"/>
</g>
<defs>
<clipPath id="clip0_444_4268">
<rect width="14" height="14" fill="white" transform="translate(5 4)"/>
</clipPath>
</defs>
</svg>
