<svg width="25" height="35" viewBox="0 0 25 35" fill="none" xmlns="http://www.w3.org/2000/svg">
<circle cx="12.0001" cy="12" r="10" fill="white"/>
<path fill-rule="evenodd" clip-rule="evenodd" d="M3.18419 3.91303C5.08641 1.86859 6.88197 0.837478 9.60197 0.197478C11.1131 -0.158077 14.0464 -0.0158566 15.6464 0.481921C17.6553 1.10414 19.042 1.97525 20.7131 3.66414C23.1309 6.0997 24.1442 8.55303 24.162 12.0375C24.1797 14.3308 23.9309 15.3797 22.882 17.5308C22.1175 19.113 21.8864 19.3975 19.3797 21.8864C15.0597 26.1886 12.9264 29.8864 12.3042 34.1353C12.2698 34.3793 11.918 34.3783 11.8775 34.1353C11.1309 29.6553 9.12197 26.1886 4.81974 21.9041C1.88641 18.9886 1.22863 18.0108 0.428632 15.4153C-0.104701 13.7086 -0.140256 10.7575 0.321966 9.01526C0.837521 7.09526 1.79752 5.38859 3.18419 3.91303ZM6.17115 8.41245C6.20631 8.38667 7.51178 7.61089 9.07506 6.68511C11.2032 5.42652 11.9368 5.00464 11.9954 5.0023C12.0563 4.99995 12.6446 5.33745 14.9368 6.6898C16.5118 7.61792 17.8243 8.40542 17.8547 8.43824C17.9157 8.5062 17.911 8.59761 17.843 8.64917C17.7821 8.69605 6.21569 8.6937 6.1524 8.64683C6.08444 8.59761 6.09615 8.4687 6.17115 8.41245ZM12.3563 7.72574C13.0383 7.40464 13.043 6.46011 12.3657 6.13902C12.1805 6.0523 11.9297 6.03589 11.7399 6.09683C11.4774 6.18589 11.2758 6.37808 11.1774 6.63589C11.1071 6.82808 11.1212 7.1187 11.2126 7.30386C11.3016 7.48667 11.454 7.63667 11.6438 7.72574C11.7821 7.79136 11.8243 7.80074 12.0001 7.80074C12.1758 7.80074 12.218 7.79136 12.3563 7.72574ZM11.7962 6.34292C11.5407 6.43902 11.3907 6.6523 11.3907 6.92652C11.3907 7.1187 11.4329 7.22886 11.5501 7.35074C11.6907 7.49605 11.7962 7.54292 12.0001 7.54292C12.1993 7.54292 12.3141 7.49605 12.4454 7.36245C12.7571 7.05308 12.6258 6.49527 12.211 6.34761C12.0938 6.30542 11.9016 6.30542 11.7962 6.34292ZM6.76178 9.28198C6.70084 9.19995 6.63287 9.01948 6.63287 8.93277C6.63287 8.89292 6.80397 8.89058 12.0001 8.89058H17.3672L17.3532 8.98902C17.3204 9.21402 17.1797 9.39448 16.9946 9.45074C16.9454 9.4648 16.7672 9.47652 16.5962 9.47652H16.2891V9.58198C16.2891 9.77183 16.1696 9.94761 16.0172 9.9898L15.9493 10.0062L15.9446 12.0921L15.9399 14.1757L16.0547 14.2296C16.1977 14.2953 16.2704 14.4078 16.2844 14.5742L16.2938 14.6984L16.6266 14.7078C16.9032 14.7171 16.9735 14.7265 17.0508 14.7664C17.2172 14.8531 17.3227 15.0007 17.3555 15.1882L17.3719 15.289H12.0047H6.63522L6.64928 15.2C6.67975 14.9703 6.85787 14.7757 7.07819 14.7289C7.14381 14.7148 7.31256 14.7031 7.45319 14.7031H7.711V14.6046C7.711 14.464 7.79069 14.314 7.90084 14.2507L7.99225 14.1992V12.0992V9.99917L7.90553 9.94292C7.77194 9.8562 7.7274 9.77652 7.71569 9.61714L7.70631 9.47652H7.38522C7.09928 9.47652 7.05475 9.46948 6.94694 9.42027C6.88131 9.3898 6.79694 9.32652 6.76178 9.28198ZM14.1212 9.9687C13.9805 9.90073 13.8985 9.7648 13.8985 9.59839V9.47652H12.0118C10.1555 9.47652 10.1251 9.47652 10.1251 9.52339C10.1251 9.75542 9.9985 9.94761 9.80631 9.99683L9.70319 10.025V12.1062C9.70319 14.1851 9.70319 14.1875 9.75006 14.1875C9.82975 14.1875 9.9774 14.2742 10.0337 14.3562C10.0712 14.4054 10.0899 14.4734 10.0969 14.5671L10.1063 14.7031H12.0001H13.8938L13.9032 14.5648C13.9149 14.3984 13.9876 14.2882 14.1305 14.2226L14.2266 14.1804V12.0992V10.0203L14.1212 9.9687ZM11.5688 9.97339C11.5454 10.0085 11.5313 10.0789 11.5313 10.1726V10.3179L11.4047 10.3437C11.2337 10.3789 10.9782 10.5054 10.8493 10.6203C10.5282 10.9062 10.4321 11.539 10.6407 11.975C10.7649 12.2304 11.0344 12.425 11.3672 12.5C11.4376 12.5164 11.6977 12.5304 11.9415 12.5351C12.4922 12.5421 12.5391 12.5562 12.5391 12.7296C12.5391 12.8914 12.4993 12.95 12.3633 12.9968C12.0985 13.0882 11.6954 13.0343 11.3368 12.8585C11.0391 12.7132 11.0368 12.7132 10.8305 13.114C10.6805 13.4023 10.6758 13.414 10.711 13.4773C10.7579 13.5593 11.1165 13.7445 11.3532 13.8078L11.5196 13.8523L11.5313 14.0281L11.5321 14.04C11.5384 14.1409 11.5422 14.1996 11.573 14.2337C11.616 14.2813 11.7116 14.2813 11.9404 14.2812L11.9626 14.2812C12.1571 14.2812 12.3282 14.2718 12.3422 14.2625C12.3938 14.2296 12.4219 14.1406 12.4219 14.0187V13.8945L12.6305 13.8289C13.1883 13.6601 13.4274 13.2992 13.4016 12.6687C13.3876 12.357 13.3337 12.2 13.1719 12.0242C12.9282 11.757 12.6797 11.6796 12.0212 11.6656C11.768 11.6609 11.5313 11.6468 11.4985 11.6328C11.4633 11.621 11.4258 11.5835 11.4141 11.5531C11.393 11.4921 11.4071 11.3445 11.4422 11.2765C11.4727 11.2156 11.679 11.164 11.8805 11.164C12.1313 11.164 12.3469 11.2156 12.6094 11.3398C12.7922 11.4242 12.8485 11.4429 12.893 11.4242C12.9329 11.4101 12.9915 11.321 13.0969 11.1242C13.268 10.7914 13.2797 10.7187 13.1672 10.6484C13.0196 10.557 12.7547 10.4398 12.5766 10.3859L12.3985 10.3343V10.1726C12.3985 10.1645 12.3985 10.1567 12.3985 10.1492C12.3987 10.0555 12.3988 10.0004 12.3717 9.96796C12.333 9.92168 12.2389 9.92172 12.0104 9.92182C11.9995 9.92182 11.9882 9.92183 11.9766 9.92183C11.618 9.92183 11.604 9.92417 11.5688 9.97339ZM6.10553 15.746C6.1524 15.671 6.211 15.6148 6.27897 15.5773L6.38209 15.5234H12.0001H17.618L17.7212 15.5773C17.7891 15.6148 17.8477 15.671 17.8946 15.746L17.9649 15.8585L17.9719 16.3671C17.979 16.8523 17.9766 16.8757 17.9297 16.9367L17.8805 17H12.0001H6.11959L6.07037 16.9367C6.0235 16.8757 6.02115 16.8523 6.02819 16.3671L6.03522 15.8585L6.10553 15.746Z" fill="#969696"/>
</svg>
