<svg width="25" height="35" viewBox="0 0 25 35" fill="none" xmlns="http://www.w3.org/2000/svg">
<circle cx="12.1856" cy="11.9999" r="10" fill="white"/>
<path fill-rule="evenodd" clip-rule="evenodd" d="M3.36974 3.913C5.27196 1.86856 7.06751 0.837448 9.78751 0.197448C11.2986 -0.158108 14.232 -0.0158871 15.832 0.481891C17.8408 1.10411 19.2275 1.97522 20.8986 3.66411C23.3164 6.09967 24.3297 8.553 24.3475 12.0374C24.3653 14.3308 24.1164 15.3797 23.0675 17.5308C22.3031 19.113 22.072 19.3974 19.5653 21.8863C15.2453 26.1886 13.112 29.8863 12.4897 34.1352C12.4553 34.3792 12.1036 34.3783 12.0631 34.1352C11.3164 29.6552 9.30751 26.1886 5.00529 21.9041C2.07196 18.9886 1.41418 18.0108 0.614179 15.4152C0.080846 13.7086 0.0452905 10.7574 0.507513 9.01523C1.02307 7.09523 1.98307 5.38856 3.36974 3.913ZM16.0475 10.4713C16.1726 10.5964 16.3421 10.6666 16.5189 10.6666C16.6958 10.6666 16.8653 10.5964 16.9903 10.4713C17.1154 10.3463 17.1856 10.1767 17.1856 9.99992C17.1856 9.82311 17.1154 9.65354 16.9903 9.52852C16.8653 9.40349 16.6958 9.33326 16.5189 9.33326C16.3421 9.33326 16.1726 9.40349 16.0475 9.52852C15.9225 9.65354 15.8523 9.82311 15.8523 9.99992C15.8523 10.1767 15.9225 10.3463 16.0475 10.4713ZM8.51894 10.6666H12.5189V7.33326H8.51894V10.6666ZM17.7056 8.81326L17.6989 8.81992C17.9989 9.11992 18.1856 9.53992 18.1856 9.99992V16.3333C18.1856 16.5521 18.1425 16.7689 18.0587 16.9711C17.975 17.1733 17.8522 17.357 17.6975 17.5118C17.5427 17.6665 17.359 17.7893 17.1568 17.8731C16.9545 17.9568 16.7378 17.9999 16.5189 17.9999C16.0769 17.9999 15.653 17.8243 15.3404 17.5118C15.0279 17.1992 14.8523 16.7753 14.8523 16.3333V12.9999H13.8523V17.9999H7.18561V7.33326C7.18561 6.59326 7.77894 5.99992 8.51894 5.99992H12.5189C12.8726 5.99992 13.2117 6.1404 13.4618 6.39045C13.7118 6.6405 13.8523 6.97963 13.8523 7.33326V11.9999H14.5189C14.8726 11.9999 15.2117 12.1404 15.4618 12.3904C15.7118 12.6405 15.8523 12.9796 15.8523 13.3333V16.3333C15.8523 16.5101 15.9225 16.6796 16.0475 16.8047C16.1726 16.9297 16.3421 16.9999 16.5189 16.9999C16.6958 16.9999 16.8653 16.9297 16.9903 16.8047C17.1154 16.6796 17.1856 16.5101 17.1856 16.3333V11.5266C16.9789 11.6133 16.7589 11.6666 16.5189 11.6666C16.0769 11.6666 15.653 11.491 15.3404 11.1784C15.1857 11.0237 15.0629 10.8399 14.9791 10.6377C14.8954 10.4355 14.8523 10.2188 14.8523 9.99992C14.8523 9.28659 15.2989 8.66659 15.9256 8.44659L14.5189 7.03992L15.2256 6.33326L17.7056 8.81326Z" fill="#929EA1"/>
</svg>
