<svg width="25" height="35" viewBox="0 0 25 35" fill="none" xmlns="http://www.w3.org/2000/svg">
<circle cx="12.814" cy="11.6589" r="10" fill="white"/>
<path d="M3.99809 3.91306C5.90031 1.86862 7.69587 0.837509 10.4159 0.197509C11.927 -0.158047 14.8603 -0.0158259 16.4603 0.481952C18.4692 1.10417 19.8559 1.97528 21.527 3.66417C23.9448 6.09973 24.9581 8.55306 24.9759 12.0375C24.9937 14.3308 24.7448 15.3797 23.6959 17.5308C22.9315 19.1131 22.7004 19.3975 20.1937 21.8864C15.8737 26.1886 13.7403 29.8864 13.1181 34.1353C13.0837 34.3793 12.732 34.3783 12.6915 34.1353C11.9448 29.6553 9.93587 26.1886 5.63365 21.9042C2.70031 18.9886 2.04253 18.0108 1.24254 15.4153C0.709203 13.7086 0.673648 10.7575 1.13587 9.01528C1.65143 7.09528 2.61142 5.38862 3.99809 3.91306ZM12.9307 13.9166L14.564 12.2833C14.6807 12.1666 14.739 12.0305 14.739 11.875C14.739 11.7194 14.6807 11.5833 14.564 11.4667L9.6348 6.53748C9.51814 6.42082 9.37715 6.36248 9.21188 6.36248C9.0466 6.36248 8.90563 6.42082 8.78896 6.53748L7.15563 8.17082C7.03896 8.28748 6.98063 8.41873 6.98063 8.56457C6.98063 8.7104 7.03896 8.84165 7.15563 8.95832L12.114 13.9166C12.2307 14.0333 12.3668 14.0916 12.5223 14.0916C12.6779 14.0916 12.814 14.0333 12.9307 13.9166ZM14.1848 14.3541L16.2557 16.425C16.3626 16.5319 16.4987 16.5854 16.664 16.5854C16.8293 16.5854 16.9654 16.5319 17.0723 16.425C17.189 16.3083 17.2473 16.1722 17.2473 16.0166C17.2473 15.8611 17.1939 15.7298 17.0869 15.6229L15.0015 13.5375L14.1848 14.3541ZM15.1619 8.65207C15.5605 9.05068 16.0418 9.24998 16.6057 9.24998C17.1696 9.24998 17.6508 9.05068 18.0494 8.65207C18.448 8.25346 18.6473 7.7722 18.6473 7.20832C18.6473 6.64443 18.448 6.16318 18.0494 5.76457C17.6508 5.36595 17.1696 5.16665 16.6057 5.16665C16.0418 5.16665 15.5605 5.36595 15.1619 5.76457C14.7633 6.16318 14.564 6.64443 14.564 7.20832C14.564 7.7722 14.7633 8.25346 15.1619 8.65207Z" fill="#96A685"/>
</svg>
