<svg width="25" height="35" viewBox="0 0 25 35" fill="none" xmlns="http://www.w3.org/2000/svg">
<circle cx="12.1389" cy="12.6589" r="10" fill="white"/>
<path d="M3.32305 3.91306C5.22527 1.86862 7.02082 0.837509 9.74082 0.197509C11.2519 -0.158047 14.1852 -0.0158261 15.7852 0.481952C17.7941 1.10417 19.1808 1.97529 20.8519 3.66418C23.2697 6.09973 24.283 8.55307 24.3008 12.0375C24.3186 14.3308 24.0697 15.3797 23.0208 17.5308C22.2564 19.1131 22.0253 19.3975 19.5186 21.8864C15.1986 26.1886 13.0652 29.8864 12.443 34.1353C12.4086 34.3793 12.0569 34.3783 12.0164 34.1353C11.2697 29.6553 9.26082 26.1886 4.9586 21.9042C2.02527 18.9886 1.36749 18.0108 0.567487 15.4153C0.0341544 13.7086 -0.00140157 10.7575 0.46082 9.01529C0.976376 7.09529 1.93638 5.38862 3.32305 3.91306ZM6.06525 15.9076C6.29353 16.1359 6.56809 16.25 6.88892 16.25H10.9722V14.5C10.9722 14.1792 11.0866 13.9044 11.3152 13.6758C11.5435 13.4475 11.8181 13.3333 12.1389 13.3333C12.4597 13.3333 12.7345 13.4475 12.9631 13.6758C13.1914 13.9044 13.3056 14.1792 13.3056 14.5V16.25H17.3889C17.7097 16.25 17.9845 16.1359 18.2131 15.9076C18.4414 15.6789 18.5556 15.4042 18.5556 15.0833V9.83333C18.5556 9.66806 18.4996 9.52942 18.3876 9.41742C18.276 9.30581 18.1375 9.25 17.9722 9.25C17.807 9.25 17.6685 9.30581 17.5569 9.41742C17.4449 9.52942 17.3889 9.66806 17.3889 9.83333V10.4167H16.2222V6.33333C16.2222 6.16806 16.1662 6.02942 16.0542 5.91742C15.9426 5.80581 15.8042 5.75 15.6389 5.75C15.4736 5.75 15.3352 5.80581 15.2236 5.91742C15.1116 6.02942 15.0556 6.16806 15.0556 6.33333V6.91667H13.8889V6.33333C13.8889 6.16806 13.8331 6.02942 13.7215 5.91742C13.6095 5.80581 13.4708 5.75 13.3056 5.75C13.1403 5.75 13.0018 5.80581 12.8902 5.91742C12.7782 6.02942 12.7222 6.16806 12.7222 6.33333V6.91667H11.5556V6.33333C11.5556 6.16806 11.4998 6.02942 11.3881 5.91742C11.2761 5.80581 11.1375 5.75 10.9722 5.75C10.807 5.75 10.6685 5.80581 10.5569 5.91742C10.4449 6.02942 10.3889 6.16806 10.3889 6.33333V6.91667H9.22225V6.33333C9.22225 6.16806 9.16645 6.02942 9.05484 5.91742C8.94284 5.80581 8.8042 5.75 8.63892 5.75C8.47364 5.75 8.335 5.80581 8.223 5.91742C8.11139 6.02942 8.05559 6.16806 8.05559 6.33333V10.4167H6.88892V9.83333C6.88892 9.66806 6.83311 9.52942 6.7215 9.41742C6.6095 9.30581 6.47086 9.25 6.30559 9.25C6.14031 9.25 6.00186 9.30581 5.89025 9.41742C5.77825 9.52942 5.72225 9.66806 5.72225 9.83333V15.0833C5.72225 15.4042 5.83659 15.6789 6.06525 15.9076ZM11.5556 11H10.3889V9.25H11.5556V11ZM13.8889 9.25V11H12.7222V9.25H13.8889Z" fill="#969696"/>
</svg>
