<svg width="25" height="35" viewBox="0 0 25 35" fill="none" xmlns="http://www.w3.org/2000/svg">
<circle cx="12.8135" cy="10.9999" r="10" fill="white"/>
<path fill-rule="evenodd" clip-rule="evenodd" d="M3.9976 3.913C5.89983 1.86856 7.69538 0.837448 10.4154 0.197448C11.9265 -0.158108 14.8598 -0.0158871 16.4598 0.481891C18.4687 1.10411 19.8554 1.97522 21.5265 3.66411C23.9443 6.09967 24.9576 8.553 24.9754 12.0374C24.9932 14.3308 24.7443 15.3797 23.6954 17.5308C22.9309 19.113 22.6998 19.3974 20.1932 21.8863C15.8732 26.1886 13.7398 29.8863 13.1176 34.1352C13.0832 34.3792 12.7314 34.3783 12.6909 34.1352C11.9443 29.6552 9.93538 26.1886 5.63316 21.9041C2.69983 18.9886 2.04205 18.0108 1.24205 15.4152C0.708715 13.7086 0.673159 10.7574 1.13538 9.01523C1.65094 7.09523 2.61094 5.38856 3.9976 3.913ZM11.0635 5.16659H11.6468C13.2965 5.16659 14.1219 5.16659 14.6341 5.67934C15.1468 6.19151 15.1468 7.01692 15.1468 8.66659V13.4791H16.0632C16.4003 13.4791 16.7236 13.613 16.962 13.8514C17.2004 14.0898 17.3343 14.4131 17.3343 14.7502V14.7916C17.3343 14.9076 17.3804 15.0189 17.4625 15.101C17.5445 15.183 17.6558 15.2291 17.7718 15.2291C17.8878 15.2291 17.9991 15.183 18.0812 15.101C18.1632 15.0189 18.2093 14.9076 18.2093 14.7916V12.0208L17.4953 11.7828C17.3211 11.7247 17.1695 11.6133 17.0621 11.4643C16.9546 11.3153 16.8968 11.1363 16.8968 10.9527V9.54159C16.8968 9.30953 16.989 9.08697 17.1531 8.92287C17.3172 8.75878 17.5397 8.66659 17.7718 8.66659H18.2093V8.44609C18.2102 8.38659 18.2096 8.32707 18.2076 8.26759C18.1877 7.92051 18.0314 7.59559 17.773 7.36401C17.7494 7.34261 17.7222 7.32069 17.6491 7.26185L17.6347 7.25026L16.9155 6.67509C16.8698 6.6395 16.8317 6.59521 16.8032 6.54477C16.7748 6.49434 16.7567 6.43876 16.7499 6.38127C16.7431 6.32377 16.7478 6.26551 16.7637 6.20984C16.7796 6.15417 16.8064 6.10222 16.8425 6.05698C16.8787 6.01175 16.9234 5.97413 16.9742 5.94631C17.025 5.9185 17.0807 5.90103 17.1383 5.89493C17.1959 5.88884 17.2541 5.89423 17.3096 5.91079C17.365 5.92735 17.4167 5.95476 17.4615 5.99142L18.1906 6.57476C18.2472 6.61947 18.3028 6.66537 18.3575 6.71242C18.7884 7.09899 19.0485 7.6406 19.0808 8.21859C19.0843 8.27984 19.0843 8.34284 19.0843 8.43442V14.7916C19.0843 15.1397 18.946 15.4735 18.6999 15.7197C18.4537 15.9658 18.1199 16.1041 17.7718 16.1041C17.4237 16.1041 17.0899 15.9658 16.8437 15.7197C16.5976 15.4735 16.4593 15.1397 16.4593 14.7916V14.7502C16.4593 14.5314 16.282 14.3541 16.0632 14.3541H15.1468V16.3958H15.876C15.992 16.3958 16.1033 16.4418 16.1853 16.5239C16.2674 16.6059 16.3135 16.7172 16.3135 16.8333C16.3135 16.9493 16.2674 17.0606 16.1853 17.1426C16.1033 17.2247 15.992 17.2708 15.876 17.2708H6.98014C6.86411 17.2708 6.75283 17.2247 6.67078 17.1426C6.58874 17.0606 6.54264 16.9493 6.54264 16.8333C6.54264 16.7172 6.58874 16.6059 6.67078 16.5239C6.75283 16.4418 6.86411 16.3958 6.98014 16.3958H7.56348V8.66659C7.56348 7.01692 7.56348 6.19151 8.07623 5.67934C8.58839 5.16659 9.41381 5.16659 11.0635 5.16659ZM11.7796 9.72725C11.7515 9.61469 11.6798 9.5179 11.5803 9.45817C11.4808 9.39846 11.3617 9.38071 11.2491 9.40882C11.1366 9.43694 11.0398 9.50862 10.9801 9.60809L10.1051 11.0664C10.0652 11.1328 10.0437 11.2086 10.0427 11.286C10.0417 11.3634 10.0613 11.4397 10.0994 11.5071C10.1376 11.5745 10.1929 11.6305 10.2598 11.6695C10.3267 11.7085 10.4027 11.7291 10.4801 11.7291H11.4572L10.9801 12.5248C10.9498 12.574 10.9296 12.6288 10.9207 12.6859C10.9117 12.7431 10.9142 12.8014 10.9279 12.8575C10.9417 12.9137 10.9664 12.9666 11.0007 13.0131C11.035 13.0597 11.0782 13.099 11.1277 13.1287C11.1773 13.1585 11.2323 13.1781 11.2895 13.1865C11.3467 13.1949 11.405 13.1919 11.461 13.1776C11.5171 13.1633 11.5697 13.138 11.6159 13.1033C11.6621 13.0685 11.701 13.025 11.7302 12.9751L12.6052 11.5168C12.6451 11.4504 12.6666 11.3746 12.6676 11.2972C12.6686 11.2198 12.649 11.1435 12.6109 11.0761C12.5727 11.0087 12.5174 10.9526 12.4505 10.9136C12.3836 10.8746 12.3076 10.8541 12.2301 10.8541H11.2531L11.7302 10.0584C11.7899 9.95894 11.8077 9.83982 11.7796 9.72725Z" fill="#929EA1"/>
</svg>
