<svg width="25" height="35" viewBox="0 0 25 35" fill="none" xmlns="http://www.w3.org/2000/svg">
<circle cx="12.744" cy="11.9999" r="10" fill="white"/>
<path fill-rule="evenodd" clip-rule="evenodd" d="M10.3459 0.197448C7.62586 0.837448 5.83031 1.86856 3.92808 3.913C2.54142 5.38856 1.58142 7.09523 1.06586 9.01523C0.60364 10.7574 0.639196 13.7086 1.17253 15.4152C1.97253 18.0108 2.63031 18.9886 5.56364 21.9041C9.86586 26.1886 11.8748 29.6552 12.6214 34.1352C12.6619 34.3783 13.0137 34.3792 13.0481 34.1352C13.6703 29.8863 15.8036 26.1886 20.1236 21.8863C22.6303 19.3974 22.8614 19.113 23.6259 17.5308C24.6748 15.3797 24.9236 14.3308 24.9059 12.0374C24.8881 8.553 23.8748 6.09967 21.457 3.66411C19.7859 1.97522 18.3992 1.10411 16.3903 0.481891C14.7903 -0.0158871 11.857 -0.158108 10.3459 0.197448ZM8.80646 6.31242C8.80646 6.0718 9.00333 5.87492 9.24396 5.87492H16.244C16.4846 5.87492 16.6815 6.0718 16.6815 6.31242C16.6815 6.55305 16.4846 6.74992 16.244 6.74992H16.2396C16.2426 6.78055 16.244 6.81117 16.244 6.8418V9.37492H18.4315C18.5475 9.37492 18.6588 9.42102 18.7408 9.50306C18.8229 9.58511 18.869 9.69639 18.869 9.81242C18.869 9.92846 18.8229 10.0397 18.7408 10.1218C18.6588 10.2038 18.5475 10.2499 18.4315 10.2499V18.1249H16.244V18.1293H14.0608V16.108C14.0608 15.7755 13.7896 15.5043 13.4571 15.5043H12.0308C11.6983 15.5043 11.4315 15.7712 11.4315 16.1037V18.1293H9.68146V17.2543H9.72958C9.94396 17.2543 10.119 17.0793 10.1233 16.8605V15.8937C10.1233 15.6749 9.94396 15.4999 9.72958 15.4999H8.76271C8.54396 15.4999 8.36896 15.6793 8.36896 15.8937V16.8605C8.36896 17.0793 8.54833 17.2543 8.76271 17.2543H8.80646V18.1249H7.05646V10.2499C6.94043 10.2499 6.82915 10.2038 6.7471 10.1218C6.66505 10.0397 6.61896 9.92846 6.61896 9.81242C6.61896 9.69639 6.66505 9.58511 6.7471 9.50306C6.82915 9.42102 6.94043 9.37492 7.05646 9.37492H9.24396V6.8418C9.24396 6.81117 9.24527 6.78055 9.24833 6.74992H9.24396C9.00333 6.74992 8.80646 6.55742 8.80646 6.31242ZM14.2927 8.5043C14.4065 8.5043 14.494 8.41242 14.4983 8.29867V7.82617C14.4983 7.71242 14.4065 7.62492 14.2971 7.62492H11.1952C11.0815 7.62492 10.994 7.7168 10.994 7.82617V8.30305C10.994 8.4168 11.0858 8.5043 11.1952 8.5043H14.2927ZM14.2927 8.9418H11.1952C11.0858 8.9418 10.994 9.0293 10.994 9.14305V9.61555C10.994 9.72492 11.0815 9.8168 11.1952 9.8168H12.1052C12.2146 9.8168 12.3065 9.9043 12.3065 10.018V10.4905C12.3065 10.5999 12.394 10.6918 12.5077 10.6918H12.9802C13.0896 10.6918 13.1815 10.6043 13.1815 10.4905V10.0137C13.1815 9.9043 13.269 9.81242 13.3827 9.81242H14.2927C14.4021 9.81242 14.494 9.72492 14.494 9.61117V9.14305C14.494 9.03367 14.4065 8.9418 14.2927 8.9418ZM12.0921 12.8793C12.2102 12.8793 12.3065 12.783 12.3108 12.6605V11.7812C12.3108 11.6587 12.2102 11.5624 12.0921 11.5624H10.7752C10.6527 11.5624 10.5565 11.663 10.5565 11.7812V12.6605C10.5565 12.783 10.6571 12.8793 10.7752 12.8793H12.0921ZM14.9315 12.6605V11.7812C14.9315 11.663 14.8352 11.5624 14.7127 11.5624H13.3958C13.2777 11.5624 13.1771 11.6587 13.1771 11.7812V12.6605C13.1771 12.7787 13.2733 12.8793 13.3958 12.8793H14.7127C14.8352 12.8793 14.9315 12.783 14.9315 12.6605ZM12.3065 14.4105V13.5312C12.3065 13.413 12.2102 13.3124 12.0877 13.3124H10.7708C10.6527 13.3124 10.5521 13.4087 10.5521 13.5312V14.4105C10.5521 14.5287 10.6483 14.6293 10.7708 14.6293H12.0877C12.2102 14.6293 12.3065 14.533 12.3065 14.4105ZM14.9315 14.4105V13.5312C14.9315 13.413 14.8352 13.3124 14.7127 13.3124H13.3958C13.2777 13.3124 13.1771 13.4087 13.1771 13.5312V14.4105C13.1771 14.5287 13.2733 14.6293 13.3958 14.6293H14.7127C14.8352 14.6293 14.9315 14.533 14.9315 14.4105ZM7.76083 14.1918H8.53958C8.68833 14.1918 8.80646 14.0737 8.80646 13.9249V11.8337C8.80646 11.6849 8.68833 11.5668 8.53958 11.5668H7.76083C7.61208 11.5668 7.49396 11.6849 7.49396 11.8337V13.9249C7.49396 14.0737 7.61208 14.1918 7.76083 14.1918ZM16.9483 14.1918H17.7271C17.8758 14.1918 17.994 14.0737 17.994 13.9249V11.8337C17.994 11.6849 17.8758 11.5668 17.7271 11.5668H16.9483C16.7996 11.5668 16.6815 11.6849 16.6815 11.8337V13.9249C16.6815 14.0737 16.7996 14.1918 16.9483 14.1918ZM9.02521 16.3793C8.90271 16.3793 8.80646 16.283 8.80646 16.1605C8.80646 16.038 8.90271 15.9418 9.02521 15.9418H9.46271C9.58521 15.9418 9.68146 16.038 9.68146 16.1605C9.68146 16.2787 9.58521 16.3793 9.46271 16.3793H9.02521Z" fill="#969696"/>
</svg>
