<svg width="25" height="35" viewBox="0 0 25 35" fill="none" xmlns="http://www.w3.org/2000/svg">
<circle cx="12.7673" cy="12" r="10" fill="white"/>
<path fill-rule="evenodd" clip-rule="evenodd" d="M3.9514 3.91306C5.85362 1.86862 7.64918 0.837509 10.3692 0.197509C11.8803 -0.158047 14.8136 -0.0158261 16.4136 0.481952C18.4225 1.10417 19.8092 1.97528 21.4803 3.66417C23.8981 6.09973 24.9114 8.55306 24.9292 12.0375C24.947 14.3308 24.6981 15.3797 23.6492 17.5308C22.8847 19.1131 22.6536 19.3975 20.147 21.8864C15.827 26.1886 13.6936 29.8864 13.0714 34.1353C13.037 34.3793 12.6852 34.3783 12.6447 34.1353C11.8981 29.6553 9.88918 26.1886 5.58696 21.9042C2.65362 18.9886 1.99584 18.0108 1.19584 15.4153C0.662511 13.7086 0.626956 10.7575 1.08918 9.01529C1.60473 7.09529 2.56473 5.38862 3.9514 3.91306ZM9.15927 17.6087C9.42016 17.8695 9.73394 18 10.1006 18C10.4673 18 10.7813 17.8695 11.0426 17.6087C11.3035 17.3473 11.4339 17.0333 11.4339 16.6667V14H13.4339C14.5451 14 15.4895 13.6111 16.2673 12.8333C17.0451 12.0555 17.4339 11.1111 17.4339 9.99999C17.4339 8.88887 17.0451 7.94443 16.2673 7.16665C15.4895 6.38887 14.5451 5.99999 13.4339 5.99999H10.1006C9.73394 5.99999 9.42016 6.13043 9.15927 6.39132C8.89794 6.65265 8.76727 6.96665 8.76727 7.33332V16.6667C8.76727 17.0333 8.89794 17.3473 9.15927 17.6087ZM13.5673 11.3333H11.4339V8.66665H13.5673C13.9339 8.66665 14.2479 8.7971 14.5093 9.05799C14.7702 9.31932 14.9006 9.63332 14.9006 9.99999C14.9006 10.3667 14.7702 10.6804 14.5093 10.9413C14.2479 11.2027 13.9339 11.3333 13.5673 11.3333Z" fill="#929EA1"/>
</svg>
