<svg width="25" height="35" viewBox="0 0 25 35" fill="none" xmlns="http://www.w3.org/2000/svg">
<ellipse cx="12.5986" cy="12.0007" rx="9.99885" ry="10.0006" fill="white"/>
<path d="M3.78362 3.9133C5.68562 1.86873 7.48097 0.83756 10.2007 0.197521C11.7116 -0.158056 14.6445 -0.0158271 16.2444 0.481981C18.253 1.10424 19.6396 1.97541 21.3105 3.6644C23.728 6.1001 24.7412 8.55359 24.759 12.0382C24.7768 14.3317 24.5279 15.3806 23.4791 17.5319C22.7148 19.1143 22.4837 19.3987 19.9773 21.8877C15.6578 26.1902 13.5247 29.8882 12.9025 34.1374C12.8681 34.3814 12.5165 34.3804 12.476 34.1374C11.7294 29.6571 9.72072 26.1902 5.41898 21.9055C2.48599 18.9897 1.82828 18.0119 1.02838 15.4162C0.495103 13.7094 0.459552 10.7581 0.921721 9.01583C1.43722 7.09572 2.39711 5.38894 3.78362 3.9133ZM18.5978 7.20043H8.99889V6.6004C8.99889 6.44126 8.93569 6.28864 8.82317 6.1761C8.71066 6.06358 8.55807 6.00036 8.39896 6.00036H6.59917V7.20043H7.79903L8.39896 9.00054L9.19687 11.4007H8.99889C8.52155 11.4007 8.06377 11.5903 7.72625 11.9279C7.38872 12.2655 7.1991 12.7234 7.1991 13.2008C7.1991 13.6782 7.38872 14.1361 7.72625 14.4737C8.06377 14.8113 8.52155 15.0009 8.99889 15.0009H16.798V13.8008H8.99889C8.83978 13.8008 8.68719 13.7376 8.57468 13.6251C8.46216 13.5125 8.39896 13.3599 8.39896 13.2008C8.39896 13.0417 8.46216 12.8891 8.57468 12.7765C8.68719 12.664 8.83978 12.6008 8.99889 12.6008H16.798L18.5978 7.20043ZM8.75039 17.6496C8.97541 17.8747 9.2806 18.0011 9.59882 18.0011C9.91704 18.0011 10.2222 17.8747 10.4473 17.6496C10.6723 17.4246 10.7987 17.1193 10.7987 16.801C10.7987 16.4827 10.6723 16.1775 10.4473 15.9525C10.2222 15.7273 9.91704 15.6009 9.59882 15.6009C9.2806 15.6009 8.97541 15.7273 8.75039 15.9525C8.52537 16.1775 8.39896 16.4827 8.39896 16.801C8.39896 17.1193 8.52537 17.4246 8.75039 17.6496ZM14.7497 17.6496C14.9747 17.8747 15.2799 18.0011 15.5981 18.0011C15.9164 18.0011 16.2216 17.8747 16.4465 17.6496C16.6716 17.4246 16.798 17.1193 16.798 16.801C16.798 16.4827 16.6716 16.1775 16.4465 15.9525C16.2216 15.7273 15.9164 15.6009 15.5981 15.6009C15.2799 15.6009 14.9747 15.7273 14.7497 15.9525C14.5247 16.1775 14.3983 16.4827 14.3983 16.801C14.3983 17.1193 14.5247 17.4246 14.7497 17.6496Z" fill="#1B78F2"/>
</svg>
