<svg width="25" height="35" viewBox="0 0 25 35" fill="none" xmlns="http://www.w3.org/2000/svg">
<ellipse cx="12.7983" cy="12.0007" rx="9.99885" ry="10.0006" fill="white"/>
<path d="M3.98345 3.9133C5.88545 1.86874 7.6808 0.83756 10.4005 0.197521C11.9114 -0.158056 14.8444 -0.0158269 16.4442 0.481981C18.4529 1.10424 19.8394 1.9754 21.5103 3.66439C23.9278 6.1001 24.941 8.55358 24.9588 12.0382C24.9766 14.3317 24.7277 15.3806 23.679 17.5319C22.9146 19.1143 22.6836 19.3987 20.1772 21.8877C15.8577 26.1902 13.7245 29.8882 13.1024 34.1374C13.068 34.3814 12.7163 34.3804 12.6758 34.1374C11.9292 29.6571 9.92055 26.1902 5.61881 21.9055C2.68582 18.9897 2.02811 18.0119 1.22821 15.4162C0.694932 13.7094 0.659381 10.7582 1.12155 9.01583C1.63705 7.09571 2.59694 5.38895 3.98345 3.9133ZM8.47513 16.4919C8.70339 16.7202 8.97791 16.8343 9.29871 16.8343H16.2979C16.6187 16.8343 16.8934 16.7202 17.122 16.4919C17.3503 16.2632 17.4645 15.9885 17.4645 15.6675V6.33371C17.4645 6.01285 17.3503 5.73808 17.122 5.50941C16.8934 5.28111 16.6187 5.16696 16.2979 5.16696H9.29871C8.97791 5.16696 8.70339 5.28111 8.47513 5.50941C8.2465 5.73808 8.13217 6.01285 8.13217 6.33371V15.6675C8.13217 15.9885 8.2465 16.2632 8.47513 16.4919ZM14.8619 14.2314C14.293 14.7999 13.6051 15.0842 12.7983 15.0842C11.9915 15.0842 11.3038 14.7999 10.7353 14.2314C10.1664 13.6623 9.88197 12.9744 9.88197 12.1673C9.88197 11.3604 10.1664 10.6724 10.7353 10.1034C11.3038 9.53484 11.9915 9.25054 12.7983 9.25054C13.6051 9.25054 14.293 9.53484 14.8619 10.1034C15.4304 10.6724 15.7147 11.3604 15.7147 12.1673C15.7147 12.9744 15.4304 13.6623 14.8619 14.2314ZM12.0477 13.9466C12.2857 14.0438 12.5358 14.0925 12.7983 14.0925C13.3232 14.0925 13.7753 13.9029 14.1544 13.5237C14.5335 13.1445 14.7231 12.6924 14.7231 12.1673C14.7231 11.9049 14.6745 11.6544 14.5773 11.416C14.48 11.178 14.3439 10.9715 14.1689 10.7965L11.4277 13.5383C11.6026 13.7133 11.8093 13.8494 12.0477 13.9466ZM10.8811 7.91638C10.7691 8.028 10.6305 8.08381 10.4652 8.08381C10.3 8.08381 10.1614 8.028 10.0494 7.91638C9.93777 7.80437 9.88197 7.66573 9.88197 7.50044C9.88197 7.33515 9.93777 7.19651 10.0494 7.0845C10.1614 6.97288 10.3 6.91707 10.4652 6.91707C10.6305 6.91707 10.7691 6.97288 10.8811 7.0845C10.9927 7.19651 11.0485 7.33515 11.0485 7.50044C11.0485 7.66573 10.9927 7.80437 10.8811 7.91638ZM12.6309 7.91638C12.5189 8.028 12.3803 8.08381 12.2151 8.08381C12.0498 8.08381 11.9113 8.028 11.7997 7.91638C11.6877 7.80437 11.6317 7.66573 11.6317 7.50044C11.6317 7.33515 11.6877 7.19651 11.7997 7.0845C11.9113 6.97288 12.0498 6.91707 12.2151 6.91707C12.3803 6.91707 12.5189 6.97288 12.6309 7.0845C12.7425 7.19651 12.7983 7.33515 12.7983 7.50044C12.7983 7.66573 12.7425 7.80437 12.6309 7.91638Z" fill="#8F8D8D"/>
</svg>
