<svg width="25" height="35" viewBox="0 0 25 35" fill="none" xmlns="http://www.w3.org/2000/svg">
<ellipse cx="12.4783" cy="12.0007" rx="9.99885" ry="10.0006" fill="white"/>
<path d="M3.66344 3.9133C5.56544 1.86873 7.36079 0.83756 10.0805 0.197521C11.5914 -0.158056 14.5244 -0.015827 16.1242 0.481981C18.1329 1.10424 19.5194 1.9754 21.1903 3.66439C23.6078 6.1001 24.621 8.55358 24.6388 12.0382C24.6566 14.3317 24.4077 15.3806 23.359 17.5319C22.5946 19.1143 22.3636 19.3987 19.8572 21.8877C15.5376 26.1902 13.4045 29.8882 12.7824 34.1374C12.748 34.3814 12.3963 34.3804 12.3558 34.1374C11.6092 29.6571 9.60054 26.1902 5.2988 21.9055C2.36581 18.9897 1.7081 18.0119 0.908197 15.4162C0.374925 13.7094 0.339374 10.7582 0.801543 9.01584C1.31704 7.09572 2.27693 5.38895 3.66344 3.9133ZM10.984 18.5998C11.5719 18.8673 12.2207 19.0011 12.9303 19.0011C13.64 19.0011 14.289 18.8673 14.8772 18.5998C15.4652 18.3326 15.9705 17.9754 16.3932 17.5282C16.8162 17.0809 17.1445 16.5679 17.3777 15.9892C17.611 15.4109 17.7277 14.8106 17.7277 14.1884V10.3964C17.7277 10.1923 17.6573 10.0198 17.5165 9.87902C17.3754 9.73784 17.2028 9.66725 16.9986 9.66725C16.7945 9.66725 16.622 9.73784 16.4812 9.87902C16.3401 10.0198 16.2696 10.1923 16.2696 10.3964V13.4591C16.2696 13.5369 16.2404 13.605 16.1821 13.6633C16.1237 13.7216 16.0557 13.7508 15.9779 13.7508C15.5404 13.7508 15.1565 13.8943 14.8259 14.1814C14.4955 14.468 14.301 14.8252 14.2427 15.253C14.233 15.3308 14.2038 15.3914 14.1552 15.435C14.1066 15.4789 14.0482 15.5009 13.9802 15.5009C13.883 15.5009 13.8028 15.4669 13.7399 15.3988C13.6766 15.3308 13.6546 15.253 13.674 15.1655C13.7518 14.6502 13.9705 14.2104 14.3302 13.8459C14.6898 13.4811 15.1419 13.2598 15.6862 13.182V6.89625C15.6862 6.69207 15.6158 6.51939 15.4752 6.37822C15.334 6.23743 15.1613 6.16704 14.9572 6.16704C14.753 6.16704 14.5806 6.23743 14.4398 6.37822C14.2987 6.51939 14.2281 6.69207 14.2281 6.89625V11.1257C14.2281 11.2035 14.1989 11.2715 14.1406 11.3299C14.0823 11.3882 14.0142 11.4174 13.9364 11.4174C13.8587 11.4174 13.7906 11.3882 13.7324 11.3299C13.674 11.2715 13.6449 11.2035 13.6449 11.1257V5.72952C13.6449 5.52533 13.5743 5.35265 13.4331 5.21149C13.2923 5.0707 13.1199 5.0003 12.9157 5.0003C12.7116 5.0003 12.5392 5.0707 12.3984 5.21149C12.2572 5.35265 12.1866 5.52533 12.1866 5.72952V11.1257C12.1866 11.2035 12.1575 11.2715 12.0991 11.3299C12.0408 11.3882 11.9728 11.4174 11.8951 11.4174C11.8173 11.4174 11.7492 11.3882 11.6909 11.3299C11.6326 11.2715 11.6034 11.2035 11.6034 11.1257V6.60457C11.6034 6.40039 11.5328 6.22771 11.3916 6.08654C11.2509 5.94575 11.0785 5.87536 10.8743 5.87536C10.6702 5.87536 10.4977 5.94575 10.357 6.08654C10.2158 6.22771 10.1452 6.40039 10.1452 6.60457V11.709C10.1452 11.7868 10.1161 11.8549 10.0577 11.9132C9.99941 11.9715 9.93137 12.0007 9.8536 12.0007C9.77583 12.0007 9.70778 11.9715 9.64945 11.9132C9.59113 11.8549 9.56196 11.7868 9.56196 11.709V8.35467C9.56196 8.15049 9.49158 7.97781 9.35082 7.83664C9.20967 7.69586 9.03702 7.62546 8.83288 7.62546C8.62874 7.62546 8.45628 7.69586 8.31553 7.83664C8.17437 7.97781 8.1038 8.15049 8.1038 8.35467V14.1884C8.1038 14.8106 8.22298 15.4134 8.46134 15.9968C8.69931 16.5802 9.03216 17.0931 9.4599 17.5358C9.88763 17.9779 10.3956 18.3326 10.984 18.5998Z" fill="#8F8D8D"/>
</svg>
