<svg width="25" height="35" viewBox="0 0 25 35" fill="none" xmlns="http://www.w3.org/2000/svg">
<circle cx="12" cy="13" r="10" fill="white"/>
<path d="M3.18413 4.25413C5.08635 2.20969 6.8819 1.17857 9.6019 0.538574C11.113 0.183017 14.0463 0.325239 15.6463 0.823017C17.6552 1.44524 19.0419 2.31635 20.713 4.00524C23.1308 6.4408 24.1441 8.89413 24.1619 12.3786C24.1797 14.6719 23.9308 15.7208 22.8819 17.8719C22.1175 19.4542 21.8864 19.7386 19.3797 22.2275C15.0597 26.5297 12.9263 30.2275 12.3041 34.4764C12.2697 34.7204 11.918 34.7194 11.8775 34.4764C11.1308 29.9964 9.1219 26.5297 4.81968 22.2453C1.88635 19.3297 1.22857 18.3519 0.428571 15.7564C-0.104762 14.0497 -0.140318 11.0986 0.321905 9.35635C0.83746 7.43635 1.79746 5.72969 3.18413 4.25413ZM9.95833 16.2994V17.1744L12 16.5911L14.0417 17.1744V16.2994L12.875 15.4244V12.2161L17.8333 13.6744V12.5077L12.875 9.59105V6.38272C12.875 6.12994 12.7924 5.92091 12.6271 5.75564C12.4618 5.59036 12.2528 5.50772 12 5.50772C11.7472 5.50772 11.5382 5.59036 11.3729 5.75564C11.2076 5.92091 11.125 6.12994 11.125 6.38272V9.59105L6.16667 12.5077V13.6744L11.125 12.2161V15.4244L9.95833 16.2994Z" fill="#7FA8D4"/>
</svg>
