<svg width="25" height="35" viewBox="0 0 25 35" fill="none" xmlns="http://www.w3.org/2000/svg">
<circle cx="12" cy="12" r="10" fill="white"/>
<path d="M3.18413 3.91306C5.08635 1.86862 6.8819 0.837509 9.6019 0.197509C11.113 -0.158047 14.0463 -0.0158259 15.6463 0.481952C17.6552 1.10417 19.0419 1.97528 20.713 3.66417C23.1308 6.09973 24.1441 8.55306 24.1619 12.0375C24.1797 14.3308 23.9308 15.3797 22.8819 17.5308C22.1175 19.1131 21.8864 19.3975 19.3797 21.8864C15.0597 26.1886 12.9263 29.8864 12.3041 34.1353C12.2697 34.3793 11.918 34.3783 11.8775 34.1353C11.1308 29.6553 9.1219 26.1886 4.81968 21.9042C1.88635 18.9886 1.22857 18.0108 0.428571 15.4153C-0.104762 13.7086 -0.140318 10.7575 0.321904 9.01528C0.83746 7.09528 1.79746 5.38862 3.18413 3.91306ZM17.8333 13.9166H6.16667V16.25H17.8333V13.9166ZM10.25 8.08332H8.64583C7.94583 8.08332 7.3625 8.66665 7.3625 9.24998L7.04167 13.3333H16.9583L16.6667 9.24998C16.55 8.66665 15.9667 8.08332 15.3833 8.08332H11.4167V7.49998H13.1667V5.74998H8.5V7.49998H10.25V8.08332ZM15.5 10.4166H12.5833V9.24998H15.5V10.4166ZM8.5 9.83332V9.24998H9.66667V9.83332H8.5ZM10.25 9.83332V9.24998H11.4167V9.83332H10.25ZM8.5 11V10.4166H9.66667V11H8.5ZM10.25 11V10.4166H11.4167V11H10.25ZM8.5 12.1666V11.5833H9.66667V12.1666H8.5ZM10.25 12.1666V11.5833H11.4167V12.1666H10.25ZM9.08333 6.91665V6.33332H12.5833V6.91665H9.08333Z" fill="#9B9BE0"/>
</svg>
