<svg width="25" height="35" viewBox="0 0 25 35" fill="none" xmlns="http://www.w3.org/2000/svg">
<circle cx="12" cy="13" r="10" fill="white"/>
<path d="M3.18413 3.91306C5.08635 1.86862 6.88191 0.837509 9.6019 0.197509C11.113 -0.158047 14.0463 -0.015826 15.6463 0.481952C17.6552 1.10417 19.0419 1.97528 20.713 3.66417C23.1308 6.09973 24.1441 8.55306 24.1619 12.0375C24.1797 14.3308 23.9308 15.3797 22.8819 17.5308C22.1175 19.1131 21.8864 19.3975 19.3797 21.8864C15.0597 26.1886 12.9263 29.8864 12.3041 34.1353C12.2697 34.3793 11.918 34.3783 11.8775 34.1353C11.1308 29.6553 9.12191 26.1886 4.81968 21.9042C1.88635 18.9886 1.22857 18.0108 0.428571 15.4153C-0.104762 13.7086 -0.140317 10.7575 0.321905 9.01529C0.83746 7.09529 1.79746 5.38862 3.18413 3.91306ZM7.95866 17.708C8.15288 17.9027 8.38888 18 8.66666 18C8.94444 18 9.18044 17.9027 9.37466 17.708C9.56933 17.5138 9.66666 17.2778 9.66666 17V16.6667H15V17C15 17.2778 15.0973 17.5138 15.292 17.708C15.4862 17.9027 15.7222 18 16 18C16.2778 18 16.5138 17.9027 16.708 17.708C16.9027 17.5138 17 17.2778 17 17V15.9667C17.2 15.7444 17.3611 15.4971 17.4833 15.2247C17.6056 14.9527 17.6667 14.6556 17.6667 14.3333V8C17.6667 7.04444 17.2556 6.36111 16.4333 5.95C15.6111 5.53889 14.2444 5.33333 12.3333 5.33333C10.4889 5.33333 9.13888 5.54711 8.28333 5.97466C7.42777 6.40266 7 7.07778 7 8V14.3333C7 14.6556 7.06111 14.9527 7.18333 15.2247C7.30555 15.4971 7.46666 15.7444 7.66666 15.9667V17C7.66666 17.2778 7.764 17.5138 7.95866 17.708ZM16.3333 8.66667V10.6667H8.33333V8.66667H16.3333ZM10.708 14.3747C10.5138 14.5693 10.2778 14.6667 10 14.6667C9.72222 14.6667 9.48622 14.5693 9.292 14.3747C9.09733 14.1804 9 13.9444 9 13.6667C9 13.3889 9.09733 13.1529 9.292 12.9587C9.48622 12.764 9.72222 12.6667 10 12.6667C10.2778 12.6667 10.5138 12.764 10.708 12.9587C10.9027 13.1529 11 13.3889 11 13.6667C11 13.9444 10.9027 14.1804 10.708 14.3747ZM15.3747 14.3747C15.1804 14.5693 14.9444 14.6667 14.6667 14.6667C14.3889 14.6667 14.1529 14.5693 13.9587 14.3747C13.764 14.1804 13.6667 13.9444 13.6667 13.6667C13.6667 13.3889 13.764 13.1529 13.9587 12.9587C14.1529 12.764 14.3889 12.6667 14.6667 12.6667C14.9444 12.6667 15.1804 12.764 15.3747 12.9587C15.5693 13.1529 15.6667 13.3889 15.6667 13.6667C15.6667 13.9444 15.5693 14.1804 15.3747 14.3747Z" fill="#7FA8D4"/>
</svg>
