<svg width="25" height="35" viewBox="0 0 25 35" fill="none" xmlns="http://www.w3.org/2000/svg">
<circle cx="12" cy="11" r="10" fill="white"/>
<path fill-rule="evenodd" clip-rule="evenodd" d="M3.18413 3.91306C5.08635 1.86862 6.88191 0.837509 9.6019 0.197509C11.113 -0.158047 14.0463 -0.0158261 15.6463 0.481952C17.6552 1.10417 19.0419 1.97528 20.713 3.66417C23.1308 6.09973 24.1441 8.55306 24.1619 12.0375C24.1797 14.3308 23.9308 15.3797 22.8819 17.5308C22.1175 19.1131 21.8864 19.3975 19.3797 21.8864C15.0597 26.1886 12.9263 29.8864 12.3041 34.1353C12.2697 34.3793 11.918 34.3783 11.8775 34.1353C11.1308 29.6553 9.12191 26.1886 4.81968 21.9042C1.88635 18.9886 1.22857 18.0108 0.428571 15.4153C-0.104762 13.7086 -0.140317 10.7575 0.321905 9.01529C0.83746 7.09529 1.79746 5.38862 3.18413 3.91306ZM10.25 5.16665H10.8333C12.483 5.16665 13.3084 5.16665 13.8206 5.6794C14.3333 6.19157 14.3333 7.01698 14.3333 8.66665V13.4792H15.2498C15.5869 13.4792 15.9102 13.6131 16.1485 13.8514C16.3869 14.0898 16.5208 14.4131 16.5208 14.7502V14.7917C16.5208 14.9077 16.5669 15.019 16.649 15.101C16.731 15.1831 16.8423 15.2292 16.9583 15.2292C17.0744 15.2292 17.1856 15.1831 17.2677 15.101C17.3497 15.019 17.3958 14.9077 17.3958 14.7917V12.0208L16.6818 11.7828C16.5076 11.7248 16.356 11.6134 16.2486 11.4644C16.1412 11.3154 16.0834 11.1364 16.0833 10.9527V9.54165C16.0833 9.30959 16.1755 9.08703 16.3396 8.92293C16.5037 8.75884 16.7263 8.66665 16.9583 8.66665H17.3958V8.44615C17.3967 8.38665 17.3962 8.32713 17.3941 8.26765C17.3743 7.92057 17.2179 7.59565 16.9595 7.36407C16.9359 7.34267 16.9087 7.32075 16.8356 7.26192L16.8212 7.25032L16.102 6.67515C16.0563 6.63957 16.0182 6.59527 15.9898 6.54483C15.9613 6.4944 15.9432 6.43882 15.9364 6.38133C15.9297 6.32384 15.9343 6.26557 15.9502 6.2099C15.9661 6.15424 15.9929 6.10228 16.0291 6.05704C16.0652 6.01181 16.1099 5.97419 16.1607 5.94637C16.2115 5.91856 16.2673 5.90109 16.3248 5.895C16.3824 5.8889 16.4406 5.89429 16.4961 5.91085C16.5516 5.92741 16.6032 5.95482 16.648 5.99148L17.3772 6.57482C17.4337 6.61953 17.4894 6.66543 17.544 6.71248C17.9749 7.09905 18.235 7.64066 18.2673 8.21865C18.2708 8.2799 18.2708 8.3429 18.2708 8.43448V14.7917C18.2708 15.1397 18.1326 15.4736 17.8864 15.7197C17.6403 15.9659 17.3064 16.1042 16.9583 16.1042C16.6102 16.1042 16.2764 15.9659 16.0303 15.7197C15.7841 15.4736 15.6458 15.1397 15.6458 14.7917V14.7502C15.6458 14.5315 15.4685 14.3542 15.2498 14.3542H14.3333V16.3958H15.0625C15.1785 16.3958 15.2898 16.4419 15.3719 16.524C15.4539 16.606 15.5 16.7173 15.5 16.8333C15.5 16.9494 15.4539 17.0606 15.3719 17.1427C15.2898 17.2247 15.1785 17.2708 15.0625 17.2708H6.16667C6.05063 17.2708 5.93935 17.2247 5.85731 17.1427C5.77526 17.0606 5.72917 16.9494 5.72917 16.8333C5.72917 16.7173 5.77526 16.606 5.85731 16.524C5.93935 16.4419 6.05063 16.3958 6.16667 16.3958H6.75V8.66665C6.75 7.01698 6.75 6.19157 7.26275 5.6794C7.77492 5.16665 8.60033 5.16665 10.25 5.16665ZM10.9661 9.72731C10.938 9.61475 10.8663 9.51796 10.7668 9.45823C10.6674 9.39852 10.5482 9.38077 10.4357 9.40889C10.3231 9.437 10.2263 9.50868 10.1666 9.60815L9.29158 11.0665C9.25173 11.1329 9.23022 11.2086 9.22923 11.2861C9.22824 11.3635 9.24781 11.4398 9.28595 11.5072C9.32409 11.5745 9.37943 11.6306 9.44632 11.6696C9.5132 11.7086 9.58924 11.7291 9.66667 11.7292H10.6438L10.1666 12.5248C10.1363 12.5741 10.1162 12.6289 10.1072 12.686C10.0983 12.7431 10.1007 12.8014 10.1145 12.8576C10.1282 12.9138 10.1529 12.9667 10.1872 13.0132C10.2215 13.0597 10.2647 13.099 10.3143 13.1288C10.3638 13.1586 10.4188 13.1782 10.476 13.1866C10.5332 13.195 10.5915 13.1919 10.6475 13.1776C10.7036 13.1633 10.7562 13.1381 10.8024 13.1033C10.8486 13.0686 10.8875 13.025 10.9167 12.9752L11.7917 11.5168C11.8316 11.4504 11.8531 11.3747 11.8541 11.2972C11.8551 11.2198 11.8355 11.1435 11.7974 11.0761C11.7592 11.0088 11.7039 10.9527 11.637 10.9137C11.5701 10.8747 11.4941 10.8542 11.4167 10.8542H10.4396L10.9167 10.0585C10.9765 9.959 10.9942 9.83988 10.9661 9.72731Z" fill="#7FA8D4"/>
</svg>
