<svg width="25" height="35" viewBox="0 0 25 35" fill="none" xmlns="http://www.w3.org/2000/svg">
<circle cx="12" cy="12.6589" r="10" fill="white"/>
<path d="M3.18413 3.91306C5.08635 1.86862 6.88191 0.837509 9.6019 0.197509C11.113 -0.158047 14.0463 -0.015826 15.6463 0.481952C17.6552 1.10417 19.0419 1.97528 20.713 3.66417C23.1308 6.09973 24.1441 8.55306 24.1619 12.0375C24.1797 14.3308 23.9308 15.3797 22.8819 17.5308C22.1175 19.1131 21.8864 19.3975 19.3797 21.8864C15.0597 26.1886 12.9263 29.8864 12.3041 34.1353C12.2697 34.3793 11.918 34.3783 11.8775 34.1353C11.1308 29.6553 9.12191 26.1886 4.81968 21.9042C1.88635 18.9886 1.22857 18.0108 0.428571 15.4153C-0.104762 13.7086 -0.140317 10.7575 0.321905 9.01529C0.83746 7.09529 1.79746 5.38862 3.18413 3.91306ZM16.5646 6.92498C16.1076 6.46804 15.5583 6.23957 14.9167 6.23957C14.5764 6.23957 14.2993 6.28565 14.0854 6.37782C13.8715 6.47037 13.6674 6.57012 13.4729 6.67707C13.2785 6.78401 13.072 6.88357 12.8534 6.97573C12.6345 7.06829 12.35 7.11457 12 7.11457C11.65 7.11457 11.3657 7.06829 11.1472 6.97573C10.9282 6.88357 10.7215 6.78401 10.5271 6.67707C10.3326 6.57012 10.131 6.47037 9.92217 6.37782C9.71294 6.28565 9.43333 6.23957 9.08333 6.23957C8.44167 6.23957 7.89236 6.46804 7.43542 6.92498C6.97847 7.38193 6.75 7.93123 6.75 8.5729C6.75 8.67984 6.75739 8.82315 6.77217 9.00282C6.78656 9.18287 6.80833 9.38957 6.8375 9.6229L7.625 15.4854C7.67361 15.8548 7.83889 16.1588 8.12083 16.3972C8.40278 16.6352 8.72847 16.7542 9.09792 16.7542C9.32153 16.7542 9.53308 16.703 9.73258 16.6007C9.93169 16.4988 10.0993 16.3507 10.2354 16.1562L11.7521 13.9542C11.8687 13.8667 11.9465 13.8229 11.9854 13.8229C12.034 13.8229 12.0803 13.8301 12.1243 13.8445C12.1678 13.8593 12.1993 13.8861 12.2188 13.925L13.7792 16.2C13.9056 16.375 14.0636 16.5111 14.2534 16.6083C14.4428 16.7055 14.6493 16.7542 14.8729 16.7542C15.2424 16.7542 15.5706 16.6375 15.8576 16.4042C16.1442 16.1708 16.3118 15.8694 16.3604 15.5L17.1625 9.6229C17.1917 9.38957 17.2134 9.18287 17.2278 9.00282C17.2426 8.82315 17.25 8.67984 17.25 8.5729C17.25 7.93123 17.0215 7.38193 16.5646 6.92498Z" fill="#FF7D7F"/>
</svg>
