<svg width="25" height="35" viewBox="0 0 25 35" fill="none" xmlns="http://www.w3.org/2000/svg">
<circle cx="12" cy="12" r="10" fill="white"/>
<path fill-rule="evenodd" clip-rule="evenodd" d="M3.18413 3.91306C5.08635 1.86862 6.8819 0.837509 9.6019 0.197509C11.113 -0.158047 14.0463 -0.0158261 15.6463 0.481952C17.6552 1.10417 19.0419 1.97528 20.713 3.66417C23.1308 6.09973 24.1441 8.55306 24.1619 12.0375C24.1797 14.3308 23.9308 15.3797 22.8819 17.5308C22.1175 19.1131 21.8864 19.3975 19.3797 21.8864C15.0597 26.1886 12.9263 29.8864 12.3041 34.1353C12.2697 34.3793 11.918 34.3783 11.8775 34.1353C11.1308 29.6553 9.1219 26.1886 4.81968 21.9042C1.88635 18.9886 1.22857 18.0108 0.428571 15.4153C-0.104762 13.7086 -0.140317 10.7575 0.321905 9.01529C0.83746 7.09529 1.79746 5.38862 3.18413 3.91306ZM15.8619 10.4714C15.987 10.5964 16.1565 10.6667 16.3333 10.6667C16.5101 10.6667 16.6797 10.5964 16.8047 10.4714C16.9298 10.3464 17 10.1768 17 9.99998C17 9.82317 16.9298 9.6536 16.8047 9.52858C16.6797 9.40356 16.5101 9.33332 16.3333 9.33332C16.1565 9.33332 15.987 9.40356 15.8619 9.52858C15.7369 9.6536 15.6667 9.82317 15.6667 9.99998C15.6667 10.1768 15.7369 10.3464 15.8619 10.4714ZM8.33334 10.6667H12.3333V7.33332H8.33334V10.6667ZM17.52 8.81332L17.5133 8.81998C17.8133 9.11998 18 9.53998 18 9.99998V16.3333C18 16.5522 17.9569 16.7689 17.8731 16.9711C17.7894 17.1733 17.6666 17.3571 17.5118 17.5118C17.3571 17.6666 17.1734 17.7894 16.9711 17.8731C16.7689 17.9569 16.5522 18 16.3333 18C15.8913 18 15.4674 17.8244 15.1548 17.5118C14.8423 17.1993 14.6667 16.7753 14.6667 16.3333V13H13.6667V18H7V7.33332C7 6.59332 7.59334 5.99998 8.33334 5.99998H12.3333C12.687 5.99998 13.0261 6.14046 13.2761 6.39051C13.5262 6.64056 13.6667 6.9797 13.6667 7.33332V12H14.3333C14.687 12 15.0261 12.1405 15.2761 12.3905C15.5262 12.6406 15.6667 12.9797 15.6667 13.3333V16.3333C15.6667 16.5101 15.7369 16.6797 15.8619 16.8047C15.987 16.9297 16.1565 17 16.3333 17C16.5101 17 16.6797 16.9297 16.8047 16.8047C16.9298 16.6797 17 16.5101 17 16.3333V11.5267C16.7933 11.6133 16.5733 11.6667 16.3333 11.6667C15.8913 11.6667 15.4674 11.4911 15.1548 11.1785C15.0001 11.0237 14.8773 10.84 14.7935 10.6378C14.7098 10.4356 14.6667 10.2189 14.6667 9.99998C14.6667 9.28665 15.1133 8.66665 15.74 8.44665L14.3333 7.03998L15.04 6.33332L17.52 8.81332Z" fill="#7FA8D4"/>
</svg>
