<svg width="25" height="35" viewBox="0 0 25 35" fill="none" xmlns="http://www.w3.org/2000/svg">
<circle cx="12" cy="12" r="10" fill="white"/>
<path fill-rule="evenodd" clip-rule="evenodd" d="M3.18413 3.91306C5.08635 1.86862 6.8819 0.837509 9.6019 0.197509C11.113 -0.158047 14.0463 -0.0158261 15.6463 0.481952C17.6552 1.10417 19.0419 1.97528 20.713 3.66417C23.1308 6.09973 24.1441 8.55306 24.1619 12.0375C24.1797 14.3308 23.9308 15.3797 22.8819 17.5308C22.1175 19.1131 21.8864 19.3975 19.3797 21.8864C15.0597 26.1886 12.9263 29.8864 12.3041 34.1353C12.2697 34.3793 11.918 34.3783 11.8775 34.1353C11.1308 29.6553 9.1219 26.1886 4.81968 21.9042C1.88635 18.9886 1.22857 18.0108 0.428571 15.4153C-0.104762 13.7086 -0.140317 10.7575 0.321905 9.01529C0.83746 7.09529 1.79746 5.38862 3.18413 3.91306ZM6.72516 11.6872L6.12069 11.8626L6 11.8973L6.0104 12.0234C6.08323 12.8597 6.25074 13.6277 6.51188 14.3263C6.77406 15.026 7.133 15.6554 7.58661 16.2132C8.04231 16.7764 8.54066 17.1987 9.08167 17.4824C9.6258 17.7671 10.2095 17.91 10.8337 17.91C11.2187 17.91 11.5693 17.8533 11.8845 17.7387C12.2029 17.6242 12.4838 17.4509 12.7252 17.2218C12.9676 16.9907 13.1496 16.7249 13.2703 16.4223C13.39 16.1218 13.4503 15.7877 13.4503 15.419C13.4503 14.9788 13.3629 14.5291 13.1881 14.071C13.031 13.6602 12.8042 13.2421 12.5056 12.8187C12.6867 12.6989 12.8552 12.6054 13.0123 12.5392C13.1944 12.4625 13.3567 12.4237 13.4982 12.4237C13.6272 12.4237 13.725 12.4867 13.7916 12.6128C13.8748 12.7714 13.9164 13.0194 13.9164 13.3566V13.9439C13.9164 14.3389 13.9445 14.6793 13.9997 14.964C14.0579 15.2582 14.1453 15.4957 14.2639 15.6764C14.3877 15.8644 14.5521 16.0063 14.7591 16.1008C14.9589 16.1922 15.1972 16.2385 15.4729 16.2385C15.863 16.2385 16.2136 16.147 16.5257 15.9653C16.8358 15.7846 17.1042 15.5156 17.3321 15.1584C17.5557 14.8065 17.7233 14.3946 17.8346 13.9239C17.9449 13.4585 18 12.9332 18 12.3491C18 11.7754 17.9563 11.2711 17.8679 10.8351C17.7784 10.3939 17.6442 10.024 17.4632 9.72672C17.279 9.41994 17.046 9.1909 16.7661 9.03646C16.4862 8.88202 16.1616 8.80532 15.7933 8.80532C15.2263 8.80532 14.7664 8.98183 14.4127 9.33484C14.0922 9.65527 13.8644 10.1196 13.7312 10.728C13.6802 10.7227 13.6386 10.7196 13.6053 10.7196C13.263 10.7196 12.9156 10.8089 12.5597 10.9885C12.2466 11.1461 11.9282 11.3751 11.6036 11.6735L11.5453 11.6189C11.5901 11.5138 11.6244 11.4025 11.6483 11.2848C11.6816 11.1303 11.6983 10.9675 11.6983 10.7941C11.6983 10.4002 11.64 10.0419 11.5235 9.71831C11.407 9.39367 11.2301 9.1058 10.995 8.8568C10.7588 8.60676 10.4862 8.4187 10.1772 8.29262C9.8703 8.16865 9.53009 8.10561 9.15658 8.10561C8.87775 8.10561 8.60205 8.13713 8.3305 8.20017C8.05896 8.2632 7.79261 8.35776 7.53251 8.48278L7.40246 8.54477L8.05375 10.168L8.20357 10.0839C8.49697 9.92003 8.78204 9.79816 9.05878 9.71726C9.33241 9.63741 9.59979 9.59749 9.86093 9.59749C10.0347 9.59749 10.1824 9.61535 10.3073 9.65002C10.4238 9.68364 10.5205 9.73197 10.5965 9.79501C10.6672 9.85699 10.7213 9.93369 10.7567 10.0251C10.7952 10.1228 10.8139 10.2405 10.8139 10.377C10.8139 10.7406 10.6776 11.0526 10.4061 11.3153C10.12 11.5905 9.68719 11.8143 9.10456 11.9855L8.94018 12.0339L9.61748 13.6445L9.75897 13.5793C10.0409 13.4501 10.3031 13.2831 10.5466 13.075C10.7463 12.9048 10.9325 12.7084 11.1063 12.4867C11.4153 12.8218 11.6504 13.1706 11.8127 13.5352C11.9938 13.9439 12.0843 14.3736 12.0843 14.8243C12.0843 15.0639 12.0458 15.2834 11.9688 15.4831C11.8918 15.6827 11.7753 15.8644 11.6203 16.0283C11.4652 16.1912 11.2946 16.312 11.1063 16.3929C10.919 16.4738 10.712 16.5137 10.4852 16.5137C10.0399 16.5137 9.62164 16.4097 9.23149 16.2017C8.83614 15.9916 8.46679 15.6743 8.12242 15.2509C7.77285 14.8212 7.48465 14.3242 7.25681 13.7621C7.02792 13.1959 6.85937 12.5613 6.75117 11.8595L6.72516 11.6872ZM14.6884 11.3468C14.6291 11.1965 14.5459 11.0778 14.4408 10.9906C14.5636 10.7763 14.7134 10.6124 14.8934 10.4989C15.1035 10.3655 15.3574 10.2983 15.6549 10.2983C15.8682 10.2983 16.0607 10.3455 16.2313 10.439C16.4051 10.5346 16.5601 10.6796 16.6964 10.874C16.8368 11.0726 16.9419 11.3026 17.0116 11.5621C17.0834 11.8259 17.1188 12.1221 17.1188 12.451C17.1188 12.7893 17.0792 13.0971 17.0012 13.3755C16.9242 13.6508 16.8087 13.8966 16.6548 14.112L16.6537 14.113C16.5018 14.3263 16.3322 14.486 16.146 14.5911C15.9619 14.694 15.759 14.7455 15.5363 14.7455C15.296 14.7455 15.117 14.651 14.9995 14.4629C14.8673 14.2517 14.8018 13.925 14.8018 13.4816V12.0643C14.8018 11.7754 14.7633 11.5359 14.6884 11.3468ZM10.4727 6.28384L9.96185 6.66521L9.84533 6.75136L9.92336 6.87219C10.3093 7.46999 10.7422 7.91965 11.2207 8.22118C11.7056 8.52691 12.2351 8.67925 12.8084 8.67925C13.1923 8.67925 13.5731 8.58049 13.9497 8.38192C14.3191 8.18756 14.6853 7.89654 15.0484 7.51096L15.1597 7.39224L13.8321 6.27438L13.7364 6.40466C13.5148 6.70619 13.2755 6.93207 13.0165 7.08126C12.7637 7.22624 12.4911 7.29979 12.1977 7.29979C11.8814 7.29979 11.588 7.22624 11.3185 7.07916C11.046 6.92997 10.7942 6.70409 10.5632 6.40256L10.4727 6.28384ZM13.4045 6.05586L12.4807 5.10715L12.3777 4.99998L11.3217 5.99387L12.3693 7.08021L13.4045 6.05586Z" fill="#9D9EBF"/>
</svg>
