<svg width="25" height="35" viewBox="0 0 25 35" fill="none" xmlns="http://www.w3.org/2000/svg">
<circle cx="12" cy="12" r="10" fill="white"/>
<path fill-rule="evenodd" clip-rule="evenodd" d="M3.18413 3.91306C5.08635 1.86862 6.8819 0.837509 9.60191 0.197509C11.113 -0.158047 14.0463 -0.0158261 15.6463 0.481952C17.6552 1.10417 19.0419 1.97528 20.713 3.66417C23.1308 6.09973 24.1441 8.55306 24.1619 12.0375C24.1797 14.3308 23.9308 15.3797 22.8819 17.5308C22.1175 19.1131 21.8864 19.3975 19.3797 21.8864C15.0597 26.1886 12.9263 29.8864 12.3041 34.1353C12.2697 34.3793 11.918 34.3783 11.8775 34.1353C11.1308 29.6553 9.1219 26.1886 4.81968 21.9042C1.88635 18.9886 1.22857 18.0108 0.428571 15.4153C-0.104762 13.7086 -0.140317 10.7575 0.321905 9.01529C0.83746 7.09529 1.79746 5.38862 3.18413 3.91306ZM9.96505 18.7055C10.1251 18.8076 10.2754 18.8047 10.416 18.6969L11.835 17.6903L13.2539 18.6969C13.3946 18.8047 13.5449 18.8076 13.7049 18.7055C13.8645 18.6039 13.9123 18.4692 13.8484 18.3014L13.2923 16.6477L14.6921 15.713C14.8455 15.6172 14.8902 15.4853 14.8263 15.3176C14.7624 15.1498 14.6409 15.0659 14.462 15.0659H12.7554L12.2185 13.4122L14.9413 11.9023C15.1714 11.7705 15.3504 11.5968 15.4782 11.3811C15.6061 11.1654 15.67 10.9197 15.67 10.6441V6.43796C15.67 6.04251 15.5199 5.70386 15.2198 5.42201C14.9191 5.14065 14.5578 4.99996 14.136 4.99996H9.534C9.11215 4.99996 8.75114 5.14065 8.45099 5.42201C8.15033 5.70386 8 6.04251 8 6.43796V10.6441C8 10.9197 8.06391 11.1654 8.19174 11.3811C8.31958 11.5968 8.49854 11.7705 8.72865 11.9023L11.4515 13.4122L10.9146 15.0659H9.20802C9.02905 15.0659 8.90761 15.1498 8.8437 15.3176C8.77978 15.4853 8.82452 15.6172 8.97792 15.713L10.3777 16.6477L9.82162 18.3014C9.7577 18.4692 9.80551 18.6039 9.96505 18.7055ZM12.602 11.5069L11.835 11.9383L11.068 11.5069V7.15695C11.068 6.95324 11.1416 6.78236 11.2889 6.64431C11.4356 6.50674 11.6177 6.43796 11.835 6.43796C12.0523 6.43796 12.2346 6.50674 12.3819 6.64431C12.5286 6.78236 12.602 6.95324 12.602 7.15695V11.5069Z" fill="#9D9EBF"/>
</svg>
