<svg width="25" height="35" viewBox="0 0 25 35" fill="none" xmlns="http://www.w3.org/2000/svg">
<circle cx="12" cy="13" r="10" fill="white"/>
<path fill-rule="evenodd" clip-rule="evenodd" d="M9.60191 0.197509C6.8819 0.837509 5.08635 1.86862 3.18413 3.91306C1.79746 5.38862 0.83746 7.09529 0.321905 9.01529C-0.140317 10.7575 -0.104762 13.7086 0.428571 15.4153C1.22857 18.0108 1.88635 18.9886 4.81968 21.9042C9.1219 26.1886 11.1308 29.6553 11.8775 34.1353C11.918 34.3783 12.2697 34.3793 12.3041 34.1353C12.9263 29.8864 15.0597 26.1886 19.3797 21.8864C21.8864 19.3975 22.1175 19.1131 22.8819 17.5308C23.9308 15.3797 24.1797 14.3308 24.1619 12.0375C24.1441 8.55306 23.1308 6.09973 20.713 3.66417C19.0419 1.97528 17.6552 1.10417 15.6463 0.481952C14.0463 -0.0158261 11.113 -0.158047 9.60191 0.197509ZM7.03125 11.1455H8.48113L7.97887 9.99055C7.79624 9.5702 7.45599 9.23828 7.03125 9.06611V11.1455ZM7.03125 13.3195H9.43006C9.42196 13.3052 9.41438 13.2906 9.40731 13.2757L8.86481 12.028H7.03125V13.3195ZM7.03125 15.493H9.64925V14.2006H7.03125V15.493ZM8.89237 5.94673C9.26466 5.61819 9.74422 5.43707 10.2407 5.43748C10.5096 5.43754 10.7758 5.4906 11.0242 5.59363C11.2725 5.69665 11.4982 5.84762 11.6881 6.03791C11.8781 6.22819 12.0287 6.45406 12.1313 6.70258C12.2339 6.95111 12.2865 7.21742 12.2861 7.4863V7.70505C13.0238 8.04203 13.6108 8.63994 13.9341 9.38373L14.7886 11.3525H14.8481C15.3911 11.3538 15.9225 11.5101 16.3798 11.8031C16.837 12.096 17.2011 12.5134 17.4293 13.0062L19.4195 17.3213C19.4809 17.4546 19.5078 17.6012 19.4977 17.7476C19.4876 17.8941 19.4409 18.0356 19.3618 18.1592C19.2826 18.2828 19.1737 18.3846 19.0449 18.455C18.9162 18.5255 18.7718 18.5625 18.625 18.5625H13.3531C13.1869 18.5625 13.0241 18.5152 12.8838 18.4261C12.7435 18.337 12.6315 18.2098 12.5608 18.0594L11.1805 15.1185V17.6875C11.1805 17.9195 11.0883 18.1421 10.9242 18.3062C10.7601 18.4703 10.5376 18.5625 10.3055 18.5625H9.64925C9.41719 18.5625 9.19463 18.4703 9.03053 18.3062C8.86644 18.1421 8.77425 17.9195 8.77425 17.6875V17.25H7.90625V17.6875C7.90625 17.9195 7.81406 18.1421 7.64997 18.3062C7.48587 18.4703 7.26331 18.5625 7.03125 18.5625H6.375C6.14293 18.5625 5.92038 18.4703 5.75628 18.3062C5.59219 18.1421 5.5 17.9195 5.5 17.6875V7.48148C5.49971 7.08841 5.61285 6.7036 5.82582 6.37322C6.0388 6.04285 6.34258 5.78094 6.70071 5.61892C7.05884 5.45689 7.45611 5.40164 7.84486 5.45979C8.23361 5.51794 8.59733 5.68701 8.89237 5.94673ZM11.0674 6.65488C10.8481 6.43565 10.5508 6.31248 10.2407 6.31248C9.93071 6.31248 9.63337 6.43565 9.41414 6.65488C9.19491 6.87411 9.07175 7.17145 9.07175 7.48148V8.93005L9.728 8.93048V7.48148C9.728 7.34549 9.78202 7.21507 9.87818 7.11892C9.97434 7.02276 10.1048 6.96873 10.2407 6.96873C10.3767 6.96873 10.5072 7.02276 10.6033 7.11892C10.6995 7.21507 10.7535 7.34549 10.7535 7.48148V8.93573L10.7636 8.93048V8.93748H10.9224C11.2635 8.93753 11.5972 9.03727 11.8823 9.22444C12.1675 9.41161 12.3918 9.67805 12.5276 9.99098L13.6681 12.6186C13.6968 12.6847 13.7414 12.7427 13.7978 12.7874C13.8543 12.8321 13.921 12.8622 13.9919 12.875C14.0176 12.8797 14.0436 12.882 14.0697 12.882H14.8467C15.0976 12.8819 15.3432 12.9538 15.5545 13.089C15.7658 13.2242 15.9339 13.4172 16.0389 13.645L16.0875 13.75L17.9022 17.6875H18.625L16.6348 13.3694C16.4773 13.0277 16.2252 12.7383 15.9083 12.5354C15.5914 12.3326 15.223 12.2248 14.8467 12.2249H14.2132L13.13 9.73111C12.9766 9.37688 12.7402 9.06475 12.4408 8.82109C12.1414 8.57742 11.7878 8.40937 11.4097 8.33111V7.48148C11.4097 7.17145 11.2866 6.87411 11.0674 6.65488ZM8.05675 8.92917L8.713 8.92961V7.48148C8.713 7.17145 8.58984 6.87411 8.37061 6.65488C8.15138 6.43565 7.85404 6.31248 7.544 6.31248C7.23396 6.31248 6.93662 6.43565 6.71739 6.65488C6.49816 6.87411 6.375 7.17145 6.375 7.48148V17.6875H7.03125V16.375H9.65056V17.6875H10.3068V13.5382H10.5872C10.8654 13.5804 11.1283 13.6921 11.3518 13.8629C11.5753 14.0338 11.752 14.2583 11.8656 14.5156L13.3531 17.6875H14.0754L12.4602 14.2409C12.2629 13.813 11.8914 13.3987 11.4566 13.1423C11.1881 12.995 10.8913 12.9065 10.5859 12.8829H9.95244V12.882L9.94937 12.875L8.58044 9.73023C8.4509 9.43066 8.26187 9.16051 8.02481 8.93617C7.74394 8.67061 7.40312 8.47898 7.03125 8.37311V7.48061C7.03125 7.34462 7.08527 7.2142 7.18143 7.11804C7.27759 7.02188 7.40801 6.96786 7.544 6.96786C7.67999 6.96786 7.81041 7.02188 7.90657 7.11804C8.00273 7.2142 8.05675 7.34462 8.05675 7.48061V8.92917Z" fill="#80D980"/>
</svg>
