<svg width="25" height="35" viewBox="0 0 25 35" fill="none" xmlns="http://www.w3.org/2000/svg">
<circle cx="12" cy="12" r="10" fill="white"/>
<path fill-rule="evenodd" clip-rule="evenodd" d="M3.18413 3.91306C5.08635 1.86862 6.8819 0.837509 9.6019 0.197509C11.113 -0.158047 14.0463 -0.0158261 15.6463 0.481952C17.6552 1.10417 19.0419 1.97528 20.713 3.66417C23.1308 6.09973 24.1441 8.55306 24.1619 12.0375C24.1797 14.3308 23.9308 15.3797 22.8819 17.5308C22.1175 19.1131 21.8864 19.3975 19.3797 21.8864C15.0597 26.1886 12.9263 29.8864 12.3041 34.1353C12.2697 34.3793 11.918 34.3783 11.8775 34.1353C11.1308 29.6553 9.1219 26.1886 4.81968 21.9042C1.88635 18.9886 1.22857 18.0108 0.428571 15.4153C-0.104762 13.7086 -0.140317 10.7575 0.321905 9.01529C0.83746 7.09529 1.79746 5.38862 3.18413 3.91306ZM11.835 14.1387L10.668 14.9992C10.5343 15.0948 10.3945 15.0979 10.2486 15.0085C10.1027 14.9186 10.0602 14.79 10.1209 14.6227L10.5586 13.2065L9.40981 12.2922C9.26393 12.1847 9.22139 12.0472 9.28217 11.8799C9.34295 11.7126 9.46451 11.629 9.64685 11.629H11.0327L11.5068 10.2128C11.5675 10.0454 11.6769 9.96178 11.835 9.96178C11.993 9.96178 12.1024 10.0454 12.1632 10.2128L12.6373 11.629H14.0231C14.2054 11.629 14.3241 11.7126 14.379 11.8799C14.4335 12.0472 14.3939 12.1847 14.2602 12.2922L13.0749 13.2065L13.5125 14.6227C13.5733 14.79 13.5308 14.9186 13.3849 15.0085C13.239 15.0979 13.0992 15.0948 12.9655 14.9992L11.835 14.1387ZM11.6526 20.18H11.835C12.0052 20.18 12.1207 20.168 12.1814 20.1441C13.7739 19.6541 15.0868 18.683 16.1201 17.2307C17.1533 15.7789 17.67 14.1745 17.67 12.4177V9.02959C17.67 8.73081 17.582 8.46191 17.4059 8.22289C17.2294 7.98387 17.0014 7.81058 16.7218 7.70302L12.3455 6.08962C12.1754 6.02986 12.0052 5.99998 11.835 5.99998C11.6648 5.99998 11.4946 6.02986 11.3244 6.08962L6.94817 7.70302C6.66857 7.81058 6.44077 7.98387 6.26474 8.22289C6.08823 8.46191 5.99998 8.73081 5.99998 9.02959V12.4177C5.99998 14.1745 6.51662 15.7789 7.5499 17.2307C8.58318 18.683 9.89606 19.6541 11.4885 20.1441C11.5372 20.168 11.5919 20.18 11.6526 20.18Z" fill="#9D9EBF"/>
</svg>
