<svg width="25" height="35" viewBox="0 0 25 35" fill="none" xmlns="http://www.w3.org/2000/svg">
<circle cx="12" cy="12" r="10" fill="white"/>
<path d="M3.18413 4.25413C5.08635 2.20969 6.88191 1.17857 9.6019 0.538574C11.113 0.183017 14.0463 0.325239 15.6463 0.823017C17.6552 1.44524 19.0419 2.31635 20.713 4.00524C23.1308 6.4408 24.1441 8.89413 24.1619 12.3786C24.1797 14.6719 23.9308 15.7208 22.8819 17.8719C22.1175 19.4542 21.8864 19.7386 19.3797 22.2275C15.0597 26.5297 12.9263 30.2275 12.3041 34.4764C12.2697 34.7204 11.918 34.7194 11.8775 34.4764C11.1308 29.9964 9.12191 26.5297 4.81968 22.2453C1.88635 19.3297 1.22857 18.3519 0.428572 15.7564C-0.104762 14.0497 -0.140317 11.0986 0.321905 9.35635C0.837461 7.43635 1.79746 5.72969 3.18413 4.25413ZM6.37783 16.3869C6.519 16.5133 6.67708 16.5522 6.85208 16.5036C7.12431 16.4258 7.33333 16.3237 7.47917 16.1973C7.625 16.0709 7.82917 16.0077 8.09167 16.0077C8.44167 16.0077 8.71875 16.105 8.92292 16.2994C9.12708 16.4939 9.50139 16.5911 10.0458 16.5911C10.5903 16.5911 10.9646 16.4939 11.1687 16.2994C11.3729 16.105 11.65 16.0077 12 16.0077C12.35 16.0077 12.6271 16.105 12.8313 16.2994C13.0354 16.4939 13.4097 16.5911 13.9542 16.5911C14.4986 16.5911 14.8729 16.4939 15.0771 16.2994C15.2812 16.105 15.5583 16.0077 15.9083 16.0077C16.1708 16.0077 16.375 16.0709 16.5208 16.1973C16.6667 16.3237 16.8757 16.4258 17.1479 16.5036C17.3229 16.5522 17.481 16.5133 17.6222 16.3869C17.7629 16.2605 17.8333 16.0952 17.8333 15.8911C17.8333 15.7744 17.7921 15.6675 17.7097 15.5702C17.6268 15.473 17.5174 15.3952 17.3813 15.3369C17.1868 15.2591 16.9949 15.1571 16.8055 15.0307C16.6157 14.9043 16.3167 14.8411 15.9083 14.8411C15.3639 14.8411 14.9896 14.9383 14.7854 15.1327C14.5813 15.3272 14.3042 15.4244 13.9542 15.4244C13.6042 15.4244 13.3271 15.3272 13.1229 15.1327C12.9188 14.9383 12.5444 14.8411 12 14.8411C11.4556 14.8411 11.0813 14.9383 10.8771 15.1327C10.6729 15.3272 10.3958 15.4244 10.0458 15.4244C9.69583 15.4244 9.41875 15.3272 9.21458 15.1327C9.01042 14.9383 8.63611 14.8411 8.09167 14.8411C7.68333 14.8411 7.38447 14.9043 7.19508 15.0307C7.00531 15.1571 6.81319 15.2591 6.61875 15.3369C6.48264 15.3952 6.37336 15.4754 6.29092 15.5772C6.20808 15.6795 6.16667 15.7841 6.16667 15.8911C6.16667 16.0952 6.23706 16.2605 6.37783 16.3869ZM6.37783 13.7619C6.519 13.8883 6.67708 13.9272 6.85208 13.8786C7.12431 13.8008 7.33333 13.6987 7.47917 13.5723C7.625 13.4459 7.82917 13.3827 8.09167 13.3827C8.44167 13.3827 8.71156 13.48 8.90133 13.6744C9.09072 13.8689 9.47222 13.9661 10.0458 13.9661C10.6194 13.9661 10.9963 13.8689 11.1763 13.6744C11.356 13.48 11.6306 13.3827 12 13.3827C12.35 13.3827 12.6248 13.48 12.8243 13.6744C13.0234 13.8689 13.4 13.9661 13.9542 13.9661C14.5278 13.9661 14.9093 13.8689 15.0987 13.6744C15.2884 13.48 15.5583 13.3827 15.9083 13.3827C16.1708 13.3827 16.375 13.4459 16.5208 13.5723C16.6667 13.6987 16.8757 13.8008 17.1479 13.8786C17.3229 13.9272 17.481 13.8883 17.6222 13.7619C17.7629 13.6355 17.8333 13.4702 17.8333 13.2661C17.8333 13.1494 17.7921 13.0425 17.7097 12.9452C17.6268 12.848 17.5174 12.7702 17.3813 12.7119C17.1868 12.6341 16.9949 12.5321 16.8055 12.4057C16.6157 12.2793 16.3167 12.2161 15.9083 12.2161C15.3639 12.2161 14.9896 12.3133 14.7854 12.5077C14.5813 12.7022 14.3042 12.7994 13.9542 12.7994C13.6042 12.7994 13.3271 12.7022 13.1229 12.5077C12.9188 12.3133 12.5444 12.2161 12 12.2161C11.4556 12.2161 11.0813 12.3133 10.8771 12.5077C10.6729 12.7022 10.3958 12.7994 10.0458 12.7994C9.70556 12.7994 9.431 12.7022 9.22217 12.5077C9.01294 12.3133 8.63611 12.2161 8.09167 12.2161C7.68333 12.2161 7.38447 12.2793 7.19508 12.4057C7.00531 12.5321 6.81319 12.6341 6.61875 12.7119C6.48264 12.7702 6.37336 12.8504 6.29092 12.9522C6.20808 13.0545 6.16667 13.1591 6.16667 13.2661C6.16667 13.4702 6.23706 13.6355 6.37783 13.7619ZM9.50625 11.246C9.66181 11.3094 9.84167 11.3411 10.0458 11.3411C10.3958 11.3411 10.6729 11.2439 10.8771 11.0494C11.0813 10.855 11.4556 10.7577 12 10.7577C12.5444 10.7577 12.9188 10.855 13.1229 11.0494C13.3271 11.2439 13.6042 11.3411 13.9542 11.3411C14.1583 11.3411 14.3382 11.3094 14.4938 11.246C14.6493 11.183 14.8097 11.098 14.975 10.9911L11.2417 7.25772C10.8722 6.88827 10.4979 6.61839 10.1187 6.44805C9.73958 6.27811 9.29236 6.16883 8.77708 6.12022C8.58264 6.10077 8.41017 6.16144 8.25967 6.30222C8.10878 6.44339 8.03333 6.62091 8.03333 6.8348C8.03333 7.02925 8.10139 7.19686 8.2375 7.33764C8.37361 7.4788 8.53889 7.56397 8.73333 7.59314C9.07361 7.64175 9.37267 7.73897 9.6305 7.8848C9.88795 8.03064 10.1382 8.22508 10.3813 8.46814L10.9646 9.05147L9.025 10.9911C9.19028 11.098 9.35069 11.183 9.50625 11.246ZM13.7063 8.5848C13.9882 8.86675 14.3333 9.00772 14.7417 9.00772C15.15 9.00772 15.4951 8.86675 15.7771 8.5848C16.059 8.30286 16.2 7.95772 16.2 7.54939C16.2 7.15077 16.059 6.80797 15.7771 6.52097C15.4951 6.23436 15.15 6.09105 14.7417 6.09105C14.3333 6.09105 13.9882 6.23436 13.7063 6.52097C13.4243 6.80797 13.2833 7.15077 13.2833 7.54939C13.2833 7.95772 13.4243 8.30286 13.7063 8.5848Z" fill="#98A5B3"/>
</svg>
