<svg width="25" height="35" viewBox="0 0 25 35" fill="none" xmlns="http://www.w3.org/2000/svg">
<path fill-rule="evenodd" clip-rule="evenodd" d="M3.18413 3.91306C5.08635 1.86862 6.8819 0.837506 9.6019 0.197506C11.113 -0.15805 14.0463 -0.015829 15.6463 0.481949C17.6552 1.10417 19.0419 1.97528 20.713 3.66417C23.1308 6.09973 24.1441 8.55306 24.1619 12.0375C24.1797 14.3308 23.9308 15.3797 22.8819 17.5308C22.1175 19.1131 21.8864 19.3975 19.3797 21.8864C15.0597 26.1886 12.9263 29.8864 12.3041 34.1353C12.2697 34.3793 11.918 34.3783 11.8775 34.1353C11.1308 29.6553 9.1219 26.1886 4.81968 21.9042C1.88635 18.9886 1.22857 18.0108 0.428571 15.4153C-0.104762 13.7086 -0.140318 10.7575 0.321905 9.01528C0.83746 7.09528 1.79746 5.38862 3.18413 3.91306ZM9.95833 15.9583V16.8333L12 16.25L14.0417 16.8333V15.9583L12.875 15.0833V11.875L17.8333 13.3333V12.1666L12.875 9.24998V6.04165C12.875 5.78887 12.7924 5.57984 12.6271 5.41457C12.4618 5.24929 12.2528 5.16665 12 5.16665C11.7472 5.16665 11.5382 5.24929 11.3729 5.41457C11.2076 5.57984 11.125 5.78887 11.125 6.04165V9.24998L6.16667 12.1666V13.3333L11.125 11.875V15.0833L9.95833 15.9583Z" fill="black"/>
</svg>
