<svg width="26" height="35" viewBox="0 0 26 35" fill="none" xmlns="http://www.w3.org/2000/svg">
<ellipse cx="12.8789" cy="11.0007" rx="9.99885" ry="10.0006" fill="white"/>
<path d="M4.06389 3.9133C5.96589 1.86873 7.76124 0.83756 10.4809 0.197521C11.9919 -0.158056 14.9248 -0.0158271 16.5246 0.481981C18.5333 1.10424 19.9198 1.97541 21.5908 3.6644C24.0083 6.1001 25.0215 8.55359 25.0393 12.0382C25.0571 14.3317 24.8082 15.3806 23.7594 17.5319C22.9951 19.1143 22.764 19.3987 20.2576 21.8877C15.9381 26.1902 13.8049 29.8882 13.1828 34.1374C13.1484 34.3814 12.7968 34.3804 12.7563 34.1374C12.0097 29.6571 10.001 26.1902 5.69925 21.9055C2.76626 18.9897 2.10856 18.0119 1.30865 15.4162C0.775377 13.7094 0.739825 10.7581 1.20199 9.01583C1.71749 7.09572 2.67738 5.38894 4.06389 3.9133ZM19.07 14.1422C19.1976 14.2702 19.3558 14.3342 19.5447 14.3342C19.7336 14.3342 19.8917 14.2702 20.0192 14.1422C20.1472 14.0146 20.2112 13.8563 20.2112 13.6674V9.40055C20.2112 9.27832 20.1808 9.16431 20.1199 9.05853C20.0586 8.95319 19.9723 8.87275 19.8612 8.81718L13.512 5.3503C13.412 5.29475 13.3094 5.25297 13.204 5.22496C13.0983 5.1974 12.9898 5.18363 12.8788 5.18363C12.7677 5.18363 12.6592 5.1974 12.5535 5.22496C12.4481 5.25297 12.3455 5.29475 12.2455 5.3503L6.6128 8.41716C6.5017 8.47272 6.41571 8.55339 6.35483 8.65917C6.29351 8.76451 6.26284 8.8783 6.26284 9.00052C6.26284 9.12276 6.29351 9.23654 6.35483 9.34188C6.41571 9.44766 6.5017 9.52833 6.6128 9.5839L12.2288 12.6508C12.3288 12.7063 12.4317 12.7479 12.5375 12.7754C12.6428 12.8034 12.7566 12.8175 12.8788 12.8175C13.0009 12.8175 13.1147 12.8034 13.22 12.7754C13.3258 12.7479 13.4287 12.7063 13.5287 12.6508L18.8781 9.73391V13.6674C18.8781 13.8563 18.9421 14.0146 19.07 14.1422ZM12.5535 16.7763C12.6592 16.8039 12.7677 16.8177 12.8788 16.8177C12.9898 16.8177 13.0983 16.8039 13.204 16.7763C13.3094 16.7483 13.412 16.7065 13.512 16.651L16.845 14.8509C17.0672 14.7287 17.2393 14.5649 17.3615 14.3596C17.4838 14.1538 17.5449 13.923 17.5449 13.6674V11.134L13.7786 13.1675C13.6343 13.2452 13.4871 13.3174 13.3374 13.3841C13.1871 13.4508 13.0343 13.4841 12.8788 13.4841C12.7232 13.4841 12.5732 13.4535 12.4288 13.3921C12.2844 13.3312 12.1399 13.2619 11.9956 13.1841L8.21262 11.134V13.6674C8.21262 13.923 8.27372 14.1538 8.39594 14.3596C8.51814 14.5649 8.69034 14.7287 8.91254 14.8509L12.2455 16.651C12.3455 16.7065 12.4481 16.7483 12.5535 16.7763Z" fill="#874ABD"/>
</svg>
