<svg width="25" height="35" viewBox="0 0 25 35" fill="none" xmlns="http://www.w3.org/2000/svg">
<ellipse cx="13.7584" cy="12.0007" rx="9.99885" ry="10.0006" fill="white"/>
<path d="M3.94365 3.9133C5.84565 1.86873 7.641 0.83756 10.3607 0.197521C11.8716 -0.158056 14.8046 -0.015827 16.4044 0.481981C18.4131 1.10424 19.7996 1.9754 21.4705 3.66439C23.888 6.1001 24.9012 8.55358 24.919 12.0382C24.9368 14.3317 24.6879 15.3806 23.6392 17.5319C22.8749 19.1143 22.6438 19.3987 20.1374 21.8877C15.8179 26.1902 13.6847 29.8882 13.0626 34.1374C13.0282 34.3814 12.6765 34.3804 12.636 34.1374C11.8894 29.6571 9.88075 26.1902 5.57902 21.9055C2.64602 18.9897 1.98832 18.0119 1.18841 15.4162C0.655138 13.7094 0.619587 10.7582 1.08176 9.01584C1.59725 7.09572 2.55714 5.38895 3.94365 3.9133ZM6.09261 8.66719V15.3342H7.42579V8.66719H6.09261ZM18.0912 8.66719V15.3342H19.4244V8.66719H18.0912ZM8.09238 10.0006V16.6677H12.0919V12.6675H10.7587V11.334H12.0919V7.33377H10.7587C10.0255 7.33377 9.39779 7.5949 8.87563 8.11716C8.35346 8.63941 8.09238 9.26723 8.09238 10.0006ZM13.4251 12.6675V16.6677H17.4247V10.0006C17.4247 9.26723 17.1636 8.63941 16.6414 8.11716C16.1192 7.5949 15.4915 7.33377 14.7583 7.33377H13.4251V11.334H14.7583V12.6675H13.4251Z" fill="#299091"/>
</svg>
