<svg width="25" height="35" viewBox="0 0 25 35" fill="none" xmlns="http://www.w3.org/2000/svg">
<ellipse cx="12.1184" cy="12.0007" rx="9.99885" ry="10.0006" fill="white"/>
<path d="M3.30352 3.9133C5.20552 1.86873 7.00087 0.83756 9.72055 0.197521C11.2315 -0.158056 14.1644 -0.015827 15.7643 0.481981C17.7729 1.10424 19.1595 1.9754 20.8304 3.66439C23.2479 6.1001 24.2611 8.55358 24.2789 12.0382C24.2967 14.3317 24.0478 15.3806 22.999 17.5319C22.2347 19.1143 22.0036 19.3987 19.4972 21.8877C15.1777 26.1902 13.0446 29.8882 12.4224 34.1374C12.388 34.3814 12.0364 34.3804 11.9959 34.1374C11.2493 29.6571 9.24061 26.1902 4.93888 21.9055C2.00588 18.9897 1.34818 18.0119 0.548273 15.4162C0.0150009 13.7094 -0.0205501 10.7582 0.441619 9.01584C0.957115 7.09572 1.917 5.38895 3.30352 3.9133ZM10.3759 9.84935V6.02765H8.11883V15.9739H10.3759V11.8117H14.0792V15.9737H16.321V6.02765H14.079V9.84935H10.3759Z" fill="#BA272A"/>
</svg>
