<svg width="26" height="35" viewBox="0 0 26 35" fill="none" xmlns="http://www.w3.org/2000/svg">
<ellipse cx="12.9187" cy="12.0007" rx="9.99885" ry="10.0006" fill="white"/>
<path d="M4.10381 3.9133C6.00581 1.86873 7.80116 0.83756 10.5208 0.197521C12.0318 -0.158056 14.9647 -0.0158271 16.5645 0.481981C18.5732 1.10424 19.9598 1.97541 21.6307 3.6644C24.0482 6.1001 25.0614 8.55359 25.0792 12.0382C25.097 14.3317 24.8481 15.3806 23.7993 17.5319C23.035 19.1143 22.8039 19.3987 20.2975 21.8877C15.978 26.1902 13.8449 29.8882 13.2227 34.1374C13.1883 34.3814 12.8367 34.3804 12.7962 34.1374C12.0496 29.6571 10.0409 26.1902 5.73917 21.9055C2.80618 18.9897 2.14847 18.0119 1.34857 15.4162C0.815294 13.7094 0.779743 10.7581 1.24191 9.01583C1.75741 7.09572 2.7173 5.38894 4.10381 3.9133ZM6.67071 15.4996C6.78231 15.6116 6.92075 15.6676 7.08601 15.6676C7.25126 15.6676 7.38988 15.6116 7.50187 15.4996C7.61347 15.388 7.66927 15.2495 7.66927 15.0842V13.9175H18.1681V15.0842C18.1681 15.2495 18.2241 15.388 18.336 15.4996C18.4476 15.6116 18.5861 15.6676 18.7513 15.6676C18.9166 15.6676 19.0551 15.6116 19.1667 15.4996C19.2786 15.388 19.3346 15.2495 19.3346 15.0842V10.4173C19.3346 9.77559 19.1062 9.22625 18.6493 8.76928C18.1924 8.3123 17.6431 8.08382 17.0015 8.08382H13.5019C13.1811 8.08382 12.9066 8.19796 12.6784 8.42626C12.4497 8.65494 12.3354 8.92971 12.3354 9.25056V12.7508H7.66927V7.50045C7.66927 7.33516 7.61347 7.19651 7.50187 7.08451C7.38988 6.97289 7.25126 6.91709 7.08601 6.91709C6.92075 6.91709 6.78231 6.97289 6.67071 7.08451C6.55873 7.19651 6.50273 7.33516 6.50273 7.50045V15.0842C6.50273 15.2495 6.55873 15.388 6.67071 15.4996ZM8.76289 11.6569C9.10314 11.9972 9.51628 12.1674 10.0023 12.1674C10.4884 12.1674 10.9015 11.9972 11.2418 11.6569C11.582 11.3167 11.7521 10.9035 11.7521 10.4173C11.7521 9.93115 11.582 9.51793 11.2418 9.17763C10.9015 8.83733 10.4884 8.66719 10.0023 8.66719C9.51628 8.66719 9.10314 8.83733 8.76289 9.17763C8.42265 9.51793 8.25253 9.93115 8.25253 10.4173C8.25253 10.9035 8.42265 11.3167 8.76289 11.6569Z" fill="#F0438B"/>
</svg>
