<svg width="25" height="35" viewBox="0 0 25 35" fill="none" xmlns="http://www.w3.org/2000/svg">
<ellipse cx="12.9776" cy="11.0007" rx="9.99884" ry="10.0006" fill="white"/>
<path d="M4.02336 3.9133C5.92536 1.86873 7.7207 0.83756 10.4404 0.197521C11.9513 -0.158056 14.8843 -0.0158271 16.4841 0.481981C18.4928 1.10424 19.8793 1.97541 21.5502 3.6644C23.9677 6.1001 24.9809 8.55359 24.9987 12.0382C25.0165 14.3317 24.7677 15.3806 23.7189 17.5319C22.9545 19.1143 22.7234 19.3987 20.2171 21.8877C15.8976 26.1902 13.7644 29.8882 13.1423 34.1374C13.1079 34.3814 12.7561 34.3804 12.7157 34.1374C11.9691 29.6571 9.96044 26.1902 5.65872 21.9055C2.72573 18.9897 2.06803 18.0119 1.26812 15.4162C0.734851 13.7094 0.699299 10.7581 1.16146 9.01583C1.67696 7.09572 2.63685 5.38894 4.02336 3.9133ZM12.8382 5.16698C9.61683 5.16698 7.00556 7.77872 7.00556 11.0007C7.00556 14.2226 9.61683 16.8343 12.8382 16.8343C16.0596 16.8343 18.6709 14.2226 18.6709 11.0007C18.6709 7.77872 16.0596 5.16698 12.8382 5.16698ZM12.2195 7.75675C12.0555 7.92085 11.9633 8.14342 11.9633 8.37551V8.38134C11.9633 8.61342 12.0555 8.83599 12.2195 9.00009C12.3836 9.1642 12.6062 9.25639 12.8382 9.25639H12.844C13.0761 9.25639 13.2986 9.1642 13.4627 9.00009C13.6267 8.83599 13.7189 8.61342 13.7189 8.38134V8.37551C13.7189 8.14342 13.6267 7.92085 13.4627 7.75675C13.2986 7.59265 13.0761 7.50045 12.844 7.50045H12.8382C12.6062 7.50045 12.3836 7.59265 12.2195 7.75675ZM12.2195 10.3819C12.3836 10.2178 12.6062 10.1256 12.8382 10.1256H12.844C13.0761 10.1256 13.2986 10.2178 13.4627 10.3819C13.6267 10.546 13.7189 10.7685 13.7189 11.0007V11.0065C13.7189 11.2386 13.6267 11.4612 13.4627 11.6253C13.2986 11.7893 13.0761 11.8815 12.844 11.8815H12.8382C12.6062 11.8815 12.3836 11.7893 12.2195 11.6253C12.0555 11.4612 11.9633 11.2386 11.9633 11.0065V11.0007C11.9633 10.7685 12.0555 10.546 12.2195 10.3819ZM12.2195 13.0071C12.3836 12.843 12.6062 12.7508 12.8382 12.7508H12.844C13.0761 12.7508 13.2986 12.843 13.4627 13.0071C13.6267 13.1712 13.7189 13.3937 13.7189 13.6258V13.6316C13.7189 13.8637 13.6267 14.0864 13.4627 14.2505C13.2986 14.4145 13.0761 14.5067 12.844 14.5067H12.8382C12.6062 14.5067 12.3836 14.4145 12.2195 14.2505C12.0555 14.0864 11.9633 13.8637 11.9633 13.6316V13.6258C11.9633 13.3937 12.0555 13.1712 12.2195 13.0071Z" fill="#8F8D8D"/>
</svg>
