<svg width="26" height="35" viewBox="0 0 26 35" fill="none" xmlns="http://www.w3.org/2000/svg">
<ellipse cx="12.8785" cy="12.0007" rx="9.99885" ry="10.0006" fill="white"/>
<path d="M4.06365 3.9133C5.96565 1.86873 7.76099 0.83756 10.4807 0.197521C11.9916 -0.158056 14.9246 -0.015827 16.5244 0.481981C18.5331 1.10424 19.9196 1.9754 21.5905 3.66439C24.008 6.1001 25.0212 8.55358 25.039 12.0382C25.0568 14.3317 24.8079 15.3806 23.7592 17.5319C22.9948 19.1143 22.7638 19.3987 20.2574 21.8877C15.9379 26.1902 13.8047 29.8882 13.1826 34.1374C13.1482 34.3814 12.7965 34.3804 12.756 34.1374C12.0094 29.6571 10.0007 26.1902 5.69901 21.9055C2.76602 18.9897 2.10831 18.0119 1.3084 15.4162C0.775133 13.7094 0.739582 10.7582 1.20175 9.01584C1.71725 7.09572 2.67714 5.38895 4.06365 3.9133ZM12.4644 6.46204L8.3407 10.5864C6.97585 11.9574 6.97585 14.1684 8.3407 15.5392C9.70554 16.9043 11.9219 16.9043 13.2927 15.5392L17.4163 11.4149C18.7811 10.0439 18.7811 7.82712 17.4163 6.46204C16.0456 5.09696 13.8351 5.09696 12.4644 6.46204ZM8.56233 13.6666C8.35236 12.8908 8.5565 12.0215 9.16893 11.4149L13.2927 7.29043C14.2026 6.37454 15.6782 6.37454 16.5881 7.29043C17.5038 8.20049 17.5038 9.6764 16.5881 10.5864L14.5291 12.6516L12.0561 10.1781L8.56233 13.6666Z" fill="#BA272A"/>
</svg>
