<svg width="25" height="35" viewBox="0 0 25 35" fill="none" xmlns="http://www.w3.org/2000/svg">
<ellipse cx="12.4388" cy="12.0006" rx="9.99885" ry="10.0006" fill="white"/>
<path fill-rule="evenodd" clip-rule="evenodd" d="M3.6237 3.9133C5.52571 1.86873 7.32106 0.837559 10.0407 0.197521C11.5517 -0.158056 14.4847 -0.015827 16.0845 0.481981C18.0932 1.10424 19.4797 1.9754 21.1506 3.66439C23.5681 6.1001 24.5813 8.55358 24.5991 12.0382C24.6168 14.3317 24.368 15.3807 23.3192 17.5319C22.5549 19.1142 22.3238 19.3987 19.8174 21.8877C15.4979 26.1902 13.3648 29.8882 12.7427 34.1373C12.7083 34.3813 12.3565 34.3804 12.316 34.1373C11.5695 29.6571 9.5608 26.1902 5.25907 21.9055C2.32607 18.9898 1.66837 18.0119 0.868464 15.4162C0.335192 13.7094 0.29964 10.7582 0.761809 9.01583C1.27731 7.09571 2.2372 5.38894 3.6237 3.9133ZM6.723 18.067C6.723 18.2559 6.78412 18.4114 6.90634 18.5336C7.03967 18.667 7.19523 18.7336 7.373 18.7336C7.55078 18.7336 7.70634 18.667 7.83967 18.5336L12.4397 13.967L17.0397 18.5336C17.173 18.667 17.3286 18.7336 17.5063 18.7336C17.6841 18.7336 17.8397 18.667 17.973 18.5336C18.0952 18.4114 18.1563 18.2559 18.1563 18.067C18.1563 17.8781 18.0952 17.7225 17.973 17.6003L13.373 13.0003L14.2063 12.167C14.673 12.367 15.2008 12.3947 15.7897 12.2503C16.3786 12.1059 16.9063 11.7892 17.373 11.3003C17.9619 10.7114 18.3063 10.0559 18.4063 9.33363C18.5063 8.61141 18.3286 8.02252 17.873 7.56696C17.4174 7.11141 16.8286 6.93363 16.1063 7.03363C15.3841 7.13363 14.7286 7.47808 14.1397 8.06697C13.6508 8.53363 13.3341 9.06141 13.1897 9.6503C13.0452 10.2392 13.073 10.767 13.273 11.2336L6.90634 17.6003C6.78412 17.7225 6.723 17.8781 6.723 18.067ZM7.33967 11.3003L9.33967 13.3003L11.473 11.167L7.923 7.58363C7.75634 7.40585 7.56189 7.32808 7.33967 7.3503C7.11745 7.37252 6.95078 7.47808 6.83967 7.66696C6.50634 8.25585 6.38123 8.88363 6.46434 9.5503C6.54789 10.217 6.83967 10.8003 7.33967 11.3003Z" fill="#D97200"/>
</svg>
