<svg width="25" height="35" viewBox="0 0 25 35" fill="none" xmlns="http://www.w3.org/2000/svg">
<ellipse cx="12.1586" cy="12.0007" rx="7.99908" ry="8.00048" fill="white"/>
<path d="M3.3438 3.9133C5.2458 1.86873 7.04115 0.83756 9.76083 0.197521C11.2718 -0.158056 14.2047 -0.015827 15.8045 0.481981C17.8132 1.10424 19.1998 1.97541 20.8707 3.6644C23.2882 6.1001 24.3014 8.55359 24.3192 12.0382C24.337 14.3317 24.0881 15.3806 23.0393 17.5319C22.275 19.1143 22.0439 19.3987 19.5375 21.8877C15.218 26.1902 13.0849 29.8882 12.4627 34.1374C12.4283 34.3814 12.0767 34.3804 12.0362 34.1374C11.2896 29.6571 9.28089 26.1902 4.97916 21.9055C2.04617 18.9897 1.38846 18.0119 0.588556 15.4162C0.0552844 13.7094 0.0197325 10.7582 0.481903 9.01583C0.997398 7.09572 1.95729 5.38894 3.3438 3.9133ZM6.74886 10.6506C7.03078 10.9326 7.37588 11.0736 7.78416 11.0736C8.19244 11.0736 8.53754 10.9326 8.81946 10.6506C9.10137 10.3686 9.24232 10.0235 9.24232 9.61515C9.24232 9.2068 9.10137 8.86164 8.81946 8.57967C8.53754 8.29771 8.19244 8.15673 7.78416 8.15673C7.37588 8.15673 7.03078 8.29771 6.74886 8.57967C6.46695 8.86164 6.326 9.2068 6.326 9.61515C6.326 10.0235 6.46695 10.3686 6.74886 10.6506ZM9.37356 8.31715C9.65547 8.59912 10.0006 8.7401 10.4089 8.7401C10.8171 8.7401 11.1623 8.59912 11.4441 8.31715C11.7261 8.0352 11.867 7.69003 11.867 7.28168C11.867 6.87331 11.7261 6.52815 11.4441 6.2462C11.1623 5.96423 10.8171 5.82325 10.4089 5.82325C10.0006 5.82325 9.65547 5.96423 9.37356 6.2462C9.09165 6.52815 8.9507 6.87331 8.9507 7.28168C8.9507 7.69003 9.09165 8.0352 9.37356 8.31715ZM12.8732 8.31715C13.155 8.59912 13.5002 8.7401 13.9085 8.7401C14.3167 8.7401 14.6619 8.59912 14.9437 8.31715C15.2257 8.0352 15.3666 7.69003 15.3666 7.28168C15.3666 6.87331 15.2257 6.52815 14.9437 6.2462C14.6619 5.96423 14.3167 5.82325 13.9085 5.82325C13.5002 5.82325 13.155 5.96423 12.8732 6.2462C12.5912 6.52815 12.4503 6.87331 12.4503 7.28168C12.4503 7.69003 12.5912 8.0352 12.8732 8.31715ZM15.4979 10.6506C15.7797 10.9326 16.1249 11.0736 16.5332 11.0736C16.9414 11.0736 17.2866 10.9326 17.5684 10.6506C17.8504 10.3686 17.9913 10.0235 17.9913 9.61515C17.9913 9.2068 17.8504 8.86164 17.5684 8.57967C17.2866 8.29771 16.9414 8.15673 16.5332 8.15673C16.1249 8.15673 15.7797 8.29771 15.4979 8.57967C15.2159 8.86164 15.075 9.2068 15.075 9.61515C15.075 10.0235 15.2159 10.3686 15.4979 10.6506ZM7.93756 16.4038C8.23386 16.7394 8.60074 16.9072 9.03819 16.9072C9.56313 16.9072 10.0832 16.8635 10.5984 16.776C11.1137 16.6885 11.6337 16.6447 12.1587 16.6447C12.6836 16.6447 13.2036 16.6885 13.7189 16.776C14.2341 16.8635 14.7542 16.9072 15.2791 16.9072C15.7165 16.9072 16.0836 16.7394 16.3804 16.4038C16.6766 16.0686 16.8248 15.6724 16.8248 15.2155C16.8248 14.7099 16.6523 14.2676 16.3075 13.8883C15.9621 13.5091 15.6194 13.1348 15.2791 12.7654C14.9972 12.4543 14.7517 12.1187 14.5425 11.759C14.3337 11.3993 14.0931 11.0639 13.821 10.7527C13.6071 10.4999 13.3592 10.2957 13.0773 10.1402C12.7954 9.98461 12.4892 9.90684 12.1587 9.90684C11.8281 9.90684 11.5219 9.98947 11.2401 10.1548C10.9581 10.32 10.7102 10.5291 10.4963 10.7819C10.2145 11.093 9.97141 11.4259 9.76726 11.7806C9.56313 12.1357 9.32009 12.464 9.03819 12.7654C8.69795 13.1348 8.35537 13.5091 8.01046 13.8883C7.66517 14.2676 7.49252 14.7099 7.49252 15.2155C7.49252 15.6724 7.64087 16.0686 7.93756 16.4038Z" fill="#BA272A"/>
</svg>
